<svg xmlns="http://www.w3.org/2000/svg" width="95.697" height="25.524" viewBox="0 0 95.697 25.524"><g transform="translate(-332.195 -507.875)"><path d="M66.365,36.743a5.071,5.071,0,0,1,2.416-4.255,5.2,5.2,0,0,0-4.092-2.211c-1.721-.181-3.391,1.03-4.267,1.03-.894,0-2.244-1.012-3.7-.982a5.448,5.448,0,0,0-4.585,2.8c-1.983,3.432-.5,8.475,1.4,11.249.95,1.359,2.061,2.875,3.514,2.822,1.422-.058,1.953-.905,3.669-.905,1.7,0,2.2.905,3.681.871,1.526-.024,2.487-1.365,3.4-2.735a11.213,11.213,0,0,0,1.557-3.169A4.906,4.906,0,0,1,66.365,36.743Zm-2.8-8.291a4.99,4.99,0,0,0,1.143-3.577,5.086,5.086,0,0,0-3.288,1.7,4.749,4.749,0,0,0-1.173,3.445A4.2,4.2,0,0,0,63.565,28.452Z" transform="translate(281 483)" fill="#fff"/><g transform="translate(358.129 518.181)"><path d="M179.642,83.83h-1.987l-1.089-3.42h-3.784l-1.037,3.42h-1.935l3.749-11.642h2.315Zm-3.4-4.854-.984-3.04q-.156-.466-.587-2.193h-.035q-.173.743-.553,2.193l-.968,3.04Zm13.027.554a4.753,4.753,0,0,1-1.164,3.385,3.413,3.413,0,0,1-2.588,1.106,2.591,2.591,0,0,1-2.4-1.191v4.4h-1.866V78.194q0-1.345-.069-2.759h1.641l.1,1.331h.035a3.319,3.319,0,0,1,5.312-.33A4.641,4.641,0,0,1,189.266,79.529Zm-1.9.068a3.46,3.46,0,0,0-.553-2.022,1.911,1.911,0,0,0-1.624-.828,1.94,1.94,0,0,0-1.252.458,2.122,2.122,0,0,0-.734,1.2,2.435,2.435,0,0,0-.087.568v1.4a2.245,2.245,0,0,0,.562,1.547,1.865,1.865,0,0,0,1.46.631,1.912,1.912,0,0,0,1.641-.812A3.572,3.572,0,0,0,187.365,79.6Zm11.558-.068a4.753,4.753,0,0,1-1.164,3.385,3.414,3.414,0,0,1-2.589,1.106,2.591,2.591,0,0,1-2.4-1.191v4.4h-1.866V78.194q0-1.345-.069-2.759h1.641l.1,1.331h.035a3.32,3.32,0,0,1,5.313-.33,4.646,4.646,0,0,1,.992,3.093Zm-1.9.068a3.46,3.46,0,0,0-.554-2.022,1.908,1.908,0,0,0-1.622-.828,1.948,1.948,0,0,0-1.254.458,2.121,2.121,0,0,0-.733,1.2,2.491,2.491,0,0,0-.087.568v1.4a2.253,2.253,0,0,0,.561,1.547,1.869,1.869,0,0,0,1.461.631,1.91,1.91,0,0,0,1.641-.812A3.572,3.572,0,0,0,197.022,79.6Zm12.7.967a3.109,3.109,0,0,1-1.035,2.419A4.589,4.589,0,0,1,205.514,84a5.538,5.538,0,0,1-3.015-.725l.431-1.554a5.191,5.191,0,0,0,2.7.726,2.543,2.543,0,0,0,1.641-.475,1.551,1.551,0,0,0,.589-1.268,1.625,1.625,0,0,0-.485-1.192,4.494,4.494,0,0,0-1.607-.9q-3.058-1.14-3.059-3.335a2.944,2.944,0,0,1,1.08-2.349,4.27,4.27,0,0,1,2.86-.916,5.652,5.652,0,0,1,2.643.553l-.468,1.52a4.623,4.623,0,0,0-2.237-.535,2.276,2.276,0,0,0-1.544.484,1.384,1.384,0,0,0-.468,1.055,1.426,1.426,0,0,0,.536,1.14,6.043,6.043,0,0,0,1.692.9,5.737,5.737,0,0,1,2.211,1.415,2.95,2.95,0,0,1,.711,2.019Zm6.184-3.729h-2.056v4.076q0,1.555,1.089,1.554a3.278,3.278,0,0,0,.829-.087l.052,1.416a4.228,4.228,0,0,1-1.451.206,2.236,2.236,0,0,1-1.728-.674,3.307,3.307,0,0,1-.622-2.263V76.831h-1.225v-1.4h1.225V73.895l1.832-.553v2.09H215.9Zm9.259,2.728a4.6,4.6,0,0,1-1.106,3.178,3.943,3.943,0,0,1-3.075,1.278,3.759,3.759,0,0,1-2.946-1.225,4.464,4.464,0,0,1-1.1-3.091,4.567,4.567,0,0,1,1.131-3.195,3.922,3.922,0,0,1,3.05-1.244,3.837,3.837,0,0,1,2.971,1.226,4.406,4.406,0,0,1,1.072,3.072Zm-1.934.043a3.758,3.758,0,0,0-.5-1.98,1.847,1.847,0,0,0-1.677-1,1.873,1.873,0,0,0-1.711,1,3.82,3.82,0,0,0-.5,2.015,3.747,3.747,0,0,0,.5,1.981,1.913,1.913,0,0,0,3.371-.017,3.773,3.773,0,0,0,.515-2Zm8-2.531a3.247,3.247,0,0,0-.588-.052,1.761,1.761,0,0,0-1.521.744,2.8,2.8,0,0,0-.466,1.658v4.4h-1.866V78.079q0-1.322-.054-2.643h1.625l.068,1.606h.052a2.88,2.88,0,0,1,.933-1.331,2.256,2.256,0,0,1,1.348-.45,3,3,0,0,1,.466.034l0,1.779Zm8.343,2.16a4.374,4.374,0,0,1-.068.846h-5.6a2.434,2.434,0,0,0,.812,1.9,2.777,2.777,0,0,0,1.831.586,6.191,6.191,0,0,0,2.265-.4l.292,1.294a7,7,0,0,1-2.815.519,4.081,4.081,0,0,1-3.068-1.148,4.243,4.243,0,0,1-1.114-3.083,4.807,4.807,0,0,1,1.038-3.16,3.576,3.576,0,0,1,2.936-1.346,3.129,3.129,0,0,1,2.748,1.346A4.53,4.53,0,0,1,239.574,79.235Zm-1.779-.484a2.525,2.525,0,0,0-.362-1.434,1.629,1.629,0,0,0-1.486-.779,1.769,1.769,0,0,0-1.485.76,2.785,2.785,0,0,0-.552,1.45Z" transform="translate(-169.812 -72.016)" fill="#fff"/></g><g transform="translate(359.221 508.169)"><path d="M176.148,32.288a11.915,11.915,0,0,1-1.341-.068V26.592a10.158,10.158,0,0,1,1.579-.119c2.139,0,3.125,1.052,3.125,2.768C179.51,31.219,178.347,32.288,176.148,32.288Zm.313-5.094a3.744,3.744,0,0,0-.739.059v4.279a4.843,4.843,0,0,0,.62.025,2.027,2.027,0,0,0,2.2-2.292A1.867,1.867,0,0,0,176.461,27.195Zm6.12,5.137a1.964,1.964,0,0,1-1.987-2.122,2.009,2.009,0,0,1,2.055-2.182,1.948,1.948,0,0,1,1.987,2.114A2.021,2.021,0,0,1,182.581,32.331Zm.035-3.634c-.662,0-1.087.619-1.087,1.485,0,.849.433,1.469,1.078,1.469s1.078-.662,1.078-1.486C183.685,29.326,183.261,28.7,182.616,28.7Zm8.9-.585-1.291,4.125h-.841l-.535-1.792a13.582,13.582,0,0,1-.332-1.332H188.5a8.93,8.93,0,0,1-.331,1.332l-.569,1.792h-.85l-1.215-4.125h.942l.467,1.961q.165.7.28,1.324h.018c.067-.347.178-.781.34-1.316l.586-1.969h.747l.561,1.927c.136.467.246.926.332,1.359h.024a11.872,11.872,0,0,1,.28-1.359l.5-1.927Zm4.751,4.125h-.917V29.869c0-.73-.28-1.1-.832-1.1a.952.952,0,0,0-.917,1.01v2.454h-.917V29.291c0-.365-.009-.756-.034-1.18h.807l.043.637h.025a1.482,1.482,0,0,1,1.308-.721c.866,0,1.435.662,1.435,1.74v2.47Zm2.529,0h-.918V26.219h.918Zm3.343.094a1.964,1.964,0,0,1-1.987-2.122,2.009,2.009,0,0,1,2.055-2.182,1.948,1.948,0,0,1,1.987,2.114A2.021,2.021,0,0,1,202.136,32.331Zm.034-3.634c-.662,0-1.087.619-1.087,1.485,0,.849.434,1.469,1.077,1.469s1.078-.662,1.078-1.486C203.239,29.326,202.816,28.7,202.17,28.7Zm5.636,3.54-.066-.475h-.025a1.409,1.409,0,0,1-1.207.569,1.2,1.2,0,0,1-1.264-1.214c0-1.018.883-1.545,2.412-1.545V29.5c0-.543-.288-.815-.857-.815a1.931,1.931,0,0,0-1.078.306l-.186-.6a2.638,2.638,0,0,1,1.417-.357c1.078,0,1.622.569,1.622,1.707v1.519a6.228,6.228,0,0,0,.06.985h-.827Zm-.126-2.055c-1.019,0-1.53.247-1.53.832a.585.585,0,0,0,.629.645.878.878,0,0,0,.9-.84Zm5.346,2.055-.043-.662h-.025a1.383,1.383,0,0,1-1.325.756,1.88,1.88,0,0,1-1.732-2.106,1.958,1.958,0,0,1,1.807-2.2,1.24,1.24,0,0,1,1.164.561h.018V26.219h.918v4.907c0,.4.01.772.034,1.112h-.816Zm-.136-2.428a1,1,0,0,0-.966-1.07c-.68,0-1.1.6-1.1,1.451,0,.832.431,1.4,1.077,1.4a1.03,1.03,0,0,0,.984-1.1V29.81Zm6.738,2.521a1.964,1.964,0,0,1-1.986-2.122,2.009,2.009,0,0,1,2.055-2.182,1.948,1.948,0,0,1,1.987,2.114A2.02,2.02,0,0,1,219.628,32.331Zm.034-3.634c-.661,0-1.086.619-1.086,1.485,0,.849.433,1.469,1.077,1.469s1.078-.662,1.078-1.486C220.733,29.326,220.309,28.7,219.662,28.7Zm6.953,3.54H225.7V29.869c0-.73-.28-1.1-.832-1.1a.952.952,0,0,0-.916,1.01v2.454h-.918V29.291c0-.365-.009-.756-.034-1.18h.807l.043.637h.025a1.482,1.482,0,0,1,1.307-.722c.866,0,1.436.662,1.436,1.74Zm6.17-3.438h-1.009v2c0,.51.177.765.534.765a1.806,1.806,0,0,0,.407-.043l.025.7a2.032,2.032,0,0,1-.711.1c-.723,0-1.155-.4-1.155-1.443V28.8h-.6v-.688h.6v-.756l.9-.272v1.027h1.009Zm4.855,3.438h-.916V29.886c0-.738-.279-1.112-.832-1.112a.9.9,0,0,0-.918.976v2.487h-.916V26.219h.916V28.7h.018a1.391,1.391,0,0,1,1.241-.671c.873,0,1.407.679,1.407,1.757Zm4.974-1.842h-2.752a1.184,1.184,0,0,0,1.3,1.222,3.1,3.1,0,0,0,1.112-.2l.143.637a3.446,3.446,0,0,1-1.384.255,1.915,1.915,0,0,1-2.055-2.079,2.015,2.015,0,0,1,1.951-2.216,1.733,1.733,0,0,1,1.716,1.961,1.767,1.767,0,0,1-.031.416Zm-.841-.653c0-.637-.321-1.086-.907-1.086a1.088,1.088,0,0,0-1,1.086h1.91Z" transform="translate(-174.806 -26.219)" fill="#fff"/></g></g></svg>