<?xml version="1.0" encoding="UTF-8" standalone="no"?>
<svg
   xmlns:dc="http://purl.org/dc/elements/1.1/"
   xmlns:cc="http://creativecommons.org/ns#"
   xmlns:rdf="http://www.w3.org/1999/02/22-rdf-syntax-ns#"
   xmlns:svg="http://www.w3.org/2000/svg"
   xmlns="http://www.w3.org/2000/svg"
   xmlns:sodipodi="http://sodipodi.sourceforge.net/DTD/sodipodi-0.dtd"
   xmlns:inkscape="http://www.inkscape.org/namespaces/inkscape"
   version="1.1"
   id="svg2"
   xml:space="preserve"
   width="4133.3335"
   height="2666.6667"
   viewBox="0 0 4133.3335 2666.6667"
   sodipodi:docname="5845.eps"><metadata
     id="metadata8"><rdf:RDF><cc:Work
         rdf:about=""><dc:format>image/svg+xml</dc:format><dc:type
           rdf:resource="http://purl.org/dc/dcmitype/StillImage" /></cc:Work></rdf:RDF></metadata><defs
     id="defs6" /><sodipodi:namedview
     bordercolor="#666666"
     borderopacity="1"
     objecttolerance="10"
     gridtolerance="10"
     guidetolerance="10"
     inkscape:pageopacity="0"
     inkscape:pageshadow="2"
     inkscape:window-width="640"
     inkscape:window-height="480"
     id="namedview4" /><g
     id="g10"
     inkscape:groupmode="layer"
     inkscape:label="ink_ext_XXXXXX"
     transform="matrix(1.3333333,0,0,-1.3333333,0,2666.6667)"><g
       id="g12"
       transform="scale(0.1)"><path
         d="M 27142,1461.3 H 2277.46 c -99.85,0 -180.79,80.9 -180.79,180.8 v 25.4 c 0,99.8 80.94,180.8 180.79,180.8 H 27142 c 99.9,0 180.8,-81 180.8,-180.8 v -25.4 c 0,-99.9 -80.9,-180.8 -180.8,-180.8"
         style="fill:#95a6db;fill-opacity:1;fill-rule:nonzero;stroke:none"
         id="path18" /><path
         d="m 28677.1,6598 c 0,0 152.3,-464.6 -359,-1142.6 -521.1,-690.7 -552.9,-1236 -552.9,-1236 L 27366,3992.9 c 0,0 88.8,821.6 534,1356.7 558,669.2 777.1,1248.4 777.1,1248.4"
         style="fill:#95a6db;fill-opacity:1;fill-rule:nonzero;stroke:none"
         id="path20" /><path
         d="m 29648.7,6169.2 c 0,0 -4,-360.4 -513.2,-766 -519.9,-412.7 -667.7,-801.9 -667.7,-801.9 l -329.7,-173.9 c 0,0 254,654.8 685.4,967.9 539.1,392.1 825.2,773.9 825.2,773.9"
         style="fill:#95a6db;fill-opacity:1;fill-rule:nonzero;stroke:none"
         id="path22" /><path
         d="m 27779,5942.4 c 0,0 -353.7,-156.9 -721,-996.5 -299.4,-684.2 -208.1,-1090 -394.2,-1508.8 l 533.2,391.6 c 86.7,305.8 -73.8,549.2 167.7,1182.8 225.9,593.3 414.3,930.9 414.3,930.9"
         style="fill:#95a6db;fill-opacity:1;fill-rule:nonzero;stroke:none"
         id="path24" /><path
         d="m 24470.5,3829.2 c 0,0 -206.5,-328.5 -43.1,-1229.4 132.9,-735.1 472.3,-894.8 510.7,-1065.9 l 220.2,315.8 c -138.6,305.2 -360.1,314.5 -513,975.1 -142.8,619.8 -174.8,1004.4 -174.8,1004.4"
         style="fill:#95a6db;fill-opacity:1;fill-rule:nonzero;stroke:none"
         id="path26" /><path
         d="m 26946,5534.6 c 0,0 -334,-578.4 -459.2,-964.2 -179.2,-547.9 -15.3,-891.5 -158.1,-1464.4 l -382.9,-316.4 c 0,0 -156,660.1 92.1,1327.5 416.1,1119.8 908.1,1417.5 908.1,1417.5"
         style="fill:#95a6db;fill-opacity:1;fill-rule:nonzero;stroke:none"
         id="path28" /><path
         d="m 25816.1,5452 c -8.4,-374.6 -71.5,-746 -187.4,-1102.3 -358.9,-1077.3 62.3,-2028 62.3,-2028 l -273.8,-176 c 0,0 -601.2,722 -274.4,1618.3 346.5,946.8 673.3,1688 673.3,1688"
         style="fill:#95a6db;fill-opacity:1;fill-rule:nonzero;stroke:none"
         id="path30" /><path
         d="m 27158,3754.9 c 0,0 278.9,41.4 1335.7,-309.1 677.2,-224.9 525.6,78.1 1142.3,-248.9 -507.5,53.8 -748.9,-277.1 -1390.8,-104.6 -513.4,138.4 -1036.8,236.3 -1565.4,292.9 l 478.2,369.7"
         style="fill:#95a6db;fill-opacity:1;fill-rule:nonzero;stroke:none"
         id="path32" /><path
         d="m 29121.9,2638 c 0,0 -530.7,-452.3 -1478.7,-195.1 -583.8,156.9 -1189.4,216.7 -1792.7,177 l 385.1,427.5 c 0,0 455,211.1 1415.1,-151.1 659.6,-248.6 1471.2,-258.3 1471.2,-258.3"
         style="fill:#95a6db;fill-opacity:1;fill-rule:nonzero;stroke:none"
         id="path34" /><path
         d="m 28369.5,1836.6 c 0,0 -530.7,-452.3 -1478.7,-195.1 -583.8,156.9 -1189.4,216.7 -1792.7,177 l 385.1,427.5 c 0,0 455,211.1 1415.1,-151.1 659.6,-248.6 1471.2,-258.3 1471.2,-258.3"
         style="fill:#95a6db;fill-opacity:1;fill-rule:nonzero;stroke:none"
         id="path36" /><path
         d="m 30146.4,4265 c 0,0 -361.3,-217.8 -954.3,-32.7 -601.3,188 -1079.1,144.3 -1079.1,144.3 l 208.4,147 c 0,0 287.6,133.5 894.5,-95.2 417.4,-157.2 930.5,-163.4 930.5,-163.4"
         style="fill:#95a6db;fill-opacity:1;fill-rule:nonzero;stroke:none"
         id="path38" /><path
         d="m 27794.2,4131.3 c 0,0 482.7,-44.8 1166.3,-242.4 431.7,-123.4 1067.3,26.5 1067.3,26.5 0,0 -573.4,-540.6 -1210.8,-315.1 -730.8,258.9 -1494.2,303.1 -1494.2,303.1 l 471.4,227.9"
         style="fill:#95a6db;fill-opacity:1;fill-rule:nonzero;stroke:none"
         id="path40" /><path
         d="m 28261.2,4460 c 0,0 514,539.6 1198,532.5 405.5,-0.7 808.2,66.2 1191.6,198.1 0,0 -489.9,-564.9 -1117,-490.7 -579.2,66.9 -1048.7,-231.9 -1048.7,-231.9 l -223.9,-8"
         style="fill:#95a6db;fill-opacity:1;fill-rule:nonzero;stroke:none"
         id="path42" /><path
         d="m 24989.2,1512.3 -91,60.8 c 375.2,561.3 1915.1,2321.8 3556.8,3028.2 l 43.3,-100.6 c -1619,-696.8 -3138.5,-2434.4 -3509.1,-2988.4"
         style="fill:#95a6db;fill-opacity:1;fill-rule:nonzero;stroke:none"
         id="path44" /><path
         d="m 5726.12,8270.9 c 0,0 -361.05,-341.8 -231.78,-1195.6 131.91,-869.9 -103.45,-1373 -103.45,-1373 l 247.44,-395.6 c 0,0 318.08,777.7 178.84,1471.7 -175.36,868.5 -91.05,1492.5 -91.05,1492.5"
         style="fill:#95a6db;fill-opacity:1;fill-rule:nonzero;stroke:none"
         id="path46" /><path
         d="m 4649.64,8357.4 c 0,0 -170.75,-324.3 88.4,-933.3 265.31,-620.6 209.22,-1040.3 209.22,-1040.3 l 210.73,-314.9 c 0,0 89.59,708.4 -144.74,1197.2 -292.45,611.4 -363.61,1091.3 -363.61,1091.3"
         style="fill:#95a6db;fill-opacity:1;fill-rule:nonzero;stroke:none"
         id="path48" /><path
         d="m 6212.15,7250 c 0,0 240.41,-311.4 162.72,-1240 -63.2,-756.8 -341.29,-1075.6 -377.37,-1540.2 L 5710.05,5078 c 70.42,315.4 331.69,455.6 422.25,1139.1 84.98,639.8 79.85,1032.9 79.85,1032.9"
         style="fill:#95a6db;fill-opacity:1;fill-rule:nonzero;stroke:none"
         id="path50" /><path
         d="m 8148.8,3759.3 c 0,0 25.76,-393.6 -556.27,-1120.4 -474.5,-593 -855.35,-571.7 -972.44,-706.1 l -44.15,388.9 c 271.64,206 474.22,107 930.53,623.9 427.59,485.3 642.33,813.7 642.33,813.7"
         style="fill:#95a6db;fill-opacity:1;fill-rule:nonzero;stroke:none"
         id="path52" /><path
         d="m 6759.85,6482.3 c 0,0 18.86,-678.9 -55.71,-1084.5 C 6599.2,4821 6286.49,4593 6136.96,4011.6 l 189.35,-468.3 c 0,0 458.92,515 559.94,1231.8 169.61,1203 -126.4,1707.2 -126.4,1707.2"
         style="fill:#95a6db;fill-opacity:1;fill-rule:nonzero;stroke:none"
         id="path54" /><path
         d="M 7730.46,5861.8 C 7556.72,5522.7 7433.52,5160 7364.77,4785.2 7164.57,3648.1 6327.84,3001.6 6327.84,3001.6 l 159.75,-289.9 c 0,0 887.07,354.9 1028.38,1314.6 148.21,1014.4 214.49,1835.5 214.49,1835.5"
         style="fill:#95a6db;fill-opacity:1;fill-rule:nonzero;stroke:none"
         id="path56" /><path
         d="m 5709.19,4993.1 c 0,0 -229.44,172 -1344.17,369.8 -714.41,126.5 -432.27,324.2 -1142.02,330 479.9,-197.3 535.68,-610.1 1193.32,-766.4 526.05,-124.6 1041.54,-290.2 1541.71,-495.4 l -248.84,562"
         style="fill:#95a6db;fill-opacity:1;fill-rule:nonzero;stroke:none"
         id="path58" /><path
         d="m 3412.35,4944.4 c 0,0 255.82,-661.3 1228.17,-889.9 598.03,-142.2 1168.62,-381.7 1688.93,-709 l -137.55,568.6 c 0,0 -304.84,409 -1338.7,549.5 -710.28,96.8 -1440.85,480.8 -1440.85,480.8"
         style="fill:#95a6db;fill-opacity:1;fill-rule:nonzero;stroke:none"
         id="path60" /><path
         d="m 3697.56,3863.6 c 0,0 255.82,-661.3 1228.17,-889.9 598.03,-142.1 1168.62,-381.7 1688.93,-709 l -137.55,568.7 c 0,0 -304.84,408.9 -1338.7,549.5 -710.28,96.7 -1440.85,480.7 -1440.85,480.7"
         style="fill:#95a6db;fill-opacity:1;fill-rule:nonzero;stroke:none"
         id="path62" /><path
         d="m 3283.28,6895.2 c 0,0 217.79,-369.6 837.7,-491 628.71,-122.7 1034.85,-393 1034.85,-393 l -115.25,232.4 c 0,0 -192.66,258.4 -846.11,347.5 -449.31,61.5 -911.19,304.1 -911.19,304.1"
         style="fill:#95a6db;fill-opacity:1;fill-rule:nonzero;stroke:none"
         id="path64" /><path
         d="m 5322.38,5637.6 c 0,0 -453.45,193.5 -1160.48,347.5 -445.76,98.5 -941.7,540 -941.7,540 0,0 251.32,-760.9 930.47,-867.6 778.84,-122 1483.02,-451.8 1483.02,-451.8 l -311.31,431.9"
         style="fill:#95a6db;fill-opacity:1;fill-rule:nonzero;stroke:none"
         id="path66" /><path
         d="m 5063.64,6157.5 c 0,0 -198.55,731.3 -813.81,1055.9 -363,195.5 -690.81,450.2 -969.87,753.7 0,0 164.8,-742.3 761.61,-979.4 550.36,-220.3 825.79,-714.7 825.79,-714.7 l 196.28,-115.5"
         style="fill:#95a6db;fill-opacity:1;fill-rule:nonzero;stroke:none"
         id="path68" /><path
         d="m 6563.9,1938.2 110.81,10.3 c -63.97,683.5 -589.47,3003 -1716.02,4429.2 l -87.36,-69 C 5982.15,4902.2 6500.5,2612.9 6563.9,1938.2"
         style="fill:#95a6db;fill-opacity:1;fill-rule:nonzero;stroke:none"
         id="path70" /><path
         d="m 5163.7,2044.8 c -379.25,-242.3 -845.91,-246.1 -1399.97,-11.3 550.84,242.9 1017.49,246.7 1399.97,11.3"
         style="fill:#95a6db;fill-opacity:1;fill-rule:nonzero;stroke:none"
         id="path72" /><path
         d="m 4404.33,2469 c -375.19,-166 -796.06,-105 -1262.63,183 529.93,143.2 950.8,82.2 1262.63,-183"
         style="fill:#95a6db;fill-opacity:1;fill-rule:nonzero;stroke:none"
         id="path74" /><path
         d="m 3655.92,2929.1 c -375.75,-103.6 -762.72,12.6 -1160.92,348.3 517.94,61.4 904.91,-54.7 1160.92,-348.3"
         style="fill:#95a6db;fill-opacity:1;fill-rule:nonzero;stroke:none"
         id="path76" /><path
         d="m 2105.74,3956.7 c 439.09,-40.9 738.97,-205.3 899.61,-493.4 -330.11,-18.9 -629.98,145.6 -899.61,493.4"
         style="fill:#95a6db;fill-opacity:1;fill-rule:nonzero;stroke:none"
         id="path78" /><path
         d="m 1992.35,4544.6 c 355.65,-98.8 578.22,-278.5 667.7,-539.1 -274.04,32.9 -496.61,212.6 -667.7,539.1"
         style="fill:#95a6db;fill-opacity:1;fill-rule:nonzero;stroke:none"
         id="path80" /><path
         d="m 2706.23,4290.6 c -244.11,128.6 -387.69,376.2 -430.76,742.6 296.79,-219.8 440.38,-467.4 430.76,-742.6"
         style="fill:#95a6db;fill-opacity:1;fill-rule:nonzero;stroke:none"
         id="path82" /><path
         d="m 4735.34,3470.1 c 433,-425.8 609.58,-862.2 529.74,-1309.4 -367.19,265.5 -543.77,701.9 -529.74,1309.4"
         style="fill:#95a6db;fill-opacity:1;fill-rule:nonzero;stroke:none"
         id="path84" /><path
         d="m 3950.32,2958.6 c -208.9,306.9 -222.89,692 -41.96,1155.3 213.36,-448.4 227.34,-833.5 41.96,-1155.3"
         style="fill:#95a6db;fill-opacity:1;fill-rule:nonzero;stroke:none"
         id="path86" /><path
         d="m 3438.76,4362.9 c 186.05,-390.2 198.24,-725.2 36.56,-1005.2 -181.99,266.9 -194.17,601.9 -36.56,1005.2"
         style="fill:#95a6db;fill-opacity:1;fill-rule:nonzero;stroke:none"
         id="path88" /><path
         d="m 3076.93,3850.2 c -181.28,267 -193.46,602.1 -36.56,1005.1 186.03,-390.3 198.22,-725.4 36.56,-1005.1"
         style="fill:#95a6db;fill-opacity:1;fill-rule:nonzero;stroke:none"
         id="path90" /><path
         d="m 6037.14,1808.7 c -1018.26,349.6 -931.19,368.8 -1511.25,680.9 -156.79,84.2 -304.64,172 -443.56,263.4 -282.24,190.8 -542.95,411.7 -777.57,658.8 -280.86,284 -460.13,523.7 -537.8,719.3 l -18.74,19.8 c -7.36,3.5 -11.12,11.8 -8.93,19.6 -2.59,7.6 -1.91,15.9 1.86,23 6.03,5.8 13.35,10.1 21.35,12.6 7.59,2.6 15.91,1.9 22.99,-1.8 l 15.11,-8.3 c 5.72,-6.1 10.14,-13.4 12.99,-21.3 l 3.83,-0.3 5.24,-17.6 c 80.04,-189.5 255.56,-422.2 526.56,-698.1 233.79,-242.9 493.48,-459.5 774.4,-645.9 140.21,-95.1 285.22,-182.9 434.47,-263 l 38.99,-20.7 c -292.18,285.6 -391.57,698.3 -298.17,1238.1 329.24,-437.2 428.63,-849.9 298.17,-1238.1 571.67,-303.3 467.68,-313.5 1460.5,-654.1 l -20.44,-66.3"
         style="fill:#95a6db;fill-opacity:1;fill-rule:nonzero;stroke:none"
         id="path92" /><path
         d="m 23590.5,2964.7 c -468.7,357.8 -683.2,930.4 -643.3,1717.9 546.6,-568.8 761,-1141.4 643.3,-1717.9"
         style="fill:#95a6db;fill-opacity:1;fill-rule:nonzero;stroke:none"
         id="path94" /><path
         d="m 23681.7,2059.3 c -573.8,135.9 -1002.8,571.6 -1287,1307.1 730.8,-296.9 1159.8,-732.6 1287,-1307.1"
         style="fill:#95a6db;fill-opacity:1;fill-rule:nonzero;stroke:none"
         id="path96" /><path
         d="m 23771.1,4089.9 c -372.9,387.2 -487,932.6 -342.3,1636.2 414.4,-587.8 528.6,-1133.2 342.3,-1636.2"
         style="fill:#95a6db;fill-opacity:1;fill-rule:nonzero;stroke:none"
         id="path98" /><path
         d="m 24001,5217.9 c -296.4,415.8 -327.5,944.3 -93.2,1585.3 308.4,-609.8 339.5,-1138.3 93.2,-1585.3"
         style="fill:#95a6db;fill-opacity:1;fill-rule:nonzero;stroke:none"
         id="path100" /><path
         d="m 24568.8,7587.6 c 147.1,-558.8 79.5,-1001.7 -202.8,-1328.9 -171.7,397.7 -104.1,840.7 202.8,1328.9"
         style="fill:#95a6db;fill-opacity:1;fill-rule:nonzero;stroke:none"
         id="path102" /><path
         d="m 25241.4,7991.5 c 38.2,-482.2 -82.9,-836.9 -363.4,-1064.1 -82.7,352 38.4,706.7 363.4,1064.1"
         style="fill:#95a6db;fill-opacity:1;fill-rule:nonzero;stroke:none"
         id="path104" /><path
         d="m 25249.7,6998.7 c 48.6,358.2 288.6,646.2 720.2,864 -137.1,-464.1 -377.2,-752.1 -720.2,-864"
         style="fill:#95a6db;fill-opacity:1;fill-rule:nonzero;stroke:none"
         id="path106" /><path
         d="m 25152,4132.6 c -329.3,-724.3 -787.1,-1137.8 -1373.3,-1240.6 161.7,571.3 619.4,984.8 1373.3,1240.6"
         style="fill:#95a6db;fill-opacity:1;fill-rule:nonzero;stroke:none"
         id="path108" /><path
         d="m 24169.6,4868.8 c 283.8,395 751.5,585.4 1403,571 -456,-464.2 -923.6,-654.5 -1403,-571"
         style="fill:#95a6db;fill-opacity:1;fill-rule:nonzero;stroke:none"
         id="path110" /><path
         d="m 25667.9,6129.6 c -396.5,-404.3 -803.4,-569.9 -1220.6,-496.8 246.6,343.9 653.5,509.5 1220.6,496.8"
         style="fill:#95a6db;fill-opacity:1;fill-rule:nonzero;stroke:none"
         id="path112" /><path
         d="m 24874.3,6344.5 c 247.1,343.1 654,508.7 1220.6,496.8 -396.8,-404.4 -803.7,-570 -1220.6,-496.8"
         style="fill:#95a6db;fill-opacity:1;fill-rule:nonzero;stroke:none"
         id="path114" /><path
         d="m 23752.7,1923.7 c -27.5,1410.3 -24.9,1171.7 98.5,2025.9 33.2,230.8 74.7,452.3 124.8,664.3 107.9,433.2 262.6,853.3 461.2,1253.1 223.2,473.3 437.7,801.7 643.5,985.3 l 15.9,31.9 c 1,10.6 9.5,19 20.1,19.8 8.2,6.6 18.7,9.5 29.2,8.1 9.8,-4.9 18.5,-11.9 25.1,-20.6 6.6,-8.2 9.5,-18.8 8.1,-29.2 l -3.4,-22.3 c -5,-9.8 -12,-18.5 -20.5,-25.6 l 1.4,-4.8 -19.3,-14.4 c -197.2,-183.6 -404.7,-504.3 -622.5,-961.8 -193.8,-397 -343.6,-813.9 -446.7,-1243.4 -54,-215.3 -96.9,-433.3 -128.4,-653 l -7.9,-57.3 c 220.1,488 683.4,795.9 1389.7,923.6 -390.1,-601.8 -853.3,-909.6 -1389.7,-923.6 -116.2,-839.8 -175.6,-716.5 -148.4,-2091.4 l -30.7,135.4"
         style="fill:#95a6db;fill-opacity:1;fill-rule:nonzero;stroke:none"
         id="path116" /><path
         d="m 14140.6,2830.9 c -227.6,-607.9 -577,-970.3 -1048.2,-1087.2 100.7,476.1 450.1,838.6 1048.2,1087.2"
         style="fill:#95a6db;fill-opacity:1;fill-rule:nonzero;stroke:none"
         id="path118" /><path
         d="m 21794.6,2845 c 552.6,-340.6 840.8,-753.3 864.7,-1238.2 -447.8,190.6 -736.1,603.3 -864.7,1238.2"
         style="fill:#95a6db;fill-opacity:1;fill-rule:nonzero;stroke:none"
         id="path120" /><path
         d="m 18918.8,2646.3 c 265.3,-592.4 542,-800 1019.6,-887.2 -130.4,468.9 -319.9,740.8 -1019.6,887.2"
         style="fill:#95a6db;fill-opacity:1;fill-rule:nonzero;stroke:none"
         id="path122" /><path
         d="m 13241.4,3017.2 c 173.7,-625.4 151.3,-911.7 -160.8,-1283.5 -198.9,444.2 -176.5,730.5 160.8,1283.5"
         style="fill:#95a6db;fill-opacity:1;fill-rule:nonzero;stroke:none"
         id="path124" /><path
         d="m 27496.6,8627.9 c 209.7,-209.6 209.7,-549.6 0,-759.2 -209.6,-209.7 -549.6,-209.7 -759.2,0 -209.7,209.6 -209.7,549.6 0,759.2 209.6,209.7 549.6,209.7 759.2,0"
         style="fill:#ffffff;fill-opacity:1;fill-rule:nonzero;stroke:none"
         id="path126" /><path
         d="m 27966.1,9666.5 c -109.1,0 -218.2,-41.7 -301.5,-124.9 -166.4,-166.5 -166.4,-436.4 0,-602.8 83.3,-83.3 192.4,-124.9 301.5,-124.9 109.1,0 218.2,41.6 301.4,124.9 166.5,166.4 166.5,436.3 0,602.8 -83.2,83.2 -192.3,124.9 -301.4,124.9 z m 0,-135 c 77.8,0 150.9,-30.3 205.9,-85.3 55.1,-55.1 85.4,-128.2 85.4,-206 0,-77.8 -30.3,-151 -85.4,-206 -55,-55 -128.1,-85.3 -205.9,-85.3 -77.8,0 -151,30.3 -206,85.3 -55,55 -85.3,128.2 -85.3,206 0,77.8 30.3,150.9 85.3,206 55,55 128.2,85.3 206,85.3 v 0"
         style="fill:#ffffff;fill-opacity:1;fill-rule:nonzero;stroke:none"
         id="path128" /><path
         d="m 3354.01,12195.4 c 209.66,-209.6 209.66,-549.6 0,-759.2 -209.66,-209.7 -549.59,-209.7 -759.26,0 -209.66,209.6 -209.66,549.6 0,759.2 209.67,209.7 549.6,209.7 759.26,0"
         style="fill:#dee6ff;fill-opacity:1;fill-rule:nonzero;stroke:none"
         id="path130" /><path
         d="m 20670.1,16524.6 c -0.5,-181.4 -148,-328.2 -329.5,-327.7 -181.5,0.5 -328.2,148 -327.7,329.5 0.5,181.5 148,328.2 329.5,327.7 181.4,-0.5 328.2,-148 327.7,-329.5"
         style="fill:#ffffff;fill-opacity:1;fill-rule:nonzero;stroke:none"
         id="path132" /><path
         d="m 18946.4,16486.1 c -0.5,-181.5 -148,-328.2 -329.5,-327.7 -181.5,0.5 -328.2,148 -327.7,329.4 0.5,181.5 148,328.2 329.5,327.8 181.5,-0.5 328.2,-148 327.7,-329.5"
         style="fill:#ffffff;fill-opacity:1;fill-rule:nonzero;stroke:none"
         id="path134" /><path
         d="m 18946.4,16003.1 c -0.7,-246.6 -201.1,-446 -447.7,-445.3 -246.6,0.6 -445.9,201.1 -445.3,447.6 0.7,246.6 201.1,446 447.7,445.3 246.6,-0.6 445.9,-201.1 445.3,-447.6"
         style="fill:#ffffff;fill-opacity:1;fill-rule:nonzero;stroke:none"
         id="path136" /><path
         d="m 15063.3,15569.9 c 36.6,-203.3 120.8,-503.4 224.7,-477 166.9,42.5 112.2,190.1 232.5,237.4 106.7,41.9 191.1,-252.7 -129.8,-636.5 l 41,-70.1 -369.6,-268.2 -29.4,75.7 c -313,139.5 -584.5,729.5 -491.8,1159 93.8,434.9 473.6,250.9 522.4,-20.3"
         style="fill:#de623c;fill-opacity:1;fill-rule:nonzero;stroke:none"
         id="path138" /><path
         d="m 19680.1,13357.2 c -131.3,-794.2 -1099.7,-1069.5 -2948.1,-1295.3 -486.9,604.1 21.6,1080.5 21.6,1080.5 0,0 1023.1,503.2 1446.9,685 1017.3,436.2 1542.9,-87.2 1479.6,-470.2"
         style="fill:#0e6a41;fill-opacity:1;fill-rule:nonzero;stroke:none"
         id="path140" /><path
         d="m 15466.6,14719 1287,-1576.6 c 0,0 447.7,-357.9 -67.7,-1078.6 -442.4,83.5 -1189.2,505.8 -1730,2205.3 38.2,272.7 510.7,449.9 510.7,449.9"
         style="fill:#0e6a41;fill-opacity:1;fill-rule:nonzero;stroke:none"
         id="path142" /><path
         d="m 19881.5,2883.5 -46.9,-452.9 -784.5,-227.4 26.4,602.6 805,77.7"
         style="fill:#f37a50;fill-opacity:1;fill-rule:nonzero;stroke:none"
         id="path144" /><path
         d="m 25162.6,6281.8 -415.2,62.2 -274.6,-728.1 372.4,35.6 317.4,630.3"
         style="fill:#f37a50;fill-opacity:1;fill-rule:nonzero;stroke:none"
         id="path146" /><path
         d="m 19790.1,15133.5 h -0.5 l -472.5,-20.3 -47.4,-953.9 480.7,-261.2 499.1,237 -16.4,1131.4 -443,-133"
         style="fill:#f37a50;fill-opacity:1;fill-rule:nonzero;stroke:none"
         id="path148" /><path
         d="m 19107.6,2564.6 c -381.2,-520 -1496,-161.6 -1429.5,-843.7 1515.7,64.1 2146.3,78.3 2146.3,78.3 -9.7,156.9 60.8,530.5 18.7,675 l -735.5,90.4"
         style="fill:#e62552;fill-opacity:1;fill-rule:nonzero;stroke:none"
         id="path150" /><path
         d="m 24845.2,5651.5 c 384.6,-502 -275.6,-1383.4 405.9,-1507 411.3,1448.7 594.5,2048 594.5,2048 -155,33.7 -529.9,89.6 -683,89.3 l -317.4,-630.3"
         style="fill:#e62552;fill-opacity:1;fill-rule:nonzero;stroke:none"
         id="path152" /><path
         d="m 19219.4,10593.1 2100,-581.4 c 0,0 -1089.7,-3064.9 -1888.8,-4093.3 -139.1,-179 -1141.8,170 -1233.4,336.6 -333.9,607.2 1022.2,4338.1 1022.2,4338.1"
         style="fill:#181630;fill-opacity:1;fill-rule:nonzero;stroke:none"
         id="path154" /><path
         d="m 19527.1,6298.7 c 546.3,-1171.9 673.6,-3514.5 673.6,-3514.5 0,0 -1077,-84.9 -1568.3,-13.9 -318.8,2127.4 -464.8,2968.3 -484.4,3763.2 204.9,525.9 1005.6,401.2 1379.1,-234.8"
         style="fill:#181630;fill-opacity:1;fill-rule:nonzero;stroke:none"
         id="path156" /><path
         d="m 19679.5,10229.9 2406.7,81.9 c 0,0 146.1,-3235 -187.2,-4406.4 -58,-203.9 -973,-290.7 -1131.5,-165.8 -577.8,455.6 -1088,4490.3 -1088,4490.3"
         style="fill:#201d40;fill-opacity:1;fill-rule:nonzero;stroke:none"
         id="path158" /><path
         d="m 19802.3,9365.6 244,-676.7 2183.3,633.5 z"
         style="fill:#95a6db;fill-opacity:1;fill-rule:nonzero;stroke:none"
         id="path160" /><path
         d="m 19731.9,9395.5 -221.4,-598.8 -769.9,412.6 z"
         style="fill:#95a6db;fill-opacity:1;fill-rule:nonzero;stroke:none"
         id="path162" /><path
         d="m 21208.9,6851.4 c 1323.6,275.7 3491.5,-113.7 3491.5,-113.7 0,0 3.2,-1068.6 -228.6,-1522.6 -2017.4,83.5 -2714.9,263 -3406.3,377.8 -649.9,117.8 -600.4,1035.5 143.4,1258.5"
         style="fill:#201d40;fill-opacity:1;fill-rule:nonzero;stroke:none"
         id="path164" /><path
         d="m 20725.6,14420 c 0,0 -460.8,24.9 -727.5,-89.6 -429.8,-420.7 -819.9,-151.1 -819.9,-151.1 -288.5,-30.6 -873.6,-310 -873.6,-310 52.6,-3698.2 329.8,-4660 329.8,-4660 l 3621.6,85 c 0,0 53,1515.5 -276.8,3800.9 -206.4,1429.5 -820.1,1326.7 -1253.6,1324.8"
         style="fill:#3f964f;fill-opacity:1;fill-rule:nonzero;stroke:none"
         id="path166" /><path
         d="m 23250.6,9704.4 c 73.4,193.2 155.7,493.8 52.9,524.6 -164.9,49.5 -194,-105.1 -321.5,-83.7 -113,19 -33.7,314.9 439,478.8 l 1,81.2 454.8,39.6 -13.7,-80.1 c 196.5,-280.7 125.4,-926.3 -175.1,-1246.7 -304.4,-324.5 -535.2,28.7 -437.4,286.3"
         style="fill:#f37a50;fill-opacity:1;fill-rule:nonzero;stroke:none"
         id="path168" /><path
         d="m 20490.9,14089 c 547.1,590.5 1507,286.6 3173.9,-543.5 73.5,-772.4 -613.4,-889.7 -613.4,-889.7 0,0 -1131,143.7 -1584.8,225.6 -1089.3,196.5 -1239.6,922.9 -975.7,1207.6"
         style="fill:#0e6a41;fill-opacity:1;fill-rule:nonzero;stroke:none"
         id="path170" /><path
         d="m 23324.4,10681.8 -273,1974 c 0,0 -199.5,537.2 613.4,889.7 336.2,-299.3 674.3,-1065.2 262.9,-2800.6 -173.1,-214.1 -603.3,-63.1 -603.3,-63.1"
         style="fill:#0e6a41;fill-opacity:1;fill-rule:nonzero;stroke:none"
         id="path172" /><path
         d="m 20465.8,15894.9 c -42.3,-726.5 -539.1,-1288.5 -1109.7,-1255.3 -570.6,33.1 -998.9,649 -956.6,1375.5 42.2,726.5 548.8,1136.1 1119.4,1103 570.6,-33.2 989.1,-496.7 946.9,-1223.2"
         style="fill:#f37a50;fill-opacity:1;fill-rule:nonzero;stroke:none"
         id="path174" /><path
         d="m 18726.7,15635.8 c -25.8,-46.3 -84.3,-63 -130.6,-37.2 -46.3,25.7 -63,84.2 -37.3,130.5 25.8,46.3 84.2,63 130.6,37.3 46.3,-25.8 63,-84.2 37.3,-130.6"
         style="fill:#000000;fill-opacity:1;fill-rule:nonzero;stroke:none"
         id="path176" /><path
         d="m 19387.4,15733 c -26.4,-47.4 -86.2,-64.5 -133.6,-38.1 -47.5,26.3 -64.6,86.2 -38.2,133.6 26.4,47.4 86.2,64.5 133.6,38.2 47.5,-26.4 64.6,-86.3 38.2,-133.7"
         style="fill:#000000;fill-opacity:1;fill-rule:nonzero;stroke:none"
         id="path178" /><path
         d="m 18946.6,15726.1 c -50,-163.7 -115.1,-364.5 -115.1,-364.5 0,0 90.9,-134.1 286.5,-83.8 -91.7,12 -188.2,45.6 -184.1,164.7 4.1,119 12.7,283.6 12.7,283.6"
         style="fill:#de623c;fill-opacity:1;fill-rule:nonzero;stroke:none"
         id="path180" /><path
         d="m 19018.6,15227.3 c -207.8,-68.8 -325.9,-171.8 -264.1,-397.4 70.1,-255.7 449.6,-479.8 805.4,-285.4 355.8,194.4 313.8,965.7 -541.3,682.8"
         style="fill:#ffffff;fill-opacity:1;fill-rule:nonzero;stroke:none"
         id="path182" /><path
         d="m 18734.2,15965.5 c -10.7,-9.3 -25.8,-12.8 -40.1,-8.1 -1.4,0.5 -52.2,0.2 -96.3,-8.9 -31.1,-6.3 -59.2,-31.2 -83.6,-73.9 -11.3,-19.8 -36.5,-26.7 -56.4,-15.4 -19.8,11.3 -26.7,36.5 -15.4,56.3 37,64.8 79.1,111.2 135.1,122.2 81.9,16.2 116,7.2 142.7,-1.9 21.7,-7.3 33.3,-30.7 26,-52.3 -2.4,-7.2 -6.7,-13.4 -12,-18"
         style="fill:#ffffff;fill-opacity:1;fill-rule:nonzero;stroke:none"
         id="path184" /><path
         d="m 19359.1,15136.1 c 14.1,3 27,-2.6 28.5,-12.2 2.5,-16.6 3.6,-32.9 3.5,-48.9 -1.3,-110.5 -99,-141.4 -195,-158.2 -62.5,-11 -157.8,-27.4 -204.2,72.9 -6.7,14.5 -12.3,29.9 -16.7,46 -2.6,9.4 6.9,19.8 20.9,22.8 l 363,77.6"
         style="fill:#e62552;fill-opacity:1;fill-rule:nonzero;stroke:none"
         id="path186" /><path
         d="m 19454.1,15962.5 c -14.1,-0.7 -28.2,5.8 -36.5,18.4 -0.8,1.2 -41,32.4 -81.2,52.5 -28.4,14.2 -65.9,12 -111.4,-6.6 -21.2,-8.6 -45.3,1.6 -53.9,22.7 -8.6,21.1 1.5,45.3 22.7,53.9 69,28.1 130.9,38.5 181.7,12.7 74.4,-37.9 95.6,-66 111.1,-89.7 12.5,-19.1 7.2,-44.7 -11.9,-57.2 -6.4,-4.2 -13.5,-6.4 -20.6,-6.7"
         style="fill:#ffffff;fill-opacity:1;fill-rule:nonzero;stroke:none"
         id="path188" /><path
         d="m 19615.9,14101.4 370.1,-522.6 605.6,843.5 -346.6,214.4 -629.1,-535.3"
         style="fill:#95a6db;fill-opacity:1;fill-rule:nonzero;stroke:none"
         id="path190" /><path
         d="m 19182.9,14349 c 15.2,-20.3 433,-241.9 433,-241.9 l -203.2,-496.8 -508,502.6 278.2,236.1"
         style="fill:#95a6db;fill-opacity:1;fill-rule:nonzero;stroke:none"
         id="path192" /><path
         d="m 20979.2,16081.7 c -0.7,-246.6 -201.1,-446 -447.7,-445.3 -246.6,0.6 -446,201.1 -445.3,447.6 0.7,246.6 201.1,446 447.7,445.3 246.6,-0.6 445.9,-201.1 445.3,-447.6"
         style="fill:#ffffff;fill-opacity:1;fill-rule:nonzero;stroke:none"
         id="path194" /><path
         d="m 20733.3,15526.5 c -0.5,-179.1 -146.1,-323.9 -325.2,-323.4 -179.1,0.4 -323.9,146 -323.4,325.1 0.5,179.1 146.1,323.9 325.2,323.4 179.1,-0.4 323.9,-146 323.4,-325.1"
         style="fill:#ffffff;fill-opacity:1;fill-rule:nonzero;stroke:none"
         id="path196" /><path
         d="m 20340.5,16157.5 c -0.5,-181.5 -148,-328.2 -329.5,-327.7 -181.4,0.5 -328.2,148 -327.7,329.5 0.5,181.4 148,328.1 329.5,327.7 181.5,-0.5 328.2,-148 327.7,-329.5"
         style="fill:#ffffff;fill-opacity:1;fill-rule:nonzero;stroke:none"
         id="path198" /><path
         d="m 19469.5,15938.3 c -1.8,0 -3.6,0 -5.5,-0.2 l -290.3,-25.5 c -33.9,-3 -59.2,-33.1 -56.2,-67.1 l 12.8,-145.4 c 3,-33.5 33,-59.3 67.1,-56.3 l 290.2,25.6 c 34,2.9 59.3,33 56.3,67 l -12.8,145.5 c -2.8,31.6 -29.8,56.4 -61.6,56.4 z m -277.6,-364.7 c -68.9,0 -125.3,51.7 -131.3,120.3 l -12.8,145.5 c -6.4,72.4 47.4,136.5 119.8,142.9 l 290.3,25.5 c 73.7,6.6 136.5,-47.4 142.9,-119.8 l 12.8,-145.4 c 6.4,-72.5 -47.4,-136.6 -119.8,-143 l -290.3,-25.5 c -3.9,-0.3 -7.8,-0.5 -11.6,-0.5"
         style="fill:#2c2858;fill-opacity:1;fill-rule:nonzero;stroke:none"
         id="path200" /><path
         d="m 18767.2,15837 c -2.5,0 -5.1,-0.1 -7.7,-0.5 l -270.7,-37.1 c -14.7,-2 -27.8,-9.6 -36.9,-21.5 -9,-11.9 -12.8,-26.6 -10.8,-41.4 l 18.5,-135.6 c 4.1,-30.1 32.7,-52 63,-47.8 l 270.7,37.1 c 30.5,4.2 51.9,32.4 47.7,62.9 l -18.5,135.6 c -3.8,27.6 -27.6,48.3 -55.3,48.3 z m -252.3,-354.4 c -62.6,0 -116.1,46.8 -124.6,108.8 l -18.6,135.7 c -9.4,68.7 38.9,132.3 107.7,141.7 l 270.7,37.1 c 5.6,0.7 11.4,1.1 17.1,1.1 62.6,0 116.1,-46.7 124.6,-108.8 l 18.6,-135.6 c 9.4,-68.8 -38.9,-132.4 -107.7,-141.8 l -270.7,-37 c -5.6,-0.8 -11.4,-1.2 -17.1,-1.2"
         style="fill:#2c2858;fill-opacity:1;fill-rule:nonzero;stroke:none"
         id="path202" /><path
         d="m 18854.1,15696.5 -9.9,59.2 236.7,39.8 10,-59.1 -236.8,-39.9"
         style="fill:#2c2858;fill-opacity:1;fill-rule:nonzero;stroke:none"
         id="path204" /><path
         d="m 19595.7,15800.3 -11.2,59 361,68 11.1,-59 -360.9,-68"
         style="fill:#2c2858;fill-opacity:1;fill-rule:nonzero;stroke:none"
         id="path206" /><path
         d="m 19993.4,15985.5 c -139.7,-98.9 -187.3,-271.7 -106.4,-386 80.9,-114.3 259.7,-126.8 399.4,-27.9 139.7,98.8 187.3,271.6 106.4,385.9 -80.9,114.3 -259.7,126.9 -399.4,28"
         style="fill:#f37a50;fill-opacity:1;fill-rule:nonzero;stroke:none"
         id="path208" /><path
         d="m 20054,15624.1 c -4.9,2.7 -9.3,6.6 -12.7,11.6 -48.7,71.2 -50,148.9 -3.6,207.7 47.5,60.2 131.8,85 200.4,58.8 19.3,-7.4 28.9,-29 21.6,-48.3 -7.4,-19.3 -29,-29 -48.3,-21.6 -37.6,14.3 -88.1,-1.2 -115,-35.2 -25.8,-32.8 -23.4,-75.1 6.7,-119.2 11.7,-17.1 7.3,-40.4 -9.8,-52 -12.1,-8.3 -27.3,-8.5 -39.3,-1.8"
         style="fill:#de623c;fill-opacity:1;fill-rule:nonzero;stroke:none"
         id="path210" /><path
         d="m 10209.7,5699.7 c -21.4,-149 -346.48,-918.5 -489.61,-1515.8 C 9555.94,3496.6 9409.5,2696.1 9507.2,2203.5 l -632.69,124.1 c -237.51,587.5 -375.6,1572.9 -318.49,2185.8 44.71,476 279.54,1269.5 405.63,1387.7 145.28,136.2 1265.45,-79 1248.05,-201.4"
         style="fill:#f37a50;fill-opacity:1;fill-rule:nonzero;stroke:none"
         id="path212" /><path
         d="m 10206.4,5637.9 c 0,0 -1198.08,128.5 -1244.75,263.2 -549.29,1585.2 -811.86,3341.8 -411.83,3945 L 10665.9,8826.7 c 0,0 -421.7,-2273 -459.5,-3188.8"
         style="fill:#f37a50;fill-opacity:1;fill-rule:nonzero;stroke:none"
         id="path214" /><path
         d="m 9181.77,2394.8 c 264.71,40.1 294.32,223.5 294.32,223.5 C 9783.16,2109.2 10621.6,2293 10708,1794 c 15.5,-89.2 -59.6,-168.3 -149.8,-160.1 -1320.59,119.4 -1873.77,157.6 -1873.77,157.6 15.78,164 93.22,559.6 139.11,709.3 0,0 99.79,-145.2 358.23,-106"
         style="fill:#2c2858;fill-opacity:1;fill-rule:nonzero;stroke:none"
         id="path216" /><path
         d="m 12548.8,6839 c -35.3,-146.4 -239.4,-641.4 -438.1,-1222.6 -228.1,-668.8 -513.3,-1465.8 -462.4,-1965.3 0,0 -207.5,-210.4 -393.7,-66.4 -186.2,144.1 -163,445.2 -163,445.2 -181.2,607.2 -223.3,1419.3 -108.8,2024 89.3,469.8 322.9,1057.3 376.9,1221.5 18.8,55.7 1168.2,-135.6 1168.2,-135.6 0,0 49.8,-180.7 20.9,-300.8"
         style="fill:#f37a50;fill-opacity:1;fill-rule:nonzero;stroke:none"
         id="path218" /><path
         d="m 12538.4,7184.5 c 0,0 -976.3,-545.2 -1079.7,-447 C 10242.2,7892.8 8806.47,9206 8884.42,9925.6 l 2347.88,67.4 c 0,0 918.7,-1977.7 1306.1,-2808.5"
         style="fill:#f37a50;fill-opacity:1;fill-rule:nonzero;stroke:none"
         id="path220" /><path
         d="m 11283.6,3709.5 c 222.1,-149.6 373.2,-5.8 373.2,-5.8 -118.3,-582.6 618.4,-1043.2 344.5,-1469.1 -49,-76.2 -157.8,-83.6 -218.7,-16.6 -891.8,981.3 -1273.3,1383.7 -1273.3,1383.7 122.6,110.1 447.2,349 582.3,428.2 0,0 -24.8,-174.4 192,-320.4"
         style="fill:#2c2858;fill-opacity:1;fill-rule:nonzero;stroke:none"
         id="path222" /><path
         d="m 13197.8,13062.9 c -152.7,-101.8 -859,200.3 -862.7,264.4 216.5,770.3 1404.1,1880.3 1404.1,1880.3 l 350.2,-197.2 c 0,0 -328.7,-1186.7 -891.6,-1947.5"
         style="fill:#c4204a;fill-opacity:1;fill-rule:nonzero;stroke:none"
         id="path224" /><path
         d="m 11094.2,12275.8 c 525.5,102.9 2047.3,648.5 2132.5,822.4 l -579.3,586.9 c 0,0 -1666.3,-342.9 -1947.3,-445.8 -487.2,-177.1 -463.6,-1133.2 394.1,-963.5"
         style="fill:#c4204a;fill-opacity:1;fill-rule:nonzero;stroke:none"
         id="path226" /><path
         d="m 14436.7,15466.9 c -126.8,-9.7 -483.1,-67.7 -697.5,-259.3 l 277.6,-178 c 295.9,-278.7 709.5,-238.1 760.9,-229.2 133.5,22.8 197.6,25.3 203.2,45.4 5.6,20.2 7,144.8 -188.3,117.7 -245.2,-34 -312.1,354.1 366.4,128 139.2,-46.4 375.8,82.7 270.4,149.3 -116.1,73.4 -427.5,269.1 -992.7,226.1"
         style="fill:#f37a50;fill-opacity:1;fill-rule:nonzero;stroke:none"
         id="path228" /><path
         d="m 12160,14695 c 184.4,531.3 176,1055.8 -142.9,1424 -323.2,373.2 -879.8,287.9 -879.8,287.9 v 0 c 0,0 -369.3,298.8 -872.5,-44.8 -503.21,-343.6 -330.98,-843.5 -577.61,-1132.7 -146.06,-171.3 -620.4,-63.9 -679.95,-755.5 -17.18,-199.5 150.06,-391.2 317.72,-458.8 294.56,-118.8 610.26,-78.4 696.34,-247.9 283.8,-558.6 1216.4,-689.2 1448.7,-336.3 72,109.4 807.9,-383.6 955.6,471.8 74.8,433.5 -430.4,317.5 -265.6,792.3"
         style="fill:#ffffff;fill-opacity:1;fill-rule:nonzero;stroke:none"
         id="path230" /><path
         d="m 11571.1,11456.5 c -154.9,-271.9 -304.2,-538.8 -479.3,-732.7 -111,-123 -232.4,-216.5 -372.2,-263.4 -792.17,-265 -1881.12,267.7 -1881.23,611.9 15.94,34.9 31.11,69.7 45.43,104.4 494.8,1194.7 78.04,2280.9 78.04,2280.9 l 1301.76,290.9 1245.1,-290.9 c 0,0 623.1,-1016.7 62.4,-2001.1"
         style="fill:#e62552;fill-opacity:1;fill-rule:nonzero;stroke:none"
         id="path232" /><path
         d="m 10282.1,14420.7 -247,-815 c 0,0 278.6,-740.7 849.3,-563.4 111,34.5 116.2,915.9 116.2,915.9 l -718.5,462.5"
         style="fill:#f37a50;fill-opacity:1;fill-rule:nonzero;stroke:none"
         id="path234" /><path
         d="m 10154.9,14891.7 c 0.6,-668.1 426.4,-1209.2 951.1,-1208.7 524.6,0.5 949.4,542.4 948.8,1210.4 -0.6,668 -426.4,1209.1 -951,1208.7 -524.7,-0.5 -949.5,-542.4 -948.9,-1210.4"
         style="fill:#f37a50;fill-opacity:1;fill-rule:nonzero;stroke:none"
         id="path236" /><path
         d="m 11782.7,14782.9 c 11.4,-49.1 60.4,-79.7 109.5,-68.3 49.1,11.4 79.6,60.4 68.2,109.5 -11.4,49.1 -60.4,79.7 -109.5,68.3 -49.1,-11.4 -79.6,-60.5 -68.2,-109.5"
         style="fill:#000000;fill-opacity:1;fill-rule:nonzero;stroke:none"
         id="path238" /><path
         d="m 11044.6,14777.1 c 12.3,-53.1 65.4,-86.2 118.5,-73.9 53.1,12.4 86.2,65.5 73.9,118.6 -12.4,53.1 -65.4,86.2 -118.6,73.9 -53.1,-12.4 -86.2,-65.4 -73.8,-118.6"
         style="fill:#000000;fill-opacity:1;fill-rule:nonzero;stroke:none"
         id="path240" /><path
         d="m 10957.3,14921.9 c 7.3,1.7 14.2,5.8 19.2,12.2 72.9,92.4 207.8,81.6 209.2,81.5 18.8,-1.7 35.5,12.2 37.2,31.1 1.8,18.8 -12,35.5 -30.9,37.3 -7,0.6 -173.1,14.7 -269.4,-107.4 -11.8,-14.9 -9.3,-36.5 5.6,-48.2 8.6,-6.7 19.3,-8.8 29.1,-6.5"
         style="fill:#ffffff;fill-opacity:1;fill-rule:nonzero;stroke:none"
         id="path242" /><path
         d="m 12006.9,14899.1 c 3.6,0.9 7.1,2.3 10.4,4.3 16.1,10.1 21,31.3 11,47.4 -77.9,125 -213.5,113.2 -219.2,112.6 -18.9,-1.9 -32.7,-18.7 -30.8,-37.5 1.8,-18.9 18.5,-32.6 37.3,-30.9 4.5,0.4 99.6,7.4 154.4,-80.6 8,-12.8 23,-18.5 36.9,-15.3"
         style="fill:#ffffff;fill-opacity:1;fill-rule:nonzero;stroke:none"
         id="path244" /><path
         d="m 11679.6,14603.5 c 36.7,-61.7 67.1,-123.6 106.6,-163.9 13.3,-13.7 13.4,-35.7 0.4,-49.7 -53.4,-57.6 -176.1,-86.3 -250.2,-98.8 -10.8,-1.9 -15.8,12.9 -6.1,18 82.1,43.4 121.7,80.2 139.7,101.4 8.9,10.5 12.1,24.6 8.9,38 -7.4,30.8 -21.7,93.5 -29.4,144.4 -2.6,17.5 21,25.8 30.1,10.6"
         style="fill:#de623c;fill-opacity:1;fill-rule:nonzero;stroke:none"
         id="path246" /><path
         d="m 11010.7,14230.4 c -9.4,22.2 12,45 34.6,36.7 57.6,-21.3 153.3,-54.3 246.8,-76.6 93.6,-22.3 193.9,-36 254.8,-43.1 24,-2.7 32.8,-32.7 14.4,-48.2 -56.9,-47.8 -166.7,-114.6 -310.1,-80.4 -143.4,34.1 -211.3,143.4 -240.5,211.6"
         style="fill:#ffffff;fill-opacity:1;fill-rule:nonzero;stroke:none"
         id="path248" /><path
         d="m 11113.5,14938.3 c -113.2,0 -202.7,-47.4 -212.7,-112.9 -12.3,-79.7 94.2,-165.1 232.7,-186.4 21.8,-3.4 43.8,-5.1 65.2,-5.1 113.2,0 202.7,47.5 212.8,112.9 5.6,36.8 -13.7,76.2 -54.5,111 -44.5,37.8 -107.8,64.6 -178.2,75.5 -21.9,3.3 -43.8,5 -65.3,5 z m 85.2,-358.2 c -24.2,0 -48.9,1.9 -73.4,5.7 -173,26.6 -295,135.5 -277.7,247.8 14.3,93.4 123.7,158.5 265.9,158.5 24.2,0 48.9,-1.9 73.5,-5.7 80.1,-12.3 152.9,-43.4 204.8,-87.6 55.6,-47.3 81.5,-104.2 72.9,-160.2 -14.4,-93.3 -123.8,-158.5 -266,-158.5"
         style="fill:#2c2858;fill-opacity:1;fill-rule:nonzero;stroke:none"
         id="path250" /><path
         d="m 11919.1,14929.1 c -9.6,0 -19.4,-0.4 -29,-1.2 -120.7,-10.3 -217,-84.7 -210.4,-162.5 6.1,-71.8 94.6,-125.9 205.8,-125.9 9.6,0 19.3,0.4 29,1.3 120.7,10.2 217,84.6 210.4,162.5 -6.1,71.7 -94.6,125.8 -205.8,125.8 z m -33.6,-343.4 c -139.4,0 -250.9,75.3 -259.4,175.1 -9.3,108.7 107.1,207.7 259.4,220.7 11.2,1 22.5,1.4 33.6,1.4 139.4,0 250.9,-75.2 259.4,-175.1 9.2,-108.7 -107.1,-207.7 -259.4,-220.7 -11.2,-0.9 -22.5,-1.4 -33.6,-1.4"
         style="fill:#2c2858;fill-opacity:1;fill-rule:nonzero;stroke:none"
         id="path252" /><path
         d="m 11441,14723.8 -4.1,53.7 204.4,15.8 4.2,-53.7 -204.5,-15.8"
         style="fill:#2c2858;fill-opacity:1;fill-rule:nonzero;stroke:none"
         id="path254" /><path
         d="m 10875,14822 -638,95.5 8,53.2 637.9,-95.5 -7.9,-53.2"
         style="fill:#2c2858;fill-opacity:1;fill-rule:nonzero;stroke:none"
         id="path256" /><path
         d="m 10156,14950.4 c 611.3,-61.9 1584.1,344 1726,637.5 -25.9,399.4 -591.8,732 -977.6,641.9 -385.9,-90.2 -887.7,-751.3 -748.4,-1279.4"
         style="fill:#ffffff;fill-opacity:1;fill-rule:nonzero;stroke:none"
         id="path258" /><path
         d="m 10365.5,14922.4 c 116,-144.7 114,-338.9 -4.4,-433.7 -118.4,-94.9 -308.4,-54.5 -424.36,90.2 -115.93,144.6 -113.92,338.8 4.49,433.7 118.37,94.9 308.37,54.5 424.27,-90.2"
         style="fill:#f37a50;fill-opacity:1;fill-rule:nonzero;stroke:none"
         id="path260" /><path
         d="m 10194.5,14564.1 c 5.9,1.4 11.6,4.2 16.6,8.3 72,59.7 96.6,140.2 65.9,215.3 -31.5,76.9 -111.9,127.8 -191.2,121.1 -22.3,-1.9 -38.8,-21.5 -36.9,-43.9 1.9,-22.3 21.5,-38.8 43.8,-36.9 43.5,3.7 91.4,-27.5 109.3,-71 17.1,-41.8 2,-85.2 -42.6,-122.2 -17.3,-14.3 -19.6,-39.8 -5.4,-57.1 10.2,-12.2 26,-16.9 40.5,-13.6"
         style="fill:#de623c;fill-opacity:1;fill-rule:nonzero;stroke:none"
         id="path262" /><path
         d="m 14295.4,6793.1 c -1205.5,392.3 -1679.1,1338 -1679.1,1338 0,0 -867.8,1896.4 -1618.4,2524 -750.6,627.6 -2159.57,417.3 -2159.57,417.3 0,0 -450.47,-600.6 -736.85,-1244.9 -210.52,-473.7 70.27,-1617 128.45,-2347.9 C 8294.77,6665 7110,6333.2 7212.35,4576.7 8117.02,5711.4 10631.7,5972.1 11935,5696.1 c 1303.3,-276 2638.5,1006.5 2360.4,1097"
         style="fill:#e62552;fill-opacity:1;fill-rule:nonzero;stroke:none"
         id="path264" /><path
         d="m 7159.17,14123.6 c 104.46,-150.9 872.35,-130.1 899.44,-71.9 82.4,795.9 -612.97,2265.3 -612.97,2265.3 l -398.23,-54.3 c 0,0 -131.41,-1224.5 111.76,-2139.1"
         style="fill:#c4204a;fill-opacity:1;fill-rule:nonzero;stroke:none"
         id="path266" /><path
         d="m 8825.07,12617.1 c -450.67,289.3 -1664.65,1356.9 -1679.8,1550 l 754.77,332.3 c 0,0 1422.84,-932.4 1646.27,-1131.6 387.69,-344 13.65,-1224.3 -721.24,-750.7"
         style="fill:#c4204a;fill-opacity:1;fill-rule:nonzero;stroke:none"
         id="path268" /><path
         d="m 6892.59,16814.9 c 114.31,-55.7 424.27,-240.8 553.05,-497.9 l -323.66,-63.3 c -377.75,-150.2 -747.29,40 -791.83,67.1 -115.72,70.4 -174.44,96.3 -172.23,117.1 2.2,20.8 46.79,137.2 218.44,40 215.42,-121.8 398.16,192.7 -311.92,278 -132.36,15.8 -281.48,224.4 -158.97,247.5 134.98,25.5 477.53,59.6 987.12,-188.5"
         style="fill:#f37a50;fill-opacity:1;fill-rule:nonzero;stroke:none"
         id="path270" /><path
         d="m 11091.8,10723.8 c -111,-123 -232.4,-216.5 -372.2,-263.4 -792.17,-265 -1881.12,267.7 -1881.23,611.9 15.94,34.9 31.11,69.7 45.43,104.4 0,0 884.44,-753.9 2208,-452.9"
         style="fill:#c4204a;fill-opacity:1;fill-rule:nonzero;stroke:none"
         id="path272" /><path
         d="m 5988.63,12273.1 c 1.65,27 -18.83,50.1 -45.73,51.7 -18.96,1.1 -36.88,-9 -45.92,-25.7 l -342.36,-595.6 c -26.3,10.4 -54.34,15.8 -82.66,15.8 -85.92,-0.2 -155.55,-42.3 -153.33,-95.1 2.22,-52.8 70.02,-92.8 157.22,-90.4 87.2,2.4 155.55,42.3 153.33,95.1 v 0 l 272.6,474.2 c 7.82,-39.7 57.79,-285.3 13.89,-358.6 -10.41,-24.3 -0.39,-52.5 22.98,-64.7 24.21,-11.8 53.44,-1.7 65.31,22.6 0.03,0.1 0.07,0.2 0.1,0.2 55.1,97.1 -20.05,484.4 -15.43,570.5"
         style="fill:#95a6db;fill-opacity:1;fill-rule:nonzero;stroke:none"
         id="path274" /><path
         d="m 14158.3,9675.7 c -19,19.2 -49.9,19.4 -69,0.4 -13.5,-13.4 -18,-33.4 -11.5,-51.3 l 214.6,-652.6 c -25.4,-12.6 -48.1,-29.9 -67,-51 -57.3,-64 -72.4,-144 -31.7,-177.6 40.8,-33.6 115.8,-9.9 172.3,56.6 56.5,66.5 72.4,144.1 31.6,177.7 v 0 l -170.8,519.6 c 34.7,-20.7 250.9,-147.6 276.1,-229.2 11.2,-24 38.9,-35.4 63.6,-26.1 24.9,10.1 36.9,38.6 26.8,63.7 -0.1,0.1 -0.1,0.1 -0.1,0.2 -35.5,105.8 -373.9,308.6 -434.9,369.6"
         style="fill:#95a6db;fill-opacity:1;fill-rule:nonzero;stroke:none"
         id="path276" /><path
         d="m 13458,18311.6 c -2.5,32.8 -31,57.2 -63.7,54.6 -23,-1.9 -42.9,-17 -51,-38.7 l -312.9,-774.9 c -33.4,8.2 -68.1,10 -102.2,5.3 -103.5,-14.6 -180.4,-77 -168.9,-140.3 11.5,-63.2 99.9,-100 204.6,-82.6 104.6,17.5 180.3,77.1 168.8,140.3 v 0 l 249.1,617 c 16.1,-46.5 117.4,-334.2 76.7,-429.8 -8.4,-31 8.4,-63.3 38.6,-74.1 31.1,-10.2 64.6,6.9 74.9,38.1 0,0.1 0,0.2 0.1,0.3 50.1,126.2 -105.2,580.3 -114.1,684.8"
         style="fill:#95a6db;fill-opacity:1;fill-rule:nonzero;stroke:none"
         id="path278" /><path
         d="m 23412,17304.8 c -7.5,26 -34.5,40.9 -60.4,33.4 -18.3,-5.3 -31.8,-20.8 -34.7,-39.6 l -123,-675.9 c -28.3,1 -56.5,-3.3 -83.2,-12.8 -80.9,-28.9 -132.4,-92 -112.7,-140.9 19.8,-49 97.1,-64 178.5,-32.5 81.3,31.4 132.3,92 112.6,140.9 v 0 l 98,538.2 c 20.6,-34.8 150,-249.5 133.2,-333.2 -1.7,-26.5 17.2,-49.7 43.3,-53.3 26.8,-3 50.9,16.3 54,43.2 0,0 0,0.1 0,0.2 19.4,109.9 -181.2,449.7 -205.6,532.3"
         style="fill:#95a6db;fill-opacity:1;fill-rule:nonzero;stroke:none"
         id="path280" /><path
         d="m 6019.36,13833.2 v 0 l -416.66,576.1 c -12.94,17.9 -36.2,24.9 -56.79,17.2 l -458.47,-174.7 -10.4,-7.5 -5.55,-4 v 0 l -5.54,-4 -9.01,-6.6 -4.86,-3.5 -2.9,-10.6 -0.13,-8.5 c 0.2,-3.2 0.73,-6.4 1.57,-9.5 v 0 c 1.2,-1.9 2.54,-3.8 4.02,-5.6 1.07,-1.7 2.24,-3.3 3.52,-4.8 l 402.58,-556.7 c -20.3,-19.7 -36.71,-43.1 -48.36,-68.9 -35.14,-78.4 -25.26,-159.2 23.78,-178.8 49.04,-19.7 113.31,25.8 146.95,106.3 33.63,80.4 25.25,159.2 -23.79,178.8 v 0 l -286.83,396.6 364.36,138.5 286.83,-396.6 c -20.3,-19.7 -36.7,-43.1 -48.36,-68.9 -35.14,-78.4 -25.26,-159.2 23.78,-178.9 49.04,-19.6 113.32,25.8 146.95,106.3 33.63,80.5 20.27,147.1 -26.69,168.3"
         style="fill:#95a6db;fill-opacity:1;fill-rule:nonzero;stroke:none"
         id="path282" /><path
         d="m 15787.1,10296.5 v 0 l 11.3,710.9 c 0.4,22.1 -14,41.7 -35.2,47.8 l -471.8,134.6 -12.8,0.2 -6.8,0.1 v 0 l -6.9,0.2 -11.1,0.1 -6,0.1 -8.6,-6.7 -5.3,-6.8 c -1.7,-2.7 -3.2,-5.5 -4.4,-8.5 v 0 c -0.2,-2.3 -0.2,-4.6 -0.1,-6.9 -0.2,-2 -0.2,-4 -0.1,-6 l -11,-686.9 c -28,-3.6 -55.2,-12.5 -79.9,-26.2 -75.1,-41.7 -115.6,-112.4 -88.1,-157.5 27.5,-45.1 106.2,-47.2 181.3,-2.9 75.2,44.4 115.6,112.4 88.1,157.5 v 0 l 7.8,489.4 374.7,-107.3 -7.8,-489.4 c -28.1,-3.6 -55.2,-12.5 -80,-26.2 -75.1,-41.7 -115.6,-112.4 -88,-157.5 27.5,-45.1 106.1,-47.2 181.3,-2.9 75.1,44.4 104.3,105.7 79.4,150.8"
         style="fill:#95a6db;fill-opacity:1;fill-rule:nonzero;stroke:none"
         id="path284" /><path
         d="m 1710.6,8037.5 v 0 l -433.49,563.6 c -13.45,17.5 -36.91,23.9 -57.27,15.6 l -453.11,-188.2 -10.171,-7.9 -5.426,-4.1 v 0 l -5.426,-4.2 -8.812,-6.8 -4.747,-3.6 -2.593,-10.7 0.125,-8.6 c 0.293,-3.2 0.91,-6.3 1.843,-9.4 v 0 c 1.258,-1.9 2.657,-3.7 4.192,-5.4 1.109,-1.7 2.336,-3.3 3.66,-4.8 l 418.835,-544.5 c -19.71,-20.3 -35.42,-44.2 -46.31,-70.3 -32.81,-79.4 -20.54,-159.9 29.05,-178.1 49.6,-18.2 112.51,29.1 143.75,110.6 31.24,81.4 20.54,159.9 -29.06,178.1 v 0 l -298.41,387.9 360.11,149.2 298.42,-388 c -19.71,-20.3 -35.42,-44.1 -46.31,-70.3 -32.81,-79.4 -20.54,-159.9 29.05,-178 49.6,-18.2 112.51,29.1 143.75,110.5 31.24,81.5 15.91,147.7 -31.65,167.4"
         style="fill:#95a6db;fill-opacity:1;fill-rule:nonzero;stroke:none"
         id="path286" /></g></g></svg>
