<svg xmlns="http://www.w3.org/2000/svg" xmlns:xlink="http://www.w3.org/1999/xlink" width="111.567" height="27.264" viewBox="0 0 111.567 27.264"><defs><style>.a{clip-path:url(#a);}.b{fill:url(#b);}.c{fill:url(#d);}.d{fill:url(#f);}.e{fill:url(#h);}.f{fill:#fff;}</style><clipPath id="a"><path d="M18.55,9.812l-5.7-3.293L1.844.166C1.233-.187.625.027.625.764V26.645c0,.553.435.79.966.484l11.256-6.5,5.7-3.293,5.483-3.165c.644-.371.582-.881.039-1.174S18.55,9.812,18.55,9.812Z" transform="translate(-0.625 0)"/></clipPath><linearGradient id="b" x1="-35.861" y1="20.641" x2="-35.861" y2="19.641" gradientUnits="objectBoundingBox"><stop offset="0" stop-color="#207cb0"/><stop offset="0.376" stop-color="#3cb2bf"/><stop offset="0.796" stop-color="#58e9ce"/><stop offset="1" stop-color="#63ffd4"/></linearGradient><linearGradient id="d" x1="-28.663" y1="40.498" x2="-27.663" y2="40.498" gradientUnits="objectBoundingBox"><stop offset="0" stop-color="#4bc3ae"/><stop offset="1" stop-color="#dee999"/></linearGradient><linearGradient id="f" x1="-28.163" y1="39.001" x2="-28.163" y2="38.001" gradientUnits="objectBoundingBox"><stop offset="0" stop-color="#ec403d"/><stop offset="0.384" stop-color="#c93b75"/><stop offset="0.799" stop-color="#a636ac"/><stop offset="1" stop-color="#9934c2"/></linearGradient><linearGradient id="h" x1="-49.318" y1="74.129" x2="-49.318" y2="73.129" gradientUnits="objectBoundingBox"><stop offset="0" stop-color="#f87"/><stop offset="0.612" stop-color="#ffb175"/><stop offset="1" stop-color="#ffc774"/></linearGradient></defs><g transform="translate(-0.625 0)"><g class="a" transform="translate(0.625 0)"><path class="b" d="M.625-.888V27.133l14.13-14.01Z" transform="translate(-0.625 0.452)"/></g><g transform="translate(0.625 0)"><g class="a"><path class="c" d="M18.55,9.255l-5.7-3.293L.625-1.1v.1l14.13,14.011Z" transform="translate(-0.625 0.557)"/></g></g><g transform="translate(0.625 0)"><g class="a"><path class="d" d="M.625,41.645v.1L12.846,34.69l5.7-3.293-3.795-3.763Z" transform="translate(-0.625 -14.06)"/></g></g><g transform="translate(0.625 0)"><g class="a"><path class="e" d="M33.185,19.974l-3.8,3.763L33.185,27.5,39.7,23.737Z" transform="translate(-15.26 -10.162)"/></g></g><g transform="translate(85.789 7.334)"><path class="f" d="M177.79,26.648a3.523,3.523,0,0,1-1.454-.294,2.737,2.737,0,0,1-1.1-.9h-.089a10.957,10.957,0,0,1,.089,1.354v3.353H174V18.35h1l.171,1.116h.059a2.87,2.87,0,0,1,1.108-.967,3.371,3.371,0,0,1,1.45-.3,3.013,3.013,0,0,1,2.5,1.108,4.881,4.881,0,0,1,.882,3.108,4.851,4.851,0,0,1-.9,3.12,3.021,3.021,0,0,1-2.488,1.111Zm-.178-7.4a2.187,2.187,0,0,0-1.807.692,3.558,3.558,0,0,0-.573,2.2v.275a4.079,4.079,0,0,0,.573,2.458,2.176,2.176,0,0,0,1.836.74,1.91,1.91,0,0,0,1.655-.855,4.056,4.056,0,0,0,.6-2.357,3.9,3.9,0,0,0-.6-2.339,1.967,1.967,0,0,0-1.684-.815Zm6.419,7.249H182.8V14.93h1.235V26.5Zm7.1,0-.246-1.16h-.059a3.414,3.414,0,0,1-1.216,1.037,3.7,3.7,0,0,1-1.513.272,2.721,2.721,0,0,1-1.9-.624,2.276,2.276,0,0,1-.688-1.777q0-2.468,3.948-2.588l1.383-.045v-.505a2.06,2.06,0,0,0-.414-1.416,1.7,1.7,0,0,0-1.32-.457,5.379,5.379,0,0,0-2.3.624l-.379-.944a5.793,5.793,0,0,1,1.32-.513,5.723,5.723,0,0,1,1.439-.186,3.1,3.1,0,0,1,2.159.647,2.7,2.7,0,0,1,.7,2.074V26.5h-.914Zm-2.788-.869A2.51,2.51,0,0,0,190.149,25a2.339,2.339,0,0,0,.658-1.77v-.736l-1.235.051A4.483,4.483,0,0,0,187.45,23a1.377,1.377,0,0,0-.65,1.259,1.268,1.268,0,0,0,.4,1.018,1.675,1.675,0,0,0,1.134.351Zm4.419-7.279h1.323L195.865,23a17.627,17.627,0,0,1,.729,2.3h.059q.1-.38.4-1.3t2.018-5.647H200.4l-3.5,9.279a4.632,4.632,0,0,1-1.217,1.953,2.587,2.587,0,0,1-1.706.576,4.984,4.984,0,0,1-1.116-.126v-.988a4.311,4.311,0,0,0,.915.089,1.885,1.885,0,0,0,1.814-1.427l.453-1.159Z" transform="translate(-173.998 -14.93)"/></g><g transform="translate(29.523 6.422)"><path class="f" d="M96.648,18.559a2.776,2.776,0,0,1-.222,4.721,1.2,1.2,0,0,0-.478.836.936.936,0,0,0,.443.732l.614.476a2.967,2.967,0,0,1,1.431,2.387c0,1.6-1.551,3.221-4.482,3.221-2.472,0-3.665-1.176-3.665-2.438A2.452,2.452,0,0,1,91.6,26.416a7.36,7.36,0,0,1,3.255-.784,1.787,1.787,0,0,1-.511-1.157,1.53,1.53,0,0,1,.171-.665c-.188.017-.375.034-.546.034a2.694,2.694,0,0,1-2.829-2.675,3.065,3.065,0,0,1,1.091-2.284,4.647,4.647,0,0,1,3.052-.938H98.8l-1.091.614H96.648Zm-1.21,7.568a2.735,2.735,0,0,0-.392-.017,6.785,6.785,0,0,0-1.791.274,1.913,1.913,0,0,0-1.466,1.755c0,1.209,1.177,2.079,3,2.079,1.635,0,2.505-.786,2.505-1.842,0-.871-.562-1.329-1.858-2.25Zm.495-3.239a1.723,1.723,0,0,0,.425-1.244c0-1.227-.732-3.136-2.147-3.136a1.6,1.6,0,0,0-1.194.563,1.973,1.973,0,0,0-.375,1.261c0,1.142.665,3.034,2.132,3.034a1.749,1.749,0,0,0,1.159-.478ZM85.918,25.854a4.016,4.016,0,0,1-4.152-4.017A4.216,4.216,0,0,1,86.174,17.7a3.979,3.979,0,0,1,4.066,4.016A4.158,4.158,0,0,1,85.918,25.854Zm2.126-1.378a3.074,3.074,0,0,0,.511-1.89c0-1.5-.714-4.356-2.825-4.356a2.369,2.369,0,0,0-1.531.58,2.575,2.575,0,0,0-.783,2.076c0,1.684.834,4.457,2.894,4.457a2.17,2.17,0,0,0,1.734-.867Zm-11.35,1.378a4.016,4.016,0,0,1-4.152-4.017A4.217,4.217,0,0,1,76.95,17.7a3.979,3.979,0,0,1,4.067,4.016A4.159,4.159,0,0,1,76.694,25.854Zm2.127-1.378a3.08,3.08,0,0,0,.511-1.89c0-1.5-.715-4.356-2.826-4.356a2.37,2.37,0,0,0-1.531.58,2.574,2.574,0,0,0-.783,2.076c0,1.684.833,4.457,2.893,4.457a2.172,2.172,0,0,0,1.735-.867Zm-7.58,1.112-2.447.564a18.206,18.206,0,0,1-2.823.29c-4.723,0-6.519-3.472-6.519-6.193,0-3.319,2.548-6.4,6.912-6.4a9.864,9.864,0,0,1,2.617.359,6.675,6.675,0,0,1,2.259,1.061l-1.421,1.352-.6.136.428-.685a4.891,4.891,0,0,0-3.661-1.607,4.725,4.725,0,0,0-4.739,5.047,6.05,6.05,0,0,0,6.056,6.244,5.1,5.1,0,0,0,2.173-.428V22.577l-2.583.136,1.368-.736h3.627l-.445.427a.4.4,0,0,0-.171.274c-.018.154-.034.651-.034.822Z" transform="translate(-59.454 -13.469)"/><path class="f" d="M142.418,24.7c-.565-.051-.684-.153-.684-.822V14.193l.009-.111c.069-.6.24-.7.771-1.009h-2.447l-1.284.616h1.308V24.253c0,.341-.067.393-.461.906h3.028l.633-.376c-.292-.033-.583-.05-.873-.084Zm6.962.158c-.186.1-.373.222-.56.306a3.949,3.949,0,0,1-1.65.323,3.63,3.63,0,0,1-2.26-.663,4.4,4.4,0,0,1-1.732-3.586,3.851,3.851,0,0,1,3.891-3.924,3.3,3.3,0,0,1,1.75.476,2.808,2.808,0,0,1,1.188,1.681l-3.992,1.615-1.309.1c.424,2.158,1.885,3.414,3.5,3.414a4.393,4.393,0,0,0,2.073-.594l-.9.85Zm-1.6-5.064c.322-.119.492-.221.492-.458a1.687,1.687,0,0,0-1.683-1.461,2.093,2.093,0,0,0-1.954,2.362c0,.289.034.594.051.9Zm3.236-2.364V18.55h-.136V17.429h-.371v-.116h.878v.116Zm1.529,1.121V17.418h-.006L152.2,18.55h-.107l-.348-1.132h0V18.55h-.124V17.312h.212l.316,1h0l.311-1h.215V18.55Z" transform="translate(-99.815 -13.073)"/></g></g></svg>