<svg xmlns="http://www.w3.org/2000/svg" width="131.401" height="96.302" viewBox="0 0 131.401 96.302">
  <g id="Grupo_10322" data-name="Grupo 10322" transform="translate(-30.399 -70.935)" opacity="0.238">
    <g id="Grupo_10104" data-name="Grupo 10104" transform="translate(48.294 158.659)">
      <ellipse id="Elipse_272" data-name="Elipse 272" cx="56.753" cy="4.289" rx="56.753" ry="4.289" transform="translate(0 0)" fill="#f7cc01" opacity="0.74"/>
      <ellipse id="Elipse_273" data-name="Elipse 273" cx="47.275" cy="2.248" rx="47.275" ry="2.248" transform="translate(10.949 2.04)" fill="#ffbf00"/>
    </g>
    <rect id="Rectángulo_1486" data-name="Rectángulo 1486" width="35.499" height="1.943" transform="translate(54.927 96.756)" fill="#5e5241" opacity="0.53"/>
    <rect id="Rectángulo_1487" data-name="Rectángulo 1487" width="35.499" height="1.943" transform="translate(54.927 82.505)" fill="#5e5241" opacity="0.53"/>
    <g id="Grupo_10112" data-name="Grupo 10112" transform="translate(36.813 120.475)">
      <path id="Trazado_1196" data-name="Trazado 1196" d="M27.5,362.07l9-17.888-1.779-.885L26.813,362.07Z" transform="translate(-26.813 -318.345)" fill="#2e2b26"/>
      <path id="Trazado_1197" data-name="Trazado 1197" d="M111.255,362.07l-9-17.888,1.779-.885,7.913,18.773Z" transform="translate(-80.628 -318.345)" fill="#2e2b26"/>
      <path id="Trazado_1198" data-name="Trazado 1198" d="M93.428,363.824l-9.353-18.605,2.128-.168,7.913,18.773Z" transform="translate(-67.663 -319.596)" fill="#2e2b26"/>
      <path id="Trazado_1199" data-name="Trazado 1199" d="M42.7,363.824,52.4,345.051H49.93l-7.913,18.773Z" transform="translate(-37.659 -319.596)" fill="#2e2b26"/>
      <rect id="Rectángulo_1488" data-name="Rectángulo 1488" width="26.483" height="2.011" transform="translate(2.166 23.947)" fill="#f27993"/>
      <path id="Trazado_1200" data-name="Trazado 1200" d="M39.637,256.37a13.477,13.477,0,0,0-1.119,2.689q-.545,1.48-1.064,2.969c-.673,1.934-1.3,3.883-1.848,5.857q-.4,1.433-.723,2.883c-.239-.96-.49-1.913-.746-2.854q-.755-2.783-1.694-5.511a15.952,15.952,0,0,0-2.279-4.721c-.185-.241-.6-.018-.419.246a19.316,19.316,0,0,1,2.087,4.977q.858,2.668,1.542,5.387c.41,1.632.735,3.27,1.025,4.912-.037.212-.073.424-.106.637q-.226,1.433-.357,2.881a8.9,8.9,0,0,0,.006,2.865.222.222,0,0,0,.426-.006,14.631,14.631,0,0,0,.292-2.714c.038-.433.086-.865.139-1.3.2,1.245.4,2.493.616,3.743.094.551,1.019.419.972-.14a49.017,49.017,0,0,0-1.1-6.691c.3-1.537.665-3.061,1.084-4.57.519-1.872,1.116-3.722,1.751-5.557q.49-1.416,1.006-2.823a15.3,15.3,0,0,0,.98-2.979A.258.258,0,0,0,39.637,256.37Z" transform="translate(-28.873 -256.242)" fill="#c6c246"/>
      <path id="Trazado_1201" data-name="Trazado 1201" d="M59.685,260.2A25.548,25.548,0,0,0,57,265.291a55.922,55.922,0,0,0-1.977,5.27A65.655,65.655,0,0,0,52.354,282.1c-.046.348.452.492.543.134.939-3.681,1.682-7.409,2.812-11.04a56.134,56.134,0,0,1,1.96-5.366c.764-1.791,1.783-3.444,2.586-5.207C60.409,260.28,59.943,259.853,59.685,260.2Z" transform="translate(-45.031 -258.973)" fill="#c6c246"/>
      <path id="Trazado_1202" data-name="Trazado 1202" d="M44.995,258.261a25.562,25.562,0,0,1,1.03,5.663,55.939,55.939,0,0,1,.306,5.62,65.672,65.672,0,0,1-.907,11.807.28.28,0,0,1-.558-.035c.208-3.793.617-7.573.627-11.375a56.188,56.188,0,0,0-.261-5.706c-.192-1.938-.668-3.82-.906-5.743C44.279,258.122,44.851,257.855,44.995,258.261Z" transform="translate(-39.303 -257.537)" fill="#c6c246"/>
      <rect id="Rectángulo_1489" data-name="Rectángulo 1489" width="8.381" height="11.901" transform="translate(3.507 12.213)" fill="#86a897" opacity="0.57"/>
      <rect id="Rectángulo_1490" data-name="Rectángulo 1490" width="5.196" height="5.196" transform="translate(8.2 18.918)" fill="#fffcfa"/>
    </g>
    <g id="Grupo_10113" data-name="Grupo 10113" transform="translate(55.908 88.577)">
      <rect id="Rectángulo_1491" data-name="Rectángulo 1491" width="1.596" height="7.681" transform="translate(0 0.499)" fill="#ffbf00"/>
      <rect id="Rectángulo_1492" data-name="Rectángulo 1492" width="1.596" height="7.681" transform="translate(4.289 0.499)" fill="#ffbf00"/>
      <rect id="Rectángulo_1493" data-name="Rectángulo 1493" width="1.596" height="6.982" transform="translate(1.596 1.197)" fill="#f27993"/>
      <rect id="Rectángulo_1494" data-name="Rectángulo 1494" width="1.596" height="6.982" transform="translate(7.182 1.197)" fill="#f27993"/>
      <rect id="Rectángulo_1495" data-name="Rectángulo 1495" width="1.097" height="6.384" transform="translate(3.192 1.795)" fill="#827f17" opacity="0.7"/>
      <rect id="Rectángulo_1496" data-name="Rectángulo 1496" width="1.496" height="8.179" transform="translate(5.785 0)" fill="#b7b480" opacity="0.7"/>
    </g>
    <g id="Grupo_10114" data-name="Grupo 10114" transform="translate(80.61 74.326)">
      <rect id="Rectángulo_1497" data-name="Rectángulo 1497" width="1.596" height="7.681" transform="translate(0 0.499)" fill="#ffbf00"/>
      <rect id="Rectángulo_1498" data-name="Rectángulo 1498" width="1.596" height="7.681" transform="translate(4.289 0.499)" fill="#ffbf00"/>
      <rect id="Rectángulo_1499" data-name="Rectángulo 1499" width="1.596" height="6.982" transform="translate(1.596 1.197)" fill="#f27993"/>
      <rect id="Rectángulo_1500" data-name="Rectángulo 1500" width="1.596" height="6.982" transform="translate(7.182 1.197)" fill="#f27993"/>
      <rect id="Rectángulo_1501" data-name="Rectángulo 1501" width="1.097" height="6.384" transform="translate(3.192 1.795)" fill="#827f17" opacity="0.7"/>
      <rect id="Rectángulo_1502" data-name="Rectángulo 1502" width="1.496" height="8.179" transform="translate(5.785)" fill="#b7b480" opacity="0.7"/>
    </g>
    <g id="Grupo_10323" data-name="Grupo 10323" transform="translate(71.61 74.326)">
      <rect id="Rectángulo_1497-2" data-name="Rectángulo 1497" width="1.596" height="7.681" transform="translate(0 0.499)" fill="#ffbf00"/>
      <rect id="Rectángulo_1498-2" data-name="Rectángulo 1498" width="1.596" height="7.681" transform="translate(4.289 0.499)" fill="#ffbf00"/>
      <rect id="Rectángulo_1499-2" data-name="Rectángulo 1499" width="1.596" height="6.982" transform="translate(1.596 1.197)" fill="#f27993"/>
      <rect id="Rectángulo_1500-2" data-name="Rectángulo 1500" width="1.596" height="6.982" transform="translate(7.182 1.197)" fill="#f27993"/>
      <rect id="Rectángulo_1501-2" data-name="Rectángulo 1501" width="1.097" height="6.384" transform="translate(3.192 1.795)" fill="#827f17" opacity="0.7"/>
      <rect id="Rectángulo_1502-2" data-name="Rectángulo 1502" width="1.496" height="8.179" transform="translate(5.785)" fill="#b7b480" opacity="0.7"/>
    </g>
    <g id="Grupo_10324" data-name="Grupo 10324" transform="translate(64.61 89.326)">
      <rect id="Rectángulo_1497-3" data-name="Rectángulo 1497" width="1.596" height="7.681" transform="translate(0 0.499)" fill="#ffbf00"/>
      <rect id="Rectángulo_1498-3" data-name="Rectángulo 1498" width="1.596" height="7.681" transform="translate(4.289 0.499)" fill="#ffbf00"/>
      <rect id="Rectángulo_1499-3" data-name="Rectángulo 1499" width="1.596" height="6.982" transform="translate(1.596 1.197)" fill="#f27993"/>
      <rect id="Rectángulo_1500-3" data-name="Rectángulo 1500" width="1.596" height="6.982" transform="translate(7.182 1.197)" fill="#f27993"/>
      <rect id="Rectángulo_1501-3" data-name="Rectángulo 1501" width="1.097" height="6.384" transform="translate(3.192 1.795)" fill="#827f17" opacity="0.7"/>
      <rect id="Rectángulo_1502-3" data-name="Rectángulo 1502" width="1.496" height="8.179" transform="translate(5.785)" fill="#b7b480" opacity="0.7"/>
    </g>
    <g id="Grupo_10115" data-name="Grupo 10115" transform="translate(30.399 74.022)">
      <rect id="Rectángulo_1503" data-name="Rectángulo 1503" width="17.34" height="24.047" transform="translate(0)" fill="#494947"/>
      <rect id="Rectángulo_1504" data-name="Rectángulo 1504" width="15.214" height="21.757" transform="translate(1.145 1.145)" fill="#c4c0bf"/>
      <rect id="Rectángulo_1505" data-name="Rectángulo 1505" width="13.578" height="19.418" transform="translate(1.963 2.315)" fill="#fff"/>
    </g>
    <g id="Grupo_10117" data-name="Grupo 10117" transform="translate(130.516 84.497)">
      <rect id="Rectángulo_1509" data-name="Rectángulo 1509" width="17.34" height="12.048" transform="translate(12.048 0) rotate(90)" fill="#494947"/>
      <rect id="Rectángulo_1510" data-name="Rectángulo 1510" width="15.214" height="10.901" transform="translate(11.474 1.145) rotate(90)" fill="#c4c0bf"/>
      <rect id="Rectángulo_1511" data-name="Rectángulo 1511" width="13.578" height="9.728" transform="translate(10.888 1.963) rotate(90)" fill="#fff"/>
    </g>
    <g id="Grupo_10118" data-name="Grupo 10118" transform="translate(145.328 84.497)">
      <rect id="Rectángulo_1512" data-name="Rectángulo 1512" width="17.34" height="12.048" transform="translate(12.048) rotate(90)" fill="#494947"/>
      <rect id="Rectángulo_1513" data-name="Rectángulo 1513" width="15.214" height="10.901" transform="translate(11.474 1.145) rotate(90)" fill="#c4c0bf"/>
      <rect id="Rectángulo_1514" data-name="Rectángulo 1514" width="13.578" height="9.728" transform="translate(10.888 1.963) rotate(90)" fill="#fff"/>
    </g>
    <g id="Grupo_10120" data-name="Grupo 10120" transform="translate(33.612 82.473)">
      <g id="Grupo_10119" data-name="Grupo 10119" transform="translate(0 3.465)">
        <path id="Trazado_1203" data-name="Trazado 1203" d="M60.087,145.772l-.629.16-.444-2.5.407-.279Z" transform="translate(-56.584 -141.029)" fill="#562f10"/>
        <path id="Trazado_1204" data-name="Trazado 1204" d="M55.339,141.695c.012-.026.023-.052.032-.076a.784.784,0,0,0,.028-.343,1.305,1.305,0,0,0-.085-.375.576.576,0,0,0-.219-.313c-.011,0-.07.1-.066.116a2.753,2.753,0,0,0,.112.3,2.15,2.15,0,0,1,.082.292,1.678,1.678,0,0,1,.033.3c0,.014,0,.027,0,.041a1.7,1.7,0,0,1-.41-.4,4.332,4.332,0,0,1-.375-.615c-.058-.113-.111-.228-.16-.345-.023-.056-.047-.112-.068-.169a.522.522,0,0,0-.071-.162.629.629,0,0,0-.072.121,1.733,1.733,0,0,0,.219.793,4.328,4.328,0,0,0,.363.636,1.239,1.239,0,0,0,1.077.614c.036,0,.084-.111.1-.139s.069-.156.07-.156A.968.968,0,0,1,55.339,141.695Z" transform="translate(-53.077 -138.747)" fill="#562f10"/>
        <path id="Trazado_1205" data-name="Trazado 1205" d="M61.569,138.46l-.007,0-.051.027a.312.312,0,0,0-.1.171.223.223,0,0,0,0,.07.036.036,0,0,0,.009.021c0,.022.009.043.011.065a1,1,0,0,1,0,.124,1.126,1.126,0,0,1-.031.231.893.893,0,0,1-.034.111c0,.008-.028.062-.023.055a.954.954,0,0,1-.146.179,2.038,2.038,0,0,0,0-.345,1.539,1.539,0,0,0-.136-.573s-.087.119-.093.13c-.018.032-.077.106-.065.145a3.683,3.683,0,0,1,.113.437,2,2,0,0,1,.015.467,1.924,1.924,0,0,1-.029.211c-.006.032-.013.064-.022.1,0,.005-.017.045-.027.072h0a.618.618,0,0,1-.045.045.7.7,0,0,1-.085.066.836.836,0,0,1-.222.1c-.029.009-.1.173-.1.173.161.037.306-.1.393-.217a1.524,1.524,0,0,0,.293-.712,1.125,1.125,0,0,0,.095-.118,2.008,2.008,0,0,0,.206-.366,1.286,1.286,0,0,0,.1-.334A.624.624,0,0,0,61.569,138.46Z" transform="translate(-57.647 -137.682)" fill="#562f10"/>
        <path id="Trazado_1206" data-name="Trazado 1206" d="M59.246,135.82c-.655.167-1.121.556-1.041.87s.675.434,1.33.267,1.121-.556,1.041-.87S59.9,135.654,59.246,135.82Z" transform="translate(-56 -135.745)" fill="#706d0b"/>
        <path id="Trazado_1207" data-name="Trazado 1207" d="M51.7,135.906c-.756.192-1.27.739-1.148,1.22s.835.717,1.591.524,1.27-.739,1.148-1.22S52.458,135.713,51.7,135.906Z" transform="translate(-50.536 -135.812)" fill="#666304"/>
        <path id="Trazado_1208" data-name="Trazado 1208" d="M56.878,140.238c-.5.127-.855.424-.794.664s.515.331,1.015.2.855-.424.794-.664S57.378,140.111,56.878,140.238Z" transform="translate(-54.489 -138.909)" fill="#7a7a0c"/>
      </g>
      <path id="Trazado_1209" data-name="Trazado 1209" d="M64.653,127.95l2.569,1.538-.085-3.3H62.273l-.093,3.222Z" transform="translate(-58.842 -125.464)" fill="#7f3d06"/>
      <path id="Trazado_1210" data-name="Trazado 1210" d="M64.653,130.946l2.569,1.538-.023-1-2.5-1.1-2.513,1.541-.008.478Z" transform="translate(-58.842 -128.46)" fill="#773606"/>
      <path id="Trazado_1211" data-name="Trazado 1211" d="M75.577,127.343l-.326-1.154h-.819v.727l.159.41Z" transform="translate(-67.583 -125.464)" fill="#773606"/>
      <path id="Trazado_1212" data-name="Trazado 1212" d="M63.338,155.178c0-.031,0-.062,0-.094,0-1.594-2.325-2.887-5.192-2.887s-5.192,1.292-5.192,2.887c0,.032,0,.063,0,.094Z" transform="translate(-52.264 -144.017)" fill="#7f8219"/>
      <path id="Trazado_1213" data-name="Trazado 1213" d="M55.251,153.982a1.363,1.363,0,0,0,.3.143,2.55,2.55,0,0,0,.624.141,1.07,1.07,0,0,0,.529-.051.172.172,0,0,0,.094-.088.35.35,0,0,0-.021-.219.153.153,0,0,1,.194-.181,1.215,1.215,0,0,0,1.183-.208.828.828,0,0,0,.159-.188,2.939,2.939,0,0,1,.09-.343.779.779,0,0,0-.12-.365A5.682,5.682,0,0,0,55.251,153.982Z" transform="translate(-53.9 -144.321)" fill="#757513"/>
      <path id="Trazado_1214" data-name="Trazado 1214" d="M77.306,153.951a6.94,6.94,0,0,0-1.082.119,3.007,3.007,0,0,0-.514.715l.011.009a1.275,1.275,0,0,0,1.494.1.156.156,0,0,1,.238.039.706.706,0,0,0,.505.293,1.962,1.962,0,0,0,1.084-.164A4.387,4.387,0,0,0,77.306,153.951Z" transform="translate(-68.495 -145.268)" fill="#757513"/>
      <path id="Trazado_1215" data-name="Trazado 1215" d="M63.111,155.848a3.069,3.069,0,0,1-.645.34,4.807,4.807,0,0,1-1.7.3,3.387,3.387,0,0,1-1.55-.167c-.471-.237-.48-.878-.444-1.332.014-.177.038-.353.068-.529-.594.009-1.187.052-1.782.046a.941.941,0,0,1-.088.24c-.035.17-.062.343-.1.512a1.088,1.088,0,0,1-.175.7,1.609,1.609,0,0,1-1.136.583c-.048.012-.1.024-.146.034a7,7,0,0,1-2.444-.033c0,.051-.007.1-.007.154,0,.032,0,.063,0,.094H63.338c0-.031,0-.062,0-.094A1.741,1.741,0,0,0,63.111,155.848Z" transform="translate(-52.264 -145.635)" fill="#757513"/>
      <path id="Trazado_1216" data-name="Trazado 1216" d="M68.39,154.161a16.178,16.178,0,0,1,.334-1.925q-.415-.038-.85-.039-.318,0-.626.021a5.312,5.312,0,0,0-.493,1.812,8.852,8.852,0,0,0-.166,1.147h1.759A7.755,7.755,0,0,1,68.39,154.161Z" transform="translate(-61.988 -144.017)" fill="#ecebe7"/>
      <path id="Trazado_1217" data-name="Trazado 1217" d="M66.862,154.828a2.121,2.121,0,0,1,.545-1.632,1.53,1.53,0,0,1,1.159-.211c.048-.251.1-.5.157-.749q-.415-.038-.85-.039-.318,0-.626.021a5.312,5.312,0,0,0-.493,1.812,8.852,8.852,0,0,0-.166,1.147h.286C66.864,155.061,66.861,154.944,66.862,154.828Z" transform="translate(-61.988 -144.017)" fill="#dbd9d5"/>
      <path id="Trazado_1218" data-name="Trazado 1218" d="M62.681,137.742l-.187-5.4,2.387-1.41,2.477,1.483-.038,5.324Z" transform="translate(-59.067 -128.849)" fill="#ffd9db"/>
      <path id="Trazado_1219" data-name="Trazado 1219" d="M68.858,138.437v-.894l-.058-.067H66.266v.9l.059.067Z" transform="translate(-61.758 -133.515)" fill="#d7bdbc"/>
      <path id="Trazado_1220" data-name="Trazado 1220" d="M72.966,141.908l-.167,2.3.184-.008.059-2.123-.075-.167Z" transform="translate(-66.418 -136.677)" fill="#d7bdbc"/>
      <path id="Trazado_1221" data-name="Trazado 1221" d="M63.014,150.881l.038,1.089h4.639l.008-1.089Z" transform="translate(-59.438 -143.078)" fill="#ffb19c"/>
      <path id="Trazado_1222" data-name="Trazado 1222" d="M62.531,133.378l-.036-1.033,2.387-1.41,2.477,1.483,0,1.019-2.065-1.6Z" transform="translate(-59.067 -128.849)" fill="#d7bdbc"/>
      <rect id="Rectángulo_1515" data-name="Rectángulo 1515" width="0.816" height="1.291" transform="translate(6.852 0.165)" fill="#ffd9db"/>
      <path id="Trazado_1223" data-name="Trazado 1223" d="M75.257,124.635l-.816-.119v-.282h.816Z" transform="translate(-67.589 -124.069)" fill="#d7bdbc"/>
      <rect id="Rectángulo_1516" data-name="Rectángulo 1516" width="0.994" height="0.344" transform="translate(6.763 0)" fill="#ffd9db"/>
      <path id="Trazado_1224" data-name="Trazado 1224" d="M64.473,131.179l2.569,1.538.074-.419-2.643-1.582-2.546,1.5.073.42Z" transform="translate(-58.662 -128.693)" fill="#fff"/>
      <path id="Trazado_1225" data-name="Trazado 1225" d="M70.265,134.127a.416.416,0,1,1-.416-.416A.416.416,0,0,1,70.265,134.127Z" transform="translate(-64.017 -130.829)" fill="#d7bdbc"/>
      <circle id="Elipse_274" data-name="Elipse 274" cx="0.416" cy="0.416" r="0.416" transform="translate(5.389 2.845)" fill="#fff"/>
      <path id="Trazado_1226" data-name="Trazado 1226" d="M70.261,134.151a.355.355,0,1,1-.355-.355A.356.356,0,0,1,70.261,134.151Z" transform="translate(-64.1 -130.89)" fill="#4f6a73"/>
      <rect id="Rectángulo_1517" data-name="Rectángulo 1517" width="0.06" height="0.741" transform="translate(5.775 2.876)" fill="#fff"/>
      <rect id="Rectángulo_1518" data-name="Rectángulo 1518" width="0.06" height="0.741" transform="translate(6.176 3.216) rotate(90)" fill="#fff"/>
      <path id="Trazado_1227" data-name="Trazado 1227" d="M69.613,144.209H68.379l-.116-2.3h1.465Z" transform="translate(-63.183 -136.68)" fill="#fff"/>
      <path id="Trazado_1228" data-name="Trazado 1228" d="M69.656,144.389H68.5l-.108-2.224h1.374Z" transform="translate(-63.273 -136.86)" fill="#ffcb80"/>
      <path id="Trazado_1229" data-name="Trazado 1229" d="M69.755,142.345l.009-.18H68.39l.108,2.224h.072l-.018-2.061Z" transform="translate(-63.273 -136.86)" fill="#e58842" opacity="0.48"/>
      <rect id="Rectángulo_1519" data-name="Rectángulo 1519" width="0.85" height="1.338" transform="translate(3.779 5.335)" fill="#fff"/>
      <rect id="Rectángulo_1520" data-name="Rectángulo 1520" width="0.782" height="1.266" transform="translate(3.815 5.372)" fill="#4f6a73"/>
      <rect id="Rectángulo_1521" data-name="Rectángulo 1521" width="0.061" height="1.29" transform="translate(4.174 5.366)" fill="#fff"/>
      <rect id="Rectángulo_1522" data-name="Rectángulo 1522" width="0.061" height="0.795" transform="translate(4.593 5.67) rotate(90)" fill="#fff"/>
      <path id="Trazado_1230" data-name="Trazado 1230" d="M64.481,147.022H63.5l-.036-.054.976-.09Z" transform="translate(-59.762 -140.222)" fill="#d7bdbc"/>
      <rect id="Rectángulo_1523" data-name="Rectángulo 1523" width="0.976" height="0.09" transform="translate(3.707 6.655)" fill="#fff"/>
      <rect id="Rectángulo_1524" data-name="Rectángulo 1524" width="0.85" height="1.338" transform="translate(6.92 5.335)" fill="#fff"/>
      <rect id="Rectángulo_1525" data-name="Rectángulo 1525" width="0.782" height="1.266" transform="translate(6.956 5.372)" fill="#4f6a73"/>
      <rect id="Rectángulo_1526" data-name="Rectángulo 1526" width="0.06" height="1.29" transform="translate(7.315 5.366)" fill="#fff"/>
      <rect id="Rectángulo_1527" data-name="Rectángulo 1527" width="0.061" height="0.795" transform="translate(7.734 5.67) rotate(90)" fill="#fff"/>
      <path id="Trazado_1231" data-name="Trazado 1231" d="M75.44,147.022h-.976l-.036-.054.976-.09Z" transform="translate(-67.58 -140.222)" fill="#d7bdbc"/>
      <rect id="Rectángulo_1528" data-name="Rectángulo 1528" width="0.976" height="0.09" transform="translate(6.848 6.655)" fill="#fff"/>
      <path id="Trazado_1232" data-name="Trazado 1232" d="M59.015,151.646a1.02,1.02,0,1,0-1.462,0Z" transform="translate(-55.336 -142.39)" fill="#9e9e20"/>
      <path id="Trazado_1233" data-name="Trazado 1233" d="M56.727,154.729a.689.689,0,0,0-1.123-.77.7.7,0,0,0-.129.795Z" transform="translate(-54.009 -145.122)" fill="#b2af2d"/>
      <path id="Trazado_1234" data-name="Trazado 1234" d="M79.454,145.074c-.218,1.059.052,2.01.6,2.124s1.175-.653,1.394-1.713-.052-2.01-.6-2.124S79.672,144.014,79.454,145.074Z" transform="translate(-71.111 -137.706)" fill="#7a7a0c"/>
      <path id="Trazado_1235" data-name="Trazado 1235" d="M78.423,151.646a1.02,1.02,0,1,1,1.462,0Z" transform="translate(-70.224 -142.39)" fill="#9e9e20"/>
      <path id="Trazado_1236" data-name="Trazado 1236" d="M82.331,154.729a.689.689,0,0,1,1.123-.77.7.7,0,0,1,.129.795Z" transform="translate(-73.171 -145.122)" fill="#b2af2d"/>
      <path id="Trazado_1237" data-name="Trazado 1237" d="M76.051,154.581a.617.617,0,0,1,1.005-.689.626.626,0,0,1,.116.711Z" transform="translate(-68.696 -145.09)" fill="#b2af2d"/>
      <rect id="Rectángulo_1529" data-name="Rectángulo 1529" width="1.722" height="0.359" transform="translate(4.943 7.522)" fill="#fff"/>
      <rect id="Rectángulo_1530" data-name="Rectángulo 1530" width="1.722" height="0.301" transform="translate(4.943 7.58)" fill="#efefef"/>
      <path id="Trazado_1238" data-name="Trazado 1238" d="M73.79,150.949" transform="translate(-67.125 -143.127)" fill="#dbd9d5"/>
      <rect id="Rectángulo_1531" data-name="Rectángulo 1531" width="1.956" height="0.359" transform="translate(4.835 7.848)" fill="#fff"/>
      <rect id="Rectángulo_1532" data-name="Rectángulo 1532" width="1.956" height="0.318" transform="translate(4.835 7.889)" fill="#efefef"/>
      <rect id="Rectángulo_1533" data-name="Rectángulo 1533" width="2.173" height="0.359" transform="translate(4.718 8.207)" fill="#fff"/>
      <rect id="Rectángulo_1534" data-name="Rectángulo 1534" width="2.173" height="0.301" transform="translate(4.718 8.265)" fill="#efefef"/>
      <rect id="Rectángulo_1535" data-name="Rectángulo 1535" width="2.416" height="0.359" transform="translate(4.601 8.566)" fill="#fff"/>
      <rect id="Rectángulo_1536" data-name="Rectángulo 1536" width="2.416" height="0.301" transform="translate(4.601 8.625)" fill="#efefef"/>
      <rect id="Rectángulo_1537" data-name="Rectángulo 1537" width="2.528" height="0.903" transform="translate(4.507 3.961)" fill="#fff"/>
      <rect id="Rectángulo_1538" data-name="Rectángulo 1538" width="2.407" height="0.811" transform="translate(4.567 4.002)" fill="#4f6a73"/>
      <rect id="Rectángulo_1539" data-name="Rectángulo 1539" width="0.061" height="0.825" transform="translate(5.787 4.003)" fill="#fff"/>
      <rect id="Rectángulo_1540" data-name="Rectángulo 1540" width="0.061" height="0.825" transform="translate(5.118 4.003)" fill="#fff"/>
      <rect id="Rectángulo_1541" data-name="Rectángulo 1541" width="0.06" height="0.825" transform="translate(6.431 4.003)" fill="#fff"/>
      <rect id="Rectángulo_1542" data-name="Rectángulo 1542" width="0.063" height="2.475" transform="translate(7.008 4.366) rotate(90)" fill="#fff"/>
    </g>
    <g id="Grupo_10121" data-name="Grupo 10121" transform="translate(134.665 87.637)">
      <path id="Trazado_1239" data-name="Trazado 1239" d="M403.922,206.8a13.905,13.905,0,0,0,.434-1.79l1.356-.008a13.9,13.9,0,0,0,.457,1.785l-.675,0c-.15-.721-.214-1.23-.214-1.23l-.5,0s-.063.546-.2,1.232Zm1.953-1.942a.114.114,0,0,0-.04-.085l-1.6.01a.113.113,0,0,0,0,.171l1.6-.01A.113.113,0,0,0,405.874,204.862Zm.513,2.506-2.677.017a4.96,4.96,0,0,1-.473.906l.674,0a1.476,1.476,0,0,1,2.268-.014l.692,0A4.949,4.949,0,0,1,406.387,207.368Zm.022-.143,0-.294a.112.112,0,0,0-.04-.085l-2.645.016a.114.114,0,0,0-.039.086l0,.294a.112.112,0,0,0,.041.085l2.644-.016A.114.114,0,0,0,406.41,207.226Zm-.2,1.1a.712.712,0,0,1,.054.134l.748,0c-.035-.043-.069-.087-.1-.133Zm-3.015.019q-.049.07-.1.135l.729,0a.716.716,0,0,1,.053-.134Zm1.592-9.02a34.559,34.559,0,0,1-.384,5.4l.393,0c.169-1.4.216-3.955.216-3.955a38.2,38.2,0,0,0,.261,3.952l.383,0a34.515,34.515,0,0,1-.451-5.4.163.163,0,0,0-.052-.3.187.187,0,0,0,.054-.139c0-.091-.053-.164-.117-.163h-.006l0-.356h-.056l-.005-.842a.028.028,0,0,0-.029-.028.028.028,0,0,0-.028.029l.005.841h-.056l0,.357h-.007c-.064,0-.116.074-.115.165a.188.188,0,0,0,.054.137.163.163,0,0,0-.06.3Z" transform="translate(-403.097 -197.495)" fill="#21aaaa"/>
      <rect id="Rectángulo_1543" data-name="Rectángulo 1543" width="0.389" height="0.031" transform="translate(1.148 8.376)" fill="#b0ffff"/>
      <rect id="Rectángulo_1544" data-name="Rectángulo 1544" width="0.434" height="0.031" transform="translate(1.016 8.789)" fill="#b0ffff"/>
      <rect id="Rectángulo_1545" data-name="Rectángulo 1545" width="0.489" height="0.031" transform="translate(0.869 9.195)" fill="#b0ffff"/>
      <rect id="Rectángulo_1546" data-name="Rectángulo 1546" width="0.489" height="0.031" transform="translate(2.478 9.195)" fill="#b0ffff"/>
      <rect id="Rectángulo_1547" data-name="Rectángulo 1547" width="0.031" height="0.531" transform="matrix(0.764, -0.645, 0.645, 0.764, 1.004, 8.815)" fill="#b0ffff"/>
      <rect id="Rectángulo_1548" data-name="Rectángulo 1548" width="0.709" height="0.031" transform="translate(0.86 9.198) rotate(-34.883)" fill="#b0ffff"/>
      <rect id="Rectángulo_1549" data-name="Rectángulo 1549" width="0.426" height="0.031" transform="translate(1.089 9.206) rotate(-72.302)" fill="#b0ffff"/>
      <rect id="Rectángulo_1550" data-name="Rectángulo 1550" width="0.031" height="0.512" transform="translate(1.136 8.401) rotate(-36.167)" fill="#b0ffff"/>
      <rect id="Rectángulo_1551" data-name="Rectángulo 1551" width="0.665" height="0.031" transform="matrix(0.783, -0.622, 0.622, 0.783, 1.006, 8.793)" fill="#b0ffff"/>
      <rect id="Rectángulo_1552" data-name="Rectángulo 1552" width="0.428" height="0.031" transform="matrix(0.256, -0.967, 0.967, 0.256, 1.218, 8.801)" fill="#b0ffff"/>
      <rect id="Rectángulo_1553" data-name="Rectángulo 1553" width="0.031" height="0.457" transform="translate(1.226 8.056) rotate(-40.897)" fill="#b0ffff"/>
      <rect id="Rectángulo_1554" data-name="Rectángulo 1554" width="0.571" height="0.031" transform="translate(1.139 8.379) rotate(-37.233)" fill="#b0ffff"/>
      <rect id="Rectángulo_1555" data-name="Rectángulo 1555" width="0.352" height="0.031" transform="translate(1.328 8.389) rotate(-78.867)" fill="#b0ffff"/>
      <rect id="Rectángulo_1556" data-name="Rectángulo 1556" width="0.389" height="0.031" transform="translate(2.3 8.376)" fill="#b0ffff"/>
      <rect id="Rectángulo_1557" data-name="Rectángulo 1557" width="0.434" height="0.031" transform="translate(2.387 8.789)" fill="#b0ffff"/>
      <rect id="Rectángulo_1558" data-name="Rectángulo 1558" width="0.531" height="0.031" transform="translate(2.467 9.201) rotate(-49.876)" fill="#b0ffff"/>
      <rect id="Rectángulo_1559" data-name="Rectángulo 1559" width="0.031" height="0.709" transform="translate(2.378 8.818) rotate(-55.065)" fill="#b0ffff"/>
      <rect id="Rectángulo_1560" data-name="Rectángulo 1560" width="0.031" height="0.426" transform="translate(2.589 8.81) rotate(-17.716)" fill="#b0ffff"/>
      <rect id="Rectángulo_1561" data-name="Rectángulo 1561" width="0.512" height="0.031" transform="matrix(0.589, -0.808, 0.808, 0.589, 2.374, 8.796)" fill="#b0ffff"/>
      <rect id="Rectángulo_1562" data-name="Rectángulo 1562" width="0.031" height="0.665" transform="translate(2.29 8.404) rotate(-51.595)" fill="#b0ffff"/>
      <rect id="Rectángulo_1563" data-name="Rectángulo 1563" width="0.031" height="0.428" transform="matrix(0.967, -0.256, 0.256, 0.967, 2.479, 8.396)" fill="#b0ffff"/>
      <rect id="Rectángulo_1564" data-name="Rectángulo 1564" width="0.457" height="0.031" transform="matrix(0.654, -0.756, 0.756, 0.654, 2.288, 8.381)" fill="#b0ffff"/>
      <rect id="Rectángulo_1565" data-name="Rectángulo 1565" width="0.031" height="0.571" transform="translate(2.224 8.058) rotate(-52.755)" fill="#b0ffff"/>
      <rect id="Rectángulo_1566" data-name="Rectángulo 1566" width="0.031" height="0.352" transform="translate(2.411 8.049) rotate(-11.175)" fill="#b0ffff"/>
      <rect id="Rectángulo_1567" data-name="Rectángulo 1567" width="0.035" height="0.293" transform="translate(2.421 7.596) rotate(-9.861)" fill="#b0ffff"/>
      <path id="Trazado_1240" data-name="Trazado 1240" d="M411.8,224.257l-.249-.289.026-.023.249.289Z" transform="translate(-409.131 -216.365)" fill="#b0ffff"/>
      <rect id="Rectángulo_1568" data-name="Rectángulo 1568" width="0.322" height="0.035" transform="translate(2.472 7.874) rotate(-63.773)" fill="#b0ffff"/>
      <rect id="Rectángulo_1569" data-name="Rectángulo 1569" width="0.035" height="0.374" transform="matrix(0.773, -0.635, 0.635, 0.773, 2.237, 7.604)" fill="#b0ffff"/>
      <rect id="Rectángulo_1570" data-name="Rectángulo 1570" width="0.314" height="0.035" transform="translate(2.274 7.862) rotate(-61.801)" fill="#b0ffff"/>
      <rect id="Rectángulo_1571" data-name="Rectángulo 1571" width="0.035" height="0.289" transform="matrix(1, -0.018, 0.018, 1, 1.939, 7.593)" fill="#b0ffff"/>
      <rect id="Rectángulo_1572" data-name="Rectángulo 1572" width="0.409" height="0.035" transform="matrix(0.708, -0.706, 0.706, 0.708, 1.949, 7.869)" fill="#b0ffff"/>
      <rect id="Rectángulo_1573" data-name="Rectángulo 1573" width="0.035" height="0.433" transform="translate(1.945 7.606) rotate(-50.271)" fill="#b0ffff"/>
      <rect id="Rectángulo_1574" data-name="Rectángulo 1574" width="0.035" height="0.402" transform="matrix(0.718, -0.696, 0.696, 0.718, 1.669, 7.605)" fill="#b0ffff"/>
      <rect id="Rectángulo_1575" data-name="Rectángulo 1575" width="0.407" height="0.035" transform="translate(1.633 7.842) rotate(-40.103)" fill="#b0ffff"/>
      <rect id="Rectángulo_1576" data-name="Rectángulo 1576" width="0.035" height="0.316" transform="translate(1.453 7.603) rotate(-34.063)" fill="#b0ffff"/>
      <rect id="Rectángulo_1577" data-name="Rectángulo 1577" width="0.29" height="0.035" transform="translate(1.425 7.88) rotate(-84.926)" fill="#b0ffff"/>
      <rect id="Rectángulo_1578" data-name="Rectángulo 1578" width="0.375" height="0.035" transform="matrix(0.638, -0.77, 0.77, 0.638, 1.429, 7.871)" fill="#b0ffff"/>
      <rect id="Rectángulo_1579" data-name="Rectángulo 1579" width="0.035" height="0.321" transform="translate(1.286 7.6) rotate(-25.897)" fill="#b0ffff"/>
      <path id="Trazado_1241" data-name="Trazado 1241" d="M407.42,224.259l-.027-.021.222-.289.027.021Z" transform="translate(-406.162 -216.366)" fill="#b0ffff"/>
      <rect id="Rectángulo_1580" data-name="Rectángulo 1580" width="0.035" height="0.289" transform="matrix(1, -0.018, 0.018, 1, 1.939, 9.453)" fill="#b0ffff"/>
      <rect id="Rectángulo_1581" data-name="Rectángulo 1581" width="0.035" height="0.289" transform="matrix(1, -0.018, 0.018, 1, 2.274, 9.453)" fill="#b0ffff"/>
      <rect id="Rectángulo_1582" data-name="Rectángulo 1582" width="0.035" height="0.289" transform="matrix(1, -0.018, 0.018, 1, 2.609, 9.453)" fill="#b0ffff"/>
      <rect id="Rectángulo_1583" data-name="Rectángulo 1583" width="0.035" height="0.289" transform="translate(2.945 9.453) rotate(-1.029)" fill="#b0ffff"/>
      <rect id="Rectángulo_1584" data-name="Rectángulo 1584" width="0.4" height="0.034" transform="matrix(0.708, -0.706, 0.706, 0.708, 1.957, 9.726)" fill="#b0ffff"/>
      <rect id="Rectángulo_1585" data-name="Rectángulo 1585" width="0.034" height="0.424" transform="translate(1.953 9.469) rotate(-50.271)" fill="#b0ffff"/>
      <rect id="Rectángulo_1586" data-name="Rectángulo 1586" width="0.4" height="0.034" transform="translate(2.292 9.726) rotate(-44.932)" fill="#b0ffff"/>
      <rect id="Rectángulo_1587" data-name="Rectángulo 1587" width="0.034" height="0.424" transform="matrix(0.639, -0.769, 0.769, 0.639, 2.288, 9.469)" fill="#b0ffff"/>
      <rect id="Rectángulo_1588" data-name="Rectángulo 1588" width="0.4" height="0.034" transform="translate(2.627 9.726) rotate(-44.932)" fill="#b0ffff"/>
      <rect id="Rectángulo_1589" data-name="Rectángulo 1589" width="0.034" height="0.424" transform="translate(2.623 9.469) rotate(-50.271)" fill="#b0ffff"/>
      <path id="Trazado_1242" data-name="Trazado 1242" d="M413.559,230.75l-.021-.024.248-.282.021.024Z" transform="translate(-410.546 -221)" fill="#b0ffff"/>
      <path id="Trazado_1243" data-name="Trazado 1243" d="M413.812,230.737l-.286-.271.019-.026.286.271Z" transform="translate(-410.537 -220.997)" fill="#b0ffff"/>
      <rect id="Rectángulo_1590" data-name="Rectángulo 1590" width="0.035" height="0.402" transform="matrix(0.718, -0.696, 0.696, 0.718, 1.669, 9.465)" fill="#b0ffff"/>
      <rect id="Rectángulo_1591" data-name="Rectángulo 1591" width="0.407" height="0.035" transform="translate(1.633 9.701) rotate(-40.072)" fill="#b0ffff"/>
      <rect id="Rectángulo_1592" data-name="Rectángulo 1592" width="0.035" height="0.289" transform="matrix(1, -0.018, 0.018, 1, 1.619, 9.453)" fill="#b0ffff"/>
      <rect id="Rectángulo_1593" data-name="Rectángulo 1593" width="0.035" height="0.289" transform="matrix(1, -0.018, 0.018, 1, 0.948, 9.453)" fill="#b0ffff"/>
      <rect id="Rectángulo_1594" data-name="Rectángulo 1594" width="0.035" height="0.289" transform="matrix(1, -0.018, 0.018, 1, 1.283, 9.453)" fill="#b0ffff"/>
      <rect id="Rectángulo_1595" data-name="Rectángulo 1595" width="0.4" height="0.034" transform="translate(0.63 9.726) rotate(-44.932)" fill="#b0ffff"/>
      <rect id="Rectángulo_1596" data-name="Rectángulo 1596" width="0.034" height="0.424" transform="translate(0.626 9.469) rotate(-50.271)" fill="#b0ffff"/>
      <rect id="Rectángulo_1597" data-name="Rectángulo 1597" width="0.4" height="0.034" transform="matrix(0.708, -0.706, 0.706, 0.708, 0.966, 9.726)" fill="#b0ffff"/>
      <rect id="Rectángulo_1598" data-name="Rectángulo 1598" width="0.034" height="0.424" transform="translate(0.962 9.469) rotate(-50.271)" fill="#b0ffff"/>
      <path id="Trazado_1244" data-name="Trazado 1244" d="M407.762,230.75l-.021-.024.248-.282.021.024Z" transform="translate(-406.41 -221)" fill="#b0ffff"/>
      <path id="Trazado_1245" data-name="Trazado 1245" d="M408.015,230.737l-.286-.271.019-.026.286.271Z" transform="translate(-406.401 -220.997)" fill="#b0ffff"/>
      <rect id="Rectángulo_1599" data-name="Rectángulo 1599" width="0.035" height="0.289" transform="matrix(1, -0.018, 0.018, 1, 1.939, 9.941)" fill="#b0ffff"/>
      <rect id="Rectángulo_1600" data-name="Rectángulo 1600" width="0.035" height="0.289" transform="matrix(1, -0.018, 0.018, 1, 2.274, 9.941)" fill="#b0ffff"/>
      <rect id="Rectángulo_1601" data-name="Rectángulo 1601" width="0.035" height="0.289" transform="matrix(1, -0.018, 0.018, 1, 2.609, 9.941)" fill="#b0ffff"/>
      <rect id="Rectángulo_1602" data-name="Rectángulo 1602" width="0.035" height="0.289" transform="translate(2.945 9.941) rotate(-1.029)" fill="#b0ffff"/>
      <rect id="Rectángulo_1603" data-name="Rectángulo 1603" width="0.4" height="0.034" transform="matrix(0.708, -0.706, 0.706, 0.708, 1.957, 10.214)" fill="#b0ffff"/>
      <rect id="Rectángulo_1604" data-name="Rectángulo 1604" width="0.034" height="0.424" transform="translate(1.953 9.957) rotate(-50.271)" fill="#b0ffff"/>
      <rect id="Rectángulo_1605" data-name="Rectángulo 1605" width="0.4" height="0.034" transform="translate(2.292 10.214) rotate(-44.932)" fill="#b0ffff"/>
      <rect id="Rectángulo_1606" data-name="Rectángulo 1606" width="0.034" height="0.424" transform="matrix(0.639, -0.769, 0.769, 0.639, 2.288, 9.957)" fill="#b0ffff"/>
      <rect id="Rectángulo_1607" data-name="Rectángulo 1607" width="0.4" height="0.034" transform="translate(2.627 10.214) rotate(-44.932)" fill="#b0ffff"/>
      <rect id="Rectángulo_1608" data-name="Rectángulo 1608" width="0.034" height="0.424" transform="translate(2.623 9.957) rotate(-50.271)" fill="#b0ffff"/>
      <path id="Trazado_1246" data-name="Trazado 1246" d="M413.559,232.452l-.021-.024.248-.282.021.024Z" transform="translate(-410.546 -222.214)" fill="#b0ffff"/>
      <path id="Trazado_1247" data-name="Trazado 1247" d="M413.812,232.439l-.286-.271.019-.026.286.271Z" transform="translate(-410.537 -222.211)" fill="#b0ffff"/>
      <rect id="Rectángulo_1609" data-name="Rectángulo 1609" width="0.035" height="0.402" transform="matrix(0.718, -0.696, 0.696, 0.718, 1.669, 9.953)" fill="#b0ffff"/>
      <rect id="Rectángulo_1610" data-name="Rectángulo 1610" width="0.407" height="0.035" transform="translate(1.633 10.189) rotate(-40.072)" fill="#b0ffff"/>
      <rect id="Rectángulo_1611" data-name="Rectángulo 1611" width="0.035" height="0.289" transform="matrix(1, -0.018, 0.018, 1, 1.619, 9.941)" fill="#b0ffff"/>
      <rect id="Rectángulo_1612" data-name="Rectángulo 1612" width="0.035" height="0.289" transform="matrix(1, -0.018, 0.018, 1, 0.948, 9.941)" fill="#b0ffff"/>
      <rect id="Rectángulo_1613" data-name="Rectángulo 1613" width="0.035" height="0.289" transform="matrix(1, -0.018, 0.018, 1, 1.283, 9.941)" fill="#b0ffff"/>
      <rect id="Rectángulo_1614" data-name="Rectángulo 1614" width="0.4" height="0.034" transform="translate(0.63 10.214) rotate(-44.932)" fill="#b0ffff"/>
      <rect id="Rectángulo_1615" data-name="Rectángulo 1615" width="0.034" height="0.424" transform="translate(0.626 9.957) rotate(-50.271)" fill="#b0ffff"/>
      <rect id="Rectángulo_1616" data-name="Rectángulo 1616" width="0.4" height="0.034" transform="matrix(0.708, -0.706, 0.706, 0.708, 0.966, 10.214)" fill="#b0ffff"/>
      <rect id="Rectángulo_1617" data-name="Rectángulo 1617" width="0.034" height="0.424" transform="translate(0.962 9.957) rotate(-50.271)" fill="#b0ffff"/>
      <path id="Trazado_1248" data-name="Trazado 1248" d="M407.762,232.452l-.021-.024.248-.282.021.024Z" transform="translate(-406.41 -222.214)" fill="#b0ffff"/>
      <path id="Trazado_1249" data-name="Trazado 1249" d="M408.015,232.439l-.286-.271.019-.026.286.271Z" transform="translate(-406.401 -222.211)" fill="#b0ffff"/>
      <rect id="Rectángulo_1618" data-name="Rectángulo 1618" width="0.031" height="1.023" transform="matrix(0.007, -1, 1, 0.007, 1.43, 6.84)" fill="#b0ffff"/>
      <rect id="Rectángulo_1619" data-name="Rectángulo 1619" width="0.451" height="0.031" transform="translate(2.166 7.181) rotate(-52.59)" fill="#b0ffff"/>
      <rect id="Rectángulo_1620" data-name="Rectángulo 1620" width="0.031" height="0.56" transform="translate(1.736 6.846) rotate(-50.491)" fill="#b0ffff"/>
      <rect id="Rectángulo_1621" data-name="Rectángulo 1621" width="0.509" height="0.031" transform="translate(1.364 7.17) rotate(-43.051)" fill="#b0ffff"/>
      <rect id="Rectángulo_1622" data-name="Rectángulo 1622" width="0.031" height="0.459" transform="matrix(0.801, -0.599, 0.599, 0.801, 1.418, 6.834)" fill="#b0ffff"/>
      <rect id="Rectángulo_1623" data-name="Rectángulo 1623" width="0.562" height="0.031" transform="matrix(0.765, -0.644, 0.644, 0.765, 1.695, 7.18)" fill="#b0ffff"/>
      <rect id="Rectángulo_1624" data-name="Rectángulo 1624" width="0.031" height="0.52" transform="translate(2.124 6.841) rotate(-46.283)" fill="#b0ffff"/>
      <rect id="Rectángulo_1625" data-name="Rectángulo 1625" width="0.918" height="0.031" transform="translate(1.48 6.437) rotate(-0.157)" fill="#b0ffff"/>
      <rect id="Rectángulo_1626" data-name="Rectángulo 1626" width="0.031" height="0.516" transform="translate(2.082 6.462) rotate(-43.984)" fill="#b0ffff"/>
      <rect id="Rectángulo_1627" data-name="Rectángulo 1627" width="0.463" height="0.031" transform="translate(2.122 6.821) rotate(-55.238)" fill="#b0ffff"/>
      <rect id="Rectángulo_1628" data-name="Rectángulo 1628" width="0.031" height="0.514" transform="matrix(0.735, -0.678, 0.678, 0.735, 1.775, 6.462)" fill="#b0ffff"/>
      <rect id="Rectángulo_1629" data-name="Rectángulo 1629" width="0.509" height="0.031" transform="matrix(0.679, -0.734, 0.734, 0.679, 1.736, 6.813)" fill="#b0ffff"/>
      <path id="Trazado_1250" data-name="Trazado 1250" d="M408.517,220.365l-.254-.371.026-.018.254.371Z" transform="translate(-406.783 -213.532)" fill="#b0ffff"/>
      <rect id="Rectángulo_1630" data-name="Rectángulo 1630" width="0.516" height="0.031" transform="matrix(0.691, -0.723, 0.723, 0.691, 1.419, 6.814)" fill="#b0ffff"/>
      <rect id="Rectángulo_1631" data-name="Rectángulo 1631" width="0.826" height="0.031" transform="translate(1.526 6.055)" fill="#b0ffff"/>
      <rect id="Rectángulo_1632" data-name="Rectángulo 1632" width="0.46" height="0.031" transform="translate(2.08 6.442) rotate(-55.767)" fill="#b0ffff"/>
      <rect id="Rectángulo_1633" data-name="Rectángulo 1633" width="0.031" height="0.465" transform="matrix(0.816, -0.578, 0.578, 0.816, 1.811, 6.08)" fill="#b0ffff"/>
      <rect id="Rectángulo_1634" data-name="Rectángulo 1634" width="0.505" height="0.031" transform="matrix(0.655, -0.756, 0.756, 0.655, 1.482, 6.442)" fill="#b0ffff"/>
      <rect id="Rectángulo_1635" data-name="Rectángulo 1635" width="0.031" height="0.453" transform="translate(1.513 6.079) rotate(-35.087)" fill="#b0ffff"/>
      <rect id="Rectángulo_1636" data-name="Rectángulo 1636" width="0.457" height="0.031" transform="matrix(0.586, -0.81, 0.81, 0.586, 1.773, 6.432)" fill="#b0ffff"/>
      <rect id="Rectángulo_1637" data-name="Rectángulo 1637" width="0.031" height="0.513" transform="translate(2.042 6.081) rotate(-42.326)" fill="#b0ffff"/>
      <rect id="Rectángulo_1638" data-name="Rectángulo 1638" width="0.031" height="0.762" transform="matrix(0.003, -1, 1, 0.003, 1.557, 5.791)" fill="#b0ffff"/>
      <rect id="Rectángulo_1639" data-name="Rectángulo 1639" width="0.031" height="0.398" transform="translate(1.545 5.786) rotate(-42.07)" fill="#b0ffff"/>
      <rect id="Rectángulo_1640" data-name="Rectángulo 1640" width="0.346" height="0.031" transform="translate(1.811 6.062) rotate(-54.635)" fill="#b0ffff"/>
      <rect id="Rectángulo_1641" data-name="Rectángulo 1641" width="0.031" height="0.434" transform="translate(2.013 5.8) rotate(-47.276)" fill="#b0ffff"/>
      <rect id="Rectángulo_1642" data-name="Rectángulo 1642" width="0.396" height="0.031" transform="translate(2.042 6.06) rotate(-47.732)" fill="#b0ffff"/>
      <rect id="Rectángulo_1643" data-name="Rectángulo 1643" width="0.031" height="0.357" transform="translate(1.84 5.783) rotate(-34.038)" fill="#b0ffff"/>
      <rect id="Rectángulo_1644" data-name="Rectángulo 1644" width="0.441" height="0.031" transform="translate(1.515 6.059) rotate(-42.078)" fill="#b0ffff"/>
      <rect id="Rectángulo_1645" data-name="Rectángulo 1645" width="0.715" height="0.031" transform="translate(1.579 5.53) rotate(-0.156)" fill="#b0ffff"/>
      <rect id="Rectángulo_1646" data-name="Rectángulo 1646" width="0.357" height="0.031" transform="matrix(0.764, -0.646, 0.646, 0.764, 2.012, 5.762)" fill="#b0ffff"/>
      <rect id="Rectángulo_1647" data-name="Rectángulo 1647" width="0.031" height="0.276" transform="translate(1.857 5.553) rotate(-33.66)" fill="#b0ffff"/>
      <rect id="Rectángulo_1648" data-name="Rectángulo 1648" width="0.389" height="0.031" transform="translate(1.548 5.763) rotate(-36.507)" fill="#b0ffff"/>
      <rect id="Rectángulo_1649" data-name="Rectángulo 1649" width="0.031" height="0.357" transform="translate(1.569 5.557) rotate(-50.064)" fill="#b0ffff"/>
      <rect id="Rectángulo_1650" data-name="Rectángulo 1650" width="0.276" height="0.031" transform="matrix(0.55, -0.835, 0.835, 0.55, 1.84, 5.766)" fill="#b0ffff"/>
      <path id="Trazado_1251" data-name="Trazado 1251" d="M410.374,217.053l-.314-.233.019-.025.314.233Z" transform="translate(-408.064 -211.263)" fill="#b0ffff"/>
      <rect id="Rectángulo_1651" data-name="Rectángulo 1651" width="0.666" height="0.031" transform="translate(1.604 5.278) rotate(-0.158)" fill="#b0ffff"/>
      <rect id="Rectángulo_1652" data-name="Rectángulo 1652" width="0.366" height="0.031" transform="matrix(0.727, -0.687, 0.687, 0.727, 1.994, 5.533)" fill="#b0ffff"/>
      <rect id="Rectángulo_1653" data-name="Rectángulo 1653" width="0.031" height="0.279" transform="translate(1.868 5.3) rotate(-26.047)" fill="#b0ffff"/>
      <rect id="Rectángulo_1654" data-name="Rectángulo 1654" width="0.394" height="0.031" transform="matrix(0.769, -0.639, 0.639, 0.769, 1.569, 5.533)" fill="#b0ffff"/>
      <rect id="Rectángulo_1655" data-name="Rectángulo 1655" width="0.031" height="0.354" transform="matrix(0.663, -0.749, 0.749, 0.663, 1.594, 5.306)" fill="#b0ffff"/>
      <rect id="Rectángulo_1656" data-name="Rectángulo 1656" width="0.265" height="0.031" transform="matrix(0.458, -0.889, 0.889, 0.458, 1.855, 5.521)" fill="#b0ffff"/>
      <rect id="Rectángulo_1657" data-name="Rectángulo 1657" width="0.031" height="0.374" transform="translate(1.981 5.305) rotate(-51.174)" fill="#b0ffff"/>
      <rect id="Rectángulo_1658" data-name="Rectángulo 1658" width="0.628" height="0.031" transform="translate(1.623 5.048) rotate(-0.157)" fill="#b0ffff"/>
      <rect id="Rectángulo_1659" data-name="Rectángulo 1659" width="0.031" height="0.347" transform="translate(1.613 5.075) rotate(-48.476)" fill="#b0ffff"/>
      <rect id="Rectángulo_1660" data-name="Rectángulo 1660" width="0.369" height="0.031" transform="translate(1.595 5.282) rotate(-38.853)" fill="#b0ffff"/>
      <rect id="Rectángulo_1661" data-name="Rectángulo 1661" width="0.348" height="0.031" transform="matrix(0.747, -0.665, 0.665, 0.747, 1.98, 5.281)" fill="#b0ffff"/>
      <rect id="Rectángulo_1662" data-name="Rectángulo 1662" width="0.031" height="0.37" transform="translate(1.97 5.075) rotate(-51.685)" fill="#b0ffff"/>
      <rect id="Rectángulo_1663" data-name="Rectángulo 1663" width="0.524" height="0.031" transform="translate(1.672 4.356) rotate(-0.157)" fill="#b0ffff"/>
      <rect id="Rectángulo_1664" data-name="Rectángulo 1664" width="0.483" height="0.031" transform="translate(1.692 4.033) rotate(-0.16)" fill="#b0ffff"/>
      <rect id="Rectángulo_1665" data-name="Rectángulo 1665" width="0.442" height="0.031" transform="translate(1.711 3.719) rotate(-0.156)" fill="#b0ffff"/>
      <rect id="Rectángulo_1666" data-name="Rectángulo 1666" width="0.4" height="0.031" transform="translate(1.724 3.456) rotate(-0.16)" fill="#b0ffff"/>
      <rect id="Rectángulo_1667" data-name="Rectángulo 1667" width="0.391" height="0.031" transform="matrix(1, -0.003, 0.003, 1, 1.735, 3.21)" fill="#b0ffff"/>
      <rect id="Rectángulo_1668" data-name="Rectángulo 1668" width="0.369" height="0.031" transform="translate(1.745 2.98) rotate(-0.16)" fill="#b0ffff"/>
      <rect id="Rectángulo_1669" data-name="Rectángulo 1669" width="0.351" height="0.031" transform="translate(1.754 2.758) rotate(-0.159)" fill="#b0ffff"/>
      <rect id="Rectángulo_1670" data-name="Rectángulo 1670" width="0.335" height="0.031" transform="translate(1.762 2.553) rotate(-0.157)" fill="#b0ffff"/>
      <rect id="Rectángulo_1671" data-name="Rectángulo 1671" width="0.32" height="0.031" transform="translate(1.768 2.36) rotate(-0.154)" fill="#b0ffff"/>
      <rect id="Rectángulo_1672" data-name="Rectángulo 1672" width="0.335" height="0.031" transform="translate(1.761 2.176) rotate(-0.157)" fill="#b0ffff"/>
      <rect id="Rectángulo_1673" data-name="Rectángulo 1673" width="0.031" height="0.389" transform="translate(1.679 4.057) rotate(-34.158)" fill="#b0ffff"/>
      <rect id="Rectángulo_1674" data-name="Rectángulo 1674" width="0.387" height="0.031" transform="matrix(0.584, -0.812, 0.812, 0.584, 1.68, 4.039)" fill="#b0ffff"/>
      <rect id="Rectángulo_1675" data-name="Rectángulo 1675" width="0.031" height="0.327" transform="matrix(0.804, -0.594, 0.594, 0.804, 1.711, 3.481)" fill="#b0ffff"/>
      <rect id="Rectángulo_1676" data-name="Rectángulo 1676" width="0.322" height="0.031" transform="matrix(0.643, -0.766, 0.766, 0.643, 1.712, 3.462)" fill="#b0ffff"/>
      <rect id="Rectángulo_1677" data-name="Rectángulo 1677" width="0.031" height="0.284" transform="translate(1.751 3.005) rotate(-36.136)" fill="#b0ffff"/>
      <rect id="Rectángulo_1678" data-name="Rectángulo 1678" width="0.284" height="0.031" transform="translate(1.733 2.986) rotate(-51.721)" fill="#b0ffff"/>
      <rect id="Rectángulo_1679" data-name="Rectángulo 1679" width="0.031" height="0.259" transform="translate(1.75 2.579) rotate(-38.154)" fill="#b0ffff"/>
      <rect id="Rectángulo_1680" data-name="Rectángulo 1680" width="0.251" height="0.031" transform="translate(1.75 2.559) rotate(-50.671)" fill="#b0ffff"/>
      <rect id="Rectángulo_1681" data-name="Rectángulo 1681" width="0.031" height="0.235" transform="translate(1.762 2.202) rotate(-38.771)" fill="#b0ffff"/>
      <rect id="Rectángulo_1682" data-name="Rectángulo 1682" width="0.279" height="0.031" transform="matrix(0.535, -0.845, 0.845, 0.535, 1.761, 2.184)" fill="#b0ffff"/>
      <rect id="Rectángulo_1683" data-name="Rectángulo 1683" width="0.031" height="0.278" transform="matrix(0.844, -0.536, 0.536, 0.844, 1.766, 1.965)" fill="#b0ffff"/>
      <rect id="Rectángulo_1684" data-name="Rectángulo 1684" width="0.236" height="0.031" transform="translate(1.768 2.366) rotate(-51.147)" fill="#b0ffff"/>
      <rect id="Rectángulo_1685" data-name="Rectángulo 1685" width="0.031" height="0.243" transform="translate(1.768 2.385) rotate(-37.173)" fill="#b0ffff"/>
      <rect id="Rectángulo_1686" data-name="Rectángulo 1686" width="0.258" height="0.031" transform="translate(1.757 2.764) rotate(-52.325)" fill="#b0ffff"/>
      <rect id="Rectángulo_1687" data-name="Rectángulo 1687" width="0.031" height="0.277" transform="matrix(0.803, -0.596, 0.596, 0.803, 1.757, 2.782)" fill="#b0ffff"/>
      <rect id="Rectángulo_1688" data-name="Rectángulo 1688" width="0.304" height="0.031" transform="matrix(0.652, -0.758, 0.758, 0.652, 1.724, 3.216)" fill="#b0ffff"/>
      <rect id="Rectángulo_1689" data-name="Rectángulo 1689" width="0.031" height="0.311" transform="matrix(0.788, -0.616, 0.616, 0.788, 1.723, 3.235)" fill="#b0ffff"/>
      <rect id="Rectángulo_1690" data-name="Rectángulo 1690" width="0.341" height="0.031" transform="matrix(0.635, -0.773, 0.773, 0.635, 1.699, 3.725)" fill="#b0ffff"/>
      <rect id="Rectángulo_1691" data-name="Rectángulo 1691" width="0.031" height="0.371" transform="matrix(0.844, -0.537, 0.537, 0.844, 1.698, 3.743)" fill="#b0ffff"/>
      <rect id="Rectángulo_1692" data-name="Rectángulo 1692" width="0.422" height="0.031" transform="translate(1.659 4.362) rotate(-54.198)" fill="#b0ffff"/>
      <rect id="Rectángulo_1693" data-name="Rectángulo 1693" width="0.573" height="0.031" transform="matrix(1, -0.003, 0.003, 1, 1.649, 4.694)" fill="#b0ffff"/>
      <rect id="Rectángulo_1694" data-name="Rectángulo 1694" width="0.429" height="0.031" transform="translate(1.636 4.7) rotate(-52.299)" fill="#b0ffff"/>
      <rect id="Rectángulo_1695" data-name="Rectángulo 1695" width="0.031" height="0.429" transform="matrix(0.824, -0.567, 0.567, 0.824, 1.636, 4.718)" fill="#b0ffff"/>
      <rect id="Rectángulo_1696" data-name="Rectángulo 1696" width="0.446" height="0.031" transform="translate(1.621 5.064) rotate(-54.678)" fill="#b0ffff"/>
      <rect id="Rectángulo_1697" data-name="Rectángulo 1697" width="0.031" height="0.398" transform="matrix(0.85, -0.527, 0.527, 0.85, 1.68, 4.379)" fill="#b0ffff"/>
      <rect id="Rectángulo_1698" data-name="Rectángulo 1698" width="0.031" height="0.445" transform="matrix(0.793, -0.609, 0.609, 0.793, 1.967, 4.718)" fill="#b0ffff"/>
      <rect id="Rectángulo_1699" data-name="Rectángulo 1699" width="0.417" height="0.031" transform="translate(1.967 5.038) rotate(-54.53)" fill="#b0ffff"/>
      <rect id="Rectángulo_1700" data-name="Rectángulo 1700" width="0.031" height="0.429" transform="translate(1.945 4.38) rotate(-38.096)" fill="#b0ffff"/>
      <rect id="Rectángulo_1701" data-name="Rectángulo 1701" width="0.381" height="0.031" transform="translate(1.944 4.351) rotate(-55.092)" fill="#b0ffff"/>
      <rect id="Rectángulo_1702" data-name="Rectángulo 1702" width="0.031" height="0.374" transform="matrix(0.785, -0.619, 0.619, 0.785, 1.931, 3.744)" fill="#b0ffff"/>
      <rect id="Rectángulo_1703" data-name="Rectángulo 1703" width="0.329" height="0.031" transform="translate(1.93 3.725) rotate(-53.299)" fill="#b0ffff"/>
      <rect id="Rectángulo_1704" data-name="Rectángulo 1704" width="0.031" height="0.322" transform="matrix(0.762, -0.648, 0.648, 0.762, 1.919, 3.235)" fill="#b0ffff"/>
      <rect id="Rectángulo_1705" data-name="Rectángulo 1705" width="0.295" height="0.031" transform="translate(1.918 3.216) rotate(-51.388)" fill="#b0ffff"/>
      <rect id="Rectángulo_1706" data-name="Rectángulo 1706" width="0.031" height="0.282" transform="translate(1.928 2.782) rotate(-38.105)" fill="#b0ffff"/>
      <rect id="Rectángulo_1707" data-name="Rectángulo 1707" width="0.257" height="0.031" transform="translate(1.928 2.763) rotate(-52.632)" fill="#b0ffff"/>
      <rect id="Rectángulo_1708" data-name="Rectángulo 1708" width="0.031" height="0.249" transform="translate(1.927 2.385) rotate(-39.156)" fill="#b0ffff"/>
      <rect id="Rectángulo_1709" data-name="Rectángulo 1709" width="0.233" height="0.031" transform="translate(1.927 2.365) rotate(-52.06)" fill="#b0ffff"/>
      <rect id="Rectángulo_1710" data-name="Rectángulo 1710" width="0.031" height="0.279" transform="translate(1.918 1.965) rotate(-32.72)" fill="#b0ffff"/>
      <rect id="Rectángulo_1711" data-name="Rectángulo 1711" width="0.268" height="0.031" transform="translate(1.915 2.184) rotate(-61.21)" fill="#b0ffff"/>
      <rect id="Rectángulo_1712" data-name="Rectángulo 1712" width="0.031" height="0.243" transform="matrix(0.753, -0.658, 0.658, 0.753, 1.917, 2.202)" fill="#b0ffff"/>
      <rect id="Rectángulo_1713" data-name="Rectángulo 1713" width="0.252" height="0.031" transform="matrix(0.639, -0.769, 0.769, 0.639, 1.915, 2.559)" fill="#b0ffff"/>
      <rect id="Rectángulo_1714" data-name="Rectángulo 1714" width="0.031" height="0.271" transform="matrix(0.751, -0.66, 0.66, 0.751, 1.915, 2.579)" fill="#b0ffff"/>
      <rect id="Rectángulo_1715" data-name="Rectángulo 1715" width="0.282" height="0.031" transform="translate(1.922 2.986) rotate(-52.473)" fill="#b0ffff"/>
      <rect id="Rectángulo_1716" data-name="Rectángulo 1716" width="0.031" height="0.313" transform="translate(1.914 2.994) rotate(-39.777)" fill="#b0ffff"/>
      <rect id="Rectángulo_1717" data-name="Rectángulo 1717" width="0.308" height="0.031" transform="matrix(0.599, -0.801, 0.801, 0.599, 1.93, 3.462)" fill="#b0ffff"/>
      <rect id="Rectángulo_1718" data-name="Rectángulo 1718" width="0.031" height="0.337" transform="translate(1.93 3.481) rotate(-38.791)" fill="#b0ffff"/>
      <rect id="Rectángulo_1719" data-name="Rectángulo 1719" width="0.374" height="0.031" transform="matrix(0.545, -0.838, 0.838, 0.545, 1.936, 4.039)" fill="#b0ffff"/>
      <rect id="Rectángulo_1720" data-name="Rectángulo 1720" width="0.031" height="0.406" transform="translate(1.937 4.057) rotate(-37.482)" fill="#b0ffff"/>
      <path id="Trazado_1252" data-name="Trazado 1252" d="M409.982,213.067l-.026-.017.217-.339.026.017Z" transform="translate(-407.99 -208.35)" fill="#b0ffff"/>
      <rect id="Rectángulo_1721" data-name="Rectángulo 1721" width="0.633" height="0.024" transform="translate(0.535 10.261)" fill="#b0ffff"/>
      <rect id="Rectángulo_1722" data-name="Rectángulo 1722" width="0.507" height="0.028" transform="translate(0.287 10.719)" fill="#b0ffff"/>
      <path id="Trazado_1253" data-name="Trazado 1253" d="M405.209,233.824l-.244-.474.03-.009.244.474Z" transform="translate(-404.43 -223.066)" fill="#b0ffff"/>
      <path id="Trazado_1254" data-name="Trazado 1254" d="M404.087,233.818l-.017-.02.862-.455.017.02Z" transform="translate(-403.791 -223.068)" fill="#b0ffff"/>
      <path id="Trazado_1255" data-name="Trazado 1255" d="M405.045,233.825l-.028-.01.258-.455.028.01Z" transform="translate(-404.467 -223.08)" fill="#b0ffff"/>
      <path id="Trazado_1256" data-name="Trazado 1256" d="M405.789,233.789l-.028-.015.384-.488.028.015Z" transform="translate(-404.997 -223.027)" fill="#b0ffff"/>
      <rect id="Rectángulo_1723" data-name="Rectángulo 1723" width="0.633" height="0.024" transform="translate(2.787 10.261)" fill="#b0ffff"/>
      <rect id="Rectángulo_1724" data-name="Rectángulo 1724" width="0.507" height="0.028" transform="translate(3.16 10.719)" fill="#b0ffff"/>
      <path id="Trazado_1257" data-name="Trazado 1257" d="M414.1,233.824l.244-.474-.03-.009-.244.474Z" transform="translate(-410.925 -223.066)" fill="#b0ffff"/>
      <path id="Trazado_1258" data-name="Trazado 1258" d="M413.715,233.818l.017-.02-.862-.455-.017.02Z" transform="translate(-410.057 -223.068)" fill="#b0ffff"/>
      <path id="Trazado_1259" data-name="Trazado 1259" d="M414.23,233.825l.028-.01L414,233.36l-.028.01Z" transform="translate(-410.855 -223.08)" fill="#b0ffff"/>
      <path id="Trazado_1260" data-name="Trazado 1260" d="M413.176,233.789l.028-.015-.384-.488-.028.015Z" transform="translate(-410.013 -223.027)" fill="#b0ffff"/>
    </g>
    <g id="Grupo_10131" data-name="Grupo 10131" transform="translate(149.933 87.496)">
      <g id="Grupo_10128" data-name="Grupo 10128" transform="translate(0 1.52)">
        <g id="Grupo_10122" data-name="Grupo 10122" transform="translate(0.004 5.134)">
          <path id="Trazado_1261" data-name="Trazado 1261" d="M457.981,220.218a3.187,3.187,0,0,0-1.6.24V221.8a5.516,5.516,0,0,1,3.209,0v-1.343A3.186,3.186,0,0,0,457.981,220.218Z" transform="translate(-456.377 -220.218)" fill="#cdf1fc"/>
          <path id="Trazado_1262" data-name="Trazado 1262" d="M456.748,222.524c-.032.011-.059.021-.081.031v-.833c0-.078.018-.141.041-.141s.041.063.041.141Z" transform="translate(-456.583 -221.19)" fill="#9ad7e5"/>
          <path id="Trazado_1263" data-name="Trazado 1263" d="M457.254,222.332l-.107.029v-.842c0-.078.024-.141.053-.141s.053.063.053.141Z" transform="translate(-456.926 -221.045)" fill="#9ad7e5"/>
          <path id="Trazado_1264" data-name="Trazado 1264" d="M457.933,222.14c-.06.01-.114.02-.163.03v-.856c0-.078.036-.141.081-.141s.081.063.082.141Z" transform="translate(-457.37 -220.899)" fill="#9ad7e5"/>
          <path id="Trazado_1265" data-name="Trazado 1265" d="M458.786,221.958c-.067.007-.129.014-.187.022h-.029v-.87a.112.112,0,1,1,.216,0Z" transform="translate(-457.941 -220.754)" fill="#9ad7e5"/>
          <path id="Trazado_1266" data-name="Trazado 1266" d="M459.934,221.775l-.261.012v-.882a.131.131,0,1,1,.261,0Z" transform="translate(-458.728 -220.607)" fill="#9ad7e5"/>
          <path id="Trazado_1267" data-name="Trazado 1267" d="M461.154,221.774h-.261v-.87a.131.131,0,1,1,.261,0Z" transform="translate(-459.599 -220.607)" fill="#9ad7e5"/>
          <path id="Trazado_1268" data-name="Trazado 1268" d="M462.414,221.773h-.261v-.87a.131.131,0,1,1,.261,0Z" transform="translate(-460.497 -220.606)" fill="#9ad7e5"/>
          <path id="Trazado_1269" data-name="Trazado 1269" d="M463.675,221.785l-.261-.012v-.87a.131.131,0,1,1,.261,0Z" transform="translate(-461.396 -220.606)" fill="#9ad7e5"/>
          <path id="Trazado_1270" data-name="Trazado 1270" d="M464.89,221.97c-.065-.009-.137-.017-.216-.024v-.84a.112.112,0,1,1,.216,0Z" transform="translate(-462.296 -220.75)" fill="#9ad7e5"/>
          <path id="Trazado_1271" data-name="Trazado 1271" d="M465.822,222.154c-.048-.01-.1-.02-.163-.03v-.816c0-.078.036-.142.082-.142s.081.063.081.141Z" transform="translate(-462.998 -220.895)" fill="#9ad7e5"/>
          <path id="Trazado_1272" data-name="Trazado 1272" d="M466.584,222.345c-.031-.01-.066-.02-.107-.03v-.8c0-.078.024-.141.053-.141s.053.063.053.141Z" transform="translate(-463.582 -221.04)" fill="#9ad7e5"/>
          <path id="Trazado_1273" data-name="Trazado 1273" d="M467.128,222.544a.829.829,0,0,0-.081-.035v-.795c0-.078.018-.141.041-.142s.041.063.041.141Z" transform="translate(-463.988 -221.185)" fill="#9ad7e5"/>
        </g>
        <g id="Grupo_10123" data-name="Grupo 10123" transform="translate(0.005 6.418)">
          <path id="Trazado_1274" data-name="Trazado 1274" d="M457.984,224.7a3.187,3.187,0,0,0-1.6.24v1.343a5.518,5.518,0,0,1,3.208,0v-1.342A3.188,3.188,0,0,0,457.984,224.7Z" transform="translate(-456.38 -224.696)" fill="#cdf1fc"/>
          <path id="Trazado_1275" data-name="Trazado 1275" d="M456.751,227c-.033.011-.06.021-.081.031V226.2c0-.078.018-.141.041-.141s.041.063.041.141Z" transform="translate(-456.586 -225.668)" fill="#9ad7e5"/>
          <path id="Trazado_1276" data-name="Trazado 1276" d="M457.258,226.81l-.107.029V226c0-.078.024-.141.053-.141s.054.063.054.141Z" transform="translate(-456.93 -225.523)" fill="#9ad7e5"/>
          <path id="Trazado_1277" data-name="Trazado 1277" d="M457.936,226.618c-.06.01-.114.02-.163.03v-.856c0-.078.036-.141.081-.141s.082.063.082.141Z" transform="translate(-457.373 -225.377)" fill="#9ad7e5"/>
          <path id="Trazado_1278" data-name="Trazado 1278" d="M458.789,226.436c-.067.007-.129.014-.187.022h-.029v-.87a.112.112,0,1,1,.216,0Z" transform="translate(-457.944 -225.232)" fill="#9ad7e5"/>
          <path id="Trazado_1279" data-name="Trazado 1279" d="M459.937,226.253l-.261.012v-.882a.131.131,0,1,1,.261,0Z" transform="translate(-458.731 -225.085)" fill="#9ad7e5"/>
          <path id="Trazado_1280" data-name="Trazado 1280" d="M461.158,226.252H460.9v-.87a.131.131,0,1,1,.261,0Z" transform="translate(-459.602 -225.085)" fill="#9ad7e5"/>
          <path id="Trazado_1281" data-name="Trazado 1281" d="M462.418,226.252h-.261v-.87a.131.131,0,1,1,.261,0Z" transform="translate(-460.5 -225.085)" fill="#9ad7e5"/>
          <path id="Trazado_1282" data-name="Trazado 1282" d="M463.678,226.263l-.261-.012v-.87a.131.131,0,1,1,.261,0Z" transform="translate(-461.399 -225.084)" fill="#9ad7e5"/>
          <path id="Trazado_1283" data-name="Trazado 1283" d="M464.893,226.448c-.065-.009-.137-.017-.216-.024v-.841a.112.112,0,1,1,.216,0Z" transform="translate(-462.299 -225.228)" fill="#9ad7e5"/>
          <path id="Trazado_1284" data-name="Trazado 1284" d="M465.826,226.632c-.048-.01-.1-.02-.163-.03v-.817c0-.078.036-.141.081-.141s.082.063.082.141Z" transform="translate(-463.002 -225.373)" fill="#9ad7e5"/>
          <path id="Trazado_1285" data-name="Trazado 1285" d="M466.588,226.823c-.031-.01-.066-.02-.107-.03v-.8c0-.078.023-.141.053-.141s.053.063.054.141Z" transform="translate(-463.586 -225.518)" fill="#9ad7e5"/>
          <path id="Trazado_1286" data-name="Trazado 1286" d="M467.132,227.022a.832.832,0,0,0-.081-.035v-.795c0-.078.018-.142.041-.142s.041.063.041.141Z" transform="translate(-463.992 -225.663)" fill="#9ad7e5"/>
        </g>
        <g id="Grupo_10124" data-name="Grupo 10124" transform="translate(0.003 3.851)">
          <path id="Trazado_1287" data-name="Trazado 1287" d="M457.978,215.74a3.185,3.185,0,0,0-1.6.24v1.343a5.516,5.516,0,0,1,3.209,0v-1.343A3.188,3.188,0,0,0,457.978,215.74Z" transform="translate(-456.374 -215.74)" fill="#cdf1fc"/>
          <path id="Trazado_1288" data-name="Trazado 1288" d="M456.745,218.046c-.033.011-.06.021-.081.031v-.833c0-.078.018-.141.04-.141s.041.063.041.141Z" transform="translate(-456.58 -216.712)" fill="#9ad7e5"/>
          <path id="Trazado_1289" data-name="Trazado 1289" d="M457.251,217.854l-.107.029v-.842c0-.078.024-.142.053-.142s.053.063.053.141Z" transform="translate(-456.923 -216.567)" fill="#9ad7e5"/>
          <path id="Trazado_1290" data-name="Trazado 1290" d="M457.929,217.662c-.06.01-.114.02-.163.03v-.856c0-.078.036-.141.081-.141s.082.063.082.141Z" transform="translate(-457.366 -216.421)" fill="#9ad7e5"/>
          <path id="Trazado_1291" data-name="Trazado 1291" d="M458.782,217.48q-.1.01-.187.022h-.029v-.87a.112.112,0,1,1,.216,0Z" transform="translate(-457.938 -216.276)" fill="#9ad7e5"/>
          <path id="Trazado_1292" data-name="Trazado 1292" d="M459.93,217.3l-.261.012v-.882a.131.131,0,1,1,.261,0Z" transform="translate(-458.725 -216.13)" fill="#9ad7e5"/>
          <path id="Trazado_1293" data-name="Trazado 1293" d="M461.151,217.3h-.261v-.87a.131.131,0,1,1,.261,0Z" transform="translate(-459.595 -216.13)" fill="#9ad7e5"/>
          <path id="Trazado_1294" data-name="Trazado 1294" d="M462.411,217.3h-.261v-.87a.131.131,0,1,1,.261,0Z" transform="translate(-460.494 -216.129)" fill="#9ad7e5"/>
          <path id="Trazado_1295" data-name="Trazado 1295" d="M463.671,217.307l-.261-.012v-.87a.131.131,0,1,1,.261,0Z" transform="translate(-461.393 -216.128)" fill="#9ad7e5"/>
          <path id="Trazado_1296" data-name="Trazado 1296" d="M464.887,217.492c-.065-.009-.137-.017-.216-.024v-.84a.112.112,0,1,1,.216,0Z" transform="translate(-462.292 -216.272)" fill="#9ad7e5"/>
          <path id="Trazado_1297" data-name="Trazado 1297" d="M465.819,217.676c-.048-.01-.1-.02-.163-.03v-.816c0-.078.036-.142.082-.142s.081.063.081.141Z" transform="translate(-462.995 -216.417)" fill="#9ad7e5"/>
          <path id="Trazado_1298" data-name="Trazado 1298" d="M466.581,217.867c-.031-.01-.066-.02-.107-.03v-.8c0-.078.024-.142.053-.142s.053.063.053.141Z" transform="translate(-463.579 -216.562)" fill="#9ad7e5"/>
          <path id="Trazado_1299" data-name="Trazado 1299" d="M467.125,218.066a.806.806,0,0,0-.082-.035v-.795c0-.078.018-.141.041-.142s.041.063.041.141Z" transform="translate(-463.985 -216.707)" fill="#9ad7e5"/>
        </g>
        <g id="Grupo_10125" data-name="Grupo 10125" transform="translate(0.002 2.567)">
          <path id="Trazado_1300" data-name="Trazado 1300" d="M457.974,211.262a3.192,3.192,0,0,0-1.6.24v1.343a5.515,5.515,0,0,1,3.208,0V211.5A3.188,3.188,0,0,0,457.974,211.262Z" transform="translate(-456.37 -211.262)" fill="#cdf1fc"/>
          <path id="Trazado_1301" data-name="Trazado 1301" d="M456.741,213.568c-.033.011-.06.021-.082.031v-.833c0-.078.018-.141.041-.141s.041.063.041.141Z" transform="translate(-456.576 -212.234)" fill="#9ad7e5"/>
          <path id="Trazado_1302" data-name="Trazado 1302" d="M457.248,213.376l-.107.029v-.842c0-.078.024-.142.053-.142s.054.063.054.141Z" transform="translate(-456.92 -212.089)" fill="#9ad7e5"/>
          <path id="Trazado_1303" data-name="Trazado 1303" d="M457.926,213.184c-.06.01-.114.02-.163.03v-.856c0-.078.036-.142.081-.142s.082.063.082.141Z" transform="translate(-457.363 -211.943)" fill="#9ad7e5"/>
          <path id="Trazado_1304" data-name="Trazado 1304" d="M458.779,213q-.1.01-.187.022h-.029v-.87a.112.112,0,1,1,.216,0Z" transform="translate(-457.934 -211.798)" fill="#9ad7e5"/>
          <path id="Trazado_1305" data-name="Trazado 1305" d="M459.927,212.82l-.261.012v-.882a.131.131,0,1,1,.261,0Z" transform="translate(-458.721 -211.652)" fill="#9ad7e5"/>
          <path id="Trazado_1306" data-name="Trazado 1306" d="M461.147,212.819h-.261v-.87a.131.131,0,1,1,.261,0Z" transform="translate(-459.592 -211.651)" fill="#9ad7e5"/>
          <path id="Trazado_1307" data-name="Trazado 1307" d="M462.408,212.818h-.261v-.87a.131.131,0,1,1,.261,0Z" transform="translate(-460.49 -211.651)" fill="#9ad7e5"/>
          <path id="Trazado_1308" data-name="Trazado 1308" d="M463.668,212.829l-.261-.012v-.87a.131.131,0,1,1,.261,0Z" transform="translate(-461.39 -211.65)" fill="#9ad7e5"/>
          <path id="Trazado_1309" data-name="Trazado 1309" d="M464.883,213.014c-.065-.009-.137-.017-.216-.024v-.84a.112.112,0,1,1,.216,0Z" transform="translate(-462.289 -211.794)" fill="#9ad7e5"/>
          <path id="Trazado_1310" data-name="Trazado 1310" d="M465.816,213.2c-.048-.01-.1-.02-.163-.03v-.816c0-.078.036-.142.081-.142s.082.063.082.141Z" transform="translate(-462.992 -211.939)" fill="#9ad7e5"/>
          <path id="Trazado_1311" data-name="Trazado 1311" d="M466.578,213.389c-.031-.01-.067-.02-.107-.03v-.8c0-.078.024-.142.053-.142s.053.063.054.141Z" transform="translate(-463.575 -212.084)" fill="#9ad7e5"/>
          <path id="Trazado_1312" data-name="Trazado 1312" d="M467.122,213.589a.83.83,0,0,0-.081-.035v-.795c0-.078.018-.141.041-.141s.041.063.041.141Z" transform="translate(-463.982 -212.229)" fill="#9ad7e5"/>
        </g>
        <g id="Grupo_10126" data-name="Grupo 10126" transform="translate(0.001 1.284)">
          <path id="Trazado_1313" data-name="Trazado 1313" d="M457.971,206.784a3.192,3.192,0,0,0-1.6.24v1.343a5.516,5.516,0,0,1,3.209,0v-1.343A3.188,3.188,0,0,0,457.971,206.784Z" transform="translate(-456.367 -206.784)" fill="#cdf1fc"/>
          <path id="Trazado_1314" data-name="Trazado 1314" d="M456.738,209.09c-.033.011-.06.021-.082.031v-.832c0-.078.018-.142.041-.142s.041.063.041.141Z" transform="translate(-456.573 -207.756)" fill="#9ad7e5"/>
          <path id="Trazado_1315" data-name="Trazado 1315" d="M457.244,208.9c-.04.01-.075.019-.107.029v-.842c0-.078.024-.142.053-.142s.053.063.053.141Z" transform="translate(-456.916 -207.611)" fill="#9ad7e5"/>
          <path id="Trazado_1316" data-name="Trazado 1316" d="M457.923,208.706c-.06.01-.114.02-.163.03v-.856c0-.078.036-.142.081-.142s.082.063.081.141Z" transform="translate(-457.36 -207.465)" fill="#9ad7e5"/>
          <path id="Trazado_1317" data-name="Trazado 1317" d="M458.776,208.524c-.067.007-.129.014-.187.022h-.029v-.87a.112.112,0,1,1,.216,0Z" transform="translate(-457.931 -207.32)" fill="#9ad7e5"/>
          <path id="Trazado_1318" data-name="Trazado 1318" d="M459.924,208.342l-.261.013v-.882a.131.131,0,1,1,.261,0Z" transform="translate(-458.718 -207.174)" fill="#9ad7e5"/>
          <path id="Trazado_1319" data-name="Trazado 1319" d="M461.144,208.341h-.261v-.87a.131.131,0,1,1,.261,0Z" transform="translate(-459.589 -207.174)" fill="#9ad7e5"/>
          <path id="Trazado_1320" data-name="Trazado 1320" d="M462.4,208.34h-.261v-.87a.131.131,0,1,1,.261,0Z" transform="translate(-460.487 -207.173)" fill="#9ad7e5"/>
          <path id="Trazado_1321" data-name="Trazado 1321" d="M463.665,208.351l-.261-.012v-.87a.131.131,0,1,1,.261,0Z" transform="translate(-461.386 -207.172)" fill="#9ad7e5"/>
          <path id="Trazado_1322" data-name="Trazado 1322" d="M464.88,208.536c-.065-.009-.137-.017-.216-.024v-.841a.112.112,0,1,1,.216,0Z" transform="translate(-462.286 -207.316)" fill="#9ad7e5"/>
          <path id="Trazado_1323" data-name="Trazado 1323" d="M465.813,208.72c-.048-.01-.1-.02-.163-.03v-.816c0-.078.036-.141.081-.142s.081.063.081.141Z" transform="translate(-462.989 -207.461)" fill="#9ad7e5"/>
          <path id="Trazado_1324" data-name="Trazado 1324" d="M466.574,208.911c-.031-.01-.066-.02-.107-.03v-.8c0-.078.024-.141.053-.142s.053.063.053.141Z" transform="translate(-463.572 -207.606)" fill="#9ad7e5"/>
          <path id="Trazado_1325" data-name="Trazado 1325" d="M467.118,209.11a.826.826,0,0,0-.081-.035v-.795c0-.078.018-.142.041-.142s.041.063.041.142Z" transform="translate(-463.978 -207.751)" fill="#9ad7e5"/>
        </g>
        <g id="Grupo_10127" data-name="Grupo 10127">
          <path id="Trazado_1326" data-name="Trazado 1326" d="M457.967,202.306a3.192,3.192,0,0,0-1.6.24v1.343a5.516,5.516,0,0,1,3.209,0v-1.343A3.188,3.188,0,0,0,457.967,202.306Z" transform="translate(-456.363 -202.306)" fill="#cdf1fc"/>
          <path id="Trazado_1327" data-name="Trazado 1327" d="M456.735,204.612c-.033.011-.06.021-.081.031v-.832c0-.078.018-.142.04-.142s.041.063.041.141Z" transform="translate(-456.57 -203.278)" fill="#9ad7e5"/>
          <path id="Trazado_1328" data-name="Trazado 1328" d="M457.241,204.42l-.107.029v-.842c0-.078.024-.142.053-.142s.053.063.053.141Z" transform="translate(-456.913 -203.133)" fill="#9ad7e5"/>
          <path id="Trazado_1329" data-name="Trazado 1329" d="M457.919,204.228c-.06.01-.114.02-.163.03V203.4c0-.078.036-.142.081-.142s.082.063.082.141Z" transform="translate(-457.356 -202.987)" fill="#9ad7e5"/>
          <path id="Trazado_1330" data-name="Trazado 1330" d="M458.772,204.046c-.067.007-.129.014-.187.022h-.029v-.87a.112.112,0,1,1,.216,0Z" transform="translate(-457.927 -202.842)" fill="#9ad7e5"/>
          <path id="Trazado_1331" data-name="Trazado 1331" d="M459.92,203.864l-.261.013v-.882a.131.131,0,1,1,.261,0Z" transform="translate(-458.714 -202.696)" fill="#9ad7e5"/>
          <path id="Trazado_1332" data-name="Trazado 1332" d="M461.141,203.863h-.261v-.87a.131.131,0,1,1,.261,0Z" transform="translate(-459.585 -202.695)" fill="#9ad7e5"/>
          <path id="Trazado_1333" data-name="Trazado 1333" d="M462.4,203.862h-.261v-.87a.131.131,0,1,1,.261,0Z" transform="translate(-460.484 -202.695)" fill="#9ad7e5"/>
          <path id="Trazado_1334" data-name="Trazado 1334" d="M463.661,203.873l-.261-.012v-.87a.131.131,0,1,1,.261,0Z" transform="translate(-461.383 -202.694)" fill="#9ad7e5"/>
          <path id="Trazado_1335" data-name="Trazado 1335" d="M464.877,204.059c-.065-.009-.137-.017-.216-.024v-.841a.112.112,0,1,1,.216,0Z" transform="translate(-462.283 -202.839)" fill="#9ad7e5"/>
          <path id="Trazado_1336" data-name="Trazado 1336" d="M465.809,204.242c-.048-.01-.1-.02-.163-.03V203.4c0-.078.036-.141.081-.142s.082.063.082.141Z" transform="translate(-462.985 -202.983)" fill="#9ad7e5"/>
          <path id="Trazado_1337" data-name="Trazado 1337" d="M466.571,204.433c-.031-.01-.066-.02-.107-.03v-.8c0-.078.024-.142.053-.142s.053.063.053.142Z" transform="translate(-463.569 -203.128)" fill="#9ad7e5"/>
          <path id="Trazado_1338" data-name="Trazado 1338" d="M467.115,204.633a.878.878,0,0,0-.082-.035V203.8c0-.078.018-.141.041-.141s.041.063.041.141Z" transform="translate(-463.975 -203.273)" fill="#9ad7e5"/>
        </g>
      </g>
      <g id="Grupo_10129" data-name="Grupo 10129" transform="translate(0.459 0)">
        <path id="Trazado_1339" data-name="Trazado 1339" d="M459.143,197a2,2,0,0,0-1.177.263v1.353l2.355,0v-1.353A2,2,0,0,0,459.143,197Z" transform="translate(-457.966 -197.003)" fill="#cdf1fc"/>
        <path id="Trazado_1340" data-name="Trazado 1340" d="M461.737,197.656c.124,0,.136.156.136.156H461.6S461.613,197.656,461.737,197.656Z" transform="translate(-460.56 -197.469)" fill="#9ad7e5"/>
        <path id="Trazado_1341" data-name="Trazado 1341" d="M458.246,198.288c.1-.033.155.095.155.095l-.228.072S458.142,198.32,458.246,198.288Z" transform="translate(-458.111 -197.916)" fill="#9ad7e5"/>
        <path id="Trazado_1342" data-name="Trazado 1342" d="M458.95,200.191c-.143.011-.267.026-.374.043v-.487c0-.152.083-.276.187-.276s.187.124.187.276Z" transform="translate(-458.4 -198.763)" fill="#9ad7e5"/>
        <path id="Trazado_1343" data-name="Trazado 1343" d="M459.162,198.105s-.018-.155.1-.178.162.127.162.127Z" transform="translate(-458.818 -197.66)" fill="#9ad7e5"/>
        <path id="Trazado_1344" data-name="Trazado 1344" d="M460.46,197.726c.123-.01.148.144.148.144l-.27.023S460.336,197.736,460.46,197.726Z" transform="translate(-459.658 -197.518)" fill="#9ad7e5"/>
        <path id="Trazado_1345" data-name="Trazado 1345" d="M461.7,199.872c-.08,0-.164,0-.253,0s-.173,0-.253,0v-.545a.254.254,0,1,1,.507,0Z" transform="translate(-460.267 -198.464)" fill="#9ad7e5"/>
        <path id="Trazado_1346" data-name="Trazado 1346" d="M462.833,197.868s.024-.154.148-.144.122.166.122.166Z" transform="translate(-461.438 -197.517)" fill="#9ad7e5"/>
        <path id="Trazado_1347" data-name="Trazado 1347" d="M464.183,197.923c.122.023.1.178.1.178l-.266-.051S464.061,197.9,464.183,197.923Z" transform="translate(-462.285 -197.658)" fill="#9ad7e5"/>
        <path id="Trazado_1348" data-name="Trazado 1348" d="M464.663,200.23c-.107-.017-.231-.032-.374-.043v-.445c0-.152.084-.276.187-.276s.187.123.187.276Z" transform="translate(-462.476 -198.76)" fill="#9ad7e5"/>
        <path id="Trazado_1349" data-name="Trazado 1349" d="M465.362,198.449l-.228-.071s.051-.128.155-.1S465.362,198.449,465.362,198.449Z" transform="translate(-463.079 -197.912)" fill="#9ad7e5"/>
      </g>
      <g id="Grupo_10130" data-name="Grupo 10130" transform="translate(0.006 9.27)">
        <path id="Trazado_1350" data-name="Trazado 1350" d="M457.988,229.344a3.185,3.185,0,0,0-1.6.24v2.09h3.209l0-2.09A3.187,3.187,0,0,0,457.988,229.344Z" transform="translate(-456.384 -229.344)" fill="#cdf1fc"/>
        <path id="Trazado_1351" data-name="Trazado 1351" d="M456.718,232.311v-1.238l.017,0a.044.044,0,1,0-.01-.087h-.007v-.11c0-.141.055-.255.123-.255s.123.114.124.255v.083l-.021,0a.044.044,0,0,0,0,.087h.016v1.265Z" transform="translate(-456.622 -230.254)" fill="#9ad7e5"/>
        <path id="Trazado_1352" data-name="Trazado 1352" d="M457.971,232.056V230.78l.021,0a.044.044,0,1,0-.008-.087h-.013v-.159c0-.149.088-.271.2-.271s.2.121.2.27v.129h-.015a.044.044,0,0,0,0,.087h.013v1.307Z" transform="translate(-457.515 -229.999)" fill="#9ad7e5"/>
        <path id="Trazado_1353" data-name="Trazado 1353" d="M459.8,231.946v-1.315h.015a.044.044,0,0,0,.041-.046.043.043,0,0,0-.046-.041h-.01v-.158a.268.268,0,1,1,.535,0v.139H460.3a.044.044,0,0,0,0,.087h.031v1.334Z" transform="translate(-458.821 -229.889)" fill="#9ad7e5"/>
        <path id="Trazado_1354" data-name="Trazado 1354" d="M462.283,231.944v-1.336h.025a.044.044,0,1,0,0-.087h-.025v-.138a.268.268,0,1,1,.535,0v.147h-.031a.045.045,0,0,0-.045.042.044.044,0,0,0,.042.045l.035,0v1.326Z" transform="translate(-460.591 -229.888)" fill="#9ad7e5"/>
        <path id="Trazado_1355" data-name="Trazado 1355" d="M464.617,232.051v-1.319h.019a.044.044,0,0,0,0-.087h-.021v-.117c0-.149.088-.271.2-.271s.2.121.2.27v.145l-.017,0a.044.044,0,0,0-.008.087l.026,0v1.29Z" transform="translate(-462.256 -229.995)" fill="#9ad7e5"/>
        <path id="Trazado_1356" data-name="Trazado 1356" d="M466.387,232.3v-1.279h.012a.044.044,0,0,0,0-.087l-.017,0v-.07c0-.141.055-.255.123-.255s.123.114.124.255v.1h0a.044.044,0,1,0-.012.087l.016,0V232.3Z" transform="translate(-463.519 -230.249)" fill="#9ad7e5"/>
      </g>
    </g>
  </g>
  <g id="Layer_2" data-name="Layer 2" transform="translate(20.922 8.674)">
    <g id="vector" transform="translate(0)">
      <g id="Grupo_781" data-name="Grupo 781" transform="translate(0 35.855)">
        <path id="Trazado_744" data-name="Trazado 744" d="M249.279,331.038c1.543-2.281,2.187-4.094,2.187-4.808,0-7.07-23.9-14.617-47.891-16,0-3.556-17.161-27.227-27.221-27.227-7.156,0-12.064,4.561-12.064,15.077a49.109,49.109,0,0,0,12.734,32.961Z" transform="translate(-164.29 -283)" fill="#e0e0e0"/>
      </g>
      <g id="Grupo_782" data-name="Grupo 782" transform="translate(72.766 36.537)">
        <path id="Trazado_745" data-name="Trazado 745" d="M750.451,309.5c.973,0,1.487-9.324,1.487-10.352s-2.225-10.769-8.969-10.769c-2.543,0-4.349,2.653-4.349,5.97,0,4.588,6.255,8,7.222,9.028C747.508,305.153,748.392,309.5,750.451,309.5Z" transform="translate(-738.62 -288.38)" fill="#fd8369"/>
      </g>
      <g id="Grupo_783" data-name="Grupo 783" transform="translate(83.582 32.338)">
        <path id="Trazado_746" data-name="Trazado 746" d="M826.227,285.177c-.6,0-2.237-4.523-2.237-8.261,0-4.356,3.972-9.686,4.5-11.609.941-3.411,2.492-10.067,7.222-10.067,2.686,0,4.275,2.949,4.275,6.013,0,2.949-2.876,5.5-5.463,8.434-2.534,2.874-2.241,5.3-3.651,8.812C829.432,282.091,827.071,285.177,826.227,285.177Z" transform="translate(-823.99 -255.24)" fill="#ffd98e"/>
      </g>
      <g id="Grupo_784" data-name="Grupo 784" transform="translate(85.519 36.196)">
        <path id="Trazado_747" data-name="Trazado 747" d="M839.52,310.951a.151.151,0,0,1-.148-.126c-.88-5.195,4.621-20.671,8.918-25.09a.151.151,0,0,1,.216.21c-1.94,2-4.359,6.636-6.312,12.111s-2.925,10.359-2.525,12.718a.15.15,0,0,1-.123.174Z" transform="translate(-839.278 -285.69)" fill="#fd8369"/>
      </g>
      <g id="Grupo_785" data-name="Grupo 785" transform="translate(78.333 40.077)">
        <path id="Trazado_748" data-name="Trazado 748" d="M788.865,329.519a.151.151,0,0,1-.15-.137c-.369-3.964-5.335-12.164-6.1-12.8a.151.151,0,0,1,.192-.233c.894.738,5.833,8.956,6.209,13a.151.151,0,0,1-.136.164Z" transform="translate(-782.56 -316.32)" fill="#ffd98e"/>
      </g>
      <g id="Grupo_786" data-name="Grupo 786" transform="translate(79.27 60.347)">
        <path id="Trazado_749" data-name="Trazado 749" d="M796.824,476.31H803.6l-3.387,23.547h-6.866L789.96,476.31h6.772" transform="translate(-789.96 -476.31)" fill="#c9c9c9"/>
      </g>
      <g id="Grupo_787" data-name="Grupo 787" transform="translate(23.218 30.867)">
        <path id="Trazado_750" data-name="Trazado 750" d="M353.363,243.63c0,10.754,3.294,10.7,3.294,12.264,0,3.07-1.534,2.711-1.534,2.711S339.32,257.065,353.363,243.63Z" transform="translate(-347.548 -243.63)"/>
      </g>
      <g id="Grupo_789" data-name="Grupo 789" transform="translate(58.249 -8.674)">
        <path id="Trazado_752" data-name="Trazado 752" d="M616.92,14.85a.221.221,0,0,1-.221-.221V.221a.221.221,0,0,1,.443,0V14.628A.221.221,0,0,1,616.92,14.85Z" transform="translate(-616.699 0)" fill="#c4c4c4"/>
      </g>
      <g id="Grupo_791" data-name="Grupo 791" transform="translate(55.292 14.322)">
        <ellipse id="Elipse_2" data-name="Elipse 2" cx="3.179" cy="3.179" rx="3.179" ry="3.179" fill="#ffe4ad"/>
      </g>
      <g id="Grupo_792" data-name="Grupo 792" transform="translate(40.276 61.897)">
        <path id="Trazado_753" data-name="Trazado 753" d="M528.56,499.515c-.825-1.437-30.661-10.629-34.1-10.769-6.462-1.095-10.715,2.434-12.281,5.511a148.21,148.21,0,0,1,15,4.081h.446c.253-.014.541-.016.872-.008,2.269-.027,4.162-.08,5.183-.141,3.1,1.155,23.284,5.622,23.781,5.352S528.926,500.151,528.56,499.515Z" transform="translate(-482.18 -488.542)" fill="#5fc5d1"/>
      </g>
      <g id="Grupo_793" data-name="Grupo 793" transform="translate(19.597 39.339)">
        <path id="Trazado_754" data-name="Trazado 754" d="M331.929,337.423a67.306,67.306,0,0,1,9.414,1.737,12.125,12.125,0,0,0,4-9.249c-5.842-11.476-18.968-10.57-24.516-19.411-.924.76-1.126,6.3-1.827,9.528-.253,1.183.959,4.6,2.787,8.48A88.133,88.133,0,0,1,331.929,337.423Z" transform="translate(-318.966 -310.5)" fill="#ffd98e"/>
      </g>
      <g id="Grupo_794" data-name="Grupo 794" transform="translate(85.454 73.756)">
        <path id="Trazado_755" data-name="Trazado 755" d="M839.553,582.15l2.619.673-.806,2.637-2.6-.467Z" transform="translate(-838.77 -582.15)" fill="#e49d75"/>
      </g>
      <g id="Grupo_795" data-name="Grupo 795" transform="translate(22.751 37.702)">
        <path id="Trazado_756" data-name="Trazado 756" d="M346.551,297.6a20.707,20.707,0,0,0,.29,4.419C345.971,302,340.776,297.227,346.551,297.6Z" transform="translate(-343.863 -297.578)" fill="#e49d75"/>
      </g>
      <g id="Grupo_796" data-name="Grupo 796" transform="translate(19.63 26.326)">
        <ellipse id="Elipse_3" data-name="Elipse 3" cx="4.593" cy="6.018" rx="4.593" ry="6.018" fill="#e49d75"/>
      </g>
      <g id="Grupo_797" data-name="Grupo 797" transform="translate(15.576 24.679)">
        <path id="Trazado_757" data-name="Trazado 757" d="M295.592,194.79c-5.988,0-8.362,8.667-8.362,13.43,0,4.268,1.6,5.411,2.334,5.761a33.249,33.249,0,0,0,3.753.7c1.508.366,2.326,1.75,3.72,1.75a1.851,1.851,0,0,0,1.719-1.9c0-3.445-5.763-6.335-5.763-11.461,1.1-.38,5.24-3.392,5.24-4.59,0,.813,2.116,3.023,2.473,3.18C300.863,201.14,300,194.79,295.592,194.79Z" transform="translate(-287.23 -194.79)"/>
      </g>
      <g id="Grupo_798" data-name="Grupo 798" transform="translate(39.589 47.604)">
        <rect id="Rectángulo_248" data-name="Rectángulo 248" width="11.939" height="6.687" transform="translate(0 11.919) rotate(-86.71)" fill="#e0e0e0"/>
      </g>
      <g id="Grupo_799" data-name="Grupo 799" transform="translate(47.819 44.078)">
        <path id="Trazado_758" data-name="Trazado 758" d="M546.29,359.82l-4.57,3.529.685-11.92,4.57-3.529Z" transform="translate(-541.72 -347.9)" fill="#c9c9c9"/>
      </g>
      <g id="Grupo_800" data-name="Grupo 800" transform="translate(40.536 46.699)">
        <path id="Trazado_759" data-name="Trazado 759" d="M491.087,369.925l-.023,0-6.7-1.034a.151.151,0,0,1,.046-.3l6.7,1.034a.151.151,0,0,1-.023.3Z" transform="translate(-484.24 -368.589)" fill="#d3d3d3"/>
      </g>
      <g id="Grupo_801" data-name="Grupo 801" transform="translate(47.547 43.714)">
        <path id="Trazado_760" data-name="Trazado 760" d="M539.72,349.35a.151.151,0,0,1-.117-.246l3.255-4.019a.151.151,0,1,1,.234.19l-3.255,4.019A.151.151,0,0,1,539.72,349.35Z" transform="translate(-539.57 -345.03)" fill="#d3d3d3"/>
      </g>
      <g id="Grupo_802" data-name="Grupo 802" transform="translate(47.811 44.066)">
        <path id="Trazado_761" data-name="Trazado 761" d="M541.81,351.669a.151.151,0,0,1-.1-.262l3.862-3.558a.151.151,0,0,1,.2.222l-3.862,3.558A.15.15,0,0,1,541.81,351.669Z" transform="translate(-541.66 -347.81)" fill="#d3d3d3"/>
      </g>
      <g id="Grupo_803" data-name="Grupo 803" transform="translate(72.605 72.128)">
        <path id="Trazado_762" data-name="Trazado 762" d="M737.35,570.365l1.287,1.892,1.829-1.128-1.086-1.829Z" transform="translate(-737.35 -569.3)" fill="#e49d75"/>
      </g>
      <g id="Grupo_805" data-name="Grupo 805" transform="translate(46.291 5.955)">
        <path id="Trazado_764" data-name="Trazado 764" d="M564.55,78.69a12.18,12.18,0,0,0-12.18,12.18v0h24.352A12.182,12.182,0,0,0,564.55,78.69Z" transform="translate(-552.37 -78.69)" fill="#fd8369"/>
      </g>
      <g id="Grupo_809" data-name="Grupo 809" transform="translate(19.762 32.344)">
        <ellipse id="Elipse_4" data-name="Elipse 4" cx="1.196" cy="1.196" rx="1.196" ry="1.196" fill="#e49d75"/>
      </g>
      <g id="Grupo_810" data-name="Grupo 810" transform="translate(46.263 47.606)">
        <path id="Trazado_768" data-name="Trazado 768" d="M531,387.67l-1.556.384.685-11.918,1.556-.385Z" transform="translate(-529.44 -375.75)" fill="#d3d3d3"/>
      </g>
      <g id="Grupo_811" data-name="Grupo 811" transform="translate(73.53 73.599)">
        <path id="Trazado_769" data-name="Trazado 769" d="M744.65,582.295l.945,2.614,7.922-2.011-.3-1.529-6.434-.459Z" transform="translate(-744.65 -580.91)"/>
      </g>
      <g id="Grupo_812" data-name="Grupo 812" transform="translate(87.905 70.243)">
        <path id="Trazado_770" data-name="Trazado 770" d="M858.11,561.1l2.51,1.2,4.224-7-1.289-.875-4.9,4.2Z" transform="translate(-858.11 -554.42)"/>
      </g>
      <g id="Grupo_813" data-name="Grupo 813" transform="translate(38.555 46.312)">
        <path id="Trazado_771" data-name="Trazado 771" d="M490.546,365.544c-6.127,1.394-16.715,12.67-21.946,20.915,3.792.8,8.362,1.955,11.827,2.927,5.272-4.1,9.122-10.643,9.692-11.423,1.439,2.931,11.666,14.862,12.416,14.862a3.094,3.094,0,0,0,2.45-1.438C504.555,388.829,493.795,365.08,490.546,365.544Z" transform="translate(-468.6 -365.537)" fill="#6bd5e1"/>
      </g>
      <g id="Grupo_814" data-name="Grupo 814" transform="translate(18.588 50.258)">
        <path id="Trazado_772" data-name="Trazado 772" d="M318.466,406.666c4.747-.432,13.961-2.125,14.749-2.292.991-.209,1.89-3.3,1.02-5.132-.3-.54-.633-.554-.887-.494s-.858,2.288-1.475,2.407-12.022.8-12.986.844a46.477,46.477,0,0,0-1.565-5.295c-.279-.343-6.322,2.7-6.322,2.7a20.838,20.838,0,0,0,.973,2.3C314.156,403.2,316.412,404.953,318.466,406.666Z" transform="translate(-311 -396.677)" fill="#e49d75"/>
      </g>
      <g id="Grupo_815" data-name="Grupo 815" transform="translate(15.779 41.189)">
        <path id="Trazado_773" data-name="Trazado 773" d="M290.844,325.215c1.982-.7,6.44,1.793,7.768,8.862-.76,1.063-4.941,3.387-7.37,3.352C290.18,336.491,286.628,326.7,290.844,325.215Z" transform="translate(-288.832 -325.102)" fill="#ffe4ad"/>
      </g>
    </g>
  </g>
</svg>
