<svg width="189" height="146" viewBox="0 0 189 146" fill="none" xmlns="http://www.w3.org/2000/svg">
<path d="M181.45 0.0549927H7.55C3.656 0.0549927 0.5 1.89999 0.5 4.17599V141.555C0.5 143.831 3.656 145.676 7.55 145.676H181.45C185.344 145.676 188.5 143.831 188.5 141.555V4.17599C188.5 1.89999 185.344 0.0549927 181.45 0.0549927Z" fill="white"/>
<path d="M181.45 0.0549927H176.45V1.05499H181.45V0.0549927ZM171.45 0.0549927H166.45V1.05499H171.45V0.0549927ZM161.45 0.0549927H156.45V1.05499H161.45V0.0549927ZM151.45 0.0549927H146.45V1.05499H151.45V0.0549927ZM141.45 0.0549927H136.45V1.05499H141.45V0.0549927ZM131.45 0.0549927H126.45V1.05499H131.45V0.0549927ZM121.45 0.0549927H116.45V1.05499H121.45V0.0549927ZM111.45 0.0549927H106.45V1.05499H111.45V0.0549927ZM101.45 0.0549927H96.45V1.05499H101.45V0.0549927ZM91.45 0.0549927H86.45V1.05499H91.45V0.0549927ZM81.45 0.0549927H76.45V1.05499H81.45V0.0549927ZM71.45 0.0549927H66.45V1.05499H71.45V0.0549927ZM61.45 0.0549927H56.45V1.05499H61.45V0.0549927ZM51.45 0.0549927H46.45V1.05499H51.45V0.0549927ZM41.45 0.0549927H36.45V1.05499H41.45V0.0549927ZM31.45 0.0549927H26.45V1.05499H31.45V0.0549927ZM21.45 0.0549927H16.45V1.05499H21.45V0.0549927ZM11.45 0.0549927H7.55C7.54668 0.0549927 7.5432 0.0550079 7.53987 0.0550079C7.5387 0.0550079 7.53748 0.0550079 7.53629 0.0550079C7.53392 0.0550079 7.53162 0.0550079 7.52924 0.0550232C7.52806 0.0550232 7.52689 0.0550232 7.5257 0.0550232C7.52284 0.0550232 7.52002 0.0550385 7.51717 0.0550385C7.51662 0.0550385 7.51605 0.0550537 7.51552 0.0550537C7.51195 0.0550537 7.50891 0.055069 7.50536 0.0550842C7.50426 0.0550842 7.50314 0.0550842 7.50206 0.0550995C7.49945 0.0550995 7.49739 0.0551147 7.49478 0.05513C7.49362 0.05513 7.49245 0.05513 7.49129 0.0551453C7.48845 0.0551605 7.48625 0.0551605 7.48341 0.0551758C7.48264 0.055191 7.48186 0.055191 7.48108 0.055191C7.47777 0.0552063 7.47417 0.0552368 7.47086 0.0552521C7.46989 0.0552673 7.46898 0.0552673 7.46802 0.0552673C7.46541 0.0552979 7.4632 0.0553131 7.46059 0.0553284C7.45926 0.0553284 7.45789 0.0553436 7.45657 0.0553589C7.45419 0.0553741 7.45227 0.0553894 7.44991 0.0554047C7.44875 0.0554199 7.4476 0.0554199 7.44644 0.0554352C7.44313 0.0554657 7.43958 0.0554962 7.43626 0.0555267C7.43597 0.0555267 7.43571 0.0555267 7.43542 0.0555267C7.43234 0.0555573 7.42892 0.055603 7.42586 0.0556335C7.42488 0.0556335 7.42392 0.0556488 7.42294 0.0556641C7.42058 0.0556793 7.41759 0.0557098 7.41522 0.0557404C7.41423 0.0557556 7.41325 0.0557556 7.41225 0.0557709C7.40941 0.0558014 7.40617 0.0558472 7.40334 0.0558777C7.40282 0.0558777 7.4023 0.0558929 7.40178 0.0558929C7.39822 0.0559387 7.39523 0.0559692 7.39168 0.056015C7.39055 0.0560303 7.3894 0.0560455 7.38828 0.0560608C7.38591 0.0560913 7.38367 0.0561218 7.3813 0.0561523C7.38013 0.0561676 7.37897 0.0561829 7.37779 0.0562134C7.37518 0.0562439 7.37296 0.0562744 7.37036 0.0563202C7.36931 0.0563354 7.36827 0.0563354 7.36723 0.056366C7.36392 0.0564117 7.36057 0.0564575 7.35725 0.0565186C7.35641 0.0565186 7.35559 0.0565338 7.35475 0.0565491C7.35216 0.0565948 7.34947 0.0566406 7.34688 0.0566711C7.34584 0.0567017 7.34482 0.0567169 7.34377 0.0567322C7.34094 0.056778 7.33838 0.0568237 7.33554 0.0568695C7.33481 0.0568848 7.33408 0.0569 7.33333 0.0569153C7.3298 0.0569763 7.32643 0.0570374 7.32289 0.0570984C7.32253 0.0570984 7.3221 0.0571136 7.32175 0.0571136C7.31868 0.0571747 7.31564 0.0572357 7.31259 0.0572968C7.31161 0.057312 7.31068 0.0573273 7.30971 0.0573425C7.30687 0.0574036 7.30452 0.0574493 7.3017 0.0575104C7.30081 0.0575256 7.29991 0.0575409 7.29904 0.0575562C7.29196 0.0577087 7.28543 0.0578461 7.27837 0.0579987C7.27748 0.0580292 7.27657 0.0580444 7.2757 0.0580597C7.2731 0.0581207 7.27023 0.0581818 7.26765 0.0582428C7.26672 0.0582733 7.26578 0.0582886 7.26485 0.0583038C7.26202 0.0583801 7.25922 0.0584412 7.25639 0.0585175C7.25575 0.0585327 7.2551 0.058548 7.25447 0.0585632C7.25117 0.0586395 7.24728 0.0587311 7.24399 0.0588074C7.24344 0.0588226 7.24284 0.0588379 7.24228 0.0588531C7.23946 0.0589294 7.2366 0.0590057 7.23378 0.0590668C7.23274 0.0590973 7.23166 0.0591278 7.23062 0.0591583C7.2278 0.0592346 7.22537 0.0592957 7.22256 0.0593719C7.22186 0.0593872 7.22113 0.0594025 7.22043 0.0594177C7.2169 0.0595245 7.21349 0.0596161 7.20996 0.0597076C7.20956 0.0597229 7.20914 0.0597382 7.20874 0.0597382C7.20569 0.0598297 7.20267 0.0599213 7.19962 0.0599976C7.19862 0.0600281 7.19762 0.0600586 7.19662 0.0600891C7.19429 0.0601501 7.19193 0.0602264 7.18958 0.0602875C7.18829 0.0603333 7.18706 0.0603638 7.18578 0.0604095C7.18297 0.0604858 7.17999 0.0605774 7.17719 0.0606689C7.17671 0.0606842 7.17624 0.0606995 7.17577 0.0607147C7.17226 0.0608215 7.16919 0.0609131 7.16568 0.0610199C7.1647 0.0610504 7.16374 0.0610809 7.16278 0.0611115C7.1602 0.0611877 7.15762 0.0612793 7.15504 0.0613556C7.1541 0.0613861 7.15312 0.0614166 7.15218 0.0614471C7.14937 0.0615387 7.14618 0.0616455 7.14337 0.0617371C7.14288 0.0617523 7.14238 0.0617676 7.14189 0.0617981C7.13814 0.0619202 7.13499 0.062027 7.13124 0.062149C7.13081 0.0621643 7.13042 0.0621796 7.12999 0.0621948C7.12694 0.0623016 7.12424 0.0623932 7.1212 0.0625C7.12016 0.0625305 7.11916 0.0625763 7.11812 0.0626068C7.11531 0.0627136 7.11301 0.0627899 7.1102 0.0628967C7.10941 0.062912 7.1086 0.0629425 7.1078 0.062973C7.10429 0.0631104 7.101 0.0632172 7.09749 0.0633545C7.09703 0.0633698 7.09654 0.063385 7.09607 0.0634003C7.09326 0.0635071 7.09006 0.0636292 7.08725 0.063736C7.08629 0.0637665 7.08536 0.0638123 7.0844 0.0638428C7.08159 0.0639496 7.07925 0.0640411 7.07645 0.0641479C7.07561 0.0641785 7.07474 0.0642242 7.07388 0.0642548C7.06688 0.0645294 7.06033 0.0647888 7.05331 0.0650635C7.05243 0.0651093 7.05153 0.0651398 7.05063 0.0651855C7.04782 0.0652924 7.04532 0.0653992 7.04253 0.0655212C7.04176 0.0655518 7.04099 0.0655823 7.04024 0.0656128C7.03299 0.065918 7.02625 0.0661926 7.01901 0.0665131C7.01869 0.0665283 7.01842 0.0665436 7.01811 0.0665588C7.01485 0.0666962 7.01187 0.0668335 7.00861 0.0669708C7.00793 0.0670013 7.00729 0.0670319 7.00662 0.0670624C6.99591 0.0675354 6.98511 0.0680389 6.9744 0.0685425C6.97411 0.0685577 6.97383 0.068573 6.97354 0.068573C6.97028 0.0687408 6.96652 0.0689087 6.96327 0.0690765C6.96307 0.0690765 6.96286 0.0690918 6.96265 0.0691071C6.9552 0.069458 6.94803 0.069809 6.94058 0.0701904C6.94054 0.0701904 6.94048 0.0701904 6.94043 0.0701904C6.77559 0.0784454 6.61278 0.0899811 6.45139 0.104752L6.54248 1.1006C6.87317 1.07033 7.21214 1.05499 7.55 1.05499H11.45V0.0549927ZM1.81355 1.78004C1.74258 1.838 1.67407 1.89711 1.60822 1.95724C1.60809 1.95735 1.60783 1.9576 1.60771 1.9577C1.60332 1.96173 1.599 1.96568 1.59462 1.96971L1.59454 1.96979C1.59341 1.97083 1.59225 1.97189 1.59114 1.97292C1.59067 1.97336 1.58997 1.974 1.58949 1.97444C1.58838 1.97548 1.58723 1.97653 1.58612 1.97755C1.58565 1.978 1.58521 1.97841 1.58473 1.97884C1.58353 1.97995 1.58241 1.98099 1.58121 1.98212C1.58109 1.98222 1.58087 1.98242 1.58075 1.98253C1.57849 1.98463 1.57619 1.98677 1.57393 1.98888C1.57323 1.98953 1.57259 1.99013 1.57188 1.99078C1.57091 1.99168 1.56995 1.9926 1.56897 1.9935C1.56827 1.99416 1.56769 1.99471 1.56699 1.99536C1.56596 1.99631 1.56499 1.99722 1.56396 1.99818C1.56326 1.99884 1.56252 1.99954 1.56181 2.0002C1.5609 2.00107 1.56001 2.00189 1.5591 2.00275C1.55746 2.00429 1.55609 2.00557 1.55446 2.00711C1.55373 2.0078 1.55305 2.00844 1.55232 2.00912C1.55139 2.01001 1.55037 2.01097 1.54944 2.01186C1.54866 2.01259 1.54793 2.01329 1.54715 2.01402C1.54622 2.01491 1.54517 2.0159 1.54424 2.01678C1.54356 2.01743 1.54279 2.01816 1.5421 2.01881C1.54071 2.02014 1.53923 2.02155 1.53784 2.02286C1.53766 2.02304 1.53738 2.0233 1.5372 2.02347C1.53558 2.02501 1.53387 2.02664 1.53226 2.02818C1.53166 2.02875 1.53105 2.02934 1.53046 2.02989C1.52942 2.0309 1.52814 2.03212 1.5271 2.03311C1.52646 2.03372 1.52592 2.03424 1.5253 2.03485C1.52414 2.03595 1.52284 2.0372 1.5217 2.0383C1.52119 2.03879 1.52078 2.03918 1.52028 2.03966C1.51855 2.04132 1.51691 2.04292 1.51518 2.04459C1.51509 2.04466 1.51501 2.04475 1.51492 2.04483C1.51331 2.04639 1.5117 2.04794 1.5101 2.0495C1.50969 2.0499 1.50931 2.05026 1.5089 2.05066C1.50742 2.05211 1.50613 2.05334 1.50465 2.05478C1.50438 2.05505 1.50409 2.05533 1.50381 2.05559C1.50223 2.05714 1.50052 2.05879 1.49893 2.06035C1.49884 2.06044 1.4987 2.06058 1.49861 2.06065C1.4968 2.06244 1.49504 2.06415 1.49323 2.06592L1.49321 2.06595C1.4915 2.06761 1.48975 2.06934 1.48804 2.071C1.48782 2.07123 1.48767 2.07137 1.48746 2.07158C1.48587 2.07314 1.48419 2.07478 1.4826 2.07635C1.48247 2.07648 1.48232 2.07663 1.48219 2.07677C1.47676 2.08211 1.4716 2.08722 1.46622 2.09258C1.46617 2.09262 1.46608 2.09273 1.46603 2.09277C0.993835 2.56293 0.676651 3.09251 0.555267 3.65788L0.555237 3.658C0.554779 3.66016 0.554337 3.66222 0.553879 3.66437L0.553864 3.6644C0.552505 3.67085 0.551178 3.67723 0.549866 3.6837L0.549835 3.68382C0.548523 3.69028 0.547256 3.69659 0.54599 3.70306C0.545975 3.70312 0.545959 3.70326 0.545944 3.70331C0.545517 3.70547 0.545166 3.70728 0.544754 3.70943C0.544739 3.70953 0.544708 3.70966 0.544693 3.70976C0.543472 3.71611 0.542282 3.72243 0.541107 3.72878C0.541061 3.72903 0.541031 3.72917 0.540985 3.72943C0.540634 3.73132 0.540268 3.73334 0.539917 3.73523C0.539886 3.73538 0.539856 3.73557 0.539825 3.73573C0.539047 3.74005 0.538315 3.74406 0.537552 3.7484C0.537537 3.7485 0.537506 3.74872 0.537476 3.74883C0.537155 3.75072 0.536819 3.75258 0.536499 3.75447C0.536423 3.75484 0.536377 3.75517 0.536301 3.75555C0.53595 3.75758 0.535645 3.75937 0.535294 3.7614C0.535294 3.76146 0.535278 3.76149 0.535278 3.76155C0.534561 3.76575 0.533829 3.77005 0.533142 3.77425C0.533096 3.77451 0.533051 3.77475 0.533005 3.77501C0.532715 3.77678 0.53241 3.77861 0.532135 3.78038C0.532074 3.78075 0.532013 3.7811 0.531952 3.78146C0.531265 3.78568 0.530609 3.78981 0.529938 3.79401L0.529922 3.79413C0.529602 3.79617 0.529312 3.79802 0.529007 3.80005C0.528946 3.80042 0.528885 3.80081 0.528824 3.80118C0.52858 3.80281 0.528275 3.80475 0.52803 3.80638C0.527969 3.80675 0.527924 3.80707 0.527863 3.80745C0.527252 3.81152 0.526611 3.8158 0.526016 3.81987C0.52597 3.82014 0.52594 3.82037 0.525909 3.82063C0.52562 3.82254 0.525391 3.82419 0.525116 3.8261C0.525055 3.82646 0.525009 3.8268 0.524948 3.82718C0.524673 3.82909 0.524445 3.83075 0.52417 3.83264C0.524139 3.83286 0.524109 3.83315 0.524078 3.83336C0.523483 3.83757 0.522919 3.84166 0.522339 3.84589C0.522293 3.84621 0.522247 3.84654 0.522217 3.84686C0.521988 3.8485 0.521729 3.85045 0.521515 3.85208C0.521454 3.85245 0.521408 3.85287 0.521347 3.85324C0.521103 3.85515 0.520874 3.85687 0.52063 3.85878C0.520599 3.85899 0.520569 3.85924 0.520538 3.85945C0.520248 3.86163 0.520004 3.86359 0.51973 3.86577C0.519699 3.86594 0.519699 3.86595 0.519684 3.86612C0.51944 3.86803 0.519211 3.86987 0.518967 3.87178C0.518906 3.87221 0.518845 3.87271 0.518799 3.87314C0.5186 3.87477 0.518372 3.87654 0.518173 3.87819C0.518127 3.87856 0.518082 3.87898 0.518036 3.87935C0.517532 3.88344 0.517029 3.88762 0.516556 3.89172C0.51651 3.89209 0.516479 3.89241 0.516434 3.89279C0.516235 3.89442 0.516037 3.89616 0.515854 3.8978C0.515808 3.89828 0.515732 3.8989 0.515671 3.89937C0.515488 3.90102 0.515289 3.90285 0.515106 3.90448C0.51506 3.9048 0.51503 3.90508 0.514999 3.9054C0.514771 3.90744 0.514542 3.90959 0.514313 3.91164C0.514297 3.9118 0.514282 3.91196 0.514267 3.91212C0.514053 3.91403 0.513855 3.91586 0.513657 3.91779C0.513611 3.91821 0.513565 3.9187 0.513519 3.91913C0.513336 3.92078 0.513168 3.92239 0.513 3.92404C0.512955 3.92447 0.512909 3.92497 0.512863 3.92542C0.512665 3.92732 0.512482 3.92909 0.512299 3.931C0.512268 3.93117 0.512253 3.93138 0.512238 3.93153C0.512039 3.93359 0.511826 3.93573 0.511627 3.93777C0.511581 3.9381 0.511551 3.93843 0.51152 3.93877C0.511368 3.9404 0.5112 3.94217 0.511032 3.9438C0.510986 3.9444 0.510941 3.9449 0.51088 3.94548C0.510727 3.94713 0.51059 3.94855 0.510437 3.9502C0.510391 3.95068 0.510345 3.95116 0.5103 3.95164C0.509933 3.95576 0.509583 3.9597 0.509216 3.96381C0.509171 3.96436 0.509125 3.96487 0.509079 3.96542C0.508957 3.96692 0.50882 3.96851 0.508682 3.97002C0.508636 3.97061 0.508591 3.97113 0.508545 3.97173C0.508408 3.97337 0.508286 3.97491 0.508148 3.97656C0.508102 3.97699 0.508072 3.9774 0.508041 3.97783C0.507874 3.97989 0.507706 3.98195 0.507553 3.98401C0.507538 3.98416 0.507523 3.98431 0.507507 3.98448C0.507355 3.9864 0.507217 3.98817 0.50708 3.9901C0.507034 3.99063 0.507004 3.99112 0.506958 3.99165C0.506836 3.9933 0.506729 3.99467 0.506607 3.99632C0.506577 3.99686 0.506531 3.99739 0.506485 3.99792C0.506363 3.99973 0.506226 4.00162 0.506104 4.0034C0.506088 4.00357 0.506073 4.00383 0.506058 4.004C0.505905 4.0062 0.505768 4.0081 0.505615 4.0103C0.5056 4.01057 0.505585 4.0108 0.505569 4.01108C0.505447 4.01286 0.505341 4.01454 0.505219 4.01634C0.505188 4.01694 0.505157 4.01741 0.505112 4.01801C0.505005 4.01965 0.504913 4.02106 0.504807 4.02271C0.504776 4.02319 0.504745 4.02371 0.504715 4.0242C0.504456 4.02832 0.504227 4.0323 0.503983 4.03644C0.503952 4.03697 0.503937 4.03743 0.503906 4.03798C0.503815 4.03949 0.503723 4.04108 0.503647 4.0426C0.503616 4.0432 0.503586 4.04379 0.503555 4.04439C0.503464 4.04605 0.503372 4.04758 0.503296 4.04922C0.503265 4.04965 0.50325 4.05003 0.503235 4.05048C0.503128 4.05254 0.503021 4.05458 0.502914 4.05664C0.502899 4.05692 0.502899 4.05714 0.502884 4.05742C0.502808 4.05908 0.502701 4.0611 0.502625 4.06276C0.502609 4.06335 0.502579 4.06389 0.502548 4.06448C0.502487 4.06586 0.502411 4.06752 0.50235 4.06889C0.502319 4.06955 0.502304 4.07011 0.502274 4.07076C0.502197 4.07242 0.502121 4.07436 0.502045 4.07602C0.502045 4.07629 0.502029 4.07654 0.502014 4.07681C0.501938 4.07887 0.501862 4.0809 0.50177 4.08298C0.501755 4.08336 0.50174 4.08386 0.501724 4.08424C0.501663 4.08589 0.501602 4.08754 0.501541 4.08919C0.501526 4.08968 0.501511 4.09027 0.501495 4.09076C0.501434 4.09242 0.501389 4.09387 0.501328 4.09552C0.501312 4.09601 0.501297 4.0966 0.501282 4.09709C0.501144 4.10124 0.501038 4.10513 0.500916 4.10928C0.5009 4.10988 0.500885 4.11044 0.50087 4.11104C0.500824 4.11256 0.500793 4.11398 0.500748 4.11551C0.500732 4.11617 0.500732 4.11671 0.500717 4.11737C0.500671 4.1189 0.500641 4.12039 0.50061 4.12192C0.500595 4.12247 0.50058 4.12302 0.500565 4.12355C0.500519 4.12564 0.500488 4.12753 0.500443 4.12962C0.500443 4.1299 0.500427 4.13026 0.500427 4.13052C0.500397 4.13219 0.500366 4.13406 0.500336 4.13573C0.50032 4.13638 0.50032 4.13693 0.500305 4.13759C0.50029 4.13898 0.500259 4.14056 0.500244 4.14195C0.500229 4.14261 0.500229 4.14319 0.500214 4.14384C0.500198 4.14537 0.500183 4.14709 0.500153 4.14862C0.500153 4.14911 0.500153 4.14952 0.500137 4.15002C0.500122 4.15196 0.500107 4.15411 0.500092 4.15605C0.500076 4.15654 0.500076 4.15704 0.500076 4.15753C0.500061 4.15906 0.500046 4.16058 0.500046 4.16211C0.500046 4.16277 0.500031 4.16351 0.500031 4.16417C0.500031 4.16556 0.500015 4.16714 0.500015 4.16853C0.500015 4.16913 0.500015 4.16971 0.500015 4.1703C0.5 4.17239 0.5 4.17432 0.5 4.17641V6.34995H1.5V4.17641C1.5 3.4745 2.01448 2.90703 2.44608 2.55457L1.81355 1.78004ZM1.5 11.3499H0.5V16.3499H1.5V11.3499ZM1.5 21.35H0.5V26.35H1.5V21.35ZM1.5 31.35H0.5V36.35H1.5V31.35ZM1.5 41.35H0.5V46.35H1.5V41.35ZM1.5 51.35H0.5V56.35H1.5V51.35ZM1.5 61.35H0.5V66.35H1.5V61.35ZM1.5 71.35H0.5V76.35H1.5V71.35ZM1.5 81.35H0.5V86.35H1.5V81.35ZM1.5 91.35H0.5V96.35H1.5V91.35ZM1.5 101.35H0.5V106.35H1.5V101.35ZM1.5 111.35H0.5V116.35H1.5V111.35ZM1.5 121.35H0.5V126.35H1.5V121.35ZM1.5 131.35H0.5V136.35H1.5V131.35ZM1.5 141.35H0.5V141.557C0.5 141.559 0.5 141.561 0.500015 141.563C0.500015 141.563 0.500015 141.563 0.500015 141.564C0.500015 141.566 0.500031 141.568 0.500031 141.57C0.500031 141.57 0.500046 141.57 0.500046 141.571C0.500046 141.572 0.500061 141.574 0.500076 141.576C0.500076 141.576 0.500076 141.577 0.500076 141.577C0.500092 141.579 0.500122 141.581 0.500137 141.583C0.500137 141.583 0.500153 141.584 0.500153 141.584C0.500168 141.586 0.500198 141.588 0.500229 141.59C0.500229 141.59 0.500229 141.59 0.500229 141.59C0.500259 141.592 0.50029 141.594 0.50032 141.596C0.50032 141.596 0.50032 141.597 0.500336 141.597C0.500366 141.599 0.500397 141.601 0.500427 141.603C0.500443 141.603 0.500443 141.604 0.500458 141.604C0.500488 141.606 0.500534 141.608 0.50058 141.61C0.50058 141.61 0.50058 141.61 0.50058 141.61C0.500626 141.612 0.500671 141.614 0.500717 141.616C0.500717 141.616 0.500732 141.617 0.500748 141.617C0.500793 141.619 0.500839 141.621 0.500885 141.623C0.5009 141.623 0.500916 141.624 0.500916 141.624C0.500977 141.626 0.501022 141.628 0.501083 141.63C0.501083 141.63 0.501083 141.63 0.501099 141.63C0.501144 141.632 0.501221 141.634 0.501282 141.636C0.501282 141.636 0.501297 141.637 0.501312 141.637C0.501389 141.639 0.501434 141.641 0.501511 141.643C0.501526 141.643 0.501526 141.643 0.501541 141.644C0.501602 141.645 0.501678 141.647 0.50174 141.649C0.501755 141.649 0.50177 141.65 0.50177 141.65C0.501846 141.652 0.501923 141.654 0.501999 141.656C0.502014 141.656 0.502045 141.657 0.502045 141.657C0.502136 141.659 0.502213 141.661 0.502289 141.663C0.502304 141.663 0.502319 141.663 0.502319 141.664C0.502411 141.665 0.502487 141.667 0.502563 141.669C0.502594 141.669 0.502594 141.67 0.502625 141.67C0.502701 141.672 0.502792 141.674 0.502899 141.676C0.502914 141.676 0.50293 141.677 0.502945 141.677C0.503036 141.679 0.503143 141.681 0.503235 141.683C0.503235 141.683 0.50325 141.683 0.50325 141.683C0.503357 141.685 0.503448 141.687 0.503555 141.689C0.503586 141.689 0.503601 141.69 0.503632 141.69C0.503723 141.692 0.503845 141.694 0.503952 141.696C0.503967 141.696 0.503983 141.696 0.503998 141.697C0.504105 141.699 0.504211 141.7 0.504318 141.702C0.504333 141.702 0.504349 141.703 0.504364 141.703C0.504471 141.705 0.504593 141.707 0.504715 141.709C0.50473 141.709 0.504761 141.71 0.504791 141.71C0.504913 141.712 0.505035 141.714 0.505157 141.716C0.505173 141.716 0.505188 141.716 0.505203 141.716C0.505325 141.718 0.505447 141.72 0.505569 141.722C0.5056 141.722 0.505615 141.723 0.50563 141.723C0.505768 141.725 0.505905 141.727 0.506042 141.729C0.506058 141.729 0.506088 141.729 0.506104 141.73C0.506241 141.732 0.506393 141.734 0.506531 141.736C0.506546 141.736 0.506531 141.736 0.506546 141.736C0.506683 141.738 0.506836 141.74 0.506973 141.742C0.507004 141.742 0.507034 141.742 0.507065 141.743C0.507217 141.745 0.50737 141.747 0.507507 141.749C0.507538 141.749 0.507568 141.749 0.507584 141.75C0.507736 141.751 0.507874 141.753 0.508026 141.755C0.508041 141.755 0.508057 141.755 0.508087 141.756C0.50824 141.758 0.508408 141.76 0.50856 141.761C0.508591 141.762 0.508636 141.762 0.508667 141.763C0.50882 141.765 0.509003 141.767 0.509155 141.768C0.509186 141.769 0.509201 141.769 0.509232 141.769C0.509384 141.771 0.509537 141.773 0.509689 141.775C0.50972 141.775 0.50975 141.775 0.509781 141.776C0.509964 141.778 0.510132 141.78 0.510315 141.781C0.510345 141.782 0.510376 141.782 0.510406 141.782C0.510773 141.786 0.511139 141.79 0.511536 141.794C0.511566 141.795 0.511612 141.795 0.511642 141.796C0.511841 141.797 0.512024 141.799 0.512222 141.801C0.512253 141.802 0.512283 141.802 0.512299 141.802C0.512497 141.804 0.51268 141.806 0.512878 141.808C0.512894 141.808 0.512909 141.808 0.512924 141.808C0.513138 141.81 0.513336 141.812 0.51355 141.814C0.51358 141.815 0.513611 141.815 0.513657 141.815C0.51387 141.817 0.514069 141.819 0.514282 141.821C0.514297 141.821 0.514343 141.822 0.514359 141.822C0.514572 141.824 0.514755 141.825 0.514969 141.827C0.514999 141.828 0.51503 141.828 0.51506 141.828C0.515274 141.83 0.515488 141.832 0.515701 141.834C0.515747 141.834 0.515793 141.835 0.515839 141.835C0.516052 141.837 0.516296 141.839 0.51651 141.841C0.516525 141.841 0.516525 141.841 0.516525 141.841C0.516754 141.843 0.516983 141.845 0.517212 141.847C0.517242 141.847 0.517303 141.848 0.517349 141.848C0.517578 141.85 0.517807 141.852 0.518036 141.854C0.518082 141.854 0.518127 141.854 0.518158 141.855C0.518387 141.857 0.5186 141.858 0.518829 141.86C0.518845 141.86 0.51889 141.861 0.518906 141.861C0.51915 141.863 0.519394 141.865 0.519638 141.867C0.519684 141.867 0.519745 141.867 0.519791 141.868C0.52002 141.87 0.520279 141.872 0.520508 141.873C0.520554 141.874 0.520615 141.874 0.520676 141.875C0.520905 141.876 0.521103 141.878 0.521347 141.88C0.521378 141.88 0.521423 141.88 0.521454 141.881C0.521698 141.882 0.521957 141.884 0.522217 141.886C0.522278 141.887 0.522324 141.887 0.522385 141.887C0.522644 141.889 0.522919 141.891 0.523178 141.893C0.523193 141.893 0.523224 141.894 0.523239 141.894C0.523483 141.895 0.523743 141.897 0.523987 141.899C0.524048 141.899 0.524124 141.9 0.524185 141.9C0.524445 141.902 0.524689 141.904 0.524963 141.906C0.525024 141.906 0.525085 141.907 0.525146 141.907C0.525406 141.909 0.525665 141.911 0.525925 141.913C0.525955 141.913 0.52597 141.913 0.525986 141.913C0.526276 141.915 0.52655 141.917 0.526825 141.919C0.526901 141.919 0.526962 141.92 0.527039 141.92C0.527298 141.922 0.527588 141.924 0.527847 141.925C0.527924 141.926 0.528 141.926 0.528076 141.927C0.52832 141.929 0.528534 141.93 0.528793 141.932C0.528854 141.932 0.528915 141.932 0.528976 141.933C0.529251 141.935 0.529556 141.937 0.529831 141.938C0.529892 141.939 0.529999 141.939 0.53006 141.94C0.530365 141.942 0.530655 141.943 0.530945 141.945C0.530975 141.946 0.531021 141.946 0.531052 141.946C0.531326 141.948 0.531601 141.949 0.531876 141.951C0.531967 141.952 0.532028 141.952 0.532104 141.953C0.53241 141.954 0.5327 141.956 0.533005 141.958C0.533066 141.958 0.533157 141.959 0.533218 141.959C0.533508 141.961 0.533783 141.963 0.534088 141.964C0.534134 141.965 0.534195 141.965 0.534241 141.965C0.534546 141.967 0.534836 141.969 0.535141 141.971C0.535217 141.971 0.535309 141.972 0.535385 141.972C0.53569 141.974 0.536011 141.976 0.536316 141.978C0.536392 141.978 0.536484 141.979 0.53656 141.979C0.536835 141.981 0.53714 141.982 0.537415 141.984C0.537476 141.984 0.537521 141.984 0.537582 141.985C0.537888 141.987 0.538269 141.989 0.538574 141.99C0.538651 141.991 0.538727 141.991 0.538803 141.992C0.539139 141.994 0.539474 141.995 0.539825 141.997C0.539871 141.998 0.539917 141.998 0.539963 141.998C0.540283 142 0.540588 142.001 0.540909 142.003C0.540985 142.004 0.541046 142.004 0.541122 142.004C0.541473 142.006 0.541824 142.008 0.542175 142.01C0.542236 142.01 0.542297 142.011 0.542358 142.011C0.54274 142.013 0.543091 142.015 0.543472 142.017L0.543488 142.017C0.543854 142.019 0.544235 142.021 0.544601 142.023C0.544662 142.023 0.544739 142.024 0.5448 142.024C0.545166 142.026 0.545517 142.028 0.545883 142.029C0.545975 142.03 0.546036 142.03 0.546127 142.031C0.546463 142.032 0.546814 142.034 0.547165 142.036C0.547195 142.036 0.547241 142.036 0.547272 142.037C0.547684 142.039 0.548019 142.04 0.548416 142.042C0.548508 142.043 0.548569 142.043 0.54866 142.043C0.549057 142.045 0.549393 142.047 0.549805 142.049C0.54985 142.049 0.549911 142.05 0.549942 142.05C0.550293 142.052 0.550674 142.053 0.551041 142.055C0.551102 142.055 0.551163 142.056 0.551239 142.056C0.55162 142.058 0.552017 142.06 0.552399 142.062C0.55249 142.062 0.552567 142.062 0.552658 142.063C0.55304 142.065 0.553467 142.067 0.553864 142.069C0.553879 142.069 0.553894 142.069 0.553909 142.069C0.554337 142.071 0.554718 142.073 0.555145 142.075C0.555191 142.075 0.555267 142.075 0.555328 142.075C0.555725 142.077 0.556152 142.079 0.556549 142.081C0.556641 142.082 0.556702 142.082 0.556793 142.082C0.557205 142.084 0.557602 142.086 0.558014 142.088C0.558044 142.088 0.558044 142.088 0.55806 142.088C0.558502 142.09 0.558899 142.092 0.559357 142.094C0.559448 142.094 0.559494 142.095 0.559586 142.095C0.560013 142.097 0.560455 142.099 0.560883 142.101C0.560928 142.101 0.560974 142.101 0.561035 142.101C0.561447 142.103 0.561829 142.105 0.562256 142.107C0.562302 142.107 0.562393 142.107 0.562454 142.108C0.562881 142.109 0.563324 142.111 0.563766 142.113C0.563843 142.114 0.563919 142.114 0.56398 142.114C0.564453 142.116 0.56488 142.118 0.565353 142.12L0.565384 142.12C0.565842 142.122 0.566254 142.124 0.566727 142.126C0.566803 142.126 0.566879 142.127 0.566956 142.127C0.567398 142.129 0.567841 142.131 0.568283 142.133C0.56839 142.133 0.568451 142.133 0.568558 142.134C0.569 142.136 0.569458 142.137 0.569916 142.139L0.569946 142.139C0.570404 142.141 0.570877 142.143 0.571335 142.145C0.571457 142.146 0.571533 142.146 0.571655 142.146C0.572113 142.148 0.572556 142.15 0.573013 142.152C0.573105 142.152 0.573151 142.153 0.573227 142.153C0.573654 142.155 0.574066 142.156 0.574493 142.158C0.5746 142.158 0.574661 142.159 0.574753 142.159C0.575195 142.161 0.575699 142.163 0.576141 142.164C0.576248 142.165 0.576355 142.165 0.576462 142.166C0.576889 142.167 0.577423 142.17 0.577866 142.171C0.577927 142.172 0.578018 142.172 0.578094 142.172C0.578491 142.174 0.578964 142.176 0.579376 142.177C0.579483 142.178 0.57959 142.178 0.579681 142.178C0.58017 142.18 0.580597 142.182 0.581085 142.184C0.581207 142.184 0.581345 142.185 0.581467 142.185C0.581924 142.187 0.582352 142.189 0.582809 142.19C0.58284 142.19 0.582916 142.191 0.582947 142.191C0.58345 142.193 0.583923 142.195 0.584427 142.196C0.584534 142.197 0.584641 142.197 0.584747 142.198C0.585236 142.199 0.585709 142.201 0.586212 142.203C0.586319 142.203 0.586441 142.204 0.586548 142.204C0.586975 142.206 0.587402 142.207 0.587845 142.209C0.587921 142.209 0.588043 142.21 0.588135 142.21C0.588608 142.212 0.589157 142.214 0.58963 142.216C0.589767 142.216 0.589844 142.216 0.589981 142.217C0.590454 142.219 0.591019 142.221 0.591507 142.222C0.591599 142.223 0.591644 142.223 0.591736 142.223C0.592194 142.225 0.592682 142.227 0.593124 142.228C0.593246 142.229 0.593338 142.229 0.593445 142.229C0.593933 142.231 0.594467 142.233 0.594955 142.235C0.595123 142.235 0.595215 142.236 0.595383 142.236C0.595871 142.238 0.596375 142.24 0.596878 142.241C0.596939 142.242 0.596985 142.242 0.597046 142.242C0.597549 142.244 0.598083 142.246 0.598587 142.247C0.598694 142.248 0.598816 142.248 0.598938 142.249C0.599472 142.25 0.599976 142.252 0.600525 142.254C0.600616 142.254 0.600754 142.255 0.600845 142.255C0.601349 142.257 0.601868 142.259 0.602371 142.26C0.602432 142.261 0.602478 142.261 0.602539 142.261C0.603073 142.263 0.603638 142.265 0.604187 142.267C0.604309 142.267 0.604431 142.267 0.604553 142.268C0.605103 142.27 0.605621 142.271 0.606171 142.273C0.606277 142.274 0.606384 142.274 0.606491 142.274C0.606964 142.276 0.607483 142.278 0.607971 142.279C0.608093 142.28 0.608185 142.28 0.608307 142.28C0.608826 142.282 0.60939 142.284 0.609909 142.286C0.610062 142.286 0.610229 142.287 0.610367 142.287C0.610931 142.289 0.611481 142.291 0.612045 142.292C0.612076 142.293 0.612091 142.293 0.612122 142.293C0.612686 142.295 0.61322 142.296 0.613785 142.298C0.613922 142.299 0.614044 142.299 0.614182 142.299C0.614746 142.301 0.61528 142.303 0.61586 142.305C0.615997 142.305 0.616089 142.305 0.616226 142.306C0.61676 142.308 0.61731 142.309 0.617844 142.311C0.617905 142.311 0.617996 142.312 0.618042 142.312C0.618637 142.314 0.619217 142.315 0.619812 142.317C0.619934 142.318 0.620056 142.318 0.620193 142.318C0.620819 142.32 0.621353 142.322 0.621979 142.324C0.622055 142.324 0.622101 142.324 0.622192 142.325C0.622742 142.326 0.623322 142.328 0.623871 142.33C0.623978 142.33 0.624069 142.33 0.624176 142.331C0.624741 142.333 0.625336 142.334 0.6259 142.336C0.626068 142.337 0.626251 142.337 0.626419 142.338C0.627014 142.339 0.627563 142.341 0.628174 142.343C0.62825 142.343 0.628326 142.343 0.628403 142.344C0.628967 142.345 0.629471 142.347 0.630035 142.349C0.630173 142.349 0.630371 142.35 0.630493 142.35C0.631119 142.352 0.631668 142.354 0.632294 142.355C0.632416 142.356 0.632538 142.356 0.632675 142.356C0.633209 142.358 0.633789 142.36 0.634323 142.361C0.63443 142.362 0.634552 142.362 0.634659 142.362C0.635239 142.364 0.635818 142.366 0.636414 142.368C0.636566 142.368 0.636765 142.369 0.636932 142.369C0.637512 142.371 0.638092 142.372 0.638687 142.374C0.63887 142.375 0.639053 142.375 0.639236 142.376C0.639694 142.377 0.640244 142.379 0.640686 142.38C0.640854 142.38 0.641006 142.381 0.641174 142.381C0.641769 142.383 0.642349 142.385 0.642944 142.386C0.643158 142.387 0.643356 142.388 0.64357 142.388C0.644165 142.39 0.644745 142.392 0.64534 142.393C0.645493 142.394 0.645599 142.394 0.645752 142.394C0.646255 142.396 0.646805 142.397 0.647308 142.399C0.647507 142.399 0.647659 142.4 0.647858 142.4C0.648453 142.402 0.649078 142.404 0.649673 142.405C0.649857 142.406 0.650055 142.407 0.650238 142.407C0.650803 142.409 0.651306 142.41 0.651871 142.412C0.652069 142.412 0.652206 142.412 0.65242 142.413C0.652985 142.415 0.65358 142.416 0.65416 142.418C0.654297 142.418 0.654526 142.419 0.654663 142.419C0.655289 142.421 0.65596 142.423 0.656586 142.425C0.656738 142.425 0.656891 142.425 0.657043 142.426C0.657608 142.427 0.658188 142.429 0.658768 142.43C0.65889 142.431 0.659012 142.431 0.659134 142.431C0.65976 142.433 0.660431 142.435 0.661072 142.437C0.66124 142.437 0.661469 142.438 0.661636 142.438C0.662323 142.44 0.662964 142.442 0.663651 142.444C0.663742 142.444 0.663757 142.444 0.663849 142.444C0.664474 142.446 0.665176 142.448 0.665817 142.449C0.665939 142.45 0.666061 142.45 0.666183 142.45C0.66687 142.452 0.667557 142.454 0.668259 142.456C0.668411 142.456 0.668518 142.456 0.668671 142.457C0.669312 142.459 0.67009 142.461 0.670731 142.462C0.670822 142.462 0.670853 142.463 0.670944 142.463C0.6716 142.464 0.672287 142.466 0.672928 142.468C0.67308 142.468 0.673264 142.469 0.673416 142.469C0.674118 142.471 0.674774 142.473 0.675476 142.475C0.675598 142.475 0.675797 142.475 0.675919 142.476C0.676529 142.477 0.677231 142.479 0.677841 142.481C0.677933 142.481 0.67807 142.481 0.678162 142.481C0.678833 142.483 0.679535 142.485 0.680191 142.487C0.68042 142.487 0.680634 142.488 0.680847 142.488C0.681519 142.49 0.682205 142.492 0.682877 142.493C0.683029 142.494 0.683151 142.494 0.683319 142.494C0.683929 142.496 0.684525 142.497 0.68515 142.499C0.685303 142.499 0.685486 142.5 0.685638 142.5C0.686325 142.502 0.687073 142.504 0.687744 142.505C0.687912 142.506 0.688095 142.506 0.688263 142.507C0.688995 142.509 0.689713 142.51 0.69046 142.512C0.690521 142.512 0.690598 142.513 0.690674 142.513C0.691345 142.514 0.692078 142.516 0.692764 142.518C0.692917 142.518 0.693054 142.519 0.693207 142.519C0.693954 142.521 0.694672 142.523 0.695419 142.524C0.695587 142.525 0.695694 142.525 0.695862 142.525C0.696548 142.527 0.697296 142.529 0.697983 142.531C0.698044 142.531 0.698135 142.531 0.698196 142.531C0.698944 142.533 0.699677 142.535 0.700424 142.536C0.700592 142.537 0.700821 142.537 0.700974 142.538C0.701675 142.539 0.702499 142.541 0.703201 142.543C0.703339 142.543 0.703461 142.544 0.703598 142.544C0.7043 142.546 0.705002 142.547 0.705704 142.549C0.705811 142.549 0.705948 142.55 0.706039 142.55C0.706802 142.552 0.707596 142.553 0.708374 142.555C0.708496 142.556 0.708679 142.556 0.708817 142.556C0.709641 142.558 0.710342 142.56 0.711182 142.562C0.711212 142.562 0.711304 142.562 0.711334 142.562C0.712112 142.564 0.712921 142.566 0.713699 142.568C0.713806 142.568 0.713867 142.568 0.713974 142.568C0.714752 142.57 0.715591 142.572 0.716385 142.574C0.716522 142.574 0.71669 142.575 0.716827 142.575C0.71756 142.577 0.718338 142.578 0.71907 142.58C0.719131 142.58 0.719223 142.58 0.719299 142.581C0.720093 142.582 0.720795 142.584 0.721573 142.586C0.721786 142.586 0.722076 142.587 0.72229 142.587C0.723022 142.589 0.723755 142.591 0.724503 142.592C0.72467 142.593 0.724899 142.593 0.725067 142.594C0.725754 142.595 0.726395 142.597 0.727081 142.598C0.727249 142.599 0.727371 142.599 0.727539 142.599C0.728287 142.601 0.729111 142.603 0.729858 142.604C0.730072 142.605 0.730301 142.605 0.730499 142.606C0.731262 142.608 0.732086 142.609 0.732834 142.611C0.732971 142.611 0.733124 142.612 0.733261 142.612C0.733963 142.614 0.734695 142.615 0.735397 142.617C0.735565 142.617 0.735764 142.618 0.735931 142.618C0.736755 142.62 0.737488 142.621 0.738297 142.623C0.73851 142.624 0.738663 142.624 0.738876 142.624C0.740524 142.628 0.742157 142.632 0.743805 142.635C0.744034 142.636 0.744278 142.636 0.744492 142.637C0.745255 142.638 0.746078 142.64 0.746857 142.642C0.74704 142.642 0.747238 142.642 0.747421 142.643C0.748138 142.644 0.748795 142.646 0.749527 142.647C0.74971 142.648 0.749893 142.648 0.750076 142.649C0.750854 142.65 0.751678 142.652 0.752457 142.654C0.752686 142.654 0.75293 142.655 0.753143 142.655C0.753922 142.657 0.754761 142.658 0.755539 142.66C0.755722 142.661 0.755951 142.661 0.756134 142.661C0.756805 142.663 0.757477 142.664 0.758133 142.666C0.758362 142.666 0.758636 142.667 0.75885 142.667C0.759644 142.669 0.760376 142.67 0.761185 142.672C0.761444 142.672 0.761749 142.673 0.762009 142.674C0.76268 142.675 0.763443 142.677 0.76413 142.678C0.764389 142.679 0.764648 142.679 0.764908 142.68C0.765594 142.681 0.766251 142.682 0.766922 142.684C0.767227 142.684 0.767517 142.685 0.767822 142.686C0.768616 142.687 0.769409 142.689 0.770218 142.691C0.770447 142.691 0.770615 142.691 0.770844 142.692C0.771591 142.693 0.772202 142.695 0.772949 142.696C0.773178 142.697 0.773346 142.697 0.773575 142.697C0.774399 142.699 0.775208 142.701 0.776016 142.702C0.776291 142.703 0.776505 142.703 0.776779 142.704C0.777603 142.706 0.778412 142.707 0.779236 142.709C0.779465 142.709 0.779755 142.71 0.779984 142.71C0.780624 142.712 0.781357 142.713 0.781998 142.714C0.782257 142.715 0.782455 142.715 0.78273 142.716C0.783554 142.718 0.784363 142.719 0.785187 142.721C0.785461 142.721 0.785751 142.722 0.786026 142.722C0.786789 142.724 0.787582 142.726 0.788361 142.727C0.788589 142.728 0.788834 142.728 0.789062 142.729C0.789764 142.73 0.790421 142.731 0.791138 142.733C0.791443 142.733 0.791748 142.734 0.792068 142.734C0.792847 142.736 0.793671 142.738 0.794449 142.739C0.794724 142.74 0.79509 142.74 0.795364 142.741C0.796021 142.742 0.796738 142.744 0.797379 142.745C0.797668 142.745 0.797943 142.746 0.798233 142.746C0.799011 142.748 0.799835 142.75 0.800613 142.751C0.800888 142.752 0.801193 142.752 0.801468 142.753C0.802322 142.754 0.803101 142.756 0.803955 142.758C0.80423 142.758 0.804504 142.759 0.804794 142.759C0.80545 142.76 0.806198 142.762 0.806854 142.763C0.807098 142.764 0.807343 142.764 0.807587 142.764C0.808441 142.766 0.80925 142.768 0.810104 142.769C0.81044 142.77 0.81073 142.77 0.81105 142.771C0.811859 142.773 0.812668 142.774 0.813477 142.776C0.813721 142.776 0.814041 142.777 0.814285 142.777C0.814941 142.778 0.815659 142.78 0.81633 142.781C0.816696 142.782 0.817001 142.782 0.817368 142.783C0.818176 142.785 0.818985 142.786 0.819794 142.788C0.820129 142.788 0.82045 142.789 0.82077 142.789C0.821457 142.791 0.822235 142.792 0.822906 142.793C0.823196 142.794 0.823456 142.794 0.823746 142.795C0.824554 142.796 0.825363 142.798 0.826172 142.799C0.826508 142.8 0.826752 142.8 0.827072 142.801C0.827957 142.803 0.828796 142.804 0.829681 142.806C0.829987 142.806 0.830185 142.807 0.830475 142.807C0.831223 142.809 0.831985 142.81 0.832733 142.811C0.832993 142.812 0.833221 142.812 0.833466 142.813C0.834366 142.814 0.835144 142.816 0.836044 142.818C0.83638 142.818 0.836761 142.819 0.837112 142.819C0.837936 142.821 0.838852 142.823 0.839676 142.824C0.839935 142.825 0.840225 142.825 0.840469 142.826C0.841171 142.827 0.841782 142.828 0.842468 142.829C0.84285 142.83 0.843216 142.831 0.843613 142.831C0.844437 142.833 0.845261 142.834 0.8461 142.836C0.846436 142.836 0.846786 142.837 0.847137 142.838C0.847839 142.839 0.848572 142.84 0.849274 142.841C0.849716 142.842 0.850128 142.843 0.850555 142.844C0.851273 142.845 0.851959 142.846 0.852676 142.847C0.853058 142.848 0.853378 142.849 0.853775 142.849C0.854614 142.851 0.855453 142.852 0.856308 142.854C0.856705 142.855 0.857071 142.855 0.857468 142.856C0.858032 142.857 0.858734 142.858 0.859299 142.859C0.859695 142.86 0.860138 142.861 0.860519 142.861C0.861313 142.863 0.862137 142.864 0.86293 142.865C0.863312 142.866 0.863678 142.867 0.864075 142.867C0.864868 142.869 0.865723 142.87 0.866516 142.872C0.866913 142.872 0.867401 142.873 0.867798 142.874C0.868378 142.875 0.868973 142.876 0.869553 142.877C0.869995 142.878 0.870468 142.879 0.870911 142.879C0.87178 142.881 0.872498 142.882 0.873367 142.884C0.87381 142.884 0.874161 142.885 0.874603 142.886C0.875259 142.887 0.8759 142.888 0.876556 142.889C0.877136 142.89 0.87767 142.891 0.87825 142.892C0.878906 142.893 0.879532 142.894 0.880188 142.895C0.880585 142.896 0.88092 142.896 0.881317 142.897C0.882202 142.899 0.883087 142.9 0.883972 142.902C0.884369 142.902 0.88475 142.903 0.885162 142.904C0.885895 142.905 0.88652 142.906 0.887253 142.907C0.887573 142.908 0.887863 142.908 0.888184 142.909C0.889069 142.91 0.889999 142.912 0.890884 142.913C0.891296 142.914 0.891663 142.915 0.892059 142.915C0.89296 142.917 0.89389 142.918 0.894775 142.92C0.895096 142.92 0.895401 142.921 0.895721 142.921C0.896469 142.923 0.897156 142.924 0.897888 142.925C0.898254 142.926 0.89859 142.926 0.898956 142.927C0.899918 142.928 0.900726 142.93 0.901703 142.931C0.902069 142.932 0.902466 142.933 0.902832 142.933C0.903595 142.934 0.904449 142.936 0.905197 142.937C0.90567 142.938 0.906082 142.939 0.906555 142.939C0.907303 142.941 0.90799 142.942 0.908752 142.943C0.909119 142.944 0.909576 142.944 0.909943 142.945C0.910843 142.946 0.911713 142.948 0.912613 142.949C0.91304 142.95 0.913452 142.951 0.913879 142.951C0.914642 142.953 0.915314 142.954 0.916077 142.955C0.916397 142.955 0.916733 142.956 0.917053 142.956C0.917969 142.958 0.918777 142.959 0.919693 142.961C0.92012 142.961 0.920609 142.962 0.921021 142.963C0.921875 142.964 0.922684 142.966 0.923523 142.967C0.924042 142.968 0.92453 142.969 0.925049 142.969C0.925674 142.97 0.926163 142.971 0.926788 142.972C0.927444 142.973 0.92807 142.974 0.928726 142.975C0.929428 142.976 0.93013 142.977 0.930817 142.979C0.931351 142.979 0.931763 142.98 0.932297 142.981C0.933075 142.982 0.933777 142.983 0.934555 142.984C0.93512 142.985 0.935577 142.986 0.936157 142.987C0.936768 142.988 0.937469 142.989 0.938095 142.99C0.938568 142.991 0.939026 142.992 0.939499 142.992C0.940353 142.994 0.941284 142.995 0.942154 142.996C0.942627 142.997 0.94313 142.998 0.943604 142.999C0.944229 143 0.94487 143.001 0.945511 143.002C0.946182 143.003 0.946838 143.004 0.947525 143.005C0.948227 143.006 0.948761 143.007 0.949478 143.008C0.949966 143.009 0.9505 143.009 0.950989 143.01C0.951859 143.012 0.952805 143.013 0.95369 143.014C0.954117 143.015 0.954666 143.016 0.955109 143.017C0.955673 143.017 0.956253 143.018 0.956818 143.019C0.957443 143.02 0.95813 143.021 0.958771 143.022C0.959488 143.023 0.960312 143.025 0.961044 143.026C0.961487 143.026 0.962006 143.027 0.962448 143.028C0.963257 143.029 0.964142 143.03 0.964935 143.032C0.965485 143.033 0.965958 143.033 0.966507 143.034C0.967239 143.035 0.967957 143.036 0.968674 143.037C0.969116 143.038 0.969467 143.039 0.96991 143.039C0.970871 143.041 0.971878 143.042 0.972855 143.044C0.973297 143.044 0.973679 143.045 0.974121 143.046C0.97493 143.047 0.975677 143.048 0.976486 143.049C0.97699 143.05 0.977493 143.051 0.977997 143.051C0.978806 143.053 0.979523 143.054 0.980331 143.055C0.980835 143.056 0.981247 143.056 0.981735 143.057C0.982727 143.058 0.983566 143.06 0.984543 143.061C0.985092 143.062 0.98555 143.063 0.986099 143.064C0.986679 143.064 0.987259 143.065 0.987839 143.066C0.988586 143.067 0.98938 143.068 0.990128 143.07C0.990799 143.07 0.991547 143.072 0.992203 143.073C0.992706 143.073 0.99324 143.074 0.993744 143.075C0.994568 143.076 0.995255 143.077 0.996078 143.078C0.99675 143.079 0.997406 143.08 0.998062 143.081C0.998642 143.082 0.999283 143.083 0.999863 143.084C1.00041 143.085 1.00087 143.085 1.00143 143.086C1.00233 143.087 1.00323 143.089 1.00415 143.09C1.00471 143.091 1.00529 143.092 1.00586 143.093C1.00644 143.093 1.00717 143.095 1.00777 143.095C1.00853 143.096 1.00926 143.098 1.01004 143.099C1.01071 143.1 1.01134 143.101 1.01201 143.102C1.01257 143.102 1.01312 143.103 1.01369 143.104C1.01462 143.105 1.01547 143.106 1.01639 143.108C1.01697 143.109 1.01755 143.109 1.01813 143.11C1.01871 143.111 1.0191 143.112 1.01968 143.113C1.02068 143.114 1.02164 143.115 1.02263 143.117C1.02313 143.117 1.02359 143.118 1.02411 143.119C1.02473 143.12 1.02539 143.121 1.02602 143.122C1.02652 143.122 1.02727 143.123 1.02779 143.124C1.02863 143.125 1.02959 143.127 1.03043 143.128C1.03102 143.129 1.03157 143.129 1.03217 143.13C1.03296 143.131 1.03363 143.132 1.03442 143.134C1.0352 143.135 1.03578 143.135 1.03656 143.137C1.03725 143.137 1.03786 143.138 1.03854 143.139C1.03905 143.14 1.03951 143.141 1.04002 143.141C1.04103 143.143 1.04207 143.144 1.04308 143.146C1.04352 143.146 1.04398 143.147 1.0444 143.148C1.0451 143.148 1.04581 143.149 1.04649 143.15C1.04701 143.151 1.04752 143.152 1.04803 143.153C1.04904 143.154 1.05006 143.155 1.05107 143.157C1.05151 143.157 1.05202 143.158 1.05246 143.159C1.05368 143.16 1.05482 143.162 1.05605 143.164C1.0563 143.164 1.05675 143.165 1.05702 143.165C1.05771 143.166 1.05853 143.167 1.05923 143.168C1.05959 143.169 1.05992 143.169 1.06027 143.169C1.06151 143.171 1.06273 143.173 1.06396 143.175C1.06432 143.175 1.0647 143.176 1.06506 143.176C1.06635 143.178 1.06752 143.179 1.06882 143.181C1.06917 143.182 1.06949 143.182 1.06984 143.183C1.07056 143.184 1.07124 143.184 1.07195 143.185C1.07248 143.186 1.07292 143.187 1.07346 143.187C1.07454 143.189 1.07561 143.19 1.07669 143.192C1.07713 143.192 1.07758 143.193 1.07803 143.194C1.07922 143.195 1.08037 143.197 1.08157 143.198C1.08202 143.199 1.08238 143.2 1.08284 143.2C1.08354 143.201 1.08424 143.202 1.08496 143.203C1.08531 143.203 1.08577 143.204 1.08614 143.205C1.08739 143.206 1.08856 143.208 1.08983 143.209C1.09029 143.21 1.09061 143.211 1.09106 143.211C1.09178 143.212 1.09241 143.213 1.09312 143.214C1.09366 143.215 1.09425 143.215 1.0948 143.216C1.0959 143.218 1.09697 143.219 1.09807 143.22C1.09843 143.221 1.09892 143.222 1.09927 143.222C1.10049 143.224 1.10178 143.225 1.10301 143.227C1.10336 143.227 1.10379 143.228 1.10416 143.228C1.10493 143.229 1.10565 143.23 1.10643 143.231C1.1068 143.232 1.10715 143.232 1.10751 143.233C1.1088 143.235 1.10999 143.236 1.11128 143.238C1.11172 143.238 1.11209 143.239 1.11255 143.239C1.1136 143.241 1.11469 143.242 1.11575 143.244C1.11639 143.244 1.11679 143.245 1.11743 143.246C1.11821 143.247 1.1189 143.248 1.11967 143.249C1.12004 143.249 1.12048 143.25 1.12085 143.25C1.12215 143.252 1.12343 143.254 1.12473 143.255C1.12509 143.256 1.12555 143.256 1.12592 143.257C1.12671 143.258 1.12738 143.259 1.12817 143.26C1.12845 143.26 1.12886 143.261 1.12914 143.261C1.13043 143.263 1.13177 143.264 1.13309 143.266C1.13364 143.267 1.13402 143.267 1.13458 143.268C1.13554 143.269 1.13652 143.27 1.13748 143.272C1.13814 143.272 1.13881 143.273 1.13947 143.274C1.14015 143.275 1.14093 143.276 1.14162 143.277C1.14209 143.277 1.14259 143.278 1.14305 143.279C1.14426 143.28 1.14546 143.282 1.14667 143.283C1.14713 143.284 1.14749 143.284 1.14796 143.285C1.14952 143.287 1.15109 143.289 1.15265 143.291C1.15274 143.291 1.15286 143.291 1.15295 143.291C1.15382 143.292 1.15459 143.293 1.15546 143.294C1.15573 143.295 1.15602 143.295 1.15631 143.295C1.15781 143.297 1.15927 143.299 1.16078 143.301C1.16096 143.301 1.1613 143.302 1.1615 143.302C1.16405 143.305 1.16655 143.308 1.16911 143.311C1.16959 143.312 1.16995 143.312 1.17043 143.313C1.17181 143.315 1.17317 143.316 1.17459 143.318C1.17487 143.319 1.17514 143.319 1.17543 143.319C1.1763 143.32 1.17714 143.321 1.17802 143.322C1.17821 143.323 1.17831 143.323 1.17851 143.323C1.18004 143.325 1.1817 143.327 1.18323 143.329C1.18352 143.329 1.18381 143.33 1.1841 143.33C1.18674 143.333 1.18944 143.336 1.19209 143.34C1.19229 143.34 1.19234 143.34 1.19254 143.34C1.1942 143.342 1.19594 143.344 1.1976 143.346C1.1978 143.347 1.19792 143.347 1.19812 143.347C1.20081 143.35 1.20354 143.354 1.20622 143.357C1.20642 143.357 1.2068 143.357 1.207 143.358C1.20862 143.36 1.21025 143.362 1.21187 143.364C1.21207 143.364 1.21217 143.364 1.21237 143.364C1.21327 143.365 1.21416 143.366 1.21506 143.367C1.21526 143.368 1.21553 143.368 1.21573 143.368C1.21729 143.37 1.21884 143.372 1.2204 143.374C1.22079 143.374 1.22104 143.374 1.22144 143.375C1.22289 143.377 1.22437 143.378 1.22581 143.38C1.22621 143.381 1.22655 143.381 1.22694 143.381C1.2278 143.382 1.22855 143.383 1.2294 143.384C1.22971 143.385 1.23004 143.385 1.23033 143.385C1.23186 143.387 1.23344 143.389 1.23497 143.391C1.23528 143.391 1.23553 143.392 1.23582 143.392C1.23851 143.395 1.24129 143.398 1.24399 143.401C1.24419 143.402 1.24463 143.402 1.24483 143.402C1.24641 143.404 1.24796 143.406 1.24956 143.408C1.24986 143.408 1.25009 143.409 1.2504 143.409C1.25322 143.412 1.256 143.415 1.25883 143.419C1.25894 143.419 1.25917 143.419 1.25928 143.419C1.26404 143.425 1.26878 143.43 1.27357 143.436C1.27377 143.436 1.27402 143.436 1.27423 143.436C1.28203 143.445 1.28987 143.454 1.29778 143.463C1.29808 143.463 1.2981 143.463 1.2984 143.464C1.3063 143.472 1.31435 143.481 1.32236 143.49C1.32246 143.49 1.32268 143.49 1.32278 143.491C1.34111 143.511 1.35976 143.531 1.37865 143.551L1.37877 143.551C1.90065 144.102 2.63196 144.575 3.50995 144.935L3.8889 144.009C2.41537 143.406 1.5 142.466 1.5 141.557V141.35ZM13.4169 144.678H8.41685V145.678H13.4169V144.678ZM23.4169 144.678H18.4169V145.678H23.4169V144.678ZM33.4169 144.678H28.4169V145.678H33.4169V144.678ZM43.4169 144.678H38.4169V145.678H43.4169V144.678ZM53.4169 144.678H48.4169V145.678H53.4169V144.678ZM63.4169 144.678H58.4169V145.678H63.4169V144.678ZM73.4169 144.678H68.4169V145.678H73.4169V144.678ZM83.4169 144.678H78.4169V145.678H83.4169V144.678ZM93.4169 144.678H88.4169V145.678H93.4169V144.678ZM103.417 144.678H98.4169V145.678H103.417V144.678ZM113.417 144.678H108.417V145.678H113.417V144.678ZM123.417 144.678H118.417V145.678H123.417V144.678ZM133.417 144.678H128.417V145.678H133.417V144.678ZM143.417 144.678H138.417V145.678H143.417V144.678ZM153.417 144.678H148.417V145.678H153.417V144.678ZM163.417 144.678H158.417V145.678H163.417V144.678ZM173.417 144.678H168.417V145.678H173.417V144.678ZM183.242 144.531C182.663 144.629 182.06 144.678 181.45 144.678H178.417V145.678H181.45C181.455 145.678 181.459 145.678 181.464 145.678C181.466 145.678 181.467 145.678 181.468 145.678C181.472 145.678 181.476 145.678 181.479 145.678C181.481 145.678 181.482 145.678 181.483 145.678C181.488 145.678 181.492 145.678 181.497 145.678C181.498 145.678 181.499 145.678 181.5 145.678C181.504 145.678 181.508 145.678 181.511 145.678C181.513 145.678 181.514 145.678 181.516 145.678C181.52 145.678 181.524 145.678 181.529 145.678C181.529 145.678 181.529 145.678 181.53 145.678C181.534 145.678 181.539 145.678 181.544 145.678C181.545 145.678 181.546 145.678 181.548 145.678C181.551 145.678 181.555 145.678 181.559 145.678C181.56 145.678 181.561 145.678 181.562 145.678C181.567 145.677 181.572 145.677 181.576 145.677C181.577 145.677 181.578 145.677 181.58 145.677C181.583 145.677 181.587 145.677 181.591 145.677C181.592 145.677 181.593 145.677 181.595 145.677C181.599 145.677 181.604 145.677 181.608 145.677C181.608 145.677 181.609 145.677 181.609 145.677C181.614 145.677 181.618 145.677 181.623 145.677C181.624 145.677 181.626 145.677 181.627 145.677C181.631 145.677 181.634 145.677 181.638 145.677C181.639 145.677 181.64 145.677 181.642 145.677C181.646 145.676 181.651 145.676 181.656 145.676C181.657 145.676 181.657 145.676 181.658 145.676C181.662 145.676 181.666 145.676 181.67 145.676C181.671 145.676 181.673 145.676 181.674 145.676C181.678 145.676 181.682 145.676 181.687 145.676C181.687 145.676 181.688 145.676 181.688 145.676C181.693 145.676 181.697 145.676 181.702 145.675C181.704 145.675 181.705 145.675 181.706 145.675C181.71 145.675 181.714 145.675 181.717 145.675C181.718 145.675 181.72 145.675 181.72 145.675C181.725 145.675 181.73 145.675 181.735 145.675C181.735 145.675 181.736 145.675 181.737 145.675C181.741 145.675 181.745 145.674 181.749 145.674C181.75 145.674 181.752 145.674 181.753 145.674C181.757 145.674 181.761 145.674 181.766 145.674C181.766 145.674 181.767 145.674 181.767 145.674C181.772 145.674 181.777 145.674 181.781 145.674C181.782 145.674 181.783 145.674 181.785 145.673C181.788 145.673 181.792 145.673 181.796 145.673C181.797 145.673 181.798 145.673 181.799 145.673C181.804 145.673 181.809 145.673 181.814 145.673L181.814 145.673C181.819 145.673 181.823 145.672 181.828 145.672C181.829 145.672 181.83 145.672 181.831 145.672C181.836 145.672 181.84 145.672 181.845 145.672C181.845 145.672 181.845 145.672 181.846 145.672C181.851 145.672 181.855 145.671 181.86 145.671C181.861 145.671 181.862 145.671 181.863 145.671C181.867 145.671 181.871 145.671 181.875 145.671C181.876 145.671 181.877 145.671 181.878 145.671C181.883 145.67 181.888 145.67 181.892 145.67C181.893 145.67 181.893 145.67 181.893 145.67C181.898 145.67 181.902 145.67 181.907 145.67C181.908 145.669 181.908 145.669 181.909 145.669C181.914 145.669 181.919 145.669 181.923 145.669C181.924 145.669 181.924 145.669 181.924 145.669C181.929 145.669 181.934 145.668 181.939 145.668C181.939 145.668 181.94 145.668 181.941 145.668C181.945 145.668 181.949 145.668 181.954 145.668C181.954 145.668 181.955 145.668 181.956 145.668C181.966 145.667 181.976 145.667 181.985 145.666C181.986 145.666 181.987 145.666 181.988 145.666C181.992 145.666 181.997 145.666 182.002 145.666C182.002 145.666 182.002 145.666 182.002 145.666C182.007 145.665 182.012 145.665 182.017 145.665C182.018 145.665 182.018 145.665 182.019 145.665C182.023 145.665 182.028 145.664 182.032 145.664C182.033 145.664 182.033 145.664 182.034 145.664C182.044 145.664 182.054 145.663 182.064 145.663C182.064 145.663 182.065 145.663 182.065 145.663C182.07 145.662 182.075 145.662 182.08 145.662H182.08C182.085 145.662 182.09 145.661 182.095 145.661C182.096 145.661 182.096 145.661 182.096 145.661C182.101 145.661 182.105 145.66 182.11 145.66C182.111 145.66 182.111 145.66 182.112 145.66C182.122 145.66 182.132 145.659 182.141 145.658C182.142 145.658 182.143 145.658 182.143 145.658C182.158 145.658 182.173 145.657 182.188 145.656C182.188 145.656 182.189 145.656 182.189 145.656C182.199 145.655 182.209 145.654 182.219 145.654C182.22 145.654 182.22 145.654 182.22 145.654C182.235 145.653 182.25 145.652 182.266 145.651C182.266 145.651 182.266 145.651 182.267 145.651C182.277 145.65 182.287 145.649 182.297 145.649C182.297 145.649 182.297 145.649 182.297 145.649C182.313 145.648 182.328 145.646 182.343 145.645L182.343 145.645C182.354 145.645 182.364 145.644 182.374 145.643L182.374 145.643C182.389 145.642 182.404 145.641 182.42 145.639C182.42 145.639 182.42 145.639 182.42 145.639C182.43 145.639 182.441 145.638 182.451 145.637C182.451 145.637 182.451 145.637 182.451 145.637C182.492 145.633 182.532 145.63 182.573 145.626L182.573 145.626C182.598 145.624 182.624 145.621 182.649 145.619C182.649 145.619 182.649 145.619 182.649 145.619C182.674 145.616 182.7 145.614 182.725 145.611C182.725 145.611 182.725 145.611 182.725 145.611C182.75 145.608 182.775 145.605 182.8 145.603L182.8 145.603C182.815 145.601 182.83 145.599 182.845 145.597L182.846 145.597C182.855 145.596 182.865 145.595 182.875 145.594C182.876 145.594 182.875 145.594 182.876 145.594C182.886 145.593 182.896 145.591 182.905 145.59C182.906 145.59 182.905 145.59 182.906 145.59C182.91 145.59 182.915 145.589 182.92 145.588C182.92 145.588 182.921 145.588 182.921 145.588C182.931 145.587 182.94 145.586 182.95 145.585C182.95 145.585 182.951 145.584 182.951 145.584C182.956 145.584 182.96 145.583 182.965 145.583L182.965 145.583C182.97 145.582 182.975 145.581 182.98 145.581L182.98 145.581C182.985 145.58 182.99 145.579 182.994 145.579C182.995 145.579 182.995 145.579 182.996 145.579C183.005 145.577 183.015 145.576 183.024 145.575C183.025 145.575 183.026 145.575 183.026 145.575C183.031 145.574 183.035 145.573 183.039 145.573C183.039 145.573 183.04 145.573 183.04 145.573C183.045 145.572 183.05 145.572 183.054 145.571C183.055 145.571 183.055 145.571 183.056 145.571C183.06 145.57 183.064 145.57 183.068 145.569C183.069 145.569 183.07 145.569 183.071 145.569C183.08 145.567 183.089 145.566 183.098 145.565C183.099 145.565 183.1 145.565 183.101 145.564C183.105 145.564 183.109 145.563 183.112 145.563C183.113 145.563 183.114 145.563 183.115 145.562C183.12 145.562 183.124 145.561 183.129 145.561C183.129 145.56 183.13 145.56 183.13 145.56C183.134 145.56 183.138 145.559 183.142 145.559C183.143 145.558 183.144 145.558 183.146 145.558C183.149 145.558 183.153 145.557 183.157 145.556C183.158 145.556 183.158 145.556 183.159 145.556C183.163 145.556 183.167 145.555 183.172 145.554C183.173 145.554 183.174 145.554 183.176 145.554C183.179 145.553 183.182 145.553 183.186 145.552C183.187 145.552 183.188 145.552 183.189 145.552C183.194 145.551 183.198 145.55 183.202 145.55C183.203 145.55 183.204 145.549 183.205 145.549C183.209 145.549 183.212 145.548 183.215 145.548C183.217 145.548 183.218 145.547 183.22 145.547C183.223 145.547 183.226 145.546 183.23 145.546C183.231 145.545 183.232 145.545 183.233 145.545C183.237 145.544 183.241 145.544 183.245 145.543C183.247 145.543 183.249 145.543 183.25 145.542C183.253 145.542 183.256 145.542 183.258 145.541C183.26 145.541 183.262 145.541 183.264 145.54C183.268 145.54 183.271 145.539 183.275 145.539C183.277 145.538 183.279 145.538 183.281 145.538C183.283 145.537 183.286 145.537 183.288 145.537C183.29 145.536 183.292 145.536 183.294 145.536C183.297 145.535 183.299 145.535 183.301 145.534C183.304 145.534 183.307 145.534 183.31 145.533C183.313 145.533 183.315 145.532 183.318 145.532C183.32 145.531 183.322 145.531 183.325 145.531C183.327 145.53 183.329 145.53 183.331 145.53C183.333 145.529 183.335 145.529 183.337 145.529C183.34 145.528 183.342 145.528 183.344 145.528C183.348 145.527 183.352 145.526 183.355 145.526C183.357 145.525 183.359 145.525 183.361 145.525C183.363 145.524 183.366 145.524 183.368 145.524C183.37 145.523 183.371 145.523 183.373 145.523C183.378 145.522 183.383 145.521 183.388 145.52C183.389 145.52 183.39 145.52 183.391 145.52C183.393 145.519 183.396 145.519 183.399 145.519C183.4 145.518 183.401 145.518 183.403 145.518C183.404 145.518 183.406 145.517 183.408 145.517L183.242 144.531ZM188.5 138.516H187.5V141.557C187.5 141.945 187.342 142.333 187.032 142.709L187.803 143.346C187.996 143.112 188.152 142.867 188.267 142.611L188.267 142.611C188.274 142.597 188.28 142.583 188.286 142.568C188.286 142.568 188.286 142.568 188.286 142.568C188.287 142.566 188.288 142.564 188.289 142.562C188.289 142.562 188.289 142.562 188.289 142.562C188.29 142.56 188.291 142.558 188.291 142.556C188.291 142.556 188.291 142.556 188.292 142.555C188.292 142.553 188.293 142.551 188.294 142.55C188.294 142.55 188.294 142.55 188.294 142.549C188.298 142.539 188.303 142.529 188.307 142.519C188.307 142.519 188.307 142.519 188.307 142.518C188.308 142.517 188.309 142.515 188.309 142.513C188.309 142.513 188.31 142.512 188.31 142.512C188.31 142.51 188.311 142.508 188.312 142.507C188.312 142.506 188.312 142.506 188.312 142.505C188.313 142.504 188.314 142.502 188.314 142.5C188.314 142.5 188.315 142.5 188.315 142.499C188.316 142.497 188.316 142.496 188.317 142.494C188.317 142.494 188.317 142.493 188.317 142.493C188.321 142.483 188.325 142.473 188.329 142.463C188.329 142.463 188.329 142.463 188.329 142.462C188.33 142.46 188.331 142.459 188.331 142.457C188.331 142.457 188.332 142.456 188.332 142.456C188.332 142.454 188.333 142.453 188.334 142.451C188.334 142.45 188.334 142.45 188.334 142.449C188.335 142.447 188.335 142.446 188.336 142.444C188.336 142.444 188.337 142.443 188.337 142.443C188.337 142.441 188.338 142.439 188.338 142.438C188.339 142.437 188.339 142.437 188.339 142.436C188.34 142.434 188.34 142.433 188.341 142.431C188.341 142.431 188.341 142.431 188.341 142.431C188.343 142.425 188.345 142.419 188.347 142.414C188.348 142.413 188.348 142.413 188.348 142.412C188.348 142.411 188.349 142.409 188.35 142.408C188.35 142.407 188.35 142.406 188.35 142.406C188.351 142.404 188.351 142.403 188.352 142.401C188.352 142.401 188.352 142.4 188.353 142.399C188.353 142.398 188.354 142.396 188.354 142.395C188.354 142.394 188.355 142.393 188.355 142.392C188.355 142.391 188.356 142.39 188.356 142.388C188.357 142.387 188.357 142.386 188.357 142.385C188.358 142.384 188.358 142.383 188.359 142.382C188.359 142.381 188.359 142.38 188.36 142.379C188.36 142.378 188.361 142.376 188.361 142.375C188.361 142.374 188.361 142.374 188.362 142.373C188.363 142.368 188.365 142.363 188.367 142.358C188.367 142.357 188.367 142.356 188.368 142.355C188.368 142.354 188.369 142.353 188.369 142.351C188.369 142.35 188.37 142.35 188.37 142.349C188.37 142.347 188.371 142.346 188.371 142.345C188.372 142.344 188.372 142.343 188.372 142.342C188.373 142.341 188.373 142.339 188.373 142.338C188.374 142.337 188.374 142.336 188.374 142.335C188.375 142.334 188.375 142.333 188.376 142.332C188.376 142.331 188.376 142.33 188.377 142.329C188.377 142.327 188.377 142.326 188.378 142.325C188.378 142.324 188.378 142.323 188.379 142.322C188.379 142.321 188.38 142.319 188.38 142.318C188.38 142.317 188.38 142.316 188.381 142.315C188.382 142.313 188.383 142.31 188.383 142.307C188.384 142.306 188.384 142.306 188.384 142.305C188.384 142.304 188.385 142.303 188.385 142.301C188.386 142.3 188.386 142.299 188.386 142.298C188.386 142.297 188.387 142.296 188.387 142.295C188.388 142.294 188.388 142.293 188.388 142.292C188.389 142.29 188.389 142.289 188.389 142.288C188.39 142.287 188.39 142.286 188.39 142.285C188.391 142.284 188.391 142.283 188.391 142.281C188.392 142.28 188.392 142.279 188.392 142.278C188.393 142.277 188.393 142.276 188.393 142.275C188.394 142.273 188.394 142.272 188.394 142.271C188.395 142.27 188.395 142.269 188.395 142.268C188.396 142.267 188.396 142.266 188.396 142.265C188.397 142.264 188.397 142.262 188.397 142.261C188.398 142.26 188.398 142.259 188.398 142.258C188.399 142.256 188.4 142.253 188.4 142.251C188.401 142.25 188.401 142.249 188.401 142.248C188.402 142.247 188.402 142.246 188.402 142.244C188.403 142.243 188.403 142.242 188.403 142.241C188.404 142.24 188.404 142.239 188.404 142.238C188.404 142.237 188.405 142.235 188.405 142.234C188.405 142.233 188.406 142.232 188.406 142.231C188.406 142.23 188.407 142.229 188.407 142.227C188.407 142.226 188.408 142.225 188.408 142.224C188.408 142.223 188.409 142.222 188.409 142.221C188.409 142.22 188.41 142.218 188.41 142.217C188.41 142.216 188.411 142.215 188.411 142.214C188.411 142.213 188.411 142.212 188.412 142.211C188.412 142.209 188.412 142.208 188.413 142.207C188.413 142.206 188.413 142.205 188.414 142.204C188.414 142.202 188.415 142.2 188.415 142.198C188.415 142.197 188.415 142.197 188.415 142.197C188.416 142.195 188.417 142.193 188.417 142.19C188.417 142.19 188.418 142.189 188.418 142.188C188.418 142.187 188.419 142.185 188.419 142.183C188.419 142.182 188.419 142.182 188.42 142.181C188.42 142.179 188.42 142.178 188.421 142.177C188.421 142.176 188.421 142.175 188.422 142.174C188.422 142.172 188.422 142.171 188.423 142.17C188.423 142.169 188.423 142.168 188.423 142.167C188.424 142.165 188.424 142.164 188.424 142.163C188.425 142.162 188.425 142.161 188.425 142.16C188.425 142.159 188.426 142.157 188.426 142.156C188.426 142.155 188.426 142.154 188.427 142.153C188.427 142.152 188.427 142.15 188.428 142.149C188.428 142.148 188.428 142.147 188.428 142.146C188.429 142.144 188.429 142.142 188.43 142.14C188.43 142.14 188.43 142.139 188.43 142.138C188.431 142.136 188.431 142.135 188.432 142.133C188.432 142.132 188.432 142.131 188.432 142.13C188.433 142.129 188.433 142.127 188.433 142.126C188.434 142.125 188.434 142.124 188.434 142.123C188.434 142.122 188.435 142.12 188.435 142.119C188.435 142.118 188.435 142.117 188.436 142.116C188.436 142.115 188.436 142.113 188.437 142.112C188.437 142.111 188.437 142.11 188.437 142.109C188.438 142.108 188.438 142.106 188.438 142.105C188.438 142.104 188.439 142.103 188.439 142.102C188.439 142.101 188.439 142.099 188.44 142.098C188.44 142.097 188.44 142.096 188.44 142.095C188.441 142.094 188.441 142.092 188.441 142.091C188.442 142.09 188.442 142.089 188.442 142.088C188.442 142.086 188.443 142.084 188.443 142.081C188.443 142.081 188.443 142.081 188.443 142.081C188.444 142.079 188.444 142.077 188.445 142.075C188.445 142.074 188.445 142.073 188.445 142.072C188.446 142.071 188.446 142.069 188.446 142.068C188.447 142.067 188.447 142.066 188.447 142.065C188.447 142.064 188.447 142.062 188.448 142.061C188.448 142.06 188.448 142.059 188.448 142.058C188.449 142.057 188.449 142.055 188.449 142.054C188.449 142.053 188.45 142.052 188.45 142.051C188.45 142.05 188.45 142.048 188.451 142.047C188.451 142.046 188.451 142.045 188.451 142.044C188.452 142.043 188.452 142.041 188.452 142.04C188.452 142.039 188.452 142.038 188.453 142.037C188.453 142.036 188.453 142.034 188.454 142.032C188.454 142.032 188.454 142.031 188.454 142.03C188.454 142.028 188.455 142.026 188.455 142.023C188.455 142.023 188.455 142.023 188.456 142.022C188.456 142.02 188.456 142.018 188.457 142.016C188.457 142.016 188.457 142.015 188.457 142.014C188.457 142.013 188.458 142.011 188.458 142.009C188.458 142.009 188.458 142.008 188.458 142.007C188.459 142.005 188.459 142.004 188.459 142.003C188.459 142.002 188.46 142.001 188.46 142C188.46 141.998 188.46 141.997 188.46 141.996C188.461 141.995 188.461 141.994 188.461 141.993C188.461 141.991 188.462 141.99 188.462 141.988C188.462 141.988 188.462 141.987 188.462 141.986C188.463 141.984 188.463 141.983 188.463 141.981C188.463 141.98 188.463 141.98 188.463 141.979C188.464 141.977 188.464 141.975 188.464 141.974C188.464 141.973 188.465 141.972 188.465 141.972C188.465 141.969 188.465 141.967 188.466 141.965C188.466 141.965 188.466 141.964 188.466 141.964C188.466 141.962 188.467 141.96 188.467 141.958C188.467 141.957 188.467 141.956 188.467 141.956C188.468 141.954 188.468 141.952 188.468 141.951C188.468 141.95 188.468 141.949 188.469 141.949C188.469 141.947 188.469 141.945 188.469 141.944C188.469 141.943 188.47 141.942 188.47 141.941C188.47 141.94 188.47 141.938 188.47 141.937C188.471 141.936 188.471 141.935 188.471 141.934C188.471 141.933 188.471 141.931 188.471 141.93C188.472 141.929 188.472 141.928 188.472 141.927C188.472 141.926 188.472 141.924 188.473 141.923C188.473 141.922 188.473 141.921 188.473 141.92C188.473 141.919 188.473 141.917 188.474 141.915C188.474 141.915 188.474 141.914 188.474 141.913C188.474 141.911 188.475 141.909 188.475 141.906C188.475 141.906 188.475 141.905 188.475 141.905C188.475 141.903 188.476 141.901 188.476 141.899C188.476 141.899 188.476 141.898 188.476 141.897C188.477 141.895 188.477 141.894 188.477 141.892C188.477 141.891 188.477 141.89 188.477 141.89C188.478 141.888 188.478 141.887 188.478 141.885C188.478 141.884 188.478 141.883 188.478 141.882C188.478 141.881 188.479 141.88 188.479 141.878C188.479 141.877 188.479 141.876 188.479 141.875C188.479 141.874 188.48 141.872 188.48 141.871C188.48 141.87 188.48 141.869 188.48 141.868C188.48 141.867 188.481 141.865 188.481 141.864C188.481 141.863 188.481 141.862 188.481 141.861C188.481 141.86 188.481 141.858 188.482 141.856C188.482 141.855 188.482 141.855 188.482 141.854C188.482 141.852 188.482 141.85 188.483 141.847C188.483 141.847 188.483 141.846 188.483 141.846C188.483 141.844 188.483 141.842 188.484 141.84C188.484 141.839 188.484 141.839 188.484 141.838C188.484 141.836 188.484 141.835 188.484 141.833C188.484 141.832 188.485 141.831 188.485 141.831C188.485 141.829 188.485 141.828 188.485 141.826C188.485 141.825 188.485 141.824 188.485 141.823C188.486 141.822 188.486 141.821 188.486 141.819C188.486 141.818 188.486 141.817 188.486 141.816C188.486 141.815 188.487 141.813 188.487 141.812C188.487 141.811 188.487 141.81 188.487 141.809C188.487 141.808 188.487 141.806 188.487 141.805C188.488 141.804 188.488 141.803 188.488 141.802C188.488 141.801 188.488 141.799 188.488 141.797C188.488 141.796 188.488 141.796 188.488 141.795C188.489 141.793 188.489 141.791 188.489 141.788C188.489 141.788 188.489 141.787 188.489 141.786C188.489 141.785 188.49 141.783 188.49 141.781C188.49 141.78 188.49 141.779 188.49 141.779C188.49 141.777 188.49 141.776 188.49 141.774C188.49 141.773 188.491 141.772 188.491 141.771C188.491 141.77 188.491 141.768 188.491 141.767C188.491 141.766 188.491 141.765 188.491 141.764C188.491 141.763 188.491 141.761 188.492 141.76C188.492 141.759 188.492 141.758 188.492 141.757C188.492 141.756 188.492 141.754 188.492 141.753C188.492 141.752 188.492 141.751 188.492 141.75C188.492 141.748 188.493 141.747 188.493 141.745C188.493 141.745 188.493 141.744 188.493 141.743C188.493 141.741 188.493 141.739 188.493 141.737C188.493 141.737 188.493 141.736 188.493 141.736C188.494 141.734 188.494 141.731 188.494 141.729C188.494 141.728 188.494 141.728 188.494 141.727C188.494 141.725 188.494 141.724 188.494 141.722C188.494 141.721 188.495 141.72 188.495 141.719C188.495 141.718 188.495 141.716 188.495 141.715C188.495 141.714 188.495 141.713 188.495 141.712C188.495 141.711 188.495 141.709 188.495 141.708C188.495 141.707 188.495 141.706 188.496 141.705C188.496 141.703 188.496 141.702 188.496 141.7C188.496 141.7 188.496 141.698 188.496 141.698C188.496 141.696 188.496 141.695 188.496 141.693C188.496 141.692 188.496 141.691 188.496 141.691C188.496 141.689 188.497 141.687 188.497 141.686C188.497 141.685 188.497 141.684 188.497 141.683C188.497 141.681 188.497 141.679 188.497 141.677C188.497 141.677 188.497 141.677 188.497 141.676C188.497 141.674 188.497 141.672 188.497 141.669C188.497 141.669 188.497 141.668 188.498 141.667C188.498 141.666 188.498 141.664 188.498 141.662C188.498 141.661 188.498 141.66 188.498 141.66C188.498 141.658 188.498 141.657 188.498 141.655C188.498 141.654 188.498 141.653 188.498 141.652C188.498 141.651 188.498 141.649 188.498 141.648C188.498 141.647 188.498 141.646 188.498 141.645C188.498 141.644 188.499 141.642 188.499 141.641C188.499 141.64 188.499 141.639 188.499 141.638C188.499 141.636 188.499 141.635 188.499 141.634C188.499 141.633 188.499 141.632 188.499 141.631C188.499 141.629 188.499 141.628 188.499 141.626C188.499 141.625 188.499 141.625 188.499 141.624C188.499 141.622 188.499 141.62 188.499 141.618C188.499 141.617 188.499 141.617 188.499 141.616C188.499 141.614 188.499 141.612 188.499 141.61C188.499 141.609 188.499 141.608 188.499 141.607C188.5 141.606 188.5 141.604 188.5 141.602C188.5 141.601 188.5 141.601 188.5 141.6C188.5 141.598 188.5 141.597 188.5 141.595C188.5 141.594 188.5 141.593 188.5 141.592C188.5 141.591 188.5 141.59 188.5 141.588C188.5 141.587 188.5 141.586 188.5 141.585C188.5 141.584 188.5 141.582 188.5 141.581C188.5 141.58 188.5 141.579 188.5 141.578C188.5 141.577 188.5 141.575 188.5 141.574C188.5 141.573 188.5 141.572 188.5 141.571C188.5 141.569 188.5 141.568 188.5 141.566C188.5 141.565 188.5 141.564 188.5 141.564C188.5 141.561 188.5 141.559 188.5 141.557V138.516ZM188.5 128.516H187.5V133.516H188.5V128.516ZM188.5 118.516H187.5V123.516H188.5V118.516ZM188.5 108.516H187.5V113.516H188.5V108.516ZM188.5 98.5163H187.5V103.516H188.5V98.5163ZM188.5 88.5163H187.5V93.5163H188.5V88.5163ZM188.5 78.5163H187.5V83.5163H188.5V78.5163ZM188.5 68.5163H187.5V73.5163H188.5V68.5163ZM188.5 58.5163H187.5V63.5163H188.5V58.5163ZM188.5 48.5163H187.5V53.5163H188.5V48.5163ZM188.5 38.5163H187.5V43.5163H188.5V38.5163ZM188.5 28.5163H187.5V33.5163H188.5V28.5163ZM188.5 18.5163H187.5V23.5163H188.5V18.5163ZM188.5 8.51627H187.5V13.5163H188.5V8.51627ZM184.673 0.509949L184.385 1.4675C186.018 1.95929 187.192 2.84789 187.447 3.78654L188.412 3.52408C188.148 2.5515 187.301 1.69226 186.088 1.07224C186.088 1.07219 186.088 1.0722 186.088 1.07214C186.085 1.07079 186.082 1.0695 186.08 1.06815L186.08 1.06808C186.074 1.06546 186.069 1.06291 186.064 1.06029C186.064 1.06013 186.064 1.05992 186.063 1.05977C186.061 1.05852 186.058 1.05724 186.056 1.05597L186.056 1.05595C186.053 1.05461 186.051 1.05338 186.048 1.05203C186.048 1.05199 186.048 1.05194 186.048 1.05188C186.045 1.05063 186.042 1.04929 186.04 1.04803C186.04 1.04793 186.04 1.04788 186.039 1.04778C186.032 1.04384 186.024 1.04002 186.016 1.0361C186.016 1.03595 186.015 1.03575 186.015 1.0356C186.013 1.03435 186.01 1.0332 186.008 1.03195C186.007 1.03185 186.007 1.03166 186.007 1.03157C186.005 1.03049 186.003 1.02946 186.001 1.02838C186 1.02814 185.999 1.02783 185.999 1.02757C185.997 1.02649 185.994 1.02533 185.992 1.02425C185.992 1.02399 185.991 1.02362 185.99 1.02336C185.988 1.02229 185.986 1.02115 185.984 1.02007C185.983 1.01978 185.983 1.01959 185.982 1.0193C185.98 1.0183 185.978 1.0175 185.976 1.01651C185.976 1.0162 185.975 1.01591 185.975 1.01561C185.972 1.01453 185.97 1.01353 185.968 1.01247C185.967 1.01207 185.966 1.01167 185.966 1.01128C185.964 1.01028 185.961 1.00912 185.959 1.00813C185.959 1.00793 185.958 1.00771 185.958 1.00751C185.956 1.00652 185.954 1.00558 185.952 1.00461C185.951 1.0043 185.951 1.00395 185.95 1.00365C185.948 1.00258 185.946 1.00165 185.944 1.00058C185.943 1.00018 185.942 0.99971 185.941 0.999313C185.94 0.998581 185.938 0.997772 185.936 0.99704C185.935 0.996338 185.934 0.995773 185.932 0.995087C185.931 0.994431 185.93 0.993774 185.928 0.993118C185.927 0.992615 185.926 0.992157 185.925 0.991669C185.923 0.990677 185.921 0.989807 185.919 0.988831C185.918 0.988388 185.917 0.987961 185.917 0.987518C185.915 0.98671 185.913 0.985901 185.911 0.985092C185.91 0.984543 185.909 0.984024 185.908 0.98349C185.907 0.982834 185.905 0.981995 185.904 0.981339C185.902 0.980804 185.902 0.980331 185.9 0.979782C185.898 0.978897 185.896 0.977905 185.895 0.977005C185.894 0.976608 185.893 0.976151 185.892 0.975754C185.89 0.975021 185.889 0.974228 185.887 0.973495C185.886 0.972946 185.885 0.972351 185.884 0.971802C185.882 0.970993 185.88 0.970337 185.879 0.969528C185.878 0.969086 185.877 0.968628 185.876 0.968185C185.874 0.967209 185.872 0.966415 185.87 0.965454C185.869 0.964859 185.868 0.964371 185.867 0.963776C185.865 0.963211 185.864 0.962799 185.863 0.962234C185.861 0.961365 185.86 0.960587 185.858 0.959702C185.857 0.959137 185.856 0.958603 185.854 0.958038C185.853 0.957458 185.852 0.956879 185.851 0.956299C185.849 0.955643 185.848 0.955078 185.847 0.954437C185.845 0.953659 185.843 0.952774 185.841 0.951996C185.841 0.951599 185.84 0.951202 185.839 0.950806C185.837 0.949829 185.834 0.948761 185.832 0.947784C185.831 0.947388 185.831 0.94696 185.83 0.946564C185.828 0.945938 185.827 0.945312 185.826 0.944687C185.825 0.94429 185.824 0.943741 185.823 0.943344C185.821 0.942368 185.819 0.941391 185.816 0.94043C185.816 0.940033 185.815 0.939606 185.814 0.939209C185.811 0.938141 185.809 0.936951 185.807 0.935898C185.806 0.935577 185.806 0.93541 185.805 0.935089C185.803 0.934418 185.802 0.933716 185.8 0.933044C185.8 0.932648 185.799 0.932404 185.798 0.932007C185.796 0.930954 185.794 0.929886 185.791 0.928833C185.791 0.928513 185.79 0.928146 185.789 0.927826C185.786 0.926575 185.784 0.925339 185.781 0.924103C185.781 0.923935 185.78 0.923798 185.78 0.923645C185.778 0.922913 185.777 0.922272 185.775 0.921555C185.775 0.92131 185.774 0.921173 185.774 0.920929C185.771 0.919632 185.768 0.918335 185.765 0.917038C185.765 0.916885 185.765 0.916779 185.764 0.916611C185.761 0.915131 185.758 0.913788 185.755 0.912308C185.755 0.912231 185.755 0.912308 185.755 0.912231C185.753 0.911469 185.751 0.910782 185.75 0.910019C185.75 0.909943 185.749 0.909805 185.749 0.909729C185.746 0.908356 185.743 0.906921 185.74 0.905548C185.74 0.905472 185.739 0.90538 185.739 0.905304C185.734 0.903122 185.729 0.900833 185.724 0.898651C185.724 0.898499 185.724 0.898529 185.724 0.898376C185.721 0.897003 185.718 0.895721 185.715 0.894363C185.714 0.894211 185.714 0.893997 185.714 0.893829C185.388 0.748962 185.04 0.620361 184.673 0.509949Z" fill="#27CD92"/>
<g opacity="0.428">
<path opacity="0.428" d="M106.176 72.866C104.636 72.866 103.131 72.4094 101.851 71.5539C100.571 70.6984 99.5727 69.4825 98.9835 68.0599C98.3943 66.6374 98.2402 65.072 98.5407 63.5618C98.8411 62.0517 99.5827 60.6645 100.672 59.5758C101.76 58.4871 103.148 57.7457 104.658 57.4454C106.168 57.1452 107.733 57.2995 109.156 57.8889C110.578 58.4782 111.794 59.4762 112.649 60.7566C113.505 62.037 113.961 63.5422 113.961 65.082C113.959 67.1461 113.138 69.1252 111.679 70.5848C110.219 72.0443 108.24 72.8651 106.176 72.867V72.866ZM106.176 61.189C105.406 61.189 104.654 61.4172 104.014 61.8449C103.374 62.2726 102.875 62.8804 102.58 63.5916C102.286 64.3027 102.209 65.0853 102.359 65.8403C102.509 66.5953 102.88 67.2887 103.424 67.833C103.968 68.3774 104.662 68.748 105.417 68.8982C106.172 69.0484 106.954 68.9713 107.665 68.6767C108.377 68.3821 108.984 67.8833 109.412 67.2433C109.84 66.6032 110.068 65.8508 110.068 65.081C110.066 64.0494 109.655 63.0607 108.926 62.3313C108.196 61.6018 107.208 61.1911 106.176 61.189V61.189Z" fill="#27CD92"/>
<path opacity="0.428" d="M65.308 49.513H123.692C123.948 49.5129 124.201 49.5631 124.437 49.6609C124.673 49.7586 124.888 49.9019 125.068 50.0827C125.249 50.2634 125.392 50.478 125.49 50.7141C125.588 50.9503 125.638 51.2034 125.638 51.459V94.274C125.638 94.5296 125.588 94.7827 125.49 95.0188C125.392 95.255 125.249 95.4696 125.068 95.6503C124.888 95.831 124.673 95.9744 124.437 96.0721C124.201 96.1699 123.948 96.2201 123.692 96.22H65.308C65.0524 96.2201 64.7993 96.1699 64.5631 96.0721C64.327 95.9744 64.1124 95.831 63.9317 95.6503C63.7509 95.4696 63.6076 95.255 63.5099 95.0188C63.4121 94.7827 63.3619 94.5296 63.362 94.274V51.459C63.3619 51.2034 63.4121 50.9503 63.5099 50.7141C63.6076 50.478 63.7509 50.2634 63.9317 50.0827C64.1124 49.9019 64.327 49.7586 64.5631 49.6609C64.7993 49.5631 65.0524 49.5129 65.308 49.513ZM121.746 53.405H67.254V87.629L85.338 69.544C85.5186 69.3632 85.7331 69.2197 85.9692 69.1219C86.2053 69.024 86.4584 68.9736 86.714 68.9736C86.9696 68.9736 87.2227 69.024 87.4588 69.1219C87.6949 69.2197 87.9094 69.3632 88.09 69.544L110.875 92.328H121.746V53.405ZM68.06 92.327H105.371L86.715 73.672L68.06 92.327Z" fill="#27CD92"/>
</g>
</svg>
