<svg xmlns="http://www.w3.org/2000/svg" width="36.1" height="24.947" viewBox="0 0 36.1 24.947">
  <g id="Grupo_10471" data-name="Grupo 10471" transform="translate(0 -78.485)">
    <g id="Grupo_10226" data-name="Grupo 10226" transform="translate(0 78.485)">
      <g id="Grupo_10225" data-name="Grupo 10225" transform="translate(0 0)">
        <path id="Trazado_1428" data-name="Trazado 1428" d="M33.194,78.485H2.9a2.9,2.9,0,0,0-2.9,2.9v11.4a2.9,2.9,0,0,0,2.9,2.9H33.2a2.9,2.9,0,0,0,2.9-2.9v-11.4A2.912,2.912,0,0,0,33.194,78.485Zm.9,14.3a.888.888,0,0,1-.888.888H2.9a.888.888,0,0,1-.888-.888v-11.4A.888.888,0,0,1,2.9,80.5H33.2a.888.888,0,0,1,.888.888Z" transform="translate(0 -78.485)" fill="#2bd899"/>
      </g>
    </g>
    <g id="Grupo_10228" data-name="Grupo 10228" transform="translate(3.879 89.839)">
      <g id="Grupo_10227" data-name="Grupo 10227">
        <path id="Trazado_1429" data-name="Trazado 1429" d="M81.933,238.285H55.6a1,1,0,0,0,0,2H81.94a1,1,0,1,0-.007-2Z" transform="translate(-54.6 -238.285)" fill="#2bd899"/>
      </g>
    </g>
    <g id="Grupo_10230" data-name="Grupo 10230" transform="translate(30.302 82.222)">
      <g id="Grupo_10229" data-name="Grupo 10229" transform="translate(0 0)">
        <path id="Trazado_1430" data-name="Trazado 1430" d="M427.5,131.085a1,1,0,0,0-1,1v.334a1,1,0,1,0,2,0v-.334A1,1,0,0,0,427.5,131.085Z" transform="translate(-426.5 -131.085)" fill="#2bd899"/>
      </g>
    </g>
    <g id="Grupo_10232" data-name="Grupo 10232" transform="translate(30.302 86.016)">
      <g id="Grupo_10231" data-name="Grupo 10231">
        <path id="Trazado_1431" data-name="Trazado 1431" d="M427.5,184.485a1,1,0,0,0-1,1v.334a1,1,0,1,0,2,0v-.334A1,1,0,0,0,427.5,184.485Z" transform="translate(-426.5 -184.485)" fill="#2bd899"/>
      </g>
    </g>
    <g id="Grupo_10234" data-name="Grupo 10234" transform="translate(5.462 97.19)">
      <g id="Grupo_10233" data-name="Grupo 10233" transform="translate(0 0)">
        <path id="Trazado_1432" data-name="Trazado 1432" d="M78.863,341.787a1,1,0,0,0-1.215.732l-.746,2.97a1,1,0,0,0,.732,1.215,1.011,1.011,0,0,0,1.215-.732L79.6,343A1,1,0,0,0,78.863,341.787Z" transform="translate(-76.872 -341.757)" fill="#2bd899"/>
      </g>
    </g>
    <g id="Grupo_10236" data-name="Grupo 10236" transform="translate(13.184 98.375)">
      <g id="Grupo_10235" data-name="Grupo 10235" transform="translate(0 0)">
        <path id="Trazado_1433" data-name="Trazado 1433" d="M186.888,358.432a.993.993,0,0,0-1.08.917l-.249,3.055a.99.99,0,0,0,.917,1.08,1.01,1.01,0,0,0,1.08-.917l.249-3.055A1,1,0,0,0,186.888,358.432Z" transform="translate(-185.557 -358.428)" fill="#2bd899"/>
      </g>
    </g>
    <g id="Grupo_10238" data-name="Grupo 10238" transform="translate(27.878 97.193)">
      <g id="Grupo_10237" data-name="Grupo 10237" transform="translate(0 0)">
        <path id="Trazado_1434" data-name="Trazado 1434" d="M395.1,345.519l-.746-2.97a1,1,0,1,0-1.947.483l.746,2.97a1.015,1.015,0,0,0,1.215.732A1,1,0,0,0,395.1,345.519Z" transform="translate(-392.372 -341.789)" fill="#2bd899"/>
      </g>
    </g>
    <g id="Grupo_10240" data-name="Grupo 10240" transform="translate(20.657 98.375)">
      <g id="Grupo_10239" data-name="Grupo 10239" transform="translate(0 0)">
        <path id="Trazado_1435" data-name="Trazado 1435" d="M292.992,362.4l-.249-3.055a1,1,0,1,0-2,.163l.249,3.055a1.014,1.014,0,0,0,1.08.917A.994.994,0,0,0,292.992,362.4Z" transform="translate(-290.743 -358.429)" fill="#2bd899"/>
      </g>
    </g>
  </g>
</svg>
