<svg fill="none" height="24" viewBox="0 0 24 24" width="24" xmlns="http://www.w3.org/2000/svg"><path clip-rule="evenodd" d="m7.10711 2.87868c.56261-.56261 1.32567-.87868 2.12132-.87868h5.54317c.7956 0 1.5587.31607 2.1213.87868l4.2284 4.22843c.5626.56261.8787 1.32567.8787 2.12132v5.54317c0 .7956-.3161 1.5587-.8787 2.1213l-4.2284 4.2284c-.5626.5626-1.3257.8787-2.1213.8787h-5.54317c-.79565 0-1.55871-.3161-2.12132-.8787l-4.22843-4.2284c-.56261-.5626-.87868-1.3257-.87868-2.1213v-5.54317c0-.79565.31607-1.55871.87868-2.12132zm5.89289 5.12132c0-.55228-.4477-1-1-1s-1 .44772-1 1v5c0 .5523.4477 1 1 1s1-.4477 1-1zm0 7.9888c0-.5523-.4477-1-1-1s-1 .4477-1 1v.0112c0 .5523.4477 1 1 1s1-.4477 1-1z" fill="#323232" fill-rule="evenodd"/></svg>