<svg id="Grupo_10473" data-name="Grupo 10473" xmlns="http://www.w3.org/2000/svg" width="25.63" height="25.63" viewBox="0 0 25.63 25.63">
  <g id="Grupo_10255" data-name="Grupo 10255">
    <path id="Trazado_1442" data-name="Trazado 1442" d="M23.68,20.679V13.372h1.114a.836.836,0,0,0,0-1.672H22.008V2.507A2.51,2.51,0,0,0,19.5,0H6.129A2.51,2.51,0,0,0,3.622,2.507V11.7H.836a.836.836,0,0,0,0,1.672H1.95v7.306A2.511,2.511,0,0,0,0,23.123v1.672a.836.836,0,0,0,.836.836H24.794a.836.836,0,0,0,.836-.836V23.123A2.511,2.511,0,0,0,23.68,20.679Zm-1.672-7.306v7.243H20.337V13.372ZM5.293,2.507a.837.837,0,0,1,.836-.836H19.5a.837.837,0,0,1,.836.836V11.7H18.665V4.179a.836.836,0,0,0-.836-.836H7.8a.836.836,0,0,0-.836.836V11.7H5.293ZM13.651,11.7V5.015h3.343V11.7Zm1.671,1.672v7.243H13.651V13.372Zm1.671,0h1.672v7.243H16.994ZM8.636,11.7V5.015h3.343V11.7Zm3.343,1.672v7.243H10.308V13.372Zm-3.343,0v7.243H6.965V13.372Zm-5.015,0H5.293v7.243H3.622ZM23.958,23.958H1.671v-.836a.837.837,0,0,1,.836-.836H23.123a.837.837,0,0,1,.836.836Z" fill="#2bd899"/>
  </g>
</svg>
