<svg xmlns="http://www.w3.org/2000/svg" width="30.206" height="29.129" viewBox="0 0 30.206 29.129">
  <g id="Grupo_10472" data-name="Grupo 10472" transform="translate(0 -9.129)">
    <path id="Trazado_1441" data-name="Trazado 1441" d="M30.206,20.763H4.885V12.932a2.034,2.034,0,0,1,4.067,0V14.35h1.77V12.932a3.8,3.8,0,0,0-7.607,0v7.831H0v5.343H1.123v3.95a5.92,5.92,0,0,0,2.588,4.892l-1.169,2.58,1.612.73,1.151-2.541a5.9,5.9,0,0,0,1.739.261H23.162a5.9,5.9,0,0,0,1.739-.261l1.151,2.541,1.612-.73L26.5,34.948a5.92,5.92,0,0,0,2.588-4.892v-3.95h1.123Zm-1.77,1.77v1.8H24.222v-1.8Zm-5.985,0V29H15.988V22.533Zm-20.682,0H14.218v1.8H1.77Zm25.544,7.523a4.156,4.156,0,0,1-4.152,4.152H7.044a4.156,4.156,0,0,1-4.152-4.152v-3.95H14.218v4.661h10V26.106h3.092v3.95Z" fill="#2bd899"/>
  </g>
</svg>
