<svg xmlns="http://www.w3.org/2000/svg" width="12.979" height="12.984" viewBox="0 0 12.979 12.984">
  <g id="Grupo_899" data-name="Grupo 899" transform="translate(-55.003 -145.504)">
    <path id="Trazado_806" data-name="Trazado 806" d="M67.979,152.814a.433.433,0,0,0-.5-.5H56.751v-.166q0-.491,0-.983,0-2,0-3.995a.788.788,0,0,1,.776-.842c.474-.014.948-.01,1.422,0a.754.754,0,0,1,.672.437,2.4,2.4,0,0,0-1.81,2.533h4.7c-.011-.164-.018-.318-.032-.471a2.334,2.334,0,0,0-1.85-2.066.157.157,0,0,1-.134-.128,1.461,1.461,0,0,0-1.2-1.081,16.3,16.3,0,0,0-1.856-.045.782.782,0,0,0-.166.021,1.622,1.622,0,0,0-1.32,1.636q0,2.482,0,4.965v.186h-.483a.422.422,0,0,0-.457.447c0,.474-.016.949,0,1.422a3.242,3.242,0,0,0,1.813,2.893,8.718,8.718,0,0,0,.975.384v1.026h.824v-1.008h5.743v1h.823v-1.067a3.313,3.313,0,0,0,1.3-.524,3.206,3.206,0,0,0,1.47-2.49C68,153.876,67.976,153.344,67.979,152.814Z" fill="#444"/>
    <path id="Trazado_807" data-name="Trazado 807" d="M163.193,318.467h.816v-1.088h-.816Z" transform="translate(-105.392 -167.43)" fill="#444"/>
    <path id="Trazado_808" data-name="Trazado 808" d="M237.87,318.266v-1.092h-.809v1.092Z" transform="translate(-177.349 -167.23)" fill="#444"/>
    <path id="Trazado_809" data-name="Trazado 809" d="M311.269,318.391V317.3h-.811v1.092Z" transform="translate(-248.848 -167.352)" fill="#444"/>
  </g>
</svg>
