<svg xmlns="http://www.w3.org/2000/svg" width="24.125" height="25.175" viewBox="0 0 24.125 25.175">
  <g id="Group_10990" data-name="Group 10990" transform="translate(-306.911 -491)">
    <g id="Group_10984" data-name="Group 10984" transform="translate(306.911 491)">
      <g id="Group_10958" data-name="Group 10958" transform="translate(0 4.717)">
        <g id="Group_10957" data-name="Group 10957">
          <path id="Path_7729" data-name="Path 7729" d="M171.038,278.806c0,.044,0,.089-.007.133-.007.14.037-.175.007-.038a2.5,2.5,0,0,1-.073.27c-.007.019-.017.038-.023.06,0,.006.083-.162.04-.092-.023.035-.04.076-.06.111a.754.754,0,0,1-.07.108.483.483,0,0,0-.036.051c-.06.089.03-.048.05-.06a1.9,1.9,0,0,0-.179.181.575.575,0,0,0-.05.041c-.056.057.086-.06.083-.06-.043.022-.083.057-.126.083s-.076.044-.113.063-.173.076-.04.022-.013,0-.046.013c-.05.016-.1.029-.149.041s-.09.013-.133.025c-.007,0,.2-.016.106-.016-.023,0-.046,0-.07,0s-.063,0-.1,0H152.044c-.279,0-.554,0-.833,0h0c-.046,0-.265-.022-.116,0s-.01,0-.043-.01-.086-.019-.129-.032-.083-.029-.126-.038c-.08-.019.1.044.1.041a.6.6,0,0,0-.08-.035c-.076-.038-.149-.082-.222-.127-.116-.07.133.114.033.025-.036-.032-.076-.064-.109-.1s-.06-.06-.086-.089-.027-.035-.04-.048.106.146.066.079-.1-.149-.146-.229c-.013-.022-.023-.054-.036-.076,0,0,.063.168.043.092-.01-.041-.03-.079-.04-.121s-.023-.082-.033-.124c0-.022-.01-.041-.013-.063-.023-.108.013.06.01.082.007-.092-.01-.184-.007-.276,0-.025.007-.051.007-.076,0-.089-.013.089-.013.089a.957.957,0,0,0,.04-.168c.013-.048.033-.092.046-.14.023-.079-.036.079-.036.079a.586.586,0,0,0,.033-.064c.023-.041.046-.086.073-.124.013-.019.027-.041.04-.06.056-.089-.013.022-.04.044.073-.063.129-.143.206-.206.02-.016.04-.032.056-.048.063-.057-.07.051-.07.051a1.371,1.371,0,0,0,.146-.089c.043-.025.09-.044.133-.067.076-.041-.083.032-.083.032a.67.67,0,0,0,.073-.025c.05-.016.1-.029.146-.041.033-.009.206-.032.066-.019s.04,0,.073,0,.063,0,.1,0h.149a.83.83,0,0,0,.829-.794c.07-.784.139-1.571.206-2.355q.179-2.057.362-4.114c.04-.451.08-.9.119-1.355.007-.086.017-.171.023-.26v-.01c.007-.06.01-.124.02-.184,0-.032.007-.06.01-.092a.9.9,0,0,1,.013-.092c-.007.041-.01.079-.017.121.046-.254.086-.508.149-.759s.136-.492.219-.73c.043-.121.086-.238.136-.355.01-.025.1-.225.036-.089s.033-.073.05-.108a8.025,8.025,0,0,1,.78-1.311c.033-.048.07-.1.106-.143s.2-.232.02-.032c.083-.1.159-.194.242-.286.166-.187.342-.368.524-.54s.385-.346.591-.5c.046-.038.1-.07.143-.108-.007.006-.166.121-.06.044l.073-.051c.109-.076.222-.152.335-.225a9.122,9.122,0,0,1,1.357-.711c.046-.019.143-.051-.073.029.03-.01.056-.022.086-.032.056-.022.113-.044.173-.064.129-.048.259-.092.392-.13.116-.035.236-.07.355-.1.06-.016.119-.032.179-.044.036-.01.076-.016.113-.025.1-.029-.143.013-.149.013.139.009.285,0,.425,0h3.3a.355.355,0,0,0,.116,0c-.01.006-.272-.048-.129-.006.03.009.06.013.09.022.06.016.119.029.179.044q.2.052.4.114c.116.038.232.076.348.117.056.022.113.041.173.063.023.01.166.067.027.01s0,0,.027.013a8.685,8.685,0,0,1,1.354.717c.106.07.212.14.315.213l.073.051c.083.06-.139-.108-.06-.044l.159.124c.2.162.4.33.587.508s.355.355.521.543c.04.044.076.089.116.133.02.022.036.044.056.067.07.083-.129-.165-.033-.041.076.1.153.2.226.3a8,8,0,0,1,.77,1.314c.027.06.09.244.007.013.02.054.046.108.07.165.05.124.1.251.143.375.083.241.156.486.216.733.03.117.053.235.076.355.01.06.023.121.033.181s.043.327.013.06c.013.127.03.254.043.381.027.279.05.562.073.841q.169,1.943.342,3.882c.093,1.06.186,2.123.279,3.184,0,.057.01.111.013.168a.827.827,0,0,0,.829.794h.163c.053,0,.109,0,.163.006.093.01.07.006-.066-.01l.1.019.146.038c.033.009.063.022.1.032-.119-.051-.139-.057-.06-.022.043.022.09.044.133.07s.056.035.083.051c.07.048.056.035-.046-.038.023.038.1.079.129.111s.08.079.119.121c.056.063.043.048-.036-.048.02.025.036.051.056.079s.053.083.076.124.03.057.043.086c-.05-.117-.06-.133-.027-.054.013.048.033.092.046.14.01.032.017.064.023.1.017.086.013.063-.007-.064a.879.879,0,0,0,.017.209.83.83,0,0,0,1.659,0,2.474,2.474,0,0,0-.922-1.914,2.781,2.781,0,0,0-1.035-.527,3.473,3.473,0,0,0-.849-.086l.829.793c-.07-.8-.143-1.609-.212-2.412q-.184-2.085-.368-4.168a17.117,17.117,0,0,0-.425-3.155,9.1,9.1,0,0,0-3.932-5.193,8.785,8.785,0,0,0-1.4-.72c-.292-.117-.584-.232-.886-.324a3.669,3.669,0,0,0-.936-.216c-.455-.016-.912,0-1.367,0h-2.1a4.293,4.293,0,0,0-.494.013,7.057,7.057,0,0,0-1.755.546,9.172,9.172,0,0,0-4.691,4.329,9.024,9.024,0,0,0-.9,3.212c-.023.248-.043.5-.066.746q-.169,1.947-.342,3.9-.144,1.633-.289,3.269c-.007.06-.01.121-.017.178l.829-.794a3.127,3.127,0,0,0-1.38.286,2.477,2.477,0,0,0-.7,3.984,2.724,2.724,0,0,0,1.931.784H170.05a2.737,2.737,0,0,0,2.236-1.174,2.471,2.471,0,0,0,.411-1.352.83.83,0,0,0-1.659,0Z" transform="translate(-148.572 -260.878)" fill="#27cd92"/>
        </g>
      </g>
      <g id="Group_10960" data-name="Group 10960" transform="translate(7.509)">
        <g id="Group_10959" data-name="Group 10959">
          <path id="Path_7730" data-name="Path 7730" d="M382.512,119.847l-1.632,3.484c-.076.166-.156.332-.232.5.239-.136.478-.275.717-.411h-3.845c.239.136.478.275.717.411q-.806-1.831-1.609-3.66c-.046-.1-.09-.209-.136-.312-.06-.136-.076-.275-.017.136.013.086.023.173.036.255-.823.222-1.088.372-.793.451a.012.012,0,0,1,.01,0l.04.01c.066.02.136.036.206.053.2.053.395.1.591.156.328.086.66.192,1,.249a3.7,3.7,0,0,0,2.621-.521,2.746,2.746,0,0,1,.275-.149.1.1,0,0,0,.027-.013c.083-.036.07-.03-.043.017.013-.027.126-.046.159-.056.106-.033.216-.056.325-.083.163-.037-.056.013-.056,0a1.1,1.1,0,0,1,.2-.017,2.607,2.607,0,0,1,.322,0c.02,0,.04,0,.06,0,.093.01.083.007-.037-.007a.511.511,0,0,1,.182.036c.1.023.2.053.3.086l.62.2c.1.03.193.063.289.093l.09.03.013,0a.675.675,0,0,1-.464-.763.836.836,0,0,0,.581,1.022.851.851,0,0,0,1.022-.581,1.017,1.017,0,0,0-.421-1.151,1.535,1.535,0,0,0-.338-.146l-.6-.2a4.161,4.161,0,0,0-1.855-.265,3.6,3.6,0,0,0-1.466.5c-.08.05-.159.1-.242.146-.05.027-.1.05-.149.076-.113.056.04-.007.046-.02-.01.036-.219.076-.262.086l-.159.04-.109.02c-.073.01-.073.013,0,0a.327.327,0,0,1,.056-.007l-.109.01c-.056,0-.109.007-.166.007-.093,0-.182-.007-.275-.013-.186-.01.146.03.027,0-.047-.01-.093-.017-.136-.027l-.123-.03c-.143-.036-.285-.076-.428-.113-.375-.1-.747-.212-1.125-.3a1.063,1.063,0,0,0-.594,0,1.03,1.03,0,0,0-.713,1,1.489,1.489,0,0,0,.169.561c.3.683.6,1.367.9,2.05.285.647.567,1.294.853,1.941a.814.814,0,0,0,.717.411h3.845a.814.814,0,0,0,.717-.411l1.632-3.484c.076-.166.156-.332.232-.5a.894.894,0,0,0,.083-.64.839.839,0,0,0-.382-.494A.86.86,0,0,0,382.512,119.847Z" transform="translate(-374.887 -118.695)" fill="#27cd92"/>
        </g>
      </g>
    </g>
  </g>
  <text id="_" data-name="€" transform="translate(12.089 20)" fill="#27cd92" font-size="13" font-family="Quicksand-Bold, Quicksand" font-weight="700"><tspan x="-4.076" y="0">€</tspan></text>
</svg>
