<svg xmlns="http://www.w3.org/2000/svg" width="24.759" height="28.254" viewBox="0 0 24.759 28.254">
  <g id="Grupo_10479" data-name="Grupo 10479" transform="translate(-31.842 0.15)">
    <path id="Trazado_1464" data-name="Trazado 1464" d="M52.521,27.954h1.745a.436.436,0,0,0,.437-.437V26.164a2.188,2.188,0,0,0,1.748-2.14V2.184A2.186,2.186,0,0,0,54.267,0H34.176a2.186,2.186,0,0,0-2.184,2.184v21.84a2.187,2.187,0,0,0,1.75,2.14v1.353a.436.436,0,0,0,.437.437h1.745a.436.436,0,0,0,.437-.437V26.208H52.084v1.309A.436.436,0,0,0,52.521,27.954Zm1.309-.874h-.872v-.872h.872Zm-5.668-1.745h-.885a1.312,1.312,0,0,1-1.31-1.31V2.184a1.312,1.312,0,0,1,1.31-1.31h.885a2.161,2.161,0,0,0-.448,1.31v21.84A2.158,2.158,0,0,0,48.161,25.335Zm-3.07,0a1.312,1.312,0,0,1-1.31-1.31V2.184a1.312,1.312,0,0,1,1.31-1.31h.448a2.161,2.161,0,0,0-.448,1.31v21.84a2.164,2.164,0,0,0,.448,1.31Zm-2.184,0a1.312,1.312,0,0,1-1.31-1.31V2.184a1.312,1.312,0,0,1,1.31-1.31h.448a2.161,2.161,0,0,0-.448,1.31v21.84a2.164,2.164,0,0,0,.448,1.31Zm-2.184,0a1.312,1.312,0,0,1-1.31-1.31V2.184a1.312,1.312,0,0,1,1.31-1.31h.448a2.161,2.161,0,0,0-.448,1.31v21.84a2.164,2.164,0,0,0,.448,1.31Zm-2.184,0a1.312,1.312,0,0,1-1.31-1.31V2.184a1.312,1.312,0,0,1,1.31-1.31h.448a2.161,2.161,0,0,0-.448,1.31v21.84a2.164,2.164,0,0,0,.448,1.31ZM36.36.874H36.8a2.161,2.161,0,0,0-.448,1.31v21.84a2.164,2.164,0,0,0,.448,1.31h-.449a1.312,1.312,0,0,1-1.31-1.31V2.184a1.312,1.312,0,0,1,1.31-1.31ZM32.866,24.024V2.184a1.312,1.312,0,0,1,1.31-1.31h.442a2.161,2.161,0,0,0-.448,1.31v21.84a2.164,2.164,0,0,0,.448,1.31h-.442A1.312,1.312,0,0,1,32.866,24.024Zm2.622,3.056h-.872v-.872h.872Zm13.1-3.056V2.184A1.312,1.312,0,0,1,49.9.874h4.37a1.312,1.312,0,0,1,1.31,1.31v21.84a1.312,1.312,0,0,1-1.31,1.31H49.9a1.312,1.312,0,0,1-1.31-1.31Z" fill="#29d799" stroke="#2bd899" stroke-width="0.3"/>
    <path id="Trazado_1465" data-name="Trazado 1465" d="M362.192,60.352a2.184,2.184,0,1,0-2.184-2.184A2.186,2.186,0,0,0,362.192,60.352Zm1.31-2.184a1.308,1.308,0,0,1-.874,1.23V56.938A1.308,1.308,0,0,1,363.5,58.168Zm-1.747-1.23V59.4a1.3,1.3,0,0,1,0-2.459Z" transform="translate(-310.107 -52.927)" fill="#29d799" stroke="#2bd899" stroke-width="0.3"/>
    <path id="Trazado_1466" data-name="Trazado 1466" d="M362.192,156.368a2.184,2.184,0,1,0-2.184-2.184A2.186,2.186,0,0,0,362.192,156.368Zm1.31-2.184a1.308,1.308,0,0,1-.874,1.23v-2.459A1.309,1.309,0,0,1,363.5,154.184Zm-1.747-1.23v2.459a1.3,1.3,0,0,1,0-2.459Z" transform="translate(-310.107 -143.701)" fill="#29d799" stroke="#2bd899" stroke-width="0.3"/>
    <path id="Trazado_1467" data-name="Trazado 1467" d="M360.445,313h3.494a.437.437,0,0,0,0-.874h-3.494a.437.437,0,1,0,0,.874Z" transform="translate(-310.107 -295.087)" fill="#29d799" stroke="#2bd899" stroke-width="0.3"/>
    <path id="Trazado_1468" data-name="Trazado 1468" d="M360.445,336.89h3.494a.437.437,0,0,0,0-.874h-3.494a.437.437,0,1,0,0,.874Z" transform="translate(-310.107 -317.671)" fill="#29d799" stroke="#2bd899" stroke-width="0.3"/>
    <path id="Trazado_1469" data-name="Trazado 1469" d="M360.445,360.762h3.494a.437.437,0,0,0,0-.874h-3.494a.437.437,0,0,0,0,.874Z" transform="translate(-310.107 -340.239)" fill="#29d799" stroke="#2bd899" stroke-width="0.3"/>
    <path id="Trazado_1470" data-name="Trazado 1470" d="M364.376,384.221a.436.436,0,0,0-.437-.437h-3.494a.437.437,0,1,0,0,.874h3.494A.437.437,0,0,0,364.376,384.221Z" transform="translate(-310.107 -362.831)" fill="#29d799" stroke="#2bd899" stroke-width="0.3"/>
  </g>
</svg>
