<svg xmlns="http://www.w3.org/2000/svg" width="28.439" height="30.867" viewBox="0 0 28.439 30.867">
  <path id="Trazado_783" data-name="Trazado 783" d="M14.219,20a14.269,14.269,0,0,0-11.6,22.515L1.146,49.23c-.219,1,.584,1.892,1.42,1.571L10.1,47.9A14.252,14.252,0,1,0,14.219,20Zm0,25.9a12.291,12.291,0,0,1-3.849-.614.953.953,0,0,0-.644.016L3.806,47.573,4.922,42.5a1.478,1.478,0,0,0-.259-1.214,11.3,11.3,0,0,1-2.441-7.03,11.836,11.836,0,0,1,12-11.64,11.836,11.836,0,0,1,12,11.64A11.836,11.836,0,0,1,14.219,45.9Zm1.389-11.64a1.527,1.527,0,0,1-1.389,1.635,1.657,1.657,0,0,1,0-3.27A1.527,1.527,0,0,1,15.608,34.255Zm5.554,0a1.527,1.527,0,0,1-1.389,1.635,1.657,1.657,0,0,1,0-3.27A1.527,1.527,0,0,1,21.163,34.255Zm-11.109,0A1.527,1.527,0,0,1,8.665,35.89a1.657,1.657,0,0,1,0-3.27A1.527,1.527,0,0,1,10.054,34.255Z" transform="translate(0 -20)" />
</svg>
