<svg xmlns="http://www.w3.org/2000/svg" width="11.09" height="11.09" viewBox="0 0 11.09 11.09">
  <g id="noun_Check_1763810" transform="translate(-37.434 -73.91)">
    <g id="Grupo_10164" data-name="Grupo 10164" transform="translate(37.434 73.91)">
      <path id="Trazado_1408" data-name="Trazado 1408" d="M4.641,6.6,9.478,1.661l.244.244A5.455,5.455,0,0,1,11.09,5.52,5.538,5.538,0,1,1,8.305.733l.293.2-.537.831-.244-.147a4.588,4.588,0,0,0-2.3-.586A4.483,4.483,0,0,0,1.026,5.52a4.519,4.519,0,1,0,9.038,0,4.96,4.96,0,0,0-.635-2.345L4.641,8.012,2.247,5.618l.684-.733Z" fill="#2bd899" fill-rule="evenodd"/>
    </g>
  </g>
</svg>
