<svg width="20" height="20" viewBox="0 0 20 20"  xmlns="http://www.w3.org/2000/svg">
<path d="M12.6667 12.7004V9.66669C12.6667 9.11535 12.218 8.66669 11.6667 8.66669H2.33333C1.782 8.66669 1.33333 9.11535 1.33333 9.66669V12.7004C0.573667 12.8554 0 13.5287 0 14.3334V16.3334V19.6667C0 19.8507 0.149333 20 0.333333 20H1.66667C1.85067 20 2 19.8507 2 19.6667V18.6667H12V19.6667C12 19.8507 12.1493 20 12.3333 20H13.6667C13.8507 20 14 19.8507 14 19.6667V16.3334V14.3334C14 13.5287 13.4263 12.8554 12.6667 12.7004ZM2 9.66669C2 9.48302 2.14967 9.33335 2.33333 9.33335H11.6667C11.8503 9.33335 12 9.48302 12 9.66669V12.6667H11.3333V11.3334C11.3333 10.782 10.8847 10.3334 10.3333 10.3334H8.33333C7.782 10.3334 7.33333 10.782 7.33333 11.3334V12.6667H6.66667V11.3334C6.66667 10.782 6.218 10.3334 5.66667 10.3334H3.66667C3.11533 10.3334 2.66667 10.782 2.66667 11.3334V12.6667H2V9.66669ZM10.6667 11.3334V12.6667H8V11.3334C8 11.1497 8.14967 11 8.33333 11H10.3333C10.517 11 10.6667 11.1497 10.6667 11.3334ZM6 11.3334V12.6667H3.33333V11.3334C3.33333 11.1497 3.483 11 3.66667 11H5.66667C5.85033 11 6 11.1497 6 11.3334ZM13.3333 19.3334H12.6667V18.3334C12.6667 18.1494 12.5173 18 12.3333 18H1.66667C1.48267 18 1.33333 18.1494 1.33333 18.3334V19.3334H0.666667V16.6667H13.3333V19.3334ZM13.3333 16H0.666667V14.3334C0.666667 13.782 1.11533 13.3334 1.66667 13.3334H3H6.33333H7.66667H11H12.3333C12.8847 13.3334 13.3333 13.782 13.3333 14.3334V16Z" fill="current"/>
<path d="M19.6665 12.6667H14.9998C14.8158 12.6667 14.6665 12.816 14.6665 13V15.6667V18H15.3332V16H19.3332V18H19.9998V15.6667V13C19.9998 12.816 19.8505 12.6667 19.6665 12.6667ZM19.3332 15.3334H15.3332V13.3334H19.3332V15.3334Z" fill="current"/>
<path d="M17.9998 14H16.6665V14.6667H17.9998V14Z" fill="current"/>
<path d="M18.9829 9.89435L18.3163 7.89435C18.2706 7.75835 18.1436 7.66669 17.9999 7.66669H16.6666C16.5229 7.66669 16.3959 7.75835 16.3503 7.89469L15.6836 9.89469C15.6496 9.99635 15.667 10.108 15.7296 10.195C15.7923 10.282 15.893 10.3334 16 10.3334H16.9999V11.3334H16.3333V12H18.3333V11.3334H17.6666V10.3334H18.6666C18.7736 10.3334 18.8743 10.282 18.9369 10.1947C18.9996 10.1077 19.0166 9.99602 18.9829 9.89435ZM16.4623 9.66669L16.9069 8.33335H17.7599L18.2043 9.66669H16.4623Z" fill="current"/>
<path d="M19.803 4.36233L10.1363 0.029C10.0493 -0.00966667 9.95033 -0.00966667 9.86367 0.029L0.197 4.36233C0.077 4.41633 0 4.53533 0 4.66667V8.66667H0.666667V4.88233L10 0.698667L19.3333 4.88267V8.66667H20V4.66667C20 4.53533 19.923 4.41633 19.803 4.36233Z" fill="current"/>
<path d="M12.3008 4.61135L11.6432 4.72202C11.6588 4.81302 11.6665 4.90635 11.6665 5.00002C11.6665 5.91902 10.9188 6.66669 9.99984 6.66669C9.08084 6.66669 8.33317 5.91902 8.33317 5.00002C8.33317 4.08102 9.08084 3.33335 9.99984 3.33335C10.1905 3.33335 10.3778 3.36535 10.5558 3.42835L10.7778 2.79969C10.5282 2.71135 10.2665 2.66669 9.99984 2.66669C8.71317 2.66669 7.6665 3.71335 7.6665 5.00002C7.6665 6.28669 8.71317 7.33335 9.99984 7.33335C11.2865 7.33335 12.3332 6.28669 12.3332 5.00002C12.3332 4.86935 12.3222 4.73869 12.3008 4.61135Z" fill="current"/>
<path d="M12.0977 2.76434L9.99999 4.86201L9.56899 4.43101L9.09766 4.90234L9.76432 5.569C9.82932 5.634 9.91466 5.66667 9.99999 5.66667C10.0853 5.66667 10.1707 5.634 10.2357 5.569L12.569 3.23568L12.0977 2.76434Z" fill="current"/>
</svg>
