<svg xmlns="http://www.w3.org/2000/svg"  viewBox="0 0 16.004 15.337">
  <g id="Grupo_10432" data-name="Grupo 10432" transform="translate(0 -10.667)">
    <g id="Grupo_10427" data-name="Grupo 10427" transform="translate(0 21.336)">
      <g id="Grupo_10426" data-name="Grupo 10426">
        <path id="Trazado_7230" data-name="Trazado 7230" d="M15.337,353.667H13.562a2.319,2.319,0,0,0-4.45,0H.667a.667.667,0,0,0,0,1.334H9.111a2.319,2.319,0,0,0,4.45,0h1.776a.667.667,0,0,0,0-1.334Zm-4,1.667a1,1,0,1,1,1-1A1,1,0,0,1,11.336,355.334Z" transform="translate(0 -352)" fill="#fff"/>
      </g>
    </g>
    <g id="Grupo_10429" data-name="Grupo 10429" transform="translate(0 10.667)">
      <g id="Grupo_10428" data-name="Grupo 10428">
        <path id="Trazado_7231" data-name="Trazado 7231" d="M15.337,12.334H13.562a2.319,2.319,0,0,0-4.451,0H.667a.667.667,0,0,0,0,1.334H9.111a2.319,2.319,0,0,0,4.451,0h1.776a.667.667,0,0,0,0-1.334Zm-4,1.667a1,1,0,1,1,1-1A1,1,0,0,1,11.336,14Z" transform="translate(0 -10.667)" fill="#fff"/>
      </g>
    </g>
    <g id="Grupo_10431" data-name="Grupo 10431" transform="translate(0 16.002)">
      <g id="Grupo_10430" data-name="Grupo 10430">
        <path id="Trazado_7232" data-name="Trazado 7232" d="M15.337,183H6.893a2.319,2.319,0,0,0-4.45,0H.667a.667.667,0,0,0,0,1.334H2.443a2.319,2.319,0,0,0,4.45,0h8.444a.667.667,0,0,0,0-1.334ZM4.668,184.668a1,1,0,1,1,1-1A1,1,0,0,1,4.668,184.668Z" transform="translate(0 -181.334)" fill="#fff"/>
      </g>
    </g>
  </g>
</svg>
