<svg width="20" height="20" viewBox="0 0 20 20" fill="none" xmlns="http://www.w3.org/2000/svg">
<path d="M18.75 10.625H18.4375V2.34375C18.4375 1.88791 18.2564 1.45074 17.9341 1.12841C17.6118 0.806082 17.1746 0.625 16.7188 0.625C16.2629 0.625 15.8257 0.806082 15.5034 1.12841C15.1811 1.45074 15 1.88791 15 2.34375V2.8125H14.0625C13.9845 2.8125 13.9094 2.84165 13.8518 2.89423C13.7942 2.94682 13.7584 3.01902 13.7513 3.09668L13.4388 6.53418C13.4349 6.57743 13.44 6.62102 13.4538 6.66218C13.4677 6.70333 13.49 6.74115 13.5192 6.77322C13.5485 6.80529 13.5842 6.8309 13.6239 6.84842C13.6636 6.86595 13.7066 6.875 13.75 6.875H16.875C16.9184 6.875 16.9614 6.86595 17.0011 6.84842C17.0408 6.8309 17.0765 6.80529 17.1058 6.77322C17.135 6.74115 17.1573 6.70333 17.1712 6.66218C17.185 6.62102 17.1901 6.57743 17.1862 6.53418L16.8737 3.09668C16.8666 3.01902 16.8308 2.94682 16.7732 2.89423C16.7156 2.84165 16.6405 2.8125 16.5625 2.8125H15.625V2.34375C15.625 2.05367 15.7402 1.77547 15.9454 1.57035C16.1505 1.36523 16.4287 1.25 16.7188 1.25C17.0088 1.25 17.287 1.36523 17.4921 1.57035C17.6973 1.77547 17.8125 2.05367 17.8125 2.34375V8.58527C17.3616 8.52429 16.9026 8.58466 16.4827 8.76016C16.0629 8.93566 15.6975 9.21995 15.4241 9.58371L14.4708 10.8438C14.2265 11.1643 14.0614 11.538 13.989 11.9344C13.9165 12.3309 13.9388 12.7388 14.054 13.125H13.6541L12.9509 11.25H13.4375C13.5204 11.25 13.5999 11.2171 13.6585 11.1585C13.7171 11.0999 13.75 11.0204 13.75 10.9375V9.6875C13.75 9.60462 13.7171 9.52513 13.6585 9.46653C13.5999 9.40792 13.5204 9.375 13.4375 9.375H12.8125V8.75C12.8123 8.5843 12.7464 8.42544 12.6292 8.30828C12.5121 8.19111 12.3532 8.1252 12.1875 8.125H11.5625V7.5H12.5C12.5443 7.5 12.5881 7.49057 12.6285 7.47235C12.6689 7.45413 12.7049 7.42753 12.7343 7.39431C12.7636 7.3611 12.7855 7.32202 12.7986 7.27969C12.8117 7.23735 12.8156 7.19272 12.8101 7.14875L12.4976 4.64875C12.4881 4.57317 12.4514 4.50364 12.3943 4.45323C12.3372 4.40282 12.2637 4.375 12.1875 4.375H10.3125C10.2363 4.375 10.1628 4.40282 10.1057 4.45323C10.0486 4.50364 10.0119 4.57317 10.0024 4.64875L9.68992 7.14875C9.68443 7.19272 9.68835 7.23735 9.70142 7.27969C9.71449 7.32202 9.73641 7.3611 9.76574 7.39431C9.79506 7.42753 9.83111 7.45413 9.8715 7.47235C9.91189 7.49057 9.95569 7.5 10 7.5H10.9375V8.125H10.3125C10.1468 8.1252 9.98794 8.19111 9.87078 8.30828C9.75361 8.42544 9.6877 8.5843 9.6875 8.75V9.375H9.28773L8.74062 7.73359C8.73961 7.73066 8.73832 7.72789 8.73723 7.72496C8.71846 7.66001 8.67907 7.60292 8.625 7.56234C8.57092 7.52175 8.50511 7.49987 8.4375 7.5H6.25C6.18442 7.5 6.12049 7.52064 6.06729 7.55899C6.01409 7.59734 5.9743 7.65145 5.95355 7.71367L5.39977 9.375H5V8.4375C5 8.35462 4.96708 8.27513 4.90847 8.21653C4.84987 8.15792 4.77038 8.125 4.6875 8.125H4.64641L4.9475 7.67336C4.99295 7.6044 5.00925 7.52025 4.99285 7.4393C4.97644 7.35836 4.92865 7.2872 4.85994 7.24138C4.79122 7.19556 4.70716 7.17881 4.62613 7.19479C4.5451 7.21076 4.47368 7.25817 4.4275 7.32664L4.375 7.40539V7.1875C4.375 7.10462 4.34208 7.02513 4.28347 6.96653C4.22487 6.90792 4.14538 6.875 4.0625 6.875C3.97962 6.875 3.90013 6.90792 3.84153 6.96653C3.78292 7.02513 3.75 7.10462 3.75 7.1875V7.40539L3.6975 7.32664C3.65132 7.25817 3.5799 7.21076 3.49887 7.19479C3.41784 7.17881 3.33378 7.19556 3.26506 7.24138C3.19635 7.2872 3.14856 7.35836 3.13215 7.4393C3.11575 7.52025 3.13205 7.6044 3.1775 7.67336L3.47859 8.125H3.4375C3.35462 8.125 3.27513 8.15792 3.21653 8.21653C3.15792 8.27513 3.125 8.35462 3.125 8.4375V9.375H2.8125C2.72962 9.375 2.65013 9.40792 2.59153 9.46653C2.53292 9.52513 2.5 9.60462 2.5 9.6875V10.9375C2.5 11.0204 2.53292 11.0999 2.59153 11.1585C2.65013 11.2171 2.72962 11.25 2.8125 11.25H3.29906L2.58223 13.1615C2.29199 13.2312 2.03362 13.3964 1.84866 13.6307C1.66371 13.865 1.56292 14.1546 1.5625 14.4531V16.25H1.25C1.16712 16.25 1.08763 16.2829 1.02903 16.3415C0.970424 16.4001 0.9375 16.4796 0.9375 16.5625V19.0625C0.9375 19.1454 0.970424 19.2249 1.02903 19.2835C1.08763 19.3421 1.16712 19.375 1.25 19.375H2.8125C2.85354 19.375 2.89418 19.3669 2.93209 19.3512C2.97001 19.3355 3.00446 19.3125 3.03348 19.2835L3.56691 18.75H16.4331L16.9665 19.2835C16.9955 19.3125 17.03 19.3355 17.0679 19.3512C17.1058 19.3669 17.1465 19.375 17.1875 19.375H18.75C18.8329 19.375 18.9124 19.3421 18.971 19.2835C19.0296 19.2249 19.0625 19.1454 19.0625 19.0625V10.9375C19.0625 10.8546 19.0296 10.7751 18.971 10.7165C18.9124 10.6579 18.8329 10.625 18.75 10.625ZM16.5328 6.25H14.0922L14.3479 3.4375H16.2771L16.5328 6.25ZM10.5884 5H11.9116L12.146 6.875H10.354L10.5884 5ZM17.5 13.476L18.0508 11.2729C18.0555 11.265 18.0605 11.2576 18.0652 11.2499H18.4375V16.25H17.5V13.476ZM14.9692 11.2207L15.9225 9.96094C16.1238 9.69301 16.3911 9.48187 16.6983 9.34816C17.0055 9.21446 17.3422 9.16276 17.6754 9.19813C17.7598 9.41009 17.8062 9.63524 17.8125 9.86328V9.97578C17.8003 10.38 17.6623 10.7703 17.4177 11.0923L16.4643 12.3522C16.2631 12.6201 15.9958 12.8312 15.6885 12.9649C15.3813 13.0986 15.0446 13.1503 14.7114 13.115C14.5869 12.8039 14.5451 12.4658 14.5903 12.1338C14.6355 11.8018 14.766 11.4871 14.9692 11.2207V11.2207ZM16.9627 12.7292L17.0818 12.5719L16.9435 13.125H16.5914C16.7287 13.0064 16.8531 12.8737 16.9627 12.7292V12.7292ZM12.9866 13.125H12.4041L11.74 11.3542L11.7791 11.25H12.2834L12.9866 13.125ZM7.09156 13.125L6.38844 11.25H9.86156L9.15844 13.125H7.09156ZM4.84375 12.2441L5.17406 13.125H4.51344L4.84375 12.2441ZM5.1775 11.3542L5.21656 11.25H5.72094L6.42406 13.125H5.84156L5.1775 11.3542ZM10.5291 11.25H11.1116L10.4084 13.125H9.82594L10.5291 11.25ZM11.4062 12.2442L11.7366 13.125H11.0759L11.4062 12.2442ZM10.3125 8.75H12.1875V9.375H10.3125V8.75ZM8.4375 8.80078L8.62891 9.375H8.24609L8.4375 8.80078ZM6.47523 8.125H8.00391L7.58727 9.375H6.05859L6.47523 8.125ZM3.75 8.75H4.375V9.375H3.75V8.75ZM3.125 10H13.125V10.625H3.125V10ZM3.96656 11.25H4.54906L3.84594 13.125H3.26344L3.96656 11.25ZM2.1875 14.4531C2.18772 14.2667 2.26187 14.088 2.39368 13.9562C2.52549 13.8244 2.70421 13.7502 2.89062 13.75H16.875V16.25H2.1875V14.4531ZM18.4375 18.75H17.3169L16.7835 18.2165C16.7545 18.1875 16.72 18.1645 16.6821 18.1488C16.6442 18.1331 16.6035 18.125 16.5625 18.125H3.4375C3.39646 18.125 3.35582 18.1331 3.31791 18.1488C3.27999 18.1645 3.24554 18.1875 3.21652 18.2165L2.68309 18.75H1.5625V16.875H18.4375V18.75Z" fill="black"/>
<path d="M13.4375 15H13.125C13.0421 15 12.9626 15.0329 12.904 15.0915C12.8454 15.1501 12.8125 15.2296 12.8125 15.3125C12.8125 15.3954 12.8454 15.4749 12.904 15.5335C12.9626 15.5921 13.0421 15.625 13.125 15.625H13.4375C13.5204 15.625 13.5999 15.5921 13.6585 15.5335C13.7171 15.4749 13.75 15.3954 13.75 15.3125C13.75 15.2296 13.7171 15.1501 13.6585 15.0915C13.5999 15.0329 13.5204 15 13.4375 15Z" fill="black"/>
<path d="M15.9375 15H14.6875C14.6046 15 14.5251 15.0329 14.4665 15.0915C14.4079 15.1501 14.375 15.2296 14.375 15.3125C14.375 15.3954 14.4079 15.4749 14.4665 15.5335C14.5251 15.5921 14.6046 15.625 14.6875 15.625H15.9375C16.0204 15.625 16.0999 15.5921 16.1585 15.5335C16.2171 15.4749 16.25 15.3954 16.25 15.3125C16.25 15.2296 16.2171 15.1501 16.1585 15.0915C16.0999 15.0329 16.0204 15 15.9375 15Z" fill="black"/>
<path d="M7.1875 6.25C7.55834 6.25 7.92085 6.14003 8.22919 5.93401C8.53753 5.72798 8.77785 5.43514 8.91977 5.09253C9.06168 4.74992 9.09881 4.37292 9.02647 4.00921C8.95412 3.64549 8.77554 3.3114 8.51332 3.04918C8.2511 2.78695 7.917 2.60838 7.55329 2.53603C7.18958 2.46368 6.81258 2.50081 6.46997 2.64273C6.12736 2.78464 5.83452 3.02496 5.62849 3.33331C5.42247 3.64165 5.3125 4.00416 5.3125 4.375C5.31306 4.87211 5.51078 5.3487 5.86229 5.70021C6.2138 6.05172 6.69039 6.24944 7.1875 6.25V6.25ZM7.1875 3.125C7.43472 3.125 7.6764 3.19831 7.88196 3.33566C8.08752 3.47302 8.24773 3.66824 8.34234 3.89665C8.43695 4.12505 8.46171 4.37639 8.41348 4.61886C8.36524 4.86134 8.24619 5.08407 8.07138 5.25888C7.89656 5.4337 7.67383 5.55275 7.43136 5.60098C7.18888 5.64921 6.93755 5.62446 6.70914 5.52985C6.48074 5.43524 6.28551 5.27502 6.14816 5.06946C6.01081 4.8639 5.9375 4.62223 5.9375 4.375C5.93787 4.04359 6.06969 3.72587 6.30403 3.49153C6.53836 3.25719 6.85609 3.12537 7.1875 3.125V3.125Z" fill="black"/>
<path d="M7.04774 4.65449L7.67274 4.96699C7.74677 5.0033 7.83216 5.00887 7.91028 4.98249C7.98841 4.95612 8.05295 4.89993 8.08983 4.82618C8.12671 4.75243 8.13294 4.66709 8.10718 4.58876C8.08141 4.51043 8.02573 4.44546 7.95227 4.40801L7.5 4.18187V3.75C7.5 3.66712 7.46708 3.58763 7.40847 3.52903C7.34987 3.47042 7.27038 3.4375 7.1875 3.4375C7.10462 3.4375 7.02513 3.47042 6.96653 3.52903C6.90792 3.58763 6.875 3.66712 6.875 3.75V4.375C6.875 4.43303 6.89116 4.48992 6.92167 4.53928C6.95218 4.58864 6.99583 4.62854 7.04774 4.65449V4.65449Z" fill="black"/>
</svg>
