<svg id="Grupo_10481" data-name="Grupo 10481" xmlns="http://www.w3.org/2000/svg" width="29.953" height="29.953" viewBox="0 0 29.953 29.953">
  <path id="Trazado_1596" data-name="Trazado 1596" d="M29.076,24.688H26.384v-3.4a4.931,4.931,0,0,0,.505-.451,10.055,10.055,0,0,0,1.3-1.649,10.242,10.242,0,0,0,1.706-5.438A10.242,10.242,0,0,0,28.189,8.31a10.055,10.055,0,0,0-1.3-1.649c-.709-.715-1.1-.811-1.383-.811a1.1,1.1,0,0,0-.513.128,15.344,15.344,0,0,0-2.069-3.761A11.108,11.108,0,0,0,21.6.723,2.12,2.12,0,0,0,20.242,0a2.12,2.12,0,0,0-1.353.723,11.108,11.108,0,0,0-1.33,1.494,15.344,15.344,0,0,0-2.069,3.761,1.093,1.093,0,0,0-1.025,0A15.344,15.344,0,0,0,12.4,2.217,11.108,11.108,0,0,0,11.065.723,2.12,2.12,0,0,0,9.711,0,2.12,2.12,0,0,0,8.358.723a11.108,11.108,0,0,0-1.33,1.494A15.344,15.344,0,0,0,4.959,5.978a1.1,1.1,0,0,0-.513-.128c-.286,0-.674.1-1.383.811a10.055,10.055,0,0,0-1.3,1.649A10.242,10.242,0,0,0,.059,13.748a10.242,10.242,0,0,0,1.706,5.438,10.055,10.055,0,0,0,1.3,1.649,4.918,4.918,0,0,0,.505.451v3.4H.878A.878.878,0,0,0,0,25.565v3.51a.878.878,0,0,0,.878.878h28.2a.878.878,0,0,0,.878-.878v-3.51A.878.878,0,0,0,29.076,24.688Zm-7.956,0V20.141a5.581,5.581,0,0,0,.694-.6,10.88,10.88,0,0,0,.736-.811c.093.16.185.311.276.452a10.055,10.055,0,0,0,1.3,1.649,4.918,4.918,0,0,0,.505.451v3.4Zm-10.53-4.547a5.581,5.581,0,0,0,.694-.6,10.88,10.88,0,0,0,.736-.811c.093.16.185.311.276.452a10.055,10.055,0,0,0,1.3,1.649,4.918,4.918,0,0,0,.505.451v3.4h-3.51V20.141Zm5.265,1.145a4.931,4.931,0,0,0,.505-.451,10.055,10.055,0,0,0,1.3-1.649c.09-.141.183-.292.276-.452a10.893,10.893,0,0,0,.736.811,5.572,5.572,0,0,0,.694.6v4.547h-3.51v-3.4ZM25.507,7.764a8.973,8.973,0,0,1,2.633,5.984,8.973,8.973,0,0,1-2.633,5.984,8.973,8.973,0,0,1-2.633-5.984,8.973,8.973,0,0,1,2.633-5.984Zm-5.265-5.9a12.58,12.58,0,0,1,3.338,5.4,11.064,11.064,0,0,0-.755,1.043,10.242,10.242,0,0,0-1.706,5.438,9.306,9.306,0,0,0,.59,3.2A9.118,9.118,0,0,1,20.242,18.6a9.117,9.117,0,0,1-1.467-1.653,9.306,9.306,0,0,0,.59-3.2A10.242,10.242,0,0,0,17.658,8.31,11.065,11.065,0,0,0,16.9,7.268a12.581,12.581,0,0,1,3.338-5.4Zm-5.265,5.9a8.973,8.973,0,0,1,2.633,5.984,8.973,8.973,0,0,1-2.633,5.984,8.973,8.973,0,0,1-2.633-5.984,8.973,8.973,0,0,1,2.633-5.984Zm-5.265-5.9a12.58,12.58,0,0,1,3.338,5.4,11.065,11.065,0,0,0-.755,1.043,10.242,10.242,0,0,0-1.706,5.438,9.306,9.306,0,0,0,.59,3.2A9.118,9.118,0,0,1,9.711,18.6,9.118,9.118,0,0,1,8.244,16.95a9.306,9.306,0,0,0,.59-3.2A10.242,10.242,0,0,0,7.128,8.31a11.065,11.065,0,0,0-.755-1.043,12.581,12.581,0,0,1,3.338-5.4Zm-7.9,11.881A8.972,8.972,0,0,1,4.446,7.764a8.973,8.973,0,0,1,2.633,5.984,8.973,8.973,0,0,1-2.633,5.984,8.972,8.972,0,0,1-2.633-5.984Zm3.51,7.538a4.931,4.931,0,0,0,.505-.451,10.055,10.055,0,0,0,1.3-1.649c.09-.141.183-.292.276-.452a10.893,10.893,0,0,0,.736.811,5.572,5.572,0,0,0,.694.6v4.547H5.324ZM28.2,28.2H1.755V26.443H28.2Z" transform="translate(0 0)" fill="#29d799"/>
</svg>
