<svg xmlns="http://www.w3.org/2000/svg" width="35.919" height="20.111" viewBox="0 0 35.919 20.111">
  <g id="Group_10985" data-name="Group 10985" transform="translate(-16.07 -31.309)">
    <path id="Path_7738" data-name="Path 7738" d="M58.924,31.809a8.1,8.1,0,0,0-5.109,2.048,8.1,8.1,0,0,0-5.107-2.048c-3.158,0-5.362,2.432-5.362,5.918a8.271,8.271,0,0,0,1.342,4.1,13.547,13.547,0,0,0,1.488-2.133,4.888,4.888,0,0,1-.492-1.969c0-2.205,1.156-3.575,3.019-3.575a6.357,6.357,0,0,1,4.279,2.118l.832.84.829-.84a6.369,6.369,0,0,1,4.28-2.118c1.861,0,3.019,1.369,3.019,3.575,0,3.408-5.362,8.128-8.128,10.205a39.02,39.02,0,0,1-4.7-4.183A22.478,22.478,0,0,1,47.626,45.6a41.27,41.27,0,0,0,5.513,4.733l.671.468.67-.468c1-.7,9.8-7.021,9.8-12.611C64.284,34.241,62.082,31.809,58.924,31.809Z" transform="translate(-12.792 0)" fill="#27cd92" stroke="#fff" stroke-width="1"/>
    <path id="Path_7739" data-name="Path 7739" d="M35.915,35.323a1.659,1.659,0,0,0-1.164.413,4.441,4.441,0,0,1,.423,1.991c0,3.408-5.363,8.128-8.134,10.205-2.771-2.078-8.129-6.8-8.129-10.205,0-2.2,1.158-3.575,3.023-3.575a6.346,6.346,0,0,1,4.275,2.118l.831.84.83-.84a8.032,8.032,0,0,1,2.059-1.523,6.516,6.516,0,0,1,2.239-2.935l-.018,0a8.106,8.106,0,0,0-5.11,2.049,8.1,8.1,0,0,0-5.106-2.049c-3.159,0-5.364,2.434-5.364,5.918,0,5.59,8.8,11.911,9.8,12.611l.67.47.67-.47c1-.7,9.8-7.021,9.8-12.611a6.975,6.975,0,0,0-.322-2.108A3.547,3.547,0,0,0,35.915,35.323Z" transform="translate(0 -0.001)" fill="#27cd92" stroke="#fff" stroke-width="1"/>
  </g>
</svg>
