<svg xmlns="http://www.w3.org/2000/svg" width="27.269" height="26.952" viewBox="0 0 27.269 26.952">
  <g id="Grupo_10482" data-name="Grupo 10482" transform="translate(0.1 -2.9)">
    <g id="Grupo_3484" data-name="Grupo 3484" transform="translate(15.859 16.387)">
      <g id="Grupo_3483" data-name="Grupo 3483" transform="translate(0 0)">
        <path id="Trazado_7017" data-name="Trazado 7017" d="M302.175,260.016a1.017,1.017,0,1,1,1.163-1.007.529.529,0,1,0,1.057,0,2.1,2.1,0,0,0-1.692-2v-.275a.529.529,0,1,0-1.057,0V257a2.1,2.1,0,0,0-1.692,2,2.149,2.149,0,0,0,2.22,2.064,1.017,1.017,0,1,1-1.163,1.007.529.529,0,1,0-1.057,0,2.1,2.1,0,0,0,1.692,2v.228a.529.529,0,1,0,1.057,0v-.228a2.1,2.1,0,0,0,1.692-2A2.149,2.149,0,0,0,302.175,260.016Z" transform="translate(-299.954 -256.201)" fill="#2bd899" stroke="#2bd899" stroke-width="0.2"/>
      </g>
    </g>
    <g id="Grupo_3486" data-name="Grupo 3486" transform="translate(20.298 14.514)">
      <g id="Grupo_3485" data-name="Grupo 3485" transform="translate(0 0)">
        <path id="Trazado_7018" data-name="Trazado 7018" d="M387.5,223.327a6.888,6.888,0,0,0-2.814-2.49.529.529,0,1,0-.458.953,5.821,5.821,0,0,1,2.622,7.972.529.529,0,1,0,.933.5,6.881,6.881,0,0,0-.283-6.932Z" transform="translate(-383.924 -220.785)" fill="#2bd899" stroke="#2bd899" stroke-width="0.2"/>
      </g>
    </g>
    <g id="Grupo_3488" data-name="Grupo 3488" transform="translate(18.346 13.891)">
      <g id="Grupo_3487" data-name="Grupo 3487" transform="translate(0 0)">
        <path id="Trazado_7019" data-name="Trazado 7019" d="M347.564,209h-.036a.529.529,0,0,0,0,1.057h.033a.529.529,0,0,0,0-1.057Z" transform="translate(-347 -209.001)" fill="#2bd899" stroke="#2bd899" stroke-width="0.2"/>
      </g>
    </g>
    <g id="Grupo_3490" data-name="Grupo 3490" transform="translate(11.209 17.26)">
      <g id="Grupo_3489" data-name="Grupo 3489" transform="translate(0 0)">
        <path id="Trazado_7020" data-name="Trazado 7020" d="M216.359,281.461a5.821,5.821,0,0,1-2.621-7.972.529.529,0,0,0-.933-.5,6.876,6.876,0,0,0,3.1,9.422.529.529,0,1,0,.458-.953Z" transform="translate(-212.002 -272.711)" fill="#2bd899" stroke="#2bd899" stroke-width="0.2"/>
      </g>
    </g>
    <g id="Grupo_3492" data-name="Grupo 3492" transform="translate(16.727 26.58)">
      <g id="Grupo_3491" data-name="Grupo 3491">
        <path id="Trazado_7021" data-name="Trazado 7021" d="M316.94,449h-.031a.529.529,0,0,0,0,1.057h.035a.529.529,0,0,0,0-1.057Z" transform="translate(-316.378 -448.999)" fill="#2bd899" stroke="#2bd899" stroke-width="0.2"/>
      </g>
    </g>
    <g id="Grupo_3494" data-name="Grupo 3494" transform="translate(0 3)">
      <g id="Grupo_3493" data-name="Grupo 3493" transform="translate(0 0)">
        <path id="Trazado_7022" data-name="Trazado 7022" d="M20.482,12.1a2.427,2.427,0,0,0-.235-.432h1.376a2.432,2.432,0,1,0,0-4.864H17.39a2.43,2.43,0,0,0-2-3.807H2.432a2.432,2.432,0,1,0,0,4.864H6.666a2.425,2.425,0,0,0,0,2.749H5.287a2.431,2.431,0,0,0-1.511,4.335,2.428,2.428,0,0,0,0,3.807,2.428,2.428,0,0,0,0,3.807A2.431,2.431,0,0,0,5.287,26.9h6.231A8.986,8.986,0,1,0,20.482,12.1Zm1.142-4.238a1.375,1.375,0,1,1,0,2.749H8.671a1.375,1.375,0,1,1,0-2.749ZM2.432,6.807a1.375,1.375,0,0,1,0-2.749H15.385a1.375,1.375,0,0,1,0,2.749Zm2.855,4.864H18.24a1.374,1.374,0,0,1,.6.138c-.25-.021-.5-.032-.758-.032a8.96,8.96,0,0,0-6.36,2.643H5.287a1.375,1.375,0,1,1,0-2.749Zm0,3.807h5.531a8.962,8.962,0,0,0-1.359,2.749H5.287a1.375,1.375,0,0,1,0-2.749Zm0,3.807H9.216a9,9,0,0,0-.033,2.749h-3.9a1.375,1.375,0,1,1,0-2.749Zm0,6.556a1.375,1.375,0,0,1,0-2.749H9.4a8.952,8.952,0,0,0,1.269,2.749Zm12.795,2.855a7.93,7.93,0,1,1,7.93-7.93A7.939,7.939,0,0,1,18.082,28.695Z" transform="translate(0 -3)" fill="#2bd899" stroke="#2bd899" stroke-width="0.2"/>
      </g>
    </g>
  </g>
</svg>
