<svg xmlns="http://www.w3.org/2000/svg" width="21.52" height="31.525" viewBox="0 0 21.52 31.525">
  <g id="Grupo_10296" data-name="Grupo 10296" transform="translate(0.65 0.65)">
    <path id="Trazado_646" data-name="Trazado 646" d="M295.529,248.388c-.769,2.787-2.949,5.573-5.519,5.573s-4.767-2.808-5.528-5.606" transform="translate(-279.901 -238.096)" fill="none" stroke="#2bd899" stroke-linecap="round" stroke-linejoin="round" stroke-width="1.3"/>
    <line id="Línea_47" data-name="Línea 47" y2="5.656" transform="translate(4.706 24.569)" fill="none" stroke="#2bd899" stroke-linecap="round" stroke-linejoin="round" stroke-width="1.3"/>
    <path id="Trazado_647" data-name="Trazado 647" d="M292.049,279.848a1.661,1.661,0,0,0,1.661-1.661v-1.9c0-4.732-2.153-7.124-7.111-8.168l-3,2.083-3-2.083c-4.959,1.045-7.111,3.436-7.111,8.168v1.9a1.661,1.661,0,0,0,1.661,1.661Z" transform="translate(-273.49 -249.623)" fill="none" stroke="#2bd899" stroke-linecap="round" stroke-linejoin="round" stroke-width="1.3"/>
    <line id="Línea_48" data-name="Línea 48" y2="5.656" transform="translate(15.513 24.569)" fill="none" stroke="#2bd899" stroke-linecap="round" stroke-linejoin="round" stroke-width="1.3"/>
    <path id="Trazado_648" data-name="Trazado 648" d="M290.551,263.473c.747-.619.747-3.322.747-3.322" transform="translate(-283.44 -244.976)" fill="none" stroke="#2bd899" stroke-linecap="round" stroke-linejoin="round" stroke-width="1.3"/>
    <path id="Trazado_649" data-name="Trazado 649" d="M303.894,263.473c-.746-.619-.746-3.322-.746-3.322" transform="translate(-290.786 -244.976)" fill="none" stroke="#2bd899" stroke-linecap="round" stroke-linejoin="round" stroke-width="1.3"/>
    <path id="Trazado_650" data-name="Trazado 650" d="M288.507,223.743c5.494,0,7.831,2.049,6.08,10.057a.313.313,0,0,1-.607.017c-.322-1.176-.768-3.56-.768-3.56a.537.537,0,0,0-.564-.493,10.022,10.022,0,0,1-4.064-1.242.377.377,0,0,0-.469.42l.8,2.152-3.571-1.888a.85.85,0,0,0-1.017.175l-.948,4.4a.313.313,0,0,1-.608-.011c-1.741-7.982.562-10.026,6.049-10.026" transform="translate(-278.57 -223.743)" fill="none" stroke="#2bd899" stroke-linecap="round" stroke-linejoin="round" stroke-width="1.3"/>
  </g>
</svg>
