<svg xmlns="http://www.w3.org/2000/svg" viewBox="0 0 42.39 28.16"><defs><style>.cls-1{fill:none;stroke:#2bd899;stroke-linecap:round;stroke-linejoin:round;stroke-width:1.3px;}</style></defs><g id="Capa_2" data-name="Capa 2"><g id="Capa_1-2" data-name="Capa 1"><line id="Línea_49" data-name="Línea 49" class="cls-1" x1="26.71" y1="22.41" x2="26.71" y2="27.51"/><path id="Trazado_654" data-name="Trazado 654" class="cls-1" d="M34,17.14l-.7.49a3,3,0,0,1-3.43,0l-.7-.49"/><line id="Línea_50" data-name="Línea 50" class="cls-1" x1="36.45" y1="22.41" x2="36.45" y2="27.51"/><path id="Trazado_655" data-name="Trazado 655" class="cls-1" d="M36.38,8c0,2.94-2.15,6.87-4.8,6.87s-4.8-3.93-4.8-6.87"/><path id="Trazado_656" data-name="Trazado 656" class="cls-1" d="M26,7.81c2.93,0,4.76-2.75,4.76-2.75a9.75,9.75,0,0,0,6.6,2.75"/><path id="Trazado_657" data-name="Trazado 657" class="cls-1" d="M31.58,1.36c-3.31-2.44-9.74,1.37-6.5,12.18,1.22,4.06-3.65,5.68-3.65,5.68s7.71,2.44,8.53-4.87"/><path id="Trazado_658" data-name="Trazado 658" class="cls-1" d="M31.58,1.36c3.32-2.44,9.74,1.37,6.5,12.18-1.21,4.06,3.66,5.68,3.66,5.68S34,21.66,33.21,14.35"/><path id="Trazado_659" data-name="Trazado 659" class="cls-1" d="M23.81,19.61a5.27,5.27,0,0,0-.7,1.16,8.54,8.54,0,0,0-.64,3.53V26a1.5,1.5,0,0,0,1.5,1.5H39.2A1.5,1.5,0,0,0,40.7,26V24.3a8.54,8.54,0,0,0-.64-3.53,5.27,5.27,0,0,0-.7-1.16"/><g id="Grupo_10296" data-name="Grupo 10296"><path id="Trazado_646" data-name="Trazado 646" class="cls-1" d="M16.28,9.8c-.77,2.47-3,4.95-5.52,4.95S6,12.26,5.23,9.77"/><line id="Línea_47" data-name="Línea 47" class="cls-1" x1="5.36" y1="22.49" x2="5.36" y2="27.51"/><path id="Trazado_647" data-name="Trazado 647" class="cls-1" d="M19.21,27.51A1.57,1.57,0,0,0,20.87,26h0V24.35c0-4.21-2.15-6.33-7.11-7.26l-3,1.85-3-1.85C2.8,18,.65,20.14.65,24.35V26a1.57,1.57,0,0,0,1.66,1.47h16.9Z"/><line id="Línea_48" data-name="Línea 48" class="cls-1" x1="16.16" y1="22.49" x2="16.16" y2="27.51"/><path id="Trazado_648" data-name="Trazado 648" class="cls-1" d="M7.76,17.09c.75-.55.75-2.95.75-2.95"/><path id="Trazado_649" data-name="Trazado 649" class="cls-1" d="M13.76,17.09C13,16.54,13,14.14,13,14.14"/><path id="Trazado_650" data-name="Trazado 650" class="cls-1" d="M10.59.65c5.49,0,7.83,1.82,6.08,8.94a.32.32,0,0,1-.37.21.3.3,0,0,1-.24-.2c-.32-1-.77-3.16-.77-3.16A.52.52,0,0,0,14.73,6a10.85,10.85,0,0,1-4.06-1.1.37.37,0,0,0-.46.24.2.2,0,0,0,0,.13L11,7.18,7.43,5.51a.93.93,0,0,0-1,.15l-1,3.91a.31.31,0,0,1-.38.2.33.33,0,0,1-.23-.21C3.11,2.47,5.41.65,10.9.65"/></g></g></g></svg>