<svg id="Group_10974" data-name="Group 10974" xmlns="http://www.w3.org/2000/svg" width="26.805" height="24.711" viewBox="0 0 26.805 24.711">
  <g id="Path_7735" data-name="Path 7735" transform="translate(-0.027 -18.15)" fill="#fff">
    <path d="M26.106,28.876a10.128,10.128,0,0,0-4.134-4.917l3.32-1.383-.709-2.61L20.361,18.15l-2.38,1.278,1.278,3.364a10.163,10.163,0,0,0-5.837.173A10.173,10.173,0,0,0,7.6,22.792l1.278-3.364L6.495,18.15,2.274,19.965l-.709,2.61,3.32,1.387a10.2,10.2,0,0,0,5.358,18.9,10.093,10.093,0,0,0,3.2-.514,10.2,10.2,0,0,0,12.668-13.47Zm-5.7-9.662,3.368,1.444.217.8L19.678,19.6Zm-.981,1.326,4.061,1.748L20.876,23.38l-.217-.1-.224-.089ZM6.45,19.214l.728.393L2.862,21.46l.217-.8ZM3.367,22.288l4.061-1.744L6.409,23.189l-.224.089-.217.1ZM1.734,36.314A9.249,9.249,0,1,1,15.78,40.046a7.393,7.393,0,0,1-1.16-.236,8.387,8.387,0,1,0-4.409,1.243,5.084,5.084,0,0,0,.582-.022,10.186,10.186,0,0,0,1.185.716A9.266,9.266,0,0,1,1.734,36.314Zm17.873-7.668a10.147,10.147,0,0,0-2.361-3.38,7.438,7.438,0,0,1,0,14.825,10.285,10.285,0,0,0,2.361-11.467Zm-6.17-2.7a7.429,7.429,0,0,1,0,13.419,7.429,7.429,0,0,1,0-13.419ZM9.6,40.065a7.435,7.435,0,0,1,0-14.819,10.224,10.224,0,0,0,0,14.819Zm15.518-3.751A9.246,9.246,0,1,1,11.064,25.275a7.422,7.422,0,0,1,1.185.23,8.374,8.374,0,1,0,3.809-1.224,10.224,10.224,0,0,0-1.179-.706A9.246,9.246,0,0,1,25.122,36.314Z" stroke="none"/>
    <path d="M 6.494831085205078 18.15000534057617 L 8.875150680541992 19.42802429199219 L 7.597131729125977 22.79241561889648 C 8.457496643066406 22.56275177001953 9.339515686035156 22.44826126098633 10.22077941894531 22.44826126098633 C 11.30288505554199 22.44826126098633 12.38381671905518 22.62091064453125 13.42172145843506 22.9649543762207 C 14.46128177642822 22.61935043334961 15.54398155212402 22.44594955444336 16.6280517578125 22.44594955444336 C 17.51178359985352 22.44594955444336 18.39646911621094 22.56122589111328 19.25908088684082 22.79241561889648 L 17.9810619354248 19.42802429199219 L 20.36138153076172 18.15000534057617 L 24.58205223083496 19.96478652954102 L 25.29135131835938 22.57515335083008 L 21.9716911315918 23.95861434936523 C 23.84690093994141 25.10559463500977 25.29807090759277 26.83152389526367 26.1060905456543 28.87580490112305 C 27.35919189453125 32.01845550537109 26.97331237792969 35.57785415649414 25.07584190368652 38.37893676757812 C 23.17838096618652 41.18001556396484 20.01601219177246 42.85861206054688 16.63275146484375 42.86056518554688 C 16.62943840026855 42.86056900024414 16.62618637084961 42.86056900024414 16.62287139892578 42.86056900024414 C 15.54050827026367 42.86056900024414 14.4650764465332 42.6868896484375 13.4376916885376 42.34616470336914 C 12.4116735458374 42.68690490722656 11.33763790130615 42.86057281494141 10.25657558441162 42.86057281494141 C 10.25193786621094 42.86057281494141 10.24727058410645 42.86057281494141 10.24263191223145 42.86056518554688 C 6.16200065612793 42.85536575317383 2.473421096801758 40.42937469482422 0.8523616790771484 36.68452453613281 C -1.138608932495117 32.03021240234375 0.5761318206787109 26.61968612670898 4.884521484375 23.9618034362793 L 1.564861297607422 22.57515335083008 L 2.274162292480469 19.96478652954102 L 6.494831085205078 18.15000534057617 Z M 2.862051010131836 21.46007537841797 L 7.178571701049805 19.6069450378418 L 6.450101852416992 19.21395492553711 L 3.079320907592773 20.65811538696289 L 2.862051010131836 21.46007537841797 Z M 23.99416160583496 21.45688629150391 L 23.77690124511719 20.65811538696289 L 20.40931129455566 19.21395492553711 L 19.67764091491699 19.60375595092773 L 23.99416160583496 21.45688629150391 Z M 19.42842102050781 20.5399055480957 L 20.43487167358398 23.19180297851562 L 20.65852165222168 23.28126525878906 L 20.87578201293945 23.38030624389648 L 23.48934173583984 22.28759384155273 L 19.42842102050781 20.5399055480957 Z M 5.9676513671875 23.37711334228516 L 6.184911727905273 23.2780647277832 L 6.408561706542969 23.18860626220703 L 7.427791595458984 20.54309463500977 L 3.366870880126953 22.28759384155273 L 5.9676513671875 23.37711334228516 Z M 15.77967166900635 40.04572296142578 C 19.17382049560547 37.47352600097656 20.38737106323242 32.92466735839844 18.72551155090332 29.00360488891602 C 17.76310157775879 26.74580383300781 15.93717193603516 24.96704483032227 13.65495109558105 24.06404495239258 C 12.54411315917969 23.62125396728516 11.3829870223999 23.40629196166992 10.23198890686035 23.40629196166992 C 7.781391143798828 23.40629196166992 5.376707077026367 24.38073348999023 3.601041793823242 26.20541381835938 C 0.9913806915283203 28.88711547851562 0.2545318603515625 32.87697601318359 1.734201431274414 36.31389617919922 C 3.219396591186523 39.75682830810547 6.597127914428711 41.91029739379883 10.23795127868652 41.91029739379883 C 10.8133602142334 41.91029739379883 11.3954381942749 41.85649108886719 11.97755146026611 41.7454948425293 C 11.56665134429932 41.53409576416016 11.17062187194824 41.29498291015625 10.79218101501465 41.02980422973633 C 10.59728145599365 41.05216217041016 10.40239143371582 41.05216217041016 10.2106819152832 41.05217742919922 C 6.025442123413086 41.04438400268555 2.486501693725586 37.95234680175781 1.917201995849609 33.80600738525391 C 1.347911834716797 29.65966415405273 3.922521591186523 25.72822570800781 7.950780868530273 24.59271621704102 C 8.708293914794922 24.37918472290039 9.473287582397461 24.27684783935547 10.22785186767578 24.27684783935547 C 13.48587131500244 24.27684783935547 16.54381942749023 26.18606567382812 17.90792083740234 29.29847526550293 C 19.58794212341309 33.1317138671875 18.18488121032715 37.61682510375977 14.6198616027832 39.80929565429688 C 14.99952125549316 39.91897583007812 15.38737106323242 39.9980354309082 15.77967166900635 40.04572296142578 Z M 25.12202072143555 36.31389617919922 C 26.47796058654785 33.16775512695312 25.98324203491211 29.52974510192871 23.83640098571777 26.85992431640625 C 22.06234931945801 24.65370559692383 19.40044593811035 23.40746688842773 16.63130187988281 23.407470703125 C 16.04940986633301 23.407470703125 15.46277904510498 23.46250152587891 14.87866115570068 23.57521438598633 C 15.2870512008667 23.78387451171875 15.68093109130859 24.0197639465332 16.05764007568359 24.28131484985352 C 16.25517654418945 24.26752090454102 16.45167922973633 24.26072692871094 16.64701080322266 24.26072692871094 C 20.62961196899414 24.26072692871094 24.10035705566406 27.08674621582031 24.86404228210449 31.05119514465332 C 25.66517066955566 35.21007537841797 23.23501205444336 39.31240463256836 19.20270156860352 40.60801696777344 C 18.35434913635254 40.88059997558594 17.4914436340332 41.01087188720703 16.64089965820312 41.01087188720703 C 13.44871425628662 41.01087188720703 10.43285465240479 39.17521286010742 9.034231185913086 36.13743591308594 C 7.262950897216797 32.29025268554688 8.642971038818359 27.72623443603516 12.24913120269775 25.50502395629883 C 11.86091136932373 25.39627456665039 11.4644718170166 25.3193359375 11.06376171112061 25.27497482299805 C 7.963571548461914 27.61098480224609 6.652490615844727 31.63464546203613 7.781320571899414 35.3486442565918 C 8.910150527954102 39.06265258789062 12.23854160308838 41.67620468139648 16.11431121826172 41.89194488525391 C 16.28723526000977 41.90156936645508 16.45929336547852 41.90632629394531 16.63095092773438 41.90632629394531 C 20.30670166015625 41.90632629394531 23.65640640258789 39.72058868408203 25.12201118469238 36.31389617919922 L 25.12202072143555 36.31389617919922 Z M 9.603620529174805 40.06489562988281 C 7.573810577392578 38.13482666015625 6.424701690673828 35.45651245117188 6.424701690673828 32.65555572509766 C 6.424701690673828 29.85460472106934 7.573810577392578 27.17629623413086 9.603620529174805 25.24622344970703 C 5.749551773071289 25.56662368774414 2.784690856933594 28.78818511962891 2.784690856933594 32.65555572509766 C 2.784690856933594 36.52292633056641 5.749551773071289 39.7444953918457 9.603620529174805 40.06489562988281 Z M 17.24620056152344 40.0904541015625 C 21.10199165344238 39.76998519897461 24.06820106506348 36.54701232910156 24.06820106506348 32.67792510986328 C 24.06820106506348 28.80883407592773 21.10200119018555 25.58586502075195 17.24620056152344 25.26538467407227 C 18.25630187988281 26.21871566772461 19.0599308013916 27.36925506591797 19.60735130310059 28.6457633972168 L 19.60735130310059 28.62339401245117 C 21.28489112854004 32.56450653076172 20.34427261352539 37.13267517089844 17.24620056152344 40.0904541015625 Z M 13.4376916885376 39.36837768554688 C 16.02771186828613 38.13773345947266 17.67814254760742 35.52627563476562 17.67814254760742 32.65875244140625 C 17.67814254760742 29.79123497009277 16.02771186828613 27.17977523803711 13.4376916885376 25.94913482666016 C 10.84767150878906 27.17977523803711 9.197240829467773 29.79123497009277 9.197240829467773 32.65875244140625 C 9.197240829467773 35.52627563476562 10.84767150878906 38.13773345947266 13.4376916885376 39.36837768554688 Z" stroke="none" fill="#27cd92"/>
  </g>
</svg>
