<svg xmlns="http://www.w3.org/2000/svg" width="24" height="24" viewBox="0 0 24 24">
  <g id="Group_10955" data-name="Group 10955" transform="translate(-148.971 -5452)">
    <path id="Path_7722" data-name="Path 7722" d="M16.748,49.946a.614.614,0,0,0,.707-.5.622.622,0,1,1,1.227.2.614.614,0,0,0,.5.707.621.621,0,0,0,.1,0,.614.614,0,0,0,.6-.511,1.848,1.848,0,1,0-3.648-.6A.614.614,0,0,0,16.748,49.946Z" transform="translate(136.469 5415.752)" fill="#27cd92"/>
    <path id="Path_7723" data-name="Path 7723" d="M38.5,51.142a1.846,1.846,0,0,0-2.123,1.512.614.614,0,1,0,1.21.2.622.622,0,0,1,1.227.2.614.614,0,0,0,.5.707.62.62,0,0,0,.1,0,.614.614,0,0,0,.6-.511A1.846,1.846,0,0,0,38.5,51.142Z" transform="translate(121.265 5413.181)" fill="#27cd92"/>
    <path id="Path_7724" data-name="Path 7724" d="M20.211,66.4a3.842,3.842,0,0,0-3.763,1.581.614.614,0,0,0,1.006.7,2.587,2.587,0,0,1,4.615.768.614.614,0,0,0,1.181-.336A3.839,3.839,0,0,0,20.211,66.4Z" transform="translate(136.391 5401.744)" fill="#27cd92"/>
    <path id="Path_7725" data-name="Path 7725" d="M71.366,20.307a1.843,1.843,0,0,0-2.786,1.964.614.614,0,1,0,1.2-.268.616.616,0,0,1,1.2-.27.614.614,0,1,0,1.2-.27A1.834,1.834,0,0,0,71.366,20.307Z" transform="translate(96.966 5436.542)" fill="#27cd92"/>
    <path id="Path_7726" data-name="Path 7726" d="M23.8,2.508a.616.616,0,0,0-.477-.462,18.875,18.875,0,0,0-15,3.418.625.625,0,0,0-.245.623l.144.643c.122.628.245,1.272.4,1.933a18.752,18.752,0,0,0-6.381.5.618.618,0,0,0-.45.5l-.12.626C.99,13.855.148,18.3,2.692,22.445A6.765,6.765,0,0,0,7.308,25.59a6.572,6.572,0,0,0,1.1.094,6.731,6.731,0,0,0,4.264-1.535,11.836,11.836,0,0,0,3.672-5.383,6.677,6.677,0,0,0,7.223-3.425c2.325-4.275,1.246-8.667.379-12.194ZM11.9,23.18a5.447,5.447,0,0,1-4.4,1.183,5.5,5.5,0,0,1-3.773-2.576c-2.3-3.726-1.505-7.909-.866-11.268l.047-.248a17.648,17.648,0,0,1,13.462,2.3l-.037.248C15.873,16.207,15.275,20.418,11.9,23.18ZM22.5,14.734a5.482,5.482,0,0,1-5.791,2.837,29.191,29.191,0,0,0,.671-3.346c.1,0,.2.012.294.012a3.8,3.8,0,0,0,3.5-2.29.624.624,0,0,0-.331-.779.608.608,0,0,0-.788.282A2.567,2.567,0,0,1,17.569,13l.091-.631a.624.624,0,0,0-.281-.621,18.868,18.868,0,0,0-3.615-1.88.624.624,0,0,0,.044-.4.624.624,0,0,1,.465-.745.615.615,0,0,1,.734.472.612.612,0,0,0,.731.471.621.621,0,0,0,.464-.741A1.84,1.84,0,0,0,14.147,7.49a1.859,1.859,0,0,0-1.574,1.961A18.9,18.9,0,0,0,9.9,8.815c-.191-.8-.345-1.58-.49-2.337l-.049-.248A17.663,17.663,0,0,1,22.7,3.2l.061.248c.813,3.316,1.826,7.445-.264,11.295Z" transform="translate(148 5450.316)" fill="#27cd92"/>
  </g>
</svg>
