<svg xmlns="http://www.w3.org/2000/svg" width="21.134" height="26.784" viewBox="0 0 21.134 26.784">
  <g id="Group_10956" data-name="Group 10956" transform="translate(-182 -5314)">
    <path id="Path_7727" data-name="Path 7727" d="M20.781,11.253a2.169,2.169,0,0,0-.269-.538,2.052,2.052,0,0,0-.768-.663,2.172,2.172,0,0,0-.653-.211L17.457,9.62a.189.189,0,0,1-.125-.086l-.221-.442-.48-.961L16.6,8.073A2.06,2.06,0,0,0,14.739,6.93a2.084,2.084,0,0,0-1.873,1.153l-.019.048-.471.961-.231.461a.154.154,0,0,1-.125.086l-1.623.24a1.972,1.972,0,0,0-.586.173,2.065,2.065,0,0,0-.826.692,2.139,2.139,0,0,0-.269.557,2.047,2.047,0,0,0,.269,1.8,2.11,2.11,0,0,0,.269.327l1.182,1.134a.148.148,0,0,1,.048.125l-.279,1.6a2.043,2.043,0,0,0,.826,2.017,2.077,2.077,0,0,0,2.2.163l1.46-.768a.212.212,0,0,1,.154,0l1.46.759a2.085,2.085,0,0,0,3.016-2.2l-.288-1.6a.149.149,0,0,1,.048-.134l1.172-1.143a1.916,1.916,0,0,0,.259-.307A2.062,2.062,0,0,0,20.781,11.253ZM18.918,12l-1.182,1.143a2.073,2.073,0,0,0-.6,1.835l.288,1.6a.142.142,0,0,1-.067.144.145.145,0,0,1-.173.019L15.728,16A2.079,2.079,0,0,0,13.8,16l-1.46.768a.146.146,0,0,1-.173-.019A.142.142,0,0,1,12.1,16.6l.279-1.6a2.05,2.05,0,0,0-.615-1.835l-1.172-1.134a.14.14,0,0,1,.086-.25l1.623-.24a2.1,2.1,0,0,0,1.566-1.134V10.4l.73-1.46a.149.149,0,0,1,.144-.086.143.143,0,0,1,.144.086l.077.154.49.961.173.346a2.078,2.078,0,0,0,1.566,1.124l1.633.231a.144.144,0,0,1,.134.1.184.184,0,0,1-.038.154Z" transform="translate(177.818 5311.748)" fill="#27cd92"/>
    <path id="Path_7728" data-name="Path 7728" d="M14.567,2.06A10.56,10.56,0,0,0,6.882,19.869v8.011a.959.959,0,0,0,.451.817.994.994,0,0,0,.941.048l2.757-1.383,3.141,1.4a1.018,1.018,0,0,0,.788,0l3.141-1.4,2.757,1.383A.993.993,0,0,0,21.8,28.7a.959.959,0,0,0,.451-.817V19.869A10.56,10.56,0,0,0,14.567,2.06ZM20.33,26.325l-1.777-.884a.97.97,0,0,0-.817-.019l-3.17,1.412L11.4,25.422a.918.918,0,0,0-.817.019L8.8,26.325V21.474a10.519,10.519,0,0,0,11.527,0Zm.961-8.28a8.036,8.036,0,0,1-.961,1.018,8.622,8.622,0,0,1-11.527,0,8.036,8.036,0,0,1-.961-1.018,8.232,8.232,0,0,1-.961-1.47,8.533,8.533,0,0,1-.961-3.948,8.645,8.645,0,1,1,17.291,0,8.533,8.533,0,0,1-.961,3.948,8.232,8.232,0,0,1-.961,1.47Z" transform="translate(178 5311.94)" fill="#27cd92"/>
  </g>
</svg>
