<svg width="21" height="28" viewBox="0 0 21 28" fill="none" xmlns="http://www.w3.org/2000/svg">
<path d="M17.283 19.647H13.083V18.201L15.592 16.85C15.9633 16.6499 16.2736 16.3531 16.4898 15.9909C16.706 15.6287 16.8201 15.2148 16.82 14.793V12.173H17.054C17.2687 12.173 17.4813 12.1307 17.6797 12.0485C17.8781 11.9664 18.0583 11.8459 18.2101 11.6941C18.3619 11.5423 18.4824 11.362 18.5645 11.1637C18.6467 10.9653 18.689 10.7527 18.689 10.538C18.689 10.3233 18.6467 10.1107 18.5645 9.9123C18.4824 9.71393 18.3619 9.53369 18.2101 9.38187C18.0583 9.23004 17.8781 9.10961 17.6797 9.02745C17.4813 8.94528 17.2687 8.90299 17.054 8.90299H16.82V3.79499C16.8335 3.0078 16.5708 2.24075 16.0776 1.62711C15.5843 1.01347 14.8917 0.592024 14.12 0.435989C11.5926 -0.144597 8.96642 -0.144597 6.439 0.435989C5.67244 0.591468 4.98383 1.00875 4.49122 1.6163C3.99861 2.22386 3.73268 2.98385 3.739 3.76599V8.90399H3.5C3.06637 8.90399 2.6505 9.07625 2.34388 9.38287C2.03726 9.68949 1.865 10.1054 1.865 10.539C1.865 10.9726 2.03726 11.3885 2.34388 11.6951C2.6505 12.0017 3.06637 12.174 3.5 12.174H3.734V14.794C3.73437 15.2155 3.84881 15.6291 4.06518 15.9909C4.28155 16.3527 4.59179 16.6492 4.963 16.849L7.471 18.201V19.647H3.271C2.40389 19.6478 1.57251 19.9925 0.959284 20.6056C0.346053 21.2186 0.00105902 22.0499 0 22.917V27.117C0 27.2408 0.0492013 27.3596 0.136781 27.4472C0.22436 27.5348 0.343144 27.584 0.467 27.584H20.086C20.2099 27.584 20.3286 27.5348 20.4162 27.4472C20.5038 27.3596 20.553 27.2408 20.553 27.117V22.917C20.5519 22.0501 20.2071 21.2189 19.5941 20.6059C18.9811 19.9929 18.1499 19.648 17.283 19.647V19.647ZM10.276 24.125L6.733 20.581H7.748L9.948 22.781C10.0356 22.8684 10.1543 22.9176 10.278 22.9176C10.4017 22.9176 10.5204 22.8684 10.608 22.781L12.808 20.581H13.82L10.276 24.125ZM14.187 21.536L13.163 26.654H7.39L6.366 21.536L9.946 25.116C10.0336 25.2034 10.1523 25.2526 10.276 25.2526C10.3997 25.2526 10.5184 25.2034 10.606 25.116L14.187 21.536ZM15.714 2.83599C15.8402 3.1305 15.8973 3.44999 15.881 3.76999V6.94999L14.491 3.47699C14.4625 3.40607 14.4519 3.32925 14.46 3.25326C14.4682 3.17727 14.4948 3.10445 14.5377 3.04117C14.5805 2.97788 14.6382 2.92609 14.7058 2.89031C14.7733 2.85454 14.8486 2.83589 14.925 2.83599H15.714ZM17.75 10.543C17.75 10.7286 17.6763 10.9067 17.545 11.038C17.4137 11.1692 17.2357 11.243 17.05 11.243H16.816V9.84299H17.05C17.2348 9.84298 17.4121 9.91605 17.5432 10.0462C17.6743 10.1764 17.7487 10.3532 17.75 10.538V10.543ZM6.65 1.34999C9.03927 0.801566 11.5217 0.801566 13.911 1.34999C14.3194 1.44482 14.7001 1.63347 15.023 1.90099H14.93C14.7009 1.90083 14.4754 1.95688 14.273 2.06422C14.0707 2.17155 13.8977 2.3269 13.7694 2.51663C13.6411 2.70636 13.5613 2.92468 13.5369 3.15244C13.5126 3.3802 13.5446 3.61045 13.63 3.82299L15.882 9.46099V11.497L14.566 12.671L13.416 11.753C13.002 11.4219 12.4881 11.2408 11.958 11.239H11.211C11.0244 11.2518 10.8435 11.3084 10.6829 11.4043C10.5223 11.5003 10.3867 11.6327 10.287 11.791C10.1842 11.6312 10.0451 11.4979 9.8811 11.4019C9.71706 11.306 9.53269 11.2502 9.343 11.239H8.596C8.06556 11.2405 7.55127 11.4217 7.137 11.753L5.987 12.673L4.673 11.497V9.46099L6.93 3.81899C7.01541 3.60645 7.04736 3.3762 7.02305 3.14844C6.99875 2.92068 6.91893 2.70236 6.7906 2.51263C6.66227 2.3229 6.48935 2.16755 6.287 2.06022C6.08465 1.95288 5.85906 1.89683 5.63 1.89699H5.537C5.85899 1.62988 6.23864 1.44126 6.646 1.34599L6.65 1.34999ZM7.587 13.936C7.31468 13.7832 7.05605 13.6072 6.814 13.41L6.698 13.31L7.726 12.489C7.97398 12.291 8.28168 12.1828 8.599 12.182H9.346C9.497 12.203 9.813 12.733 9.813 13.116C9.32118 13.1697 8.84277 13.3102 8.4 13.531L7.587 13.936ZM8.818 14.365C9.2724 14.139 9.773 14.0214 10.2805 14.0214C10.788 14.0214 11.2886 14.139 11.743 14.365L11.83 14.408C10.8177 14.7028 9.7423 14.7028 8.73 14.408L8.818 14.365ZM12.972 13.934L12.161 13.534C11.7184 13.3125 11.2399 13.1714 10.748 13.117V13.117C10.7802 12.7579 10.947 12.4242 11.215 12.183H11.962C12.28 12.1833 12.5885 12.2916 12.837 12.49L13.865 13.312L13.765 13.402C13.5153 13.6013 13.2486 13.7783 12.968 13.931L12.972 13.934ZM4.672 3.74099C4.65725 3.43004 4.71368 3.11982 4.837 2.83399H5.628C5.70442 2.83389 5.7797 2.85254 5.84723 2.88831C5.91476 2.92409 5.97248 2.97588 6.01533 3.03917C6.05817 3.10245 6.08483 3.17527 6.09297 3.25126C6.10111 3.32725 6.09047 3.40407 6.062 3.47499L4.672 6.94899V3.74099ZM2.804 10.541C2.804 10.3553 2.87775 10.1773 3.00903 10.046C3.1403 9.91474 3.31835 9.84099 3.504 9.84099H3.738V11.241H3.5C3.40782 11.241 3.31655 11.2228 3.23143 11.1874C3.1463 11.1521 3.069 11.1002 3.00396 11.0349C2.93892 10.9696 2.88742 10.8921 2.85242 10.8068C2.81742 10.7215 2.79961 10.6302 2.8 10.538L2.804 10.541ZM4.672 14.796V12.749L6.2 14.116C7.35391 15.054 8.79623 15.565 10.2833 15.5627C11.7704 15.5603 13.2111 15.0447 14.362 14.103L15.879 12.749V14.794C15.8792 15.0471 15.8107 15.2955 15.6809 15.5128C15.5512 15.7301 15.3649 15.9081 15.142 16.028L10.942 18.292C10.7378 18.4021 10.5095 18.4597 10.2775 18.4597C10.0455 18.4597 9.81718 18.4021 9.613 18.292L5.413 16.029C5.189 15.9097 5.00163 15.7318 4.87094 15.5143C4.74024 15.2967 4.67113 15.0478 4.671 14.794L4.672 14.796ZM9.172 19.116C9.5121 19.3001 9.89275 19.3966 10.2795 19.3966C10.6663 19.3966 11.0469 19.3001 11.387 19.116L12.148 18.707V19.921L10.28 21.789L8.412 19.921V18.704L9.172 19.116ZM0.937 22.916C0.937793 22.2973 1.18378 21.7041 1.62107 21.2665C2.05837 20.8288 2.65131 20.5823 3.27 20.581H5.223L6.437 26.653H0.937V22.916ZM19.622 26.653H14.122L15.336 20.581H17.289C17.9084 20.5815 18.5022 20.8278 18.9402 21.2658C19.3782 21.7037 19.6245 22.2976 19.625 22.917L19.622 26.653Z" fill="#2BD899"/>
<path d="M7.93999 11.122C8.10157 11.122 8.25953 11.0741 8.39389 10.9843C8.52824 10.8945 8.63296 10.7669 8.6948 10.6177C8.75663 10.4684 8.77281 10.3041 8.74129 10.1456C8.70976 9.98714 8.63195 9.84156 8.51769 9.7273C8.40343 9.61304 8.25786 9.53523 8.09937 9.50371C7.94089 9.47218 7.77662 9.48836 7.62733 9.5502C7.47805 9.61203 7.35045 9.71675 7.26068 9.85111C7.1709 9.98546 7.12299 10.1434 7.12299 10.305C7.12299 10.5217 7.20906 10.7295 7.36228 10.8827C7.5155 11.0359 7.7233 11.122 7.93999 11.122V11.122ZM7.93999 10.188C7.97102 10.188 8.00077 10.2003 8.02272 10.2223C8.04466 10.2442 8.05699 10.274 8.05699 10.305C8.05699 10.433 7.82299 10.433 7.82299 10.305C7.82299 10.274 7.83531 10.2442 7.85725 10.2223C7.8792 10.2003 7.90895 10.188 7.93999 10.188Z" fill="#2BD899"/>
<path d="M12.612 11.122C12.7736 11.122 12.9315 11.0741 13.0659 10.9843C13.2002 10.8945 13.305 10.7669 13.3668 10.6177C13.4286 10.4684 13.4448 10.3041 13.4133 10.1456C13.3818 9.98714 13.3039 9.84156 13.1897 9.7273C13.0754 9.61304 12.9299 9.53523 12.7714 9.50371C12.6129 9.47218 12.4486 9.48836 12.2993 9.5502C12.15 9.61203 12.0224 9.71675 11.9327 9.85111C11.8429 9.98546 11.795 10.1434 11.795 10.305C11.795 10.5217 11.8811 10.7295 12.0343 10.8827C12.1875 11.0359 12.3953 11.122 12.612 11.122ZM12.612 10.188C12.643 10.188 12.6728 10.2003 12.6947 10.2223C12.7167 10.2442 12.729 10.274 12.729 10.305C12.729 10.433 12.495 10.433 12.495 10.305C12.495 10.274 12.5073 10.2442 12.5293 10.2223C12.5512 10.2003 12.581 10.188 12.612 10.188Z" fill="#2BD899"/>
</svg>
