<svg xmlns="http://www.w3.org/2000/svg" width="25.999" height="25.933" viewBox="0 0 25.999 25.933">
  <g id="Grupo_10474" data-name="Grupo 10474" transform="translate(0 -1.298)">
    <path id="path-1" d="M136.627,7.8a3.048,3.048,0,0,0,2.786-3.25,2.819,2.819,0,1,0-5.571,0A3.048,3.048,0,0,0,136.627,7.8Zm0-4.643c.5,0,.928.651.928,1.393s-.433,1.393-.928,1.393-.929-.651-.929-1.393S136.131,3.155,136.627,3.155Z" transform="translate(-127.045)" fill="#2bd899"/>
    <path id="Trazado_1443" data-name="Trazado 1443" d="M5.571,94.678a3.048,3.048,0,0,0-2.786-3.25,3.289,3.289,0,0,0,0,6.5A3.048,3.048,0,0,0,5.571,94.678Zm-3.714,0c0-.742.433-1.393.928-1.393s.929.651.929,1.393-.433,1.393-.929,1.393S1.857,95.42,1.857,94.678Z" transform="translate(0 -85.553)" fill="#2bd899"/>
    <path id="path-1-2" data-name="path-1" d="M288.1,7.8a3.048,3.048,0,0,0,2.786-3.25,2.819,2.819,0,1,0-5.571,0A3.048,3.048,0,0,0,288.1,7.8Zm0-4.643c.5,0,.928.651.928,1.393s-.433,1.393-.928,1.393-.929-.651-.929-1.393S287.608,3.155,288.1,3.155Z" transform="translate(-270.83)" fill="#2bd899"/>
    <path id="Trazado_1444" data-name="Trazado 1444" d="M405.072,91.428a3.289,3.289,0,1,0,2.786,3.25A3.048,3.048,0,0,0,405.072,91.428Zm0,4.643c-.5,0-.929-.651-.929-1.393s.433-1.393.929-1.393.928.651.928,1.393S405.567,96.071,405.072,96.071Z" transform="translate(-381.858 -85.553)" fill="#2bd899"/>
    <path id="Trazado_1445" data-name="Trazado 1445" d="M54.822,151.591a7.413,7.413,0,0,0-14.214,0,6.9,6.9,0,0,0-4.035,6.3,6.953,6.953,0,0,0,11.142,5.56,6.953,6.953,0,1,0,7.107-11.861ZM51.893,163a5.079,5.079,0,0,1-3.535-1.434.929.929,0,0,0-1.288,0,5.1,5.1,0,1,1-5.351-8.428.928.928,0,0,0,.574-.661,5.557,5.557,0,0,1,10.841,0,.928.928,0,0,0,.574.661A5.1,5.1,0,0,1,51.893,163Z" transform="translate(-34.715 -137.626)" fill="#2bd899"/>
  </g>
</svg>
