<svg xmlns="http://www.w3.org/2000/svg" width="28.5" height="28.5" viewBox="0 0 28.5 28.5">
  <g id="Grupo_10480" data-name="Grupo 10480" transform="translate(-114 -204)">
    <path id="Trazado_1584" data-name="Trazado 1584" d="M136.767,232.5H135.6a1.011,1.011,0,0,0-.154-.049,6.207,6.207,0,0,1-5.165-4.135.428.428,0,0,0-.488-.331q-7.9.013-15.791.006v-21.82h5.455V204h4.787v2.15h5.622V204h4.787v2.175h5.471v.375q0,7.219,0,14.437a.56.56,0,0,0,.218.472,5.987,5.987,0,0,1,1.8,2.661c.165.5.244,1.021.362,1.533v1.113c-.017.071-.04.141-.052.213a6.189,6.189,0,0,1-4.282,5.194A11.921,11.921,0,0,1,136.767,232.5Zm-21.089-6.2H129.9a6.321,6.321,0,0,1,2.705-5.253,6.221,6.221,0,0,1,5.83-.749v-6.251H115.678Zm0-13.961h22.747V207.86h-3.784v2.13h-4.781v-2.137h-5.625v2.133h-4.791v-2.135h-3.766Zm15.9,13.868a4.625,4.625,0,1,0,4.635-4.625A4.622,4.622,0,0,0,131.579,226.2Zm-9.013-20.509h-1.414v2.625h1.414Zm10.4,2.624v-2.626h-1.41v2.626Z" fill="#2bd899"/>
    <path id="Trazado_1590" data-name="Trazado 1590" d="M199.1,434.605v-1.63h2.681v1.63Z" transform="translate(-78.782 -211.981)" fill="#2bd899"/>
    <path id="Trazado_1591" data-name="Trazado 1591" d="M271.995,432.938h2.675v1.636h-2.675Z" transform="translate(-146.269 -211.946)" fill="#2bd899"/>
    <path id="Trazado_1592" data-name="Trazado 1592" d="M199.115,381.656v-1.621h2.676v1.621Z" transform="translate(-78.798 -162.97)" fill="#2bd899"/>
    <path id="Trazado_1593" data-name="Trazado 1593" d="M274.68,380v1.627H272V380Z" transform="translate(-146.273 -162.937)" fill="#2bd899"/>
    <path id="Trazado_1594" data-name="Trazado 1594" d="M344.826,381.625V380H347.5v1.626Z" transform="translate(-213.694 -162.937)" fill="#2bd899"/>
    <path id="Trazado_1595" data-name="Trazado 1595" d="M402.237,455.4h1.641v2.7h1.775v1.666h-3.417Z" transform="translate(-266.844 -232.742)" fill="#2bd899"/>
  </g>
</svg>
