<svg width="20" height="20" viewBox="0 0 20 20" fill="current" xmlns="http://www.w3.org/2000/svg">
<path d="M13.2991 13.761L12.7182 13.5674V7.36578C12.7182 7.15736 12.5491 6.98827 12.3407 6.98827C12.1323 6.98827 11.9632 7.15736 11.9632 7.36578V7.53357H10.9803C10.8164 7.03362 10.3501 6.6953 9.82394 6.69464H4.37092C3.84475 6.6953 3.37849 7.03362 3.21451 7.53357H2.23166V7.36578C2.23166 7.15736 2.06256 6.98827 1.85414 6.98827C1.64572 6.98827 1.47662 7.15736 1.47662 7.36578V13.5674L0.895796 13.761C0.741775 13.8124 0.637695 13.9566 0.637695 14.1191V18.3138C0.637695 18.5222 0.806791 18.6913 1.01521 18.6913H13.1796C13.3881 18.6913 13.5572 18.5222 13.5572 18.3138V14.1191C13.5572 13.9566 13.4531 13.8124 13.2991 13.761ZM2.23166 8.2886H3.53199C3.74041 8.2886 3.90951 8.1195 3.90951 7.91108C3.90977 7.65652 4.11636 7.44994 4.37092 7.44967H9.82394C10.0785 7.44994 10.2851 7.65652 10.2853 7.91108C10.2853 8.1195 10.4544 8.2886 10.6629 8.2886H11.9632V13.3157L11.0404 13.0081V11.6863C11.0404 11.4778 10.8713 11.3087 10.6629 11.3087H9.1528V10.1342C9.15227 9.69433 8.79573 9.33778 8.35582 9.33726H5.83904C5.39913 9.33778 5.04258 9.69433 5.04206 10.1342V11.3087H3.53199C3.32357 11.3087 3.15447 11.4778 3.15447 11.6863V13.0081L2.23166 13.3157V8.2886ZM8.39776 11.3087H5.79709V10.1342C5.79709 10.1112 5.81597 10.0923 5.83904 10.0923H8.35582C8.37889 10.0923 8.39776 10.1112 8.39776 10.1342V11.3087ZM10.2853 12.0638V12.9027H3.90951V12.0638H10.2853ZM1.39273 14.3913L3.59334 13.6577H10.6015L12.8021 14.3913V16.6779H1.39273V14.3913ZM1.39273 17.9363V17.4329H12.8021V17.9363H1.39273Z" fill="current"/>
<path d="M19.0102 12.7768H17.0807V11.3926H18.339C18.4499 11.3926 18.5553 11.3438 18.6272 11.259C18.6989 11.1745 18.7297 11.0624 18.7115 10.953L18.292 8.43617C18.2617 8.25423 18.1041 8.12079 17.9196 8.12079H15.4028C15.2182 8.12079 15.0607 8.25423 15.0304 8.43617L14.6109 10.953C14.5927 11.0624 14.6235 11.1745 14.6952 11.259C14.767 11.3438 14.8724 11.3926 14.9833 11.3926H16.3256V12.7768H14.3961C14.1877 12.7768 14.0186 12.9459 14.0186 13.1543V14.4127C14.0186 14.6212 14.1877 14.7903 14.3961 14.7903H14.8575V17.0554C14.8575 17.2638 15.0266 17.4329 15.235 17.4329C15.4434 17.4329 15.6125 17.2638 15.6125 17.0554V14.7903H17.7937V17.0554C17.7937 17.2638 17.9628 17.4329 18.1713 17.4329C18.3797 17.4329 18.5488 17.2638 18.5488 17.0554V14.7903H19.0102C19.2186 14.7903 19.3877 14.6212 19.3877 14.4127V13.1543C19.3877 12.9459 19.2186 12.7768 19.0102 12.7768ZM15.7226 8.87582H17.5997L17.8934 10.6376H15.429L15.7226 8.87582ZM18.6327 14.0352H14.7736V13.5319H18.6327V14.0352Z" fill="current"/>
<path d="M14.375 1.57716V5.39428C14.375 5.6027 14.5441 5.77179 14.7525 5.77179H18.5696C18.7781 5.77179 18.9471 5.6027 18.9471 5.39428V1.57716C18.9471 1.36874 18.7781 1.19965 18.5696 1.19965H14.7525C14.5441 1.19965 14.375 1.36874 14.375 1.57716ZM15.13 1.95468H18.1921V5.01676H15.13V1.95468Z" fill="current"/>
</svg>
