<svg id="Group_10986" data-name="Group 10986" xmlns="http://www.w3.org/2000/svg" width="17.301" height="22.571" viewBox="0 0 17.301 22.571">
  <path id="Path_7740" data-name="Path 7740" d="M12.671,3162.81a9.685,9.685,0,0,1,4.6,10.494.712.712,0,0,1-.7.57H1.085a.711.711,0,0,1-.707-.631,9.675,9.675,0,0,1,4.654-10.454.716.716,0,0,1,.862.148,3.967,3.967,0,0,0,5.876,0A.714.714,0,0,1,12.671,3162.81Zm-.26,1.492a5.383,5.383,0,0,1-7.159,0,8.286,8.286,0,0,0-3.565,8.147H15.98A8.288,8.288,0,0,0,12.411,3164.3Z" transform="translate(-0.18 -3151.303)" fill="#27cd92"/>
  <path id="Path_7741" data-name="Path 7741" d="M908.4,0A5.4,5.4,0,1,1,903,5.4,5.4,5.4,0,0,1,908.4,0Zm0,1.428A3.969,3.969,0,1,0,912.366,5.4,3.967,3.967,0,0,0,908.4,1.428Z" transform="translate(-899.745)" fill="#27cd92"/>
</svg>
