<svg xmlns="http://www.w3.org/2000/svg" width="31.972" height="25.589" viewBox="0 0 31.972 25.589">
  <g id="Grupo_10475" data-name="Grupo 10475" transform="translate(0 -50.71)">
    <g id="Grupo_10268" data-name="Grupo 10268" transform="translate(0 69.248)">
      <g id="Grupo_10267" data-name="Grupo 10267">
        <path id="Trazado_1446" data-name="Trazado 1446" d="M27.256,345.222H.888A.886.886,0,0,0,0,346.11v5.275a.887.887,0,0,0,.888.888H27.256a.887.887,0,0,0,.888-.888V346.11A.886.886,0,0,0,27.256,345.222ZM6.232,350.5H1.775V347H6.232Zm16.108,0H8.007V347H22.34Zm4.029,0H24.115V347h2.253Z" transform="translate(0 -345.222)" fill="#2bd899"/>
      </g>
    </g>
    <g id="Grupo_10270" data-name="Grupo 10270" transform="translate(26.6 50.71)">
      <g id="Grupo_10269" data-name="Grupo 10269" transform="translate(0 0)">
        <path id="Trazado_1447" data-name="Trazado 1447" d="M425.9,58.271a4.348,4.348,0,0,1-1.536-3.217,4.337,4.337,0,0,1,1.467-2.763.889.889,0,0,0-1.114-1.385,6.063,6.063,0,0,0-2.128,4.035,6,6,0,0,0,2.052,4.582,4.474,4.474,0,0,1,1.536,3.242,4.992,4.992,0,0,1-1.5,3.166.87.87,0,0,0-.063,1.253.977.977,0,0,0,1.253.063,6.743,6.743,0,0,0,2.09-4.425A6.175,6.175,0,0,0,425.9,58.271Z" transform="translate(-422.581 -50.71)" fill="#2bd899"/>
      </g>
    </g>
    <g id="Grupo_10272" data-name="Grupo 10272" transform="translate(22.552 50.71)">
      <g id="Grupo_10271" data-name="Grupo 10271" transform="translate(0 0)">
        <path id="Trazado_1448" data-name="Trazado 1448" d="M361.6,58.271a4.348,4.348,0,0,1-1.536-3.217,4.337,4.337,0,0,1,1.467-2.763.889.889,0,0,0-1.114-1.385,6.063,6.063,0,0,0-2.128,4.035,6,6,0,0,0,2.052,4.582,4.481,4.481,0,0,1,1.542,3.248,4.992,4.992,0,0,1-1.5,3.166.87.87,0,0,0-.063,1.253.977.977,0,0,0,1.253.063,6.743,6.743,0,0,0,2.09-4.425A6.143,6.143,0,0,0,361.6,58.271Z" transform="translate(-358.281 -50.71)" fill="#2bd899"/>
      </g>
    </g>
  </g>
</svg>
