<svg xmlns="http://www.w3.org/2000/svg"  viewBox="0 0 6.395 7.276">
  <g id="Grupo_960" data-name="Grupo 960" transform="translate(-31)">
    <g id="Grupo_956" data-name="Grupo 956" transform="translate(32.279)">
      <g id="Grupo_955" data-name="Grupo 955">
        <path id="Trazado_828" data-name="Trazado 828" d="M122.918,0a1.918,1.918,0,1,0,1.918,1.918A1.921,1.921,0,0,0,122.918,0Z" transform="translate(-121)" fill="#6d797f"/>
      </g>
    </g>
    <g id="Grupo_958" data-name="Grupo 958" transform="translate(31 4.263)">
      <g id="Grupo_957" data-name="Grupo 957">
        <path id="Trazado_829" data-name="Trazado 829" d="M36.584,300.827A2.735,2.735,0,0,0,34.624,300h-.853a2.735,2.735,0,0,0-1.961.827A2.8,2.8,0,0,0,31,302.8a.213.213,0,0,0,.213.213h5.968a.213.213,0,0,0,.213-.213A2.8,2.8,0,0,0,36.584,300.827Z" transform="translate(-31 -300)" fill="#6d797f"/>
      </g>
    </g>
  </g>
</svg>
