<svg xmlns="http://www.w3.org/2000/svg" width="27.334" height="27.789" viewBox="0 0 27.334 27.789">
  <g id="Grupo_10477" data-name="Grupo 10477" transform="translate(-23.75 -15.75)">
    <path id="Trazado_1454" data-name="Trazado 1454" d="M25.819,43.289H42.647a1.821,1.821,0,0,0,1.819-1.819v-.455h5.913a.455.455,0,0,0,.455-.455v-5a.455.455,0,0,0-.455-.455H48.408l-2.157-5.178a.455.455,0,0,0-.589-.247,2.887,2.887,0,0,0-1.2.889V17.819A1.821,1.821,0,0,0,42.647,16H25.819A1.821,1.821,0,0,0,24,17.819V41.47A1.821,1.821,0,0,0,25.819,43.289Zm6.367-3.184V36.012h7.277v4.093Zm1.787-6.991a2,2,0,0,1,.714-2.38l1.82,4.368H34.769ZM39.236,35.1H37.5l-.8-1.988a2,2,0,0,1,.714-2.38Zm.99,0-.8-1.988a2,2,0,0,1,.714-2.38l1.82,4.368Zm2.729,0-.8-1.988a2,2,0,0,1,.714-2.38l1.82,4.368Zm.6-5.094-.035-.084a.455.455,0,0,0-.589-.247,2.885,2.885,0,0,0-1.591,1.552l0,.007-.547-1.312a.455.455,0,0,0-.589-.247,2.885,2.885,0,0,0-1.591,1.552l0,.007-.547-1.312a.455.455,0,0,0-.589-.247,2.885,2.885,0,0,0-1.591,1.552l0,.007-.547-1.312a.455.455,0,0,0-.589-.247,2.9,2.9,0,0,0-1.618,3.775h0l.66,1.65h-1.6V26.916h11.37Zm-11.37-10.37h11.37v6.367H32.187ZM43.557,41.47a.911.911,0,0,1-.91.91H32.187V41.015h11.37Zm6.367-1.364H40.373V36.012h9.551Zm-5.017-8.518a1.981,1.981,0,0,1,.7-.853l1.82,4.368H45.684l-.8-1.988a1.981,1.981,0,0,1,.019-1.526ZM43.557,17.819v.91H32.187V16.91H42.647A.911.911,0,0,1,43.557,17.819Zm-18.647,0a.911.911,0,0,1,.91-.91h5.458v25.47H25.819a.911.911,0,0,1-.91-.91Z" fill="#2bd899" stroke="#29d799" stroke-width="0.5"/>
    <path id="Trazado_1455" data-name="Trazado 1455" d="M195.638,136a1.367,1.367,0,0,0-1.286.91H192v.91h2.352A1.364,1.364,0,1,0,195.638,136Zm0,1.819a.455.455,0,1,1,.455-.455A.455.455,0,0,1,195.638,137.819Z" transform="translate(-158.449 -113.178)" fill="#2bd899" stroke="#29d799" stroke-width="0.5"/>
    <path id="Trazado_1456" data-name="Trazado 1456" d="M296,152h2.729v.91H296Z" transform="translate(-256.536 -128.268)" fill="#2bd899" stroke="#29d799" stroke-width="0.5"/>
    <path id="Trazado_1457" data-name="Trazado 1457" d="M200,104h.91v.91H200Z" transform="translate(-165.994 -82.997)" fill="#2bd899" stroke="#29d799" stroke-width="0.5"/>
    <path id="Trazado_1458" data-name="Trazado 1458" d="M232,104h.91v.91H232Z" transform="translate(-196.175 -82.997)" fill="#2bd899" stroke="#29d799" stroke-width="0.5"/>
    <path id="Trazado_1459" data-name="Trazado 1459" d="M264,104h.91v.91H264Z" transform="translate(-226.356 -82.997)" fill="#2bd899" stroke="#29d799" stroke-width="0.5"/>
    <path id="Trazado_1460" data-name="Trazado 1460" d="M296,104h.91v.91H296Z" transform="translate(-256.536 -82.997)" fill="#2bd899" stroke="#29d799" stroke-width="0.5"/>
    <path id="Trazado_1461" data-name="Trazado 1461" d="M328,104h.91v.91H328Z" transform="translate(-286.717 -82.997)" fill="#2bd899" stroke="#29d799" stroke-width="0.5"/>
  </g>
</svg>
