<svg xmlns="http://www.w3.org/2000/svg" width="34.164" height="25.835" viewBox="0 0 34.164 25.835">
  <g id="Grupo_10478" data-name="Grupo 10478" transform="translate(0.5 -2.068)">
    <g id="Grupo_10290" data-name="Grupo 10290" transform="translate(0 2.569)">
      <circle id="Elipse_285" data-name="Elipse 285" cx="3.855" cy="3.855" r="3.855" transform="translate(12.723 17.124)" fill="#29d799" stroke="#fff" stroke-width="1"/>
      <path id="Trazado_1462" data-name="Trazado 1462" d="M23.59,11.295c-.057-.059-.118-.111-.176-.165l-.173-.164a.843.843,0,0,0-.1-.081,12.577,12.577,0,0,0-17.372.408l-.558.559-.772.772a2.42,2.42,0,0,0,3.423,3.423L9.2,14.716a7.769,7.769,0,0,1,10.971,0l.961.931a2.4,2.4,0,0,0,4.09-1.7,2.357,2.357,0,0,0-.7-1.689Z" transform="translate(2.202 0.396)" fill="#29d799" stroke="#fff" stroke-width="1"/>
      <path id="Trazado_1463" data-name="Trazado 1463" d="M32.359,9.494l-.8-.8-.011-.01-.632-.636a2.281,2.281,0,0,0-.359-.288,20.988,20.988,0,0,0-28.35.653c-.038.035-.081.059-.119.1L.64,9.958a2.208,2.208,0,0,0,3.123,3.121l1.446-1.445a.188.188,0,0,1,.027-.032A16.569,16.569,0,0,1,28.1,11.477l1.138,1.139a2.207,2.207,0,0,0,3.121-3.123Z" transform="translate(0 -2.569)" fill="#29d799" stroke="#fff" stroke-width="1"/>
    </g>
  </g>
</svg>
