<svg xmlns="http://www.w3.org/2000/svg" width="27.499" height="30.105" viewBox="0 0 27.499 30.105">
  <g id="Grupo_10313" data-name="Grupo 10313" transform="translate(-172.032 -291.463)">
    <path id="Trazado_1472" data-name="Trazado 1472" d="M228.326,370.71a.883.883,0,0,0,.883-.883v-.562a.883.883,0,1,0-1.767,0v.562A.883.883,0,0,0,228.326,370.71Z" transform="translate(-48.708 -67.682)" fill="#2bd899" stroke="#fff" stroke-width="0.4"/>
    <path id="Trazado_1473" data-name="Trazado 1473" d="M270.814,370.71a.883.883,0,0,0,.883-.883v-.562a.883.883,0,1,0-1.767,0v.562A.883.883,0,0,0,270.814,370.71Z" transform="translate(-86.191 -67.682)" fill="#2bd899" stroke="#fff" stroke-width="0.4"/>
    <path id="Trazado_1474" data-name="Trazado 1474" d="M192.1,313.125l-.007-.259a2.846,2.846,0,0,0-.505-1.233l-.143-.275a6.666,6.666,0,0,0-4.06-2.482l-.034-.009c-.232-.066-.461-.126-.68-.185l-.419-.113c-.16-.044-.293-.26-.4-.489,2.153-1.481,3.751-4,3.751-6.2v-1.992a10.183,10.183,0,0,0-.253-2.309l.06-.017a9.722,9.722,0,0,0-.595-1.668l-.036.01a7.4,7.4,0,0,0-1.469-2.108,7.3,7.3,0,0,0-5.086-2.139h-.028a7.3,7.3,0,0,0-5.088,2.139,7.475,7.475,0,0,0-1.628,2.484c0,.012,0,.025-.007.037-.142.562-.3,1.125-.452,1.684a.7.7,0,0,1-.061.154,10.542,10.542,0,0,0-.143,1.732v1.992c0,2.2,1.6,4.715,3.748,6.2-.1.228-.237.444-.4.489l-.424.114c-.219.058-.444.118-.675.183l-.044.013a6.665,6.665,0,0,0-4.051,2.479l-.044.058c-.143.277-.19.426-.3.685a3.669,3.669,0,0,0-.207.657l-.1.367a6.563,6.563,0,0,0-.084,1.068v1.72a1.409,1.409,0,0,0,1.409,1.409H190.77a1.41,1.41,0,0,0,1.409-1.409v-1.72A6.433,6.433,0,0,0,192.1,313.125Zm-15.154-15.69a5.443,5.443,0,0,1,10.121-.992,6.572,6.572,0,0,1,.59,1.664q.069.316.112.656a2.341,2.341,0,0,1-.618-.465c-.053-.052-.106-.1-.16-.16a2.485,2.485,0,0,0-1.7-.926,3.433,3.433,0,0,0-1.086.148c-.354.094-.705.2-1.06.29a3.023,3.023,0,0,1-1.156.158,13.819,13.819,0,0,1-1.66-.41,2.944,2.944,0,0,0-1.766-.075,3.038,3.038,0,0,0-1.131.816,2.869,2.869,0,0,1-.776.624A6.7,6.7,0,0,1,176.941,297.436Zm-.361,4.45v-1.234h0a4.065,4.065,0,0,0,2.108-1.276c.132-.135.287-.34.48-.392a1.338,1.338,0,0,1,.626.1c.532.14,1.061.3,1.6.411a3.733,3.733,0,0,0,1.313.056,13.512,13.512,0,0,0,1.52-.363l.473-.125a2,2,0,0,1,.426-.092c.254-.008.437.239.6.4a4.081,4.081,0,0,0,2.111,1.276v1.234c0,2.011-2.052,4.6-4.306,5.438a3.982,3.982,0,0,1-1.093.262,3.5,3.5,0,0,1-1.552-.263c-.062-.023-.124-.047-.186-.073C178.519,306.346,176.581,303.842,176.581,301.885Zm8.483,8.028h0l-2.423,1.423-.033.02,0,0c-.39.252-.406.252-.8,0l-.031-.019-1.489-.874-.934-.548a2.83,2.83,0,0,0,.77-1c.049.02.1.041.15.06.066.025.132.048.2.071a5.324,5.324,0,0,0,1.741.313h0a5.486,5.486,0,0,0,1.936-.384c.051-.019.1-.04.151-.06A2.816,2.816,0,0,0,185.064,309.914Zm5.349,5.642H174v-1.362c0-2.152,1.176-2.9,3.167-3.511l3.281,1.927a1.357,1.357,0,0,0,.8.462,2.166,2.166,0,0,0,.959.244,2.077,2.077,0,0,0,.839-.19,3.466,3.466,0,0,0,.5-.274l2.542-1.492,1.155-.678a7.878,7.878,0,0,1,1.681.678,2.7,2.7,0,0,1,1.368,1.767,4.48,4.48,0,0,1,.117,1.068Z" transform="translate(0 0)" fill="#2bd899" stroke="#fff" stroke-width="0.4"/>
  </g>
  <g id="Elipse_286" data-name="Elipse 286" transform="translate(13.499 16.105)" fill="#fff" stroke="#2bd899" stroke-width="1.4">
    <circle cx="7" cy="7" r="7" stroke="none"/>
    <circle cx="7" cy="7" r="6.3" fill="none"/>
  </g>
  <g id="Grupo_10434" data-name="Grupo 10434" transform="translate(15.253 23.105) rotate(-45)">
    <g id="Grupo_845" data-name="Grupo 845">
      <path id="Trazado_784" data-name="Trazado 784" d="M7.13,3.42H4V.29a.29.29,0,1,0-.58,0V3.42H.29A.29.29,0,1,0,.29,4H3.42V7.13a.29.29,0,0,0,.58,0V4H7.13a.29.29,0,0,0,0-.58Z" fill="#2bd899" stroke="#2bd899" stroke-width="0.5"/>
    </g>
  </g>
</svg>
