<svg xmlns="http://www.w3.org/2000/svg" viewBox="0 0 21.61 28.16"><defs><style>.cls-1{fill:none;stroke:#2bd899;stroke-linecap:round;stroke-linejoin:round;stroke-width:1.3px;}</style></defs><g id="Capa_2" data-name="Capa 2"><g id="Capa_1-2" data-name="Capa 1"><line id="Línea_49" data-name="Línea 49" class="cls-1" x1="5.93" y1="22.41" x2="5.93" y2="27.51"/><path id="Trazado_654" data-name="Trazado 654" class="cls-1" d="M13.22,17.14l-.7.49a3,3,0,0,1-3.43,0l-.7-.49"/><line id="Línea_50" data-name="Línea 50" class="cls-1" x1="15.67" y1="22.41" x2="15.67" y2="27.51"/><path id="Trazado_655" data-name="Trazado 655" class="cls-1" d="M15.6,8c0,2.94-2.15,6.87-4.8,6.87S6,10.92,6,8"/><path id="Trazado_656" data-name="Trazado 656" class="cls-1" d="M5.26,7.81C8.19,7.81,10,5.06,10,5.06a9.75,9.75,0,0,0,6.6,2.75"/><path id="Trazado_657" data-name="Trazado 657" class="cls-1" d="M10.8,1.36C7.49-1.08,1.06,2.73,4.3,13.54,5.52,17.6.65,19.22.65,19.22s7.72,2.44,8.53-4.87"/><path id="Trazado_658" data-name="Trazado 658" class="cls-1" d="M10.8,1.36c3.32-2.44,9.74,1.37,6.5,12.18C16.09,17.6,21,19.22,21,19.22s-7.72,2.44-8.53-4.87"/><path id="Trazado_659" data-name="Trazado 659" class="cls-1" d="M3,19.61a5.27,5.27,0,0,0-.7,1.16,8.54,8.54,0,0,0-.64,3.53V26a1.5,1.5,0,0,0,1.5,1.5H18.42a1.5,1.5,0,0,0,1.5-1.5V24.3a8.54,8.54,0,0,0-.64-3.53,5.27,5.27,0,0,0-.7-1.16"/></g></g></svg>