<svg xmlns="http://www.w3.org/2000/svg" width="23.842" height="20.991" viewBox="0 0 23.842 20.991">
  <path id="Trazado_1483" data-name="Trazado 1483" d="M22.857,33.759H16.6v-.69A2.072,2.072,0,0,0,14.53,31H9.012a2.072,2.072,0,0,0-2.069,2.069v.69H.69a.691.691,0,0,0-.69.69V49.622a2.072,2.072,0,0,0,2.069,2.069h19.4a2.072,2.072,0,0,0,2.069-2.069V34.46A.67.67,0,0,0,22.857,33.759Zm-14.534-.69a.691.691,0,0,1,.69-.69H14.53a.691.691,0,0,1,.69.69v.69h-6.9ZM21.9,35.138l-2.142,6.425a.689.689,0,0,1-.654.472H15.22v-.69a.69.69,0,0,0-.69-.69H9.012a.69.69,0,0,0-.69.69v.69H4.443a.689.689,0,0,1-.654-.472L1.647,35.138Zm-8.055,6.9v1.379H9.7V42.035Zm8.323,7.587a.691.691,0,0,1-.69.69H2.069a.691.691,0,0,1-.69-.69V38.7L2.48,42a2.066,2.066,0,0,0,1.963,1.415h3.88v.69a.69.69,0,0,0,.69.69H14.53a.69.69,0,0,0,.69-.69v-.69H19.1A2.066,2.066,0,0,0,21.062,42l1.1-3.3Z" transform="translate(0.15 -30.85)" fill="#2bd899" stroke="#2bd899" stroke-width="0.3"/>
</svg>
